<?xml version="1.0" encoding="UTF-8"?>
<svg xmlns="http://www.w3.org/2000/svg" xmlns:cc="http://creativecommons.org/ns#" xmlns:dc="http://purl.org/dc/elements/1.1/" xmlns:inkscape="http://www.inkscape.org/namespaces/inkscape" xmlns:rdf="http://www.w3.org/1999/02/22-rdf-syntax-ns#" xmlns:sodipodi="http://sodipodi.sourceforge.net/DTD/sodipodi-0.dtd" xmlns:svg="http://www.w3.org/2000/svg" xmlns:xlink="http://www.w3.org/1999/xlink" height="128" id="svg5" viewBox="0 0 128 128" xml:space="preserve" sodipodi:docname="blobfox_3c_evil.svg" width="128" inkscape:version="1.2.1 (9c6d41e410, 2022-07-14)">
  <title id="title30762">blobfox_3c_evil</title>
  <sodipodi:namedview bordercolor="#ffffff" inkscape:showpageshadow="2" borderopacity="1" inkscape:cy="70.876686" inkscape:window-height="779" showgrid="false" id="namedview7" inkscape:window-y="0" inkscape:deskcolor="#505050" inkscape:document-units="px" inkscape:window-width="1536" pagecolor="#505050" inkscape:cx="56.319522" inkscape:window-maximized="1" inkscape:window-x="0" inkscape:pageshadow="0" inkscape:current-layer="layer2" inkscape:pageopacity="0" inkscape:pagecheckerboard="1" inkscape:zoom="4.1903765" units="px">
    <inkscape:grid type="xygrid" id="grid10"/>
  </sodipodi:namedview>
  <defs id="defs2"/>
  <g inkscape:groupmode="layer" style="display:none;" id="ref" inkscape:label="ref">
    <image y="0" inkscape:label="blobfox" x="0" id="blobfox" xlink:href="../original/blobfox.png" style="display:none;fill:#313131;fill-opacity:1;stroke:none;image-rendering:optimizeQuality;" height="127.99998866141777" preserveAspectRatio="none" width="127.99998866141777"/>
    <image preserveAspectRatio="none" xlink:href="../original/blobfox3cevil.png" x="0" height="127.99998866141777" id="blobfox3cevil" y="0" inkscape:label="blobfox3cevil" width="127.99998866141777" style="image-rendering:optimizeSpeed;"/>
  </g>
  <g inkscape:label="Base" inkscape:groupmode="layer" style="display:inline;" id="Base">
    <path style="display:inline;fill:#ff8702;fill-opacity:1;stroke:none;stroke-width: 0.9999987007874529px;stroke-linecap:butt;stroke-linejoin:miter;stroke-opacity:0.4501;" sodipodi:nodetypes="sccssssscs" inkscape:label="body" d="M 31.020137109443425,31.795851094651535 C 19.243009132164996,36.4709896822445 1.5274857981304806,58.454409037228 0,94.99841767722766 c 0,0 0.1455496005689134,8.031170707434224 2.203124700664382,14.332028412124867 5.666673414697898,6.493912185279049 20.789397102779642,15.325601916314886 40.376951733190886,17.794922134058186 18.881264138532913,2.3802783314851053 43.113329956168116,-0.4459124233892747 58.31444935769885,-3.8632817376660737 15.201126960585555,-3.417369314276799 22.82638776274064,-13.27958876852013 23.816408511165022,-15.80663748792766 0.9899980712599185,-2.527052498934941 0.10794330283687785,-7.720168514953997 -0.5586028126534327,-9.939454096871888 -0.8118500467775573,-2.7030802085401495 -2.058598974070907,-6.277704319775421 -0.3984302205342433,-11.14843420675456 C 125.4140624640133,81.4968308072114 128.941291301524,61.74966560040687 121.43968151812278,47.67004536732106 106.80734697608871,18.185110339168887 61.32889081382321,19.764256985659177 31.020137109443425,31.795851094651535 Z " id="body"/>
    <path style="fill:#313131;fill-opacity:1;stroke:none;stroke-width: 0.9999987007874529px;stroke-linecap:butt;stroke-linejoin:miter;stroke-opacity:1;" id="left-ear" d="M 16.30383280693572,44.518346593765884 C 7.49794250795502,24.14954210434874 8.108201255582628,4.557852670950683 9.997633118203423,1.957147500899705 11.486396902110359,-0.09205855385596245 12.48811604377496,-0.594763176584127 14.929939065750432,0.7578227985109136 17.812417944392998,2.3544991576968837 29.030852778312887,13.344593238401844 43.69938725592964,23.088191846921582 50.0421561400726,27.30138601175646 35.00931301538138,26.045871226540505 42.99999704724422,28.999998606299272 29.02817006975709,29.950787860205207 23.513666475839905,36.39554955923033 16.30383280693572,44.518346593765884 Z " sodipodi:nodetypes="cssscc" inkscape:label="left-ear"/>
    <path style="display:inline;fill:#ff8702;fill-opacity:1;stroke:none;stroke-width: 0.9999987007874529px;stroke-linecap:butt;stroke-linejoin:miter;stroke-opacity:0.4501;" d="M 42.99999704724422,10.998424763841546 C 46.45958746222097,18.0251524242066 47.49165167355703,19.122313325893177 52.99999539370098,25.998424173290392 43.999999527559076,20.998424244156528 34.53124777436033,23.578502378799122 30.53124919168311,25.578502048090474 38.36616415881244,27.06333512349075 39.493956240395434,27.733221963258984 42.99999704724422,28.99842405518016 54.66000918661382,33.20609481865769 65.22610136905114,37.91102968854214 75.25683105288068,32.05170242316133 80.16309227704362,29.18577182733182 89.54933694687652,23.197992787480604 85.00390342504319,20.869518548444155 79.03246932943036,17.81055085785233 74.97847641817023,15.244907494294981 70.80077579524506,13.473033674290015 71.1837968825277,16.17076774130836 71.96815464692307,18.23181962866852 72.88280783925954,21.410533330293966 65.40327427546165,16.44674354146679 57.07394798921465,12.525562845450283 42.99999704724422,10.998424763841546 Z " inkscape:label="hair" sodipodi:nodetypes="cccsssccc" id="hair"/>
    <path inkscape:label="right-ear-fluff" id="right-ear-fluff" style="display:inline;fill:#ebdccc;fill-opacity:1;stroke:none;stroke-width: 0.9999987007874529px;stroke-linecap:butt;stroke-linejoin:miter;stroke-opacity:1;" sodipodi:nodetypes="sscccccs" d="m 120.453784234103,3.3689521319310187 c 9.39191018142086,0.23127192790268003 2.5106077751729226,28.603620215605506 -1.9260887430673728,34.58246558651711 -4.436700297767706,5.978849528391751 -3.1428697975248117,16.04735558868679 -5.120001058267675,16.64597603756 -2.6745598947023668,-3.120094365350616 -2.6751003671220333,-9.811093786964813 -2.7120036727557615,-15.685462059627481 -2.8725579971433866,1.2924434136833305 -7.898777641780409,2.803914220318338 -12.313734318356918,1.5465032462006598 1.0869618469700062,-2.9710487019272165 2.469244627195094,-7.420326133058027 3.586718598948087,-10.99447893722524 -1.819128117357161,0.7077886965437522 -5.911691105838933,1.673076595548166 -10.791869811343709,2.2785663354895145 4.3746328986365,-8.82208217235897 19.88506882342249,-28.604842212407792 29.27697900484335,-28.373570208914565 z "/>
    <path style="fill:#313131;fill-opacity:1;stroke:none;stroke-width: 0.9999987007874529px;stroke-linecap:butt;stroke-linejoin:miter;stroke-opacity:0.4501;" d="M 122.1347592860331 0.5214843385242387 C 121.64922229727472 0.5053683580563639 121.12308562507538 0.5312054719997846 120.55272848217605 0.6015624708046272 C 111.42705955011577 1.7272745272726566 92.63831068353109 9.076875611146631 77.49804545283286 30.005858220241805 C 79.76618520605571 31.34933810435677 82.27111235153102 32.12212257786919 84.74999477362226 32.384764205324245 C 85.64606402968253 32.41875992052127 86.57123564680175 32.37306392232032 87.53124694758871 32.24218606920528 C 88.76118075743383 32.07451035927125 90.14356558489901 31.896114019838038 91.59374757504932 31.689451728761746 C 95.15389987583073 30.479514642538795 97.9683325209318 27.920908759019344 98.86522949349492 24.070311493294827 C 100.84046721100523 15.590169968890947 105.5106326964318 12.709839373628371 109.09374562623051 9.179687071665864 C 112.67686233555662 5.6495355256088375 121.75296654515883 1.9256169068654765 123.31835608982851 4.638671817375126 C 124.88374185497081 7.3517258207981975 123.59129088223267 21.614014771101786 122.15819991503152 26.88867068942242 C 118.76168225347709 36.32520423916519 112.83219713259068 42.082203067629806 113.1914034176613 52.222652432179046 C 113.2224371172269 53.098792240205036 113.2444831006109 53.918537719742616 113.38866829178473 54.61132509404233 C 113.58618261471723 54.87253579241986 113.79950292127943 55.12571877457801 114.0292906287681 55.367185221764366 C 116.85034878541936 58.33163108930587 118.89040917754296 54.68397516992225 120.19726014971418 51.27538947734688 C 120.59132501608957 50.22914069964014 120.99241602392064 49.10963712166784 121.43944718742334 47.67187465858762 C 125.18595286669479 35.62221214085779 127.27403215456567 20.362332048727087 127.44335498254509 13.554686962413902 C 127.52622868006975 10.222723251073889 129.41784813315562 0.7632244234951016 122.1347592860331 0.5214843385242387 z " inkscape:label="right-ear" id="right-ear"/>
    <path style="display:inline;fill:#ff8702;fill-opacity:1;stroke:#313131;stroke-width: 4.200453377934907;stroke-linecap:round;stroke-opacity:1;" d="m 13.209085842161976,104.72051493226321 c 7.286374768252963,-5.149039167360663 12.26784594221079,-10.085347634435134 16.303949594332696,-10.026776298158415 3.871209674361825,0.056201572590489274 7.975764725363594,3.7923664648674626 7.85252378533371,8.450751163356253 -0.1232163731017176,4.657439816636228 -2.875115603341906,11.091000508228328 -10.35037489959154,15.43553325056956 " id="left-hand" inkscape:label="left-hand" sodipodi:nodetypes="cssc"/>
  </g>
  <g inkscape:label="Features" id="Features" inkscape:groupmode="layer">
    <path d="M 31.714842593903843 46.87890335122429 C 29.737797884338672 48.655757454497746 28.154763993906933 51.33423671912455 27.78906145712357 54.51757769615837 C 27.2826626109188 58.92562917615634 30.57988490630375 62.7832680793989 34.027342282388105 62.8085909130476 C 38.212201330228304 62.83921642365291 41.1007958621734 60.006082676925885 42.49804557094309 56.154294482114395 L 31.714842593903843 46.87890335122429 z " inkscape:label="left-eye" id="left-eye" style="fill:#313131;fill-opacity:1;stroke:none;stroke-width: 1.0015747637175292;stroke-linecap:butt;stroke-linejoin:miter;stroke-miterlimit:4;stroke-dasharray:none;stroke-opacity:0.46432;"/>
    <path d="M 88.96288657626432 54.539060529958256 L 73.6367177308379 61.94530905727131 C 73.81230323573611 65.9963425985692 77.10175066528542 69.86541457222778 80.26757353277272 69.88867000438309 C 85.9498170885899 69.9302523649507 89.61961347954278 65.59991552756239 90.04882417130615 59.054684919106904 C 90.149019442952 57.52679206587433 89.73369095536651 55.93332819160126 88.96288657626432 54.539060529958256 z " id="right-eye" inkscape:label="right-eye" style="fill:#313131;fill-opacity:1;stroke:none;stroke-width: 0.9999987007874529px;stroke-linecap:butt;stroke-linejoin:miter;stroke-opacity:0.46432;"/>
    <path d="M 33.65228012392598,80.15315967900948 C 31.806569834387016,76.34655573438758 31.77972422914472,72.60797950362286 34.17994523701003,70.09703535051042 36.58016624487534,67.58609119739799 40.56397068645786,64.19571904741264 40.79045508698996,57.58131552829467 " style="fill:none;fill-opacity:1;stroke:#313131;stroke-width: 4.403149432946873;stroke-linecap:round;stroke-linejoin:miter;stroke-miterlimit:4;stroke-dasharray:none;stroke-opacity:1;" sodipodi:nodetypes="csc" inkscape:label="nose-outline" id="nose-outline"/>
    <path inkscape:label="nose" sodipodi:nodetypes="ssss" d="m 40.34966392324158,72.47314864278943 c 3.6117579680410254,-1.9703167728221747 14.54861800989693,-2.6692950130198816 17.07116531215885,2.575800843472408 0.4033398266401644,0.8386544551710846 -6.115736452136361,7.143990899842878 -10.106864483981715,7.1351354671206515 -3.859048666966588,-0.008692913043586102 -7.870185516921832,-9.2167479835926 -6.964300828177134,-9.710936310593059 z " style="fill:#313131;fill-opacity:1;stroke:none;stroke-width: 0.9999987007874529px;stroke-linecap:butt;stroke-linejoin:miter;stroke-opacity:1;" id="nose"/>
    <path inkscape:label="mouth" sodipodi:nodetypes="ccccc" style="fill:none;stroke:#313131;stroke-width: 4.403149432946873;stroke-linecap:round;stroke-linejoin:round;stroke-miterlimit:4;stroke-dasharray:none;stroke-opacity:1;" id="mouth" d="m 30.329986333465108,85.46643443045535 c 2.0735054301769518,6.37497801673315 4.0205784873788,10.401678960563823 5.959242851998313,12.940500907854297 3.7507440413092903,-3.1310436562581243 8.538974403977388,-7.475595296236407 10.4367355891049,-9.37381380418056 2.9622008282598102,4.818455243367905 7.01734649538006,10.375135339561602 8.671615406629316,12.64569776985442 4.859077603973323,-3.873206776645403 9.51886072760391,-7.995560000174804 11.435750100954722,-10.16286574161946 "/>
  </g>
  <metadata id="metadata30760">
    <rdf:RDF>
      <cc:Work rdf:about="">
        <dc:rights>
          <cc:Agent>
            <dc:title>Blobfox team (https://git.shadamethyst.xyz/adri326/blobfox), licensed under the Apache 2.0 License</dc:title>
          </cc:Agent>
        </dc:rights>
        <dc:title>blobfox_3c_evil</dc:title>
        <dc:creator>
          <cc:Agent>
            <dc:title>Feuerfuchs</dc:title>
          </cc:Agent>
        </dc:creator>
        <dc:source>https://git.shadamethyst.xyz/adri326/blobfox</dc:source>
        <dc:contributor>
          <cc:Agent>
            <dc:title>Shad Amethyst</dc:title>
          </cc:Agent>
        </dc:contributor>
      </cc:Work>
    </rdf:RDF>
  </metadata>
</svg>
