<?xml version="1.0" encoding="UTF-8"?>
<svg xmlns="http://www.w3.org/2000/svg" xmlns:cc="http://creativecommons.org/ns#" xmlns:dc="http://purl.org/dc/elements/1.1/" xmlns:inkscape="http://www.inkscape.org/namespaces/inkscape" xmlns:rdf="http://www.w3.org/1999/02/22-rdf-syntax-ns#" xmlns:sodipodi="http://sodipodi.sourceforge.net/DTD/sodipodi-0.dtd" xmlns:svg="http://www.w3.org/2000/svg" xmlns:xlink="http://www.w3.org/1999/xlink" inkscape:version="1.2.1 (9c6d41e410, 2022-07-14)" viewBox="0 0 128 128" sodipodi:docname="blobfox.svg" id="svg5" width="128" height="128">
  <title id="title30762">blobfox</title>
  <sodipodi:namedview inkscape:window-width="1536" inkscape:pageshadow="0" inkscape:window-x="0" inkscape:cx="-8.4983571" inkscape:window-height="779" inkscape:current-layer="layer1" inkscape:window-maximized="1" borderopacity="1" inkscape:window-y="0" inkscape:zoom="4.1184431" inkscape:pageopacity="0" id="namedview7" pagecolor="#505050" inkscape:cy="56.331967" inkscape:document-units="px" showgrid="false" inkscape:deskcolor="#505050" bordercolor="#ffffff" inkscape:showpageshadow="2" units="px" inkscape:pagecheckerboard="1">
    <inkscape:grid type="xygrid" id="grid10"/>
  </sodipodi:namedview>
  <defs id="defs2"/>
  <g style="display:none;" inkscape:groupmode="layer" id="ref" inkscape:label="ref">
    <image height="127.99998866141777" id="blobfox" inkscape:label="blobfox" y="0" width="127.99998866141777" x="0" style="display:inline;fill:#313131;fill-opacity:1;stroke:none;image-rendering:optimizeQuality;" preserveAspectRatio="none" xlink:href="../original/blobfox.png"/>
  </g>
  <g inkscape:groupmode="layer" style="display:inline;" id="Base" inkscape:label="Base">
    <path style="display:inline;fill:#ff8702;fill-opacity:1;stroke:none;stroke-width: 0.9999987007874529px;stroke-linecap:butt;stroke-linejoin:miter;stroke-opacity:0.4501;" d="M 31.020137109443425,31.795851094651535 C 19.243009132164996,36.4709896822445 1.5274857981304806,58.454409037228 0,94.99841767722766 c 0,0 0.1455496005689134,8.031170707434224 2.203124700664382,14.332028412124867 5.666673414697898,6.493912185279049 20.789397102779642,15.325601916314886 40.376951733190886,17.794922134058186 18.881264138532913,2.3802783314851053 43.113329956168116,-0.4459124233892747 58.31444935769885,-3.8632817376660737 15.201126960585555,-3.417369314276799 22.82638776274064,-13.27958876852013 23.816408511165022,-15.80663748792766 0.9899980712599185,-2.527052498934941 0.10794330283687785,-7.720168514953997 -0.5586028126534327,-9.939454096871888 -0.8118500467775573,-2.7030802085401495 -2.058598974070907,-6.277704319775421 -0.3984302205342433,-11.14843420675456 C 125.4140624640133,81.4968308072114 128.941291301524,61.74966560040687 121.43968151812278,47.67004536732106 106.80734697608871,18.185110339168887 61.32889081382321,19.764256985659177 31.020137109443425,31.795851094651535 Z " sodipodi:nodetypes="sccssssscs" inkscape:label="body" id="body"/>
    <path inkscape:label="left-ear" sodipodi:nodetypes="cssscc" d="M 16.30383280693572,44.518346593765884 C 7.49794250795502,24.14954210434874 8.108201255582628,4.557852670950683 9.997633118203423,1.957147500899705 11.486396902110359,-0.09205855385596245 12.48811604377496,-0.594763176584127 14.929939065750432,0.7578227985109136 17.812417944392998,2.3544991576968837 29.030852778312887,13.344593238401844 43.69938725592964,23.088191846921582 50.0421561400726,27.30138601175646 35.00931301538138,26.045871226540505 42.99999704724422,28.999998606299272 29.02817006975709,29.950787860205207 23.513666475839905,36.39554955923033 16.30383280693572,44.518346593765884 Z " style="fill:#313131;fill-opacity:1;stroke:none;stroke-width: 0.9999987007874529px;stroke-linecap:butt;stroke-linejoin:miter;stroke-opacity:1;" id="left-ear"/>
    <path inkscape:label="hair" id="hair" sodipodi:nodetypes="cccsssccc" d="M 42.99999704724422,10.998424763841546 C 46.45958746222097,18.0251524242066 47.49165167355703,19.122313325893177 52.99999539370098,25.998424173290392 43.999999527559076,20.998424244156528 34.53124777436033,23.578502378799122 30.53124919168311,25.578502048090474 38.36616415881244,27.06333512349075 39.493956240395434,27.733221963258984 42.99999704724422,28.99842405518016 54.66000918661382,33.20609481865769 65.22610136905114,37.91102968854214 75.25683105288068,32.05170242316133 80.16309227704362,29.18577182733182 89.54933694687652,23.197992787480604 85.00390342504319,20.869518548444155 79.03246932943036,17.81055085785233 74.97847641817023,15.244907494294981 70.80077579524506,13.473033674290015 71.1837968825277,16.17076774130836 71.96815464692307,18.23181962866852 72.88280783925954,21.410533330293966 65.40327427546165,16.44674354146679 57.07394798921465,12.525562845450283 42.99999704724422,10.998424763841546 Z " style="display:inline;fill:#ff8702;fill-opacity:1;stroke:none;stroke-width: 0.9999987007874529px;stroke-linecap:butt;stroke-linejoin:miter;stroke-opacity:0.4501;"/>
    <path inkscape:label="right-ear-fluff" sodipodi:nodetypes="sscccccs" d="m 120.453784234103,3.3689521319310187 c 9.39191018142086,0.23127192790268003 2.5106077751729226,28.603620215605506 -1.9260887430673728,34.58246558651711 -4.436700297767706,5.978849528391751 -3.1428697975248117,16.04735558868679 -5.120001058267675,16.64597603756 -2.6745598947023668,-3.120094365350616 -2.6751003671220333,-9.811093786964813 -2.7120036727557615,-15.685462059627481 -2.8725579971433866,1.2924434136833305 -7.898777641780409,2.803914220318338 -12.313734318356918,1.5465032462006598 1.0869618469700062,-2.9710487019272165 2.469244627195094,-7.420326133058027 3.586718598948087,-10.99447893722524 -1.819128117357161,0.7077886965437522 -5.911691105838933,1.673076595548166 -10.791869811343709,2.2785663354895145 4.3746328986365,-8.82208217235897 19.88506882342249,-28.604842212407792 29.27697900484335,-28.373570208914565 z " id="right-ear-fluff" style="display:inline;fill:#ebdccc;fill-opacity:1;stroke:none;stroke-width: 0.9999987007874529px;stroke-linecap:butt;stroke-linejoin:miter;stroke-opacity:1;"/>
    <path inkscape:label="right-ear" id="right-ear" d="M 122.1347592860331 0.5214843385242387 C 121.64922229727472 0.5053683580563639 121.12308562507538 0.5312054719997846 120.55272848217605 0.6015624708046272 C 111.42705955011577 1.7272745272726566 92.63831068353109 9.076875611146631 77.49804545283286 30.005858220241805 C 79.76618520605571 31.34933810435677 82.27111235153102 32.12212257786919 84.74999477362226 32.384764205324245 C 85.64606402968253 32.41875992052127 86.57123564680175 32.37306392232032 87.53124694758871 32.24218606920528 C 88.76118075743383 32.07451035927125 90.14356558489901 31.896114019838038 91.59374757504932 31.689451728761746 C 95.15389987583073 30.479514642538795 97.9683325209318 27.920908759019344 98.86522949349492 24.070311493294827 C 100.84046721100523 15.590169968890947 105.5106326964318 12.709839373628371 109.09374562623051 9.179687071665864 C 112.67686233555662 5.6495355256088375 121.75296654515883 1.9256169068654765 123.31835608982851 4.638671817375126 C 124.88374185497081 7.3517258207981975 123.59129088223267 21.614014771101786 122.15819991503152 26.88867068942242 C 118.76168225347709 36.32520423916519 112.83219713259068 42.082203067629806 113.1914034176613 52.222652432179046 C 113.2224371172269 53.098792240205036 113.2444831006109 53.918537719742616 113.38866829178473 54.61132509404233 C 113.58618261471723 54.87253579241986 113.79950292127943 55.12571877457801 114.0292906287681 55.367185221764366 C 116.85034878541936 58.33163108930587 118.89040917754296 54.68397516992225 120.19726014971418 51.27538947734688 C 120.59132501608957 50.22914069964014 120.99241602392064 49.10963712166784 121.43944718742334 47.67187465858762 C 125.18595286669479 35.62221214085779 127.27403215456567 20.362332048727087 127.44335498254509 13.554686962413902 C 127.52622868006975 10.222723251073889 129.41784813315562 0.7632244234951016 122.1347592860331 0.5214843385242387 z " style="fill:#313131;fill-opacity:1;stroke:none;stroke-width: 0.9999987007874529px;stroke-linecap:butt;stroke-linejoin:miter;stroke-opacity:0.4501;"/>
  </g>
  <g inkscape:groupmode="layer" id="Features" inkscape:label="Features">
    <path style="fill:#313131;fill-opacity:1;stroke:none;stroke-width: 1.0015747637175292;stroke-linecap:butt;stroke-linejoin:miter;stroke-miterlimit:4;stroke-dasharray:none;stroke-opacity:0.46432;" sodipodi:nodetypes="sssss" d="m 27.790028638187852,54.518416751243436 c 0.6795257685226077,-5.915081341925932 5.559595245685228,-10.090060705115722 9.367468733564223,-9.96827299337508 3.961508253483928,0.1266897587917418 6.467463430414826,4.183022197518811 6.25869367485458,7.163353418765615 -0.413242188455032,5.899286696878478 -3.706945365868293,11.13713719932531 -9.389191945307406,11.095554838757685 -3.447460777659025,-0.02532283364870734 -6.743369687268911,-3.882576225095425 -6.236970463111399,-8.290635264148218 z " inkscape:label="left-eye" id="left-eye"/>
    <path sodipodi:nodetypes="sssss" d="m 73.66655332021445,60.86205114716335 c 0.6795250126171256,-6.822349337702783 5.574969229331921,-10.542443679431353 9.382843095163658,-10.420655967690712 3.9615116550585965,0.1266897587917418 7.263779241583495,4.59354690576587 7.000225236211606,8.612605645173007 -0.42921069176335863,6.54523816751031 -4.10038283069359,10.875412485219982 -9.782630166038183,10.833830124652359 -3.447461911517248,-0.02532283364870734 -7.040205077157282,-4.610577456276478 -6.600438165337081,-9.025779802134656 z " inkscape:label="right-eye" style="fill:#313131;fill-opacity:1;stroke:none;stroke-width: 0.9999987007874529px;stroke-linecap:butt;stroke-linejoin:miter;stroke-opacity:0.46432;" id="right-eye"/>
    <path inkscape:label="nose-outline" sodipodi:nodetypes="csc" style="fill:none;fill-opacity:1;stroke:#313131;stroke-width: 4.403149432946873;stroke-linecap:round;stroke-linejoin:miter;stroke-miterlimit:4;stroke-dasharray:none;stroke-opacity:1;" d="M 33.65228012392598,80.15315967900948 C 31.806569834387016,76.34655573438758 31.77972422914472,72.60797950362286 34.17994523701003,70.09703535051042 36.58016624487534,67.58609119739799 41.88212622511315,64.24552565962499 41.54241852195203,52.43065494367501 " id="nose-outline"/>
    <path sodipodi:nodetypes="ssss" id="nose" inkscape:label="nose" style="fill:#313131;fill-opacity:1;stroke:none;stroke-width: 0.9999987007874529px;stroke-linecap:butt;stroke-linejoin:miter;stroke-opacity:1;" d="m 40.34966392324158,72.47314864278943 c 3.6117579680410254,-1.9703167728221747 14.54861800989693,-2.6692950130198816 17.07116531215885,2.575800843472408 0.4033398266401644,0.8386544551710846 -6.115736452136361,7.143990899842878 -10.106864483981715,7.1351354671206515 -3.859048666966588,-0.008692913043586102 -7.870185516921832,-9.2167479835926 -6.964300828177134,-9.710936310593059 z "/>
    <path style="fill:none;stroke:#313131;stroke-width: 4.403149432946873;stroke-linecap:round;stroke-linejoin:round;stroke-miterlimit:4;stroke-dasharray:none;stroke-opacity:1;" sodipodi:nodetypes="ccccc" inkscape:label="mouth" d="m 30.329986333465108,85.46643443045535 c 2.0735054301769518,6.37497801673315 4.0205784873788,10.401678960563823 5.959242851998313,12.940500907854297 3.7507440413092903,-3.1310436562581243 8.538974403977388,-7.475595296236407 10.4367355891049,-9.37381380418056 2.9622008282598102,4.818455243367905 7.01734649538006,10.375135339561602 8.671615406629316,12.64569776985442 4.859077603973323,-3.873206776645403 9.51886072760391,-7.995560000174804 11.435750100954722,-10.16286574161946 " id="mouth"/>
  </g>
  <metadata id="metadata30760">
    <rdf:RDF>
      <cc:Work rdf:about="">
        <dc:rights>
          <cc:Agent>
            <dc:title>Blobfox team (https://git.shadamethyst.xyz/adri326/blobfox), licensed under the Apache 2.0 License</dc:title>
          </cc:Agent>
        </dc:rights>
        <dc:title>blobfox</dc:title>
        <dc:creator>
          <cc:Agent>
            <dc:title>Feuerfuchs</dc:title>
          </cc:Agent>
        </dc:creator>
        <dc:source>https://git.shadamethyst.xyz/adri326/blobfox</dc:source>
        <dc:contributor>
          <cc:Agent>
            <dc:title>Shad Amethyst</dc:title>
          </cc:Agent>
        </dc:contributor>
      </cc:Work>
    </rdf:RDF>
  </metadata>
</svg>
