<?xml version="1.0" encoding="UTF-8"?>
<svg xmlns="http://www.w3.org/2000/svg" xmlns:cc="http://creativecommons.org/ns#" xmlns:dc="http://purl.org/dc/elements/1.1/" xmlns:inkscape="http://www.inkscape.org/namespaces/inkscape" xmlns:rdf="http://www.w3.org/1999/02/22-rdf-syntax-ns#" xmlns:sodipodi="http://sodipodi.sourceforge.net/DTD/sodipodi-0.dtd" xmlns:svg="http://www.w3.org/2000/svg" xmlns:xlink="http://www.w3.org/1999/xlink" height="128" inkscape:version="1.1" sodipodi:docname="blobfox.svg" id="svg5" viewBox="0 0 128 128" width="128">
  <title id="title30762">blobfox</title>
  <sodipodi:namedview inkscape:pagecheckerboard="1" inkscape:showpageshadow="2" inkscape:pageopacity="0" inkscape:window-height="779" showgrid="false" borderopacity="1" inkscape:window-width="1536" inkscape:cy="53.327241" inkscape:window-y="0" inkscape:current-layer="layer1" inkscape:window-x="0" pagecolor="#505050" inkscape:cx="37.728116" units="px" inkscape:window-maximized="1" id="namedview7" inkscape:document-units="px" inkscape:pageshadow="0" inkscape:deskcolor="#505050" inkscape:zoom="5.5131298" bordercolor="#ffffff">
    <inkscape:grid id="grid10" type="xygrid"/>
  </sodipodi:namedview>
  <defs id="defs2"/>
  <g style="display:none" inkscape:groupmode="layer" inkscape:label="ref" id="ref">
    <image y="0" preserveAspectRatio="none" width="127.99999" xlink:href="../original/blobfox.png" style="display:inline;fill:#313131;fill-opacity:1;stroke:none;image-rendering:optimizeQuality" inkscape:label="blobfox" id="blobfox" x="0" height="127.99999"/>
  </g>
  <g inkscape:label="Base" inkscape:groupmode="layer" style="display:inline;" id="Base">
    <path id="left-ear" sodipodi:nodetypes="cssscc" d="M 16.30383280693572,44.518346593765884 C 7.49794250795502,24.14954210434874 8.108201255582628,4.557852670950683 9.997633118203423,1.957147500899705 11.486396902110359,-0.09205855385596245 12.48811604377496,-0.594763176584127 14.929939065750432,0.7578227985109136 17.812417944392998,2.3544991576968837 29.030852778312887,13.344593238401844 43.69938725592964,23.088191846921582 50.0421561400726,27.30138601175646 35.00931301538138,26.045871226540505 42.99999704724422,28.999998606299272 29.02817006975709,29.950787860205207 23.513666475839905,36.39554955923033 16.30383280693572,44.518346593765884 Z " inkscape:label="left-ear" style="fill:#313131;fill-opacity:1;stroke:none;stroke-width: 0.9999987007874529px;stroke-linecap:butt;stroke-linejoin:miter;stroke-opacity:1;"/>
    <path d="M 31.020137109443425,31.795851094651535 C 19.243009132164996,36.4709896822445 1.5274857981304806,58.454409037228 0,94.99841767722766 c 0,0 0.1455496005689134,8.031170707434224 2.203124700664382,14.332028412124867 5.666673414697898,6.493912185279049 20.789397102779642,15.325601916314886 40.376951733190886,17.794922134058186 18.881264138532913,2.3802783314851053 43.113329956168116,-0.4459124233892747 58.31444935769885,-3.8632817376660737 15.201126960585555,-3.417369314276799 22.82638776274064,-13.27958876852013 23.816408511165022,-15.80663748792766 0.9899980712599185,-2.527052498934941 0.10794330283687785,-7.720168514953997 -0.5586028126534327,-9.939454096871888 -0.8118500467775573,-2.7030802085401495 -2.058598974070907,-6.277704319775421 -0.3984302205342433,-11.14843420675456 C 125.4140624640133,81.4968308072114 128.941291301524,61.74966560040687 121.43968151812278,47.67004536732106 106.80734697608871,18.185110339168887 61.32889081382321,19.764256985659177 31.020137109443425,31.795851094651535 Z " style="display:inline;fill:#ff8702;fill-opacity:1;stroke:none;stroke-width: 0.9999987007874529px;stroke-linecap:butt;stroke-linejoin:miter;stroke-opacity:0.4501;" id="body" sodipodi:nodetypes="sccssssscs" inkscape:label="body"/>
    <path id="hair" sodipodi:nodetypes="cccsssccc" style="display:inline;fill:#ff8702;fill-opacity:1;stroke:none;stroke-width: 0.9999987007874529px;stroke-linecap:butt;stroke-linejoin:miter;stroke-opacity:0.4501;" d="M 42.99999704724422,10.998424763841546 C 46.45958746222097,18.0251524242066 47.49165167355703,19.122313325893177 52.99999539370098,25.998424173290392 43.999999527559076,20.998424244156528 34.53124777436033,23.578502378799122 30.53124919168311,25.578502048090474 38.36616415881244,27.06333512349075 39.493956240395434,27.733221963258984 42.99999704724422,28.99842405518016 54.66000918661382,33.20609481865769 65.22610136905114,37.91102968854214 75.25683105288068,32.05170242316133 80.16309227704362,29.18577182733182 89.54933694687652,23.197992787480604 85.00390342504319,20.869518548444155 79.03246932943036,17.81055085785233 74.97847641817023,15.244907494294981 70.80077579524506,13.473033674290015 71.1837968825277,16.17076774130836 71.96815464692307,18.23181962866852 72.88280783925954,21.410533330293966 65.40327427546165,16.44674354146679 57.07394798921465,12.525562845450283 42.99999704724422,10.998424763841546 Z " inkscape:label="hair"/>
    <path style="fill:#313131;fill-opacity:1;stroke:none;stroke-width:0.999999px;stroke-linecap:butt;stroke-linejoin:miter;stroke-opacity:0.4501" d="M 120.55273,0.60156244 C 111.49933,2.2081032 92.638311,9.0768756 77.498045,30.005858 c 3.348858,1.754226 6.434093,2.629871 10.033202,2.236328 1.233956,-0.134926 2.627013,-0.260996 4.062501,-0.552734 8.413692,-1.709935 21.259262,-17.374059 26.635822,-22.8554448 1.00114,9.5497778 -12.27923,37.6493438 -4.20028,46.5331778 3.27823,3.604628 6.48404,-4.729898 7.41016,-7.69531 3.7465,-12.049663 5.85232,-27.309125 6.0039,-34.117188 0.0598,-2.686778 1.92218,-14.51696903 -6.89062,-12.95312456 z" sodipodi:nodetypes="scsscccss" id="right-ear" inkscape:label="right-ear"/>
    <path d="M 120.93945 3.7070312 C 117.93617 3.7676633 113.05282 5.950531 110.11328 8.2929688 C 109.95628 8.4209961 109.79975 8.5519087 109.64258 8.6835938 C 109.45202 8.8490842 109.26155 9.0143659 109.09375 9.1796875 C 107.99053 10.266605 106.78488 11.306996 105.58594 12.453125 C 104.81311 13.234497 104.05093 14.040022 103.29883 14.867188 C 101.46858 17.074524 99.838862 19.890307 98.865234 24.070312 C 97.969532 27.91578 95.160847 30.471683 91.607422 31.683594 C 96.293888 31.075867 100.20424 30.15138 101.96875 29.464844 C 100.85128 33.038993 99.469773 37.487939 98.382812 40.458984 C 102.79776 41.716394 107.82276 40.204551 110.69531 38.912109 C 110.73208 44.764886 110.73567 51.425833 113.38086 54.560547 C 113.24554 53.878185 113.22172 53.078336 113.19141 52.222656 C 112.8322 42.082217 118.76169 36.325196 122.1582 26.888672 C 123.54353 21.789805 124.79684 8.2939351 123.46484 4.9492188 C 123.13279 4.5031417 122.74519 4.1428245 122.29883 3.8789062 C 121.91339 3.7535033 121.45668 3.6965892 120.93945 3.7070312 z " inkscape:label="right-ear-fluff" id="right-ear-fluff" style="display:inline;fill:#ebdccc;fill-opacity:1;stroke:none;stroke-width: 0.9999987007874529px;stroke-linecap:butt;stroke-linejoin:miter;stroke-opacity:1;"/>
  </g>
  <g inkscape:groupmode="layer" inkscape:label="Features" id="Features">
    <path id="left-eye" inkscape:label="left-eye" style="fill:#313131;fill-opacity:1;stroke:none;stroke-width: 1.0015747637175292;stroke-linecap:butt;stroke-linejoin:miter;stroke-miterlimit:4;stroke-dasharray:none;stroke-opacity:0.46432;" d="m 27.790028638187852,54.518416751243436 c 0.6795257685226077,-5.915081341925932 5.559595245685228,-10.090060705115722 9.367468733564223,-9.96827299337508 3.961508253483928,0.1266897587917418 6.467463430414826,4.183022197518811 6.25869367485458,7.163353418765615 -0.413242188455032,5.899286696878478 -3.706945365868293,11.13713719932531 -9.389191945307406,11.095554838757685 -3.447460777659025,-0.02532283364870734 -6.743369687268911,-3.882576225095425 -6.236970463111399,-8.290635264148218 z " sodipodi:nodetypes="sssss"/>
    <path id="right-eye" inkscape:label="right-eye" sodipodi:nodetypes="sssss" style="fill:#313131;fill-opacity:1;stroke:none;stroke-width: 0.9999987007874529px;stroke-linecap:butt;stroke-linejoin:miter;stroke-opacity:0.46432;" d="m 73.66655332021445,60.86205114716335 c 0.6795250126171256,-6.822349337702783 5.574969229331921,-10.542443679431353 9.382843095163658,-10.420655967690712 3.9615116550585965,0.1266897587917418 7.263779241583495,4.59354690576587 7.000225236211606,8.612605645173007 -0.42921069176335863,6.54523816751031 -4.10038283069359,10.875412485219982 -9.782630166038183,10.833830124652359 -3.447461911517248,-0.02532283364870734 -7.040205077157282,-4.610577456276478 -6.600438165337081,-9.025779802134656 z "/>
    <path sodipodi:nodetypes="csc" style="fill:none;fill-opacity:1;stroke:#313131;stroke-width: 4.403149432946873;stroke-linecap:round;stroke-linejoin:miter;stroke-miterlimit:4;stroke-dasharray:none;stroke-opacity:1;" d="M 33.65228012392598,80.15315967900948 C 31.806569834387016,76.34655573438758 31.77972422914472,72.60797950362286 34.17994523701003,70.09703535051042 36.58016624487534,67.58609119739799 41.88212622511315,64.24552565962499 41.54241852195203,52.43065494367501 " inkscape:label="nose-outline" id="nose-outline"/>
    <path id="nose" style="fill:#313131;fill-opacity:1;stroke:none;stroke-width: 0.9999987007874529px;stroke-linecap:butt;stroke-linejoin:miter;stroke-opacity:1;" sodipodi:nodetypes="ssss" d="m 40.34966392324158,72.47314864278943 c 3.6117579680410254,-1.9703167728221747 14.54861800989693,-2.6692950130198816 17.07116531215885,2.575800843472408 0.4033398266401644,0.8386544551710846 -6.115736452136361,7.143990899842878 -10.106864483981715,7.1351354671206515 -3.859048666966588,-0.008692913043586102 -7.870185516921832,-9.2167479835926 -6.964300828177134,-9.710936310593059 z " inkscape:label="nose"/>
    <path id="mouth" d="m 30.329986333465108,85.46643443045535 c 2.0735054301769518,6.37497801673315 4.0205784873788,10.401678960563823 5.959242851998313,12.940500907854297 3.7507440413092903,-3.1310436562581243 8.538974403977388,-7.475595296236407 10.4367355891049,-9.37381380418056 2.9622008282598102,4.818455243367905 7.01734649538006,10.375135339561602 8.671615406629316,12.64569776985442 4.859077603973323,-3.873206776645403 9.51886072760391,-7.995560000174804 11.435750100954722,-10.16286574161946 " inkscape:label="mouth" style="fill:none;stroke:#313131;stroke-width: 4.403149432946873;stroke-linecap:round;stroke-linejoin:round;stroke-miterlimit:4;stroke-dasharray:none;stroke-opacity:1;" sodipodi:nodetypes="ccccc"/>
  </g>
  <metadata id="metadata30760">
    <rdf:RDF>
      <cc:Work rdf:about="">
        <dc:rights>
          <cc:Agent>
            <dc:title>Blobfox team (https://git.shadamethyst.xyz/adri326/blobfox), licensed under the Apache 2.0 License</dc:title>
          </cc:Agent>
        </dc:rights>
        <dc:title>blobfox</dc:title>
        <dc:creator>
          <cc:Agent>
            <dc:title>Feuerfuchs</dc:title>
          </cc:Agent>
        </dc:creator>
        <dc:source>https://git.shadamethyst.xyz/adri326/blobfox</dc:source>
        <dc:contributor>
          <cc:Agent>
            <dc:title>Shad Amethyst</dc:title>
          </cc:Agent>
        </dc:contributor>
      </cc:Work>
    </rdf:RDF>
  </metadata>
</svg>
