<?xml version="1.0" encoding="UTF-8"?>
<svg xmlns="http://www.w3.org/2000/svg" xmlns:cc="http://creativecommons.org/ns#" xmlns:dc="http://purl.org/dc/elements/1.1/" xmlns:inkscape="http://www.inkscape.org/namespaces/inkscape" xmlns:rdf="http://www.w3.org/1999/02/22-rdf-syntax-ns#" xmlns:sodipodi="http://sodipodi.sourceforge.net/DTD/sodipodi-0.dtd" xmlns:svg="http://www.w3.org/2000/svg" xmlns:xlink="http://www.w3.org/1999/xlink" docname="blobfox_blush.svg" viewBox="0 0 33.866668 33.866668" id="svg5" version="1.2.1 (9c6d41e410, 2022-07-14)" space="preserve" width="128" height="128">
  <title id="title30762">blobfox_blush</title>
  <sodipodi:namedview showpageshadow="2" window-maximized="1" pagecolor="#505050" bordercolor="#ffffff" document-units="mm" pagecheckerboard="1" borderopacity="1" pageshadow="0" showgrid="false" id="namedview7" cy="74.176003" window-x="0" current-layer="layer2" deskcolor="#505050" window-height="779" window-width="1536" zoom="4.624137" units="px" pageopacity="0" window-y="0" cx="54.496655">
    <inkscape:grid id="grid10" type="xygrid"/>
  </sodipodi:namedview>
  <defs id="blush-defs">
    <linearGradient collect="always" id="linearGradient35160">
      <stop offset="0" style="stop-color:#ff1500;stop-opacity:0.24705882" id="stop35156"/>
      <stop style="stop-color:#ff1400;stop-opacity:0.24705882" id="stop37640" offset="0.29524487"/>
      <stop style="stop-color:#ff8702;stop-opacity:0" offset="1" id="stop35158"/>
    </linearGradient>
    <radialGradient gradientTransform="matrix(1.1738531,0.00925314,-0.00653938,0.87118542,-5.0390584,4.2363215)" gradientUnits="userSpaceOnUse" collect="always" id="radialGradient35162" href="#linearGradient35160" cx="20.006733" cy="20.958986" fy="20.958986" fx="20.006733" r="4.6413512"/>
    <radialGradient cy="20.958986" r="4.6413512" fy="20.958986" href="#linearGradient35160" cx="20.006733" gradientUnits="userSpaceOnUse" gradientTransform="matrix(1.1738531,0.00925314,-0.00653938,0.87118542,-18.583722,1.319849)" id="radialGradient35162-3" collect="always" fx="20.006733"/>
  </defs>
  <g groupmode="layer" id="ref" label="ref" style="display:none">
    <image x="-0.041768249" y="-1.2335199" id="blobfoxblush" width="35.341915" href="../original/blobfoxblush.png" label="blobfoxblush" height="35.049343" preserveAspectRatio="none" style="display:none;image-rendering:optimizeSpeed"/>
    <image id="blobfox" preserveAspectRatio="none" width="33.866665" style="display:none;image-rendering:optimizeSpeed" height="33.866665" label="blobfox" y="0" x="1.7763568e-15" href="../original/blobfox.png"/>
  </g>
  <g id="Base" style="display:inline" groupmode="layer" label="Base">
    <path d="M 4.0047936,12.268016 C 1.3297263,7.1631581 1.0295125,2.6768584 1.5300855,1.9935492 1.9245083,1.4551411 2.7031382,1.3628451 3.4008298,1.6060549 4.3289946,1.9296058 7.6355776,4.0822931 11.514664,6.2354308 13.927889,7.5749231 11.853914,7.7538087 11.329373,7.7886984 7.6275291,8.0349258 5.9149171,10.133834 4.0047936,12.268016 Z" label="left-ear" id="left-ear" nodetypes="cssssc" style="fill:#313131;fill-opacity:1;stroke:none;stroke-width:0.263834px;stroke-linecap:butt;stroke-linejoin:miter;stroke-opacity:1"/>
    <path d="M 9.3280811,8.0908766 C 5.0344699,9.3922292 0.34193199,15.527961 -0.06274957,25.129531 c 0,0 0.0385614,2.110109 0.58368073,3.765596 1.50128904,1.706209 5.50779904,4.026646 10.69718984,4.675436 5.002272,0.625393 11.422148,-0.117159 15.449428,-1.015038 4.027281,-0.89788 6.047466,-3.489078 6.309755,-4.153035 0.262283,-0.663956 0.02859,-2.028397 -0.147992,-2.611491 -0.215087,-0.710206 -0.54539,-1.649403 -0.105558,-2.929139 0.439833,-1.279735 1.581679,-6.815841 -0.718122,-10.713446 C 28.434085,6.0955074 16.823193,5.8191788 9.3280811,8.0908766 Z" id="body" label="body" style="display:inline;fill:#ff8702;fill-opacity:1;stroke:none;stroke-width:0.263834px;stroke-linecap:butt;stroke-linejoin:miter;stroke-opacity:0.4501" nodetypes="sccsssssss"/>
    <path id="hair" style="fill:#ff8702;fill-opacity:1;stroke:none;stroke-width:0.263834px;stroke-linecap:butt;stroke-linejoin:miter;stroke-opacity:0.4501" nodetypes="cccccccc" d="M 11.329373,3.0593803 C 12.245932,4.905582 12.519362,5.19385 13.978702,7.0004787 11.594306,5.6867792 9.0857206,6.3646686 8.0259884,6.8901483 10.101718,7.2802732 11.329373,7.7886984 11.329373,7.7886984 14.517564,9.38876 21.922419,11.182438 23.226768,5.6812648 c -1.577167,-0.8130591 -3.425237,-1.506164 -4.53205,-1.971706 0.101476,0.7088023 0.309279,1.2503229 0.5516,2.0854978 C 17.264741,4.490871 15.058027,3.4606204 11.329373,3.0593803 Z" label="hair"/>
    <path style="fill:#ebdccc;fill-opacity:1;stroke:none;stroke-width:0.263834px;stroke-linecap:butt;stroke-linejoin:miter;stroke-opacity:1" id="right-ear-fluff" label="right-ear-fluff" d="m 33.369324,2.6400209 c -2.87928,-0.036655 -7.044225,5.4877811 -9.306943,7.1862369 1.118061,0.1316992 2.352678,0.2371612 3.455925,0.1262252 -0.100001,1.125041 -0.339099,1.391204 -0.556571,1.944711 0.867352,0.04868 1.523251,-0.308082 2.50781,-0.809762 0.01551,1.323917 -0.585989,2.497697 0.114873,3.135288 0.384257,-0.574391 0.853192,-1.681086 1.878431,-2.648574 1.428939,-1.348449 4.619992,-7.7795814 2.771535,-8.7255338 -0.271507,-0.1389438 -0.561115,-0.2047218 -0.86506,-0.2085913 z"/>
    <path style="fill:#313131;fill-opacity:1;stroke:none;stroke-width:0.263834px;stroke-linecap:butt;stroke-linejoin:miter;stroke-opacity:0.4501" label="right-ear" d="m 33.441052,1.9896441 c -2.133276,-0.013838 -7.157968,0.9695151 -10.528487,3.9707219 -1.000698,0.9167887 -1.500617,1.679429 -2.110336,2.5795787 0.708007,0.8908744 1.141144,1.0206671 2.06018,1.1365546 0.346952,0.043749 0.720204,0.093149 1.108291,0.1395969 0.03831,0.00362 0.07659,0.00693 0.114872,0.010691 1.294205,0.1273564 3.27887,-0.8018195 3.771963,-1.6542898 1.178745,-2.037842 2.023102,-3.2434977 3.118313,-3.9963946 1.095212,-0.7528966 3.032704,-1.7917158 3.378263,-1.0434912 0.35684,0.7726511 -0.236175,4.1799118 -1.342352,5.7378643 -1.569556,2.2105811 -2.94788,2.5215351 -3.5077,4.8676641 -0.02842,0.119116 -0.0539,0.211231 -0.07712,0.302191 0.05003,0.07536 0.111372,0.145959 0.187681,0.210196 0.482807,0.406418 1.608668,-0.760742 2.141078,-1.612571 0.07233,-0.136279 0.151119,-0.285675 0.225972,-0.426276 0.0088,-0.02169 0.0167,-0.0434 0.02374,-0.06365 0.0018,0.003 0.0035,0.0061 0.0055,0.0091 1.171089,-2.1995432 2.580124,-4.8405879 2.88479,-6.4984198 0.168881,-0.9189539 1.221247,-3.5441262 -1.211837,-3.6626486 -0.07604,-0.00371 -0.157042,-0.00586 -0.242693,-0.00641 z" id="right-ear"/>
  </g>
  <g style="display:inline" id="Features" label="Features" groupmode="layer">
    <path style="fill:none;fill-opacity:1;stroke:#313131;stroke-width:1.1617;stroke-linecap:round;stroke-linejoin:miter;stroke-miterlimit:4;stroke-dasharray:none;stroke-opacity:1" nodetypes="csc" id="nose-outline" label="nose-outline" d="M 8.8528528,21.228675 C 8.3638631,20.228528 8.3567509,19.246256 8.9926489,18.58653 9.6285464,17.926805 10.902435,17.419322 10.929832,14.933686"/>
    <path label="nose" d="m 10.627211,19.21083 c 0.956875,-0.517682 3.854411,-0.701331 4.522717,0.676765 0.106858,0.220348 -1.620262,1.877012 -2.677644,1.874685 -1.022389,-0.0023 -2.085072,-2.421606 -1.845073,-2.55145 z" nodetypes="ssss" id="nose" style="fill:#313131;fill-opacity:1;stroke:none;stroke-width:0.263834px;stroke-linecap:butt;stroke-linejoin:miter;stroke-opacity:1"/>
    <path style="fill:none;stroke:#313131;stroke-width:1.1617;stroke-linecap:round;stroke-linejoin:round;stroke-miterlimit:4;stroke-dasharray:none;stroke-opacity:1" d="m 9.1720162,25.54701 c 1.1704368,-0.556701 2.2546138,-0.795019 3.2499808,-1.233763 0.882434,0.654239 1.903707,1.143186 2.92142,1.843776" label="mouth" nodetypes="ccc" id="mouth"/>
    <path d="m 6.7074252,14.645068 c 1.2214284,-0.05908 2.8574941,0.114345 4.2224068,0.288618 C 9.8301948,13.544833 7.766544,12.228877 6.9743129,11.717753" style="fill:none;stroke:#313131;stroke-width:1.1617;stroke-linecap:round;stroke-linejoin:round;stroke-miterlimit:4;stroke-dasharray:none;stroke-opacity:1" label="left-eye" nodetypes="ccc" id="left-eye"/>
    <path d="m 24.120185,14.064634 c -1.676291,0.0676 -4.140262,1.049204 -5.093959,1.624072 1.650161,0.344296 3.474872,1.0014 4.316235,1.361758" nodetypes="ccc" label="right-eye" style="fill:none;stroke:#313131;stroke-width:1.1617;stroke-linecap:round;stroke-linejoin:round;stroke-miterlimit:4;stroke-dasharray:none;stroke-opacity:1" id="right-eye"/>
    <ellipse rx="4.7157931" cx="18.450788" style="fill:url(#radialGradient35162);fill-opacity:1;stroke:none;stroke-width:1.42921;stroke-linecap:round;stroke-linejoin:round;stroke-miterlimit:4;stroke-dasharray:none;stroke-opacity:1" label="right-blush" ry="4.1580858" id="right-blush" transform="matrix(0.99671428,-0.08099776,0.0823465,0.99660376,0,0)" cy="22.898682"/>
    <ellipse rx="4.7157931" id="left-blush" style="display:inline;fill:url(#radialGradient35162-3);fill-opacity:1;stroke:none;stroke-width:1.42921;stroke-linecap:round;stroke-linejoin:round;stroke-miterlimit:4;stroke-dasharray:none;stroke-opacity:1" cy="19.982208" label="left-blush" ry="4.1580858" transform="matrix(0.99671428,-0.08099776,0.0823465,0.99660376,0,0)" cx="4.9061275"/>
    <path nodetypes="cc" d="M 6.6498431,17.356931 C 5.7296011,18.73368 4.1549583,20.742729 3.617575,21.375973" style="fill:none;stroke:#ff1f0b;stroke-width:1.06199;stroke-linecap:round;stroke-linejoin:round;stroke-miterlimit:4;stroke-dasharray:none;stroke-opacity:0.334154" label="left-blush-line-2" id="left-blush-line-2"/>
    <path nodetypes="cc" id="left-blush-line" style="fill:none;stroke:#ff1f0b;stroke-width:1.06199;stroke-linecap:round;stroke-linejoin:round;stroke-miterlimit:4;stroke-dasharray:none;stroke-opacity:0.334154" d="M 9.5339106,17.47901 C 8.3350608,19.099692 7.0882559,20.879408 6.3683708,21.68842" label="left-blush-line"/>
    <path nodetypes="cc" label="right-blush-line-2" style="fill:none;stroke:#ff1f0b;stroke-width:1.06199;stroke-linecap:round;stroke-linejoin:round;stroke-miterlimit:4;stroke-dasharray:none;stroke-opacity:0.334154" d="m 20.458692,18.846824 c -0.969954,1.368972 -2.866402,3.736077 -3.534439,4.486635" id="right-blush-line-2"/>
    <path d="m 23.310163,19.568016 c -0.611763,0.856976 -2.620487,3.348178 -3.08652,3.935064" id="right-blush-line" label="right-blush-line" style="fill:none;stroke:#ff1f0b;stroke-width:1.06199;stroke-linecap:round;stroke-linejoin:round;stroke-miterlimit:4;stroke-dasharray:none;stroke-opacity:0.334154" nodetypes="cc"/>
  </g>
  <metadata id="metadata30760">
    <rdf:RDF>
      <cc:Work about="">
        <dc:rights>
          <cc:Agent>
            <dc:title>Blobfox team (https://git.shadamethyst.xyz/adri326/blobfox), licensed under the Apache 2.0 License</dc:title>
          </cc:Agent>
        </dc:rights>
        <dc:title>blobfox_blush</dc:title>
        <dc:source>https://git.shadamethyst.xyz/adri326/blobfox</dc:source>
        <dc:creator>
          <cc:Agent>
            <dc:title>Feuerfuchs</dc:title>
          </cc:Agent>
        </dc:creator>
        <dc:contributor>
          <cc:Agent>
            <dc:title>Shad Amethyst</dc:title>
          </cc:Agent>
        </dc:contributor>
      </cc:Work>
    </rdf:RDF>
  </metadata>
</svg>
