<?xml version="1.0" encoding="UTF-8"?><svg xmlns="http://www.w3.org/2000/svg" xmlns:cc="http://creativecommons.org/ns#" xmlns:dc="http://purl.org/dc/elements/1.1/" xmlns:inkscape="http://www.inkscape.org/namespaces/inkscape" xmlns:rdf="http://www.w3.org/1999/02/22-rdf-syntax-ns#" xmlns:sodipodi="http://sodipodi.sourceforge.net/DTD/sodipodi-0.dtd" xmlns:svg="http://www.w3.org/2000/svg" xmlns:xlink="http://www.w3.org/1999/xlink" width="128" id="svg5" docname="blobfox_boop_owo.svg" viewBox="0 0 33.866668 33.866668" version="1.2.1 (9c6d41e410, 2022-07-14)" space="preserve" height="128"><title id="title30762">blobfox</title><sodipodi:namedview pageshadow="0" document-units="mm" window-x="0" showgrid="false" window-width="1536" pageopacity="0" window-height="779" cy="29.11119" showpageshadow="2" bordercolor="#ffffff" borderopacity="1" window-maximized="1" pagecolor="#505050" pagecheckerboard="1" cx="28.911799" units="px" current-layer="layer3" zoom="2.5076268" deskcolor="#505050" window-y="0" id="namedview7"><inkscape:grid type="xygrid" id="grid10" /></sodipodi:namedview><defs id="defs2" /><g label="ref" groupmode="layer" id="ref" style="display:none"><image style="display:none;fill:#313131;fill-opacity:1;stroke:none;image-rendering:optimizeQuality" x="0" y="0" id="blobfox" height="33.866665" label="blobfox" href="../original/blobfox.png" preserveAspectRatio="none" width="33.866665" /><image id="blobfoxboopowo" width="36.961117" preserveAspectRatio="none" href="../original/blobfoxboopowo.png" height="36.961117" x="-3.1317594" label="blobfoxboopowo" y="-3.0616138" style="display:inline;image-rendering:optimizeSpeed" /></g><g groupmode="layer" id="Base" style="display:inline" label="Base"><path id="body" d="M 8.2074116,8.4126526 C 5.0913797,9.6496164 0.4041473,15.466063 0,25.134999 c 0,0 0.03851,2.124914 0.5829101,3.792016 1.4993074,1.718181 5.5005282,4.054899 10.6830689,4.70824 4.995668,0.629782 11.407069,-0.117981 15.429032,-1.02216 4.021965,-0.904179 6.039482,-3.513558 6.301425,-4.182173 0.261937,-0.668616 0.02856,-2.042628 -0.147797,-2.629814 -0.214802,-0.71519 -0.544671,-1.660976 -0.105418,-2.94969 C 33.182472,21.562704 34.115718,16.337933 32.130917,12.6127 28.259445,4.8114773 16.226603,5.2292932 8.2074116,8.4126526 Z" nodetypes="sccssssscs" style="display:inline;fill:#ff8702;fill-opacity:1;stroke:none;stroke-width:0.264583px;stroke-linecap:butt;stroke-linejoin:miter;stroke-opacity:0.4501" label="body" /><path d="M 5.1577328,10.719833 C 4.0472393,10.056164 3.1524915,8.9387215 3.0004107,8.4082214 3.5615654,8.6358172 4.1416469,8.8353928 4.5436887,8.7482134 3.6874471,7.8842274 2.8880437,6.7436552 2.9109312,5.4199136 3.3781478,5.7131782 3.8197557,5.6787218 4.0599394,5.605019 3.010848,3.6582672 3.2051785,1.5431761 3.2754603,1.2936206 3.3476429,1.0373156 4.0979701,0.76600544 4.3874867,0.93755801 4.6770033,1.1091106 5.7546522,2.340334 5.9118221,3.0720426 6.0689923,3.8037516 6.7174432,8.757557 6.7355595,9.2716614 6.3983092,9.4882552 5.6448443,10.177793 5.1577328,10.719833 Z" id="left-ear-fluff" nodetypes="cccccssscc" label="left-ear-fluff" style="fill:#ebdccc;fill-opacity:1;stroke-width:0.264583;stroke-linecap:round" /><path nodetypes="csscssscc" label="left-ear" id="left-ear" d="M 6.7285414,9.2743628 C 6.1956994,8.6591416 6.1238933,7.6831462 6.0459828,6.4811719 5.9758491,5.3991751 5.4506102,1.1879291 3.9424188,1.0291394 3.6566691,0.9990543 3.3950562,1.0409007 3.2705895,1.311382 3.2358413,0.92340944 3.2919502,0.45272238 3.4605422,0.28222493 3.8702816,-0.13214524 4.4779607,-0.09374545 5.1240264,0.26412627 5.8866823,0.68658024 7.6810801,3.5307571 11.56213,6.108751 13.240321,7.223492 9.2628811,6.8913037 11.377083,7.6729166 9.3808944,7.874719 8.1745865,8.3010402 6.7285414,9.2743628 Z" style="display:inline;fill:#313131;fill-opacity:1;stroke:none;stroke-width:0.264583px;stroke-linecap:butt;stroke-linejoin:miter;stroke-opacity:1" /><path id="hair" style="display:inline;fill:#ff8702;fill-opacity:1;stroke:none;stroke-width:0.264583px;stroke-linecap:butt;stroke-linejoin:miter;stroke-opacity:0.4501" nodetypes="cccsssccc" label="hair" d="M 11.377083,2.91 C 12.292433,4.7691551 12.5655,5.0594456 14.022916,6.87875 11.641667,5.5558333 9.136393,6.238479 8.07806,6.7676456 10.151048,7.1605077 10.449443,7.3377486 11.377083,7.6725 14.462128,8.7857796 17.25774,10.030627 19.911704,8.4803466 21.209819,7.7220691 23.693263,6.1378025 22.490617,5.521727 20.910675,4.7123751 19.838056,4.0335486 18.732706,3.5647403 18.834047,4.2785158 19.041575,4.8238358 19.283577,5.6648705 17.304617,4.3515344 15.100816,3.3140553 11.377083,2.91 Z" /><path d="m 31.870065,0.89136862 c 2.484943,0.0611907 0.664265,7.56804148 -0.509611,9.14994438 -1.173877,1.581904 -0.831551,4.245863 -1.354667,4.404248 -0.707644,-0.825525 -0.707787,-2.595852 -0.717551,-4.150112 -0.760031,0.341959 -2.089885,0.741869 -3.258009,0.409179 0.287592,-0.78609 0.653321,-1.9632947 0.948986,-2.908956 -0.481311,0.1872691 -1.564135,0.4426682 -2.855349,0.6028707 1.157455,-2.334176 5.261258,-7.5683648 7.746201,-7.50717408 z" label="right-ear-fluff" id="right-ear-fluff" style="display:inline;fill:#ebdccc;fill-opacity:1;stroke:none;stroke-width:0.264583px;stroke-linecap:butt;stroke-linejoin:miter;stroke-opacity:1" nodetypes="sscccccs" /><path label="right-ear" id="right-ear" style="display:inline;fill:#313131;fill-opacity:1;stroke:none;stroke-width:0.264583px;stroke-linecap:butt;stroke-linejoin:miter;stroke-opacity:0.4501" d="m 32.314823,0.13797607 c -0.128465,-0.004264 -0.267672,0.002572 -0.418579,0.0211873 -2.4145,0.29784466 -7.38569,2.24242673 -11.391552,7.77988693 0.600112,0.3554624 1.262874,0.5599283 1.918745,0.6294189 0.237085,0.00899 0.48187,-0.0031 0.735873,-0.037724 0.32542,-0.044364 0.691176,-0.091565 1.07487,-0.1462443 0.941957,-0.3201292 1.686609,-0.9970937 1.923913,-2.0158976 0.522615,-2.2437042 1.758263,-3.0057917 2.706295,-3.9398112 0.948033,-0.9340193 3.349419,-1.91930618 3.763595,-1.201477 0.414175,0.7178289 0.07221,4.491393 -0.306958,5.8869791 -0.898662,2.4967496 -2.467505,4.0199558 -2.372465,6.7029498 0.0082,0.231812 0.01404,0.448703 0.05219,0.632003 0.05226,0.06911 0.1087,0.1361 0.169498,0.199988 0.746405,0.784343 1.286171,-0.180766 1.631942,-1.082621 0.104263,-0.27682 0.210385,-0.573022 0.328662,-0.95343 0.991263,-3.1881402 1.543734,-7.2256503 1.588534,-9.0268398 0.02193,-0.8815821 0.522418,-3.38440797 -1.404566,-3.44836837 z" /></g><g id="Features" label="Features" groupmode="layer"><g label="right-eye" id="right-eye"><ellipse transform="rotate(18.569655)" cx="24.789791" ry="4.1866808" style="display:inline;fill:#ffffff;fill-opacity:1;stroke-width:0.264583;stroke-linecap:round" label="eye" id="ellipse4039" rx="3.4254558" cy="8.2766476" /><ellipse cy="11.676779" rx="0.99758869" cx="23.015326" ry="1.5768789" transform="rotate(12.698142)" id="ellipse4041" label="pupil" style="fill:#313131;fill-opacity:1;stroke-width:0.264583;stroke-linecap:round" /></g><g style="display:inline" transform="translate(-11.479965,-1.3267263)" label="left-eye" id="left-eye"><ellipse id="path3658" transform="rotate(18.569655)" style="display:inline;fill:#ffffff;fill-opacity:1;stroke-width:0.264583;stroke-linecap:round" cx="24.789791" ry="4.0323997" label="eye" cy="8.2766476" rx="3.4254558" /><ellipse rx="0.99758869" transform="rotate(12.698142)" ry="1.5768789" id="path3683" cy="11.558851" style="fill:#313131;fill-opacity:1;stroke-width:0.264583;stroke-linecap:round" cx="23.582348" label="pupil" /></g><path id="nose-outline" nodetypes="csc" label="nose-outline" style="display:inline;fill:none;fill-opacity:1;stroke:#313131;stroke-width:1.165;stroke-linecap:round;stroke-linejoin:miter;stroke-miterlimit:4;stroke-dasharray:none;stroke-opacity:1" d="M 8.9038328,21.207191 C 8.4154886,20.200027 8.4083857,19.210862 9.0434442,18.546508 9.6785027,17.882154 11.885011,17.034899 12.641504,14.475174" /><path nodetypes="ssss" label="nose" id="nose" style="display:inline;fill:#313131;fill-opacity:1;stroke:none;stroke-width:0.264583px;stroke-linecap:butt;stroke-linejoin:miter;stroke-opacity:1" d="m 10.675849,19.175188 c 0.955611,-0.521313 3.849322,-0.706251 4.516746,0.681514 0.106717,0.221894 -1.618122,1.890181 -2.674108,1.887838 -1.02104,-0.0023 -2.08232,-2.438598 -1.842638,-2.569352 z" /><path nodetypes="ccccc" style="fill:none;stroke:#313131;stroke-width:1.165;stroke-linecap:round;stroke-linejoin:round;stroke-miterlimit:4;stroke-dasharray:none;stroke-opacity:1" label="mouth" id="mouth" d="m 8.0248092,22.612995 c 0.548615,1.686713 1.0637781,2.752111 1.5767164,3.423841 0.9923844,-0.828422 2.2592704,-1.977918 2.7613864,-2.480155 0.783749,1.274883 1.856673,2.745088 2.294365,3.345841 1.285631,-1.024786 2.518532,-2.115492 3.025709,-2.688925" /><path id="hand-boop" nodetypes="ccsscccsscc" label="hand-boop" d="m 4.9108016,14.672122 c 1.7042447,0.131668 0.9647825,3.225252 -2.2692941,3.302355 3.4571742,0.489233 7.5851945,0.808757 8.2552135,0.814982 2.176455,0.02022 1.949784,2.718839 -0.246061,2.763398 -2.1958441,0.04456 -3.1945049,-0.04761 -3.8723137,-0.126605 0.642925,0.210039 0.3882999,1.68509 -0.5231882,1.6452 0.7277522,0.16508 0.2612871,1.851113 -0.3771378,1.797155 0.5949172,0.187812 8.59e-4,2.034481 -1.1110801,1.956621 -0.9317474,-0.06524 -7.3917292,-0.251669 -7.3435866,-4.027995 0.03723,-2.920368 -0.2599867,-8.652407 7.487448,-8.125108 z" style="fill:#ffffff;fill-opacity:1;stroke:#313131;stroke-width:0.865;stroke-linecap:round;stroke-linejoin:round;stroke-dasharray:none;stroke-opacity:1" /></g><metadata id="metadata30760"><rdf:RDF><cc:Work about=""><dc:rights><cc:Agent><dc:title>Blobfox team (https://git.shadamethyst.xyz/adri326/blobfox), licensed under the Apache 2.0 License</dc:title></cc:Agent></dc:rights><dc:title>blobfox</dc:title><dc:creator><cc:Agent><dc:title>Feuerfuchs</dc:title></cc:Agent></dc:creator><dc:source>https://git.shadamethyst.xyz/adri326/blobfox</dc:source><dc:contributor><cc:Agent><dc:title>Shad Amethyst</dc:title></cc:Agent></dc:contributor></cc:Work></rdf:RDF></metadata></svg>