<?xml version="1.0" encoding="UTF-8"?>
<svg xmlns="http://www.w3.org/2000/svg" xmlns:cc="http://creativecommons.org/ns#" xmlns:dc="http://purl.org/dc/elements/1.1/" xmlns:inkscape="http://www.inkscape.org/namespaces/inkscape" xmlns:rdf="http://www.w3.org/1999/02/22-rdf-syntax-ns#" xmlns:sodipodi="http://sodipodi.sourceforge.net/DTD/sodipodi-0.dtd" xmlns:svg="http://www.w3.org/2000/svg" xmlns:xlink="http://www.w3.org/1999/xlink" xml:space="preserve" sodipodi:docname="crowbar.svg" width="128" inkscape:version="1.1" id="svg5" height="128" viewBox="0 0 128 128">
  <title id="title40310">crowbar</title>
  <sodipodi:namedview bordercolor="#ffffff" inkscape:pageopacity="0" inkscape:cy="79.8125" inkscape:deskcolor="#505050" inkscape:window-y="0" inkscape:window-x="0" id="namedview7" units="px" inkscape:window-width="1920" pagecolor="#505050" inkscape:zoom="8" showgrid="false" borderopacity="1" inkscape:window-height="1058" inkscape:cx="2.1875" inkscape:current-layer="layer3" inkscape:pagecheckerboard="1" inkscape:showpageshadow="2" inkscape:document-units="px" inkscape:pageshadow="0" inkscape:window-maximized="1">
    <inkscape:grid id="grid10" type="xygrid"/>
  </sodipodi:namedview>
  <defs id="defs2"/>
  <g id="ref" inkscape:groupmode="layer" style="display:none" inkscape:label="ref">
    <image inkscape:label="blobfox" id="blobfox" xlink:href="../original/blobfox.png" preserveAspectRatio="none" y="0" height="127.99999" width="127.99999" style="display:none;fill:#313131;fill-opacity:1;stroke:none;image-rendering:optimizeQuality" x="0"/>
    <image xlink:href="../original/blobfoxknife.png" x="-2.0426512" style="image-rendering:optimizeSpeed" width="135.72025" y="-2.0426512" inkscape:label="blobfoxknife" preserveAspectRatio="none" height="135.72025" id="blobfoxknife"/>
  </g>
  <g inkscape:groupmode="layer" id="Features" inkscape:label="Features"/>
  <g id="Crowbar" inkscape:groupmode="layer" inkscape:label="Crowbar">
    <path sodipodi:nodetypes="sscsssssscsssss" d="m -9.8522317,48.614385 c 1.3845695,-2.506081 6.2624525,-6.948651 7.9469028,-5.663488 1.59658469,1.218127 0.96415649,2.748994 0.5661644,4.220459 1.57125508,-0.616631 3.1057023,-1.794578 4.5603351,-0.518689 1.5060088,1.320954 -0.2412008,3.464218 -1.0662337,5.780593 -0.6000947,1.684833 -1.3643697,2.248611 3.021838,6.930075 4.3862063,4.681462 42.3791251,43.094565 47.9188211,48.175835 5.539696,5.08127 6.125242,7.81305 5.958831,10.35773 -0.166412,2.54467 -4.403182,6.98427 -5.861308,6.13546 -1.480581,-0.86188 -1.155034,-2.83128 -1.109449,-4.32347 -1.087164,0.85636 -3.0389,2.44446 -4.248891,1.12971 -1.209992,-1.31473 0.525179,-3.90597 0.740548,-5.12858 0.257822,-1.46364 0.220976,-2.27089 -3.180703,-5.26011 -1.700839,-1.4946 -49.5754585,-49.218214 -54.140953,-53.566033 -3.196823,-3.044403 -2.180401,-6.324645 -1.1059027,-8.269492 z" style="fill:#3d444b;fill-opacity:1;stroke:none;stroke-width:1.30304px;stroke-linecap:butt;stroke-linejoin:miter;stroke-opacity:1" inkscape:label="crowbar-base" id="crowbar-base"/>
    <path sodipodi:nodetypes="sssss" id="crowbar-reflection" inkscape:label="crowbar-reflection" d="m -7.488648,55.462961 c -0.9404391,0.553878 -1.873132,-1.959846 -1.8974327,-3.668657 -0.025872,-1.819269 1.1391559,-4.154672 2.1720486,-3.218589 0.826716,0.74923 -0.8412332,2.004044 -0.6374581,3.456586 0.2027699,1.445367 1.300665,2.878322 0.3628422,3.43066 z" style="fill:#565f65;fill-opacity:1;stroke:none;stroke-width:1.30304px;stroke-linecap:butt;stroke-linejoin:miter;stroke-opacity:1"/>
    <path d="m -4.0163473,47.768829 c -0.076734,-0.954898 2.5459633,-3.847259 2.9743857,-3.737733 0.41140672,0.81096 -0.060986,2.463741 -0.294386,3.141371 -0.5849535,0.24627 -1.5792218,0.544591 -2.6799997,0.596362 z" id="crowbar-shadow" sodipodi:nodetypes="cccc" inkscape:label="crowbar-shadow" style="fill:#2a2f31;fill-opacity:1;stroke:none;stroke-width:1.30304px;stroke-linecap:butt;stroke-linejoin:miter;stroke-opacity:1"/>
    <path style="fill:#2a2f31;fill-opacity:1;stroke:none;stroke-width:1.30304px;stroke-linecap:butt;stroke-linejoin:miter;stroke-opacity:1" d="m 49.176511,121.3338 c -0.201159,-1.21254 2.387135,-3.16887 2.884908,-3.36799 -0.0043,0.34019 0.01621,1.42929 0.02339,1.74019 -0.431045,0.44931 -2.140953,1.6278 -2.90829,1.6278 z" id="crowbar-shadow-2" inkscape:label="crowbar-shadow-2" sodipodi:nodetypes="sccss"/>
  </g>
  <path sodipodi:nodetypes="cssc" inkscape:label="left-hand" style="display:inline;fill:#ff8702;fill-opacity:1;stroke:#313131;stroke-width: 4.200453377934907;stroke-linecap:round;stroke-opacity:1;" id="left-hand" d="m 14.208372479985337,96.90646295643847 c 10.489628563400451,-1.5287923807562056 18.35514636397062,-7.160375151166334 22.391250771998003,-7.101803814889615 3.8712160995584215,0.056201572590489274 7.514408397070537,3.0337699593003955 7.391165567276947,7.692154657789188 -0.12321259357430735,4.657439816636228 -5.831534888522249,10.590005252362 -13.306794940677365,14.93453799470323 "/>
  <metadata id="metadata30760">
    <rdf:RDF>
      <cc:Work rdf:about="">
        <dc:rights>
          <cc:Agent>
            <dc:title>Blobfox team (https://git.shadamethyst.xyz/adri326/blobfox), licensed under the Apache 2.0 License</dc:title>
          </cc:Agent>
        </dc:rights>
        <dc:creator>
          <cc:Agent>
            <dc:title>Feuerfuchs</dc:title>
          </cc:Agent>
        </dc:creator>
        <dc:source>https://git.shadamethyst.xyz/adri326/blobfox</dc:source>
        <dc:contributor>
          <cc:Agent>
            <dc:title>Shad Amethyst</dc:title>
          </cc:Agent>
        </dc:contributor>
        <dc:title>crowbar</dc:title>
      </cc:Work>
    </rdf:RDF>
  </metadata>
</svg>
