<?xml version="1.0" encoding="UTF-8"?>
<svg xmlns="http://www.w3.org/2000/svg" viewBox="0 0 128 81.28">
  <rect fill="#750787" width="128" height="81.28"/>
  <rect fill="#004dff" height="67.73333333" width="128"/>
  <rect width="128" height="54.18666666" fill="#008026"/>
  <rect height="40.64" fill="#ffed00" width="128"/>
  <rect width="128" fill="#ff8c00" height="27.09333333"/>
  <rect width="128" fill="#e40303" height="13.54666666"/>
  <polygon fill="#ffffff" points="-0.02133333,20.48 20.26666666,40.64 -0.02133333,60.8"/>
  <polygon fill="#ffafc8" points="-0.02133333,20.48 -0.02133333,10.24 30.29333,40.64 -0.02133333,71.03999999 -0.02133333,60.8 20.26666666,40.64"/>
  <polygon fill="#74d7ee" points="-0.02133333,10.24 -0.02133333,0 40.78933333,40.64 -0.02133333,81.28 -0.02133333,71.03999999 30.29333,40.64 -0.02133333,10.24"/>
  <polygon points="-0.02133333,0 40.78933333,40.64 -0.02133333,81.28 10.24,81.28 50.85866666,40.64 10.24,0" fill="#613915"/>
  <polygon points="10.24,0 20.48,0 61.09866666,40.64 20.48,81.28 10.24,81.28 50.85866666,40.64 10.24,0" fill="#000000"/>
</svg>
