<?xml version="1.0" encoding="UTF-8"?>
<svg xmlns="http://www.w3.org/2000/svg" xmlns:cc="http://creativecommons.org/ns#" xmlns:dc="http://purl.org/dc/elements/1.1/" xmlns:inkscape="http://www.inkscape.org/namespaces/inkscape" xmlns:rdf="http://www.w3.org/1999/02/22-rdf-syntax-ns#" xmlns:sodipodi="http://sodipodi.sourceforge.net/DTD/sodipodi-0.dtd" xmlns:svg="http://www.w3.org/2000/svg" xmlns:xlink="http://www.w3.org/1999/xlink" docname="knife.svg" width="128" height="128" id="svg5" version="1.2.1 (9c6d41e410, 2022-07-14)" space="preserve" viewBox="0 0 33.866668 33.866668">
  <title id="title30762">blobfox</title>
  <sodipodi:namedview document-units="mm" showpageshadow="2" pagecolor="#505050" id="namedview7" current-layer="layer4" pagecheckerboard="1" cy="58.265723" cx="66.970054" pageshadow="0" borderopacity="1" deskcolor="#505050" pageopacity="0" window-maximized="1" units="px" showgrid="false" window-width="1536" bordercolor="#ffffff" window-height="779" zoom="2.8146909" window-x="0" window-y="0">
    <inkscape:grid type="xygrid" id="grid10"/>
  </sodipodi:namedview>
  <defs id="defs2"/>
  <g style="display:none" groupmode="layer" label="ref" id="ref">
    <image y="0" href="../original/blobfox.png" preserveAspectRatio="none" x="0" style="display:none;fill:#313131;fill-opacity:1;stroke:none;image-rendering:optimizeQuality" height="33.866665" width="33.866665" id="blobfox" label="blobfox"/>
    <image height="35.909317" label="blobfoxknife" style="image-rendering:optimizeSpeed" x="-2.0426512" preserveAspectRatio="none" y="-2.0426512" href="../original/blobfoxknife.png" id="blobfoxknife" width="35.909317"/>
  </g>
  <g style="display:inline" label="Knife" id="Knife" groupmode="layer">
    <path id="blade-back" label="blade-back" nodetypes="ccccc" style="display:inline;fill:#a9b7c1;fill-opacity:1;stroke:none;stroke-width:0.865;stroke-linecap:round;stroke-linejoin:round" d="M 2.8733766,24.650986 C -1.5119429,19.360631 -3.1318137,15.639646 -1.3464711,10.627162 -0.50346359,11.538409 8.2486158,21.266495 8.8935694,22.003976 8.3930378,22.440895 7.2600093,23.320188 6.8556577,23.634599 6.0390321,22.860518 3.643577,24.246787 2.8733766,24.650986 Z"/>
    <path label="blade-front" id="blade-front" style="fill:#cbd4db;fill-opacity:1;stroke:none;stroke-width:0.865;stroke-linecap:round;stroke-linejoin:round" d="M 7.77528,20.750757 C 6.5102539,21.92967 3.1470588,23.656157 2.3978713,24.071392 -2.9197213,17.988498 -2.4810258,13.784186 -1.3368546,10.583814 -0.62055158,11.422086 7.4899105,20.422656 7.77528,20.750757 Z" nodetypes="cccc"/>
    <path id="handle" nodetypes="csssscc" style="display:inline;fill:#3d444b;fill-opacity:1;stroke-width:0.865;stroke-linecap:round;stroke-linejoin:round" d="m 8.894323,22.007099 c 0.8715758,0.844947 4.73094,5.605294 5.104937,6.135812 0.373998,0.530522 0.628754,2.273279 -0.512767,2.959336 -1.14152,0.686056 -2.447651,0.680138 -2.790581,0.100107 -0.342929,-0.580032 0.04951,-1.474686 -0.624907,-2.391238 C 9.3965867,27.894568 7.3009431,24.572004 6.850509,23.625274 7.4056861,23.182631 8.3936874,22.441161 8.894323,22.007099 Z" label="handle"/>
    <ellipse rx="0.78468758" ry="0.80247253" cx="12.167778" cy="28.807756" style="display:inline;fill:#cbd4db;fill-opacity:1;stroke-width:0.865;stroke-linecap:round;stroke-linejoin:round" id="handle-screw" label="handle-screw"/>
  </g>
  <g groupmode="layer" id="Features" label="Features"/>
  <path id="left-hand" style="display:inline;fill:#ff8702;fill-opacity:1;stroke:#313131;stroke-width:1.11137;stroke-linecap:round;stroke-opacity:1" d="m 3.7592987,25.639836 c 2.775381,-0.404493 4.856466,-1.894516 5.924352,-1.879019 1.0242593,0.01487 1.9881873,0.802685 1.9555793,2.035216 -0.0326,1.232281 -1.542927,2.801939 -3.5207563,3.95143" nodetypes="cssc" label="left-hand"/>
  <metadata id="metadata30760">
    <rdf:RDF>
      <cc:Work about="">
        <dc:rights>
          <cc:Agent>
            <dc:title>Blobfox team (https://git.shadamethyst.xyz/adri326/blobfox), licensed under the Apache 2.0 License</dc:title>
          </cc:Agent>
        </dc:rights>
        <dc:title>blobfox</dc:title>
        <dc:creator>
          <cc:Agent>
            <dc:title>Feuerfuchs</dc:title>
          </cc:Agent>
        </dc:creator>
        <dc:source>https://git.shadamethyst.xyz/adri326/blobfox</dc:source>
        <dc:contributor>
          <cc:Agent>
            <dc:title>Shad Amethyst</dc:title>
          </cc:Agent>
        </dc:contributor>
      </cc:Work>
    </rdf:RDF>
  </metadata>
</svg>
