<?xml version="1.0" encoding="UTF-8"?>
<svg xmlns="http://www.w3.org/2000/svg" xmlns:cc="http://creativecommons.org/ns#" xmlns:dc="http://purl.org/dc/elements/1.1/" xmlns:inkscape="http://www.inkscape.org/namespaces/inkscape" xmlns:rdf="http://www.w3.org/1999/02/22-rdf-syntax-ns#" xmlns:sodipodi="http://sodipodi.sourceforge.net/DTD/sodipodi-0.dtd" xmlns:svg="http://www.w3.org/2000/svg" xmlns:xlink="http://www.w3.org/1999/xlink" width="128" viewBox="0 0 128 128" height="128" id="svg5" xml:space="preserve" sodipodi:docname="blobfox_snug_sleep.svg" inkscape:version="1.1">
  <title id="title30762">blobfox_snug</title>
  <sodipodi:namedview inkscape:window-x="0" borderopacity="1" inkscape:window-height="779" pagecolor="#505050" showgrid="false" inkscape:current-layer="layer3" inkscape:pageshadow="0" inkscape:pagecheckerboard="1" inkscape:cx="66.202265" inkscape:window-width="1536" inkscape:window-y="0" inkscape:zoom="3.3684648" inkscape:pageopacity="0" inkscape:cy="47.499383" bordercolor="#ffffff" units="px" inkscape:showpageshadow="2" inkscape:window-maximized="1" inkscape:deskcolor="#505050" id="namedview7" inkscape:document-units="px">
    <inkscape:grid id="grid10" type="xygrid"/>
  </sodipodi:namedview>
  <defs id="defs2"/>
  <g inkscape:label="ref" inkscape:groupmode="layer" id="ref" style="display:inline">
    <image style="display:none;image-rendering:optimizeSpeed" inkscape:label="blobfoxsnug" x="-0.18173571" height="127.99999" id="blobfoxsnug" preserveAspectRatio="none" width="127.99999" xlink:href="../original/blobfoxsnug.png" y="7.7926092"/>
    <image height="127.99999" style="display:none;image-rendering:optimizeSpeed" id="blobfox" y="0" inkscape:label="blobfox" preserveAspectRatio="none" width="127.99999" x="0" xlink:href="../original/blobfox.png"/>
    <image width="128" style="display:none;image-rendering:optimizeSpeed" preserveAspectRatio="none" x="-0.1" id="blobfoxsleep" y="7.8000002" height="128" inkscape:label="blobfoxsleep" xlink:href="../original/blobfoxsleep.png"/>
  </g>
  <g id="Base" inkscape:groupmode="layer" style="display:inline" inkscape:label="Base">
    <path inkscape:label="left-ear" id="left-ear" sodipodi:nodetypes="cssccc" style="display:inline;fill:#313131;fill-opacity:1;stroke:none;stroke-width:0.999999px;stroke-linecap:butt;stroke-linejoin:miter;stroke-opacity:1" d="M 13.995413,50.899995 C 9.77511,28.544685 10.283198,11.60042 12.17263,8.9997147 c 1.488764,-2.0492061 2.490483,-2.5519109 4.932306,-1.199325 2.882479,1.5966765 8.458703,10.5964663 22.381484,20.5457483 1.724598,1.858573 3.908148,4.640668 6.031071,7.249847 -14.27954,3.51023 -22.952475,7.972124 -31.522078,15.30401 z"/>
    <path sodipodi:nodetypes="sssssss" style="display:inline;fill:#ff8702;fill-opacity:1;stroke:none;stroke-width:0.999999px;stroke-linecap:butt;stroke-linejoin:miter;stroke-opacity:0.4501" d="M 38.171655,34.002713 C 17.406116,41.341926 -0.66403477,56.059084 -0.66184472,92.561125 -0.66090835,108.16845 12.145367,106.08453 30.136536,113.51527 c 19.076135,7.87885 38.589442,2.62053 56.622176,2.87152 24.623418,0.34273 40.399808,-10.6163 40.376258,-24.233612 -0.0302,-17.46503 -1.96204,-24.190604 -9.34708,-38.331717 C 104.62674,28.620099 60.540451,26.096857 38.171655,34.002713 Z" id="body" inkscape:label="body"/>
    <path d="m 113.62187,89.228962 c -15.754957,4.658396 -23.06739,1.832254 -33.177407,-0.960057 0.937062,2.027331 2.156545,4.704177 2.960292,7.059378 -17.070583,-7.845849 -31.186317,-9.154344 -49.139272,-5.307968 2.476774,1.391947 5.929043,2.586954 8.877966,4.608937 C 33.528736,94.032159 18.659972,89.104989 7.7655198,87.905295 4.2407265,101.48888 10.983416,110.84517 21.369597,116.4355 c -4.399657,1.30065 -8.902409,2.20064 -13.7379881,3.49277 13.5084861,6.85916 36.5850031,4.59314 51.5794771,1.51913 -2.929652,3.16685 -6.59353,6.93503 -8.688692,8.92921 25.724227,-4.23333 34.878262,-5.43748 42.076961,-5.864 -2.418225,2.09241 -5.423671,4.80241 -7.075562,6.61534 28.666497,2.44387 40.153647,-16.88015 39.332717,-35.011949" style="display:inline;fill:#ff8702;fill-opacity:1;stroke:#313131;stroke-width:4.0252;stroke-linecap:round;stroke-linejoin:miter;stroke-dasharray:none;stroke-opacity:1" inkscape:label="tail" id="tail" sodipodi:nodetypes="ccccccccccccc"/>
    <path style="display:inline;fill:#ff8702;fill-opacity:1;stroke:none;stroke-width:0.959611px;stroke-linecap:butt;stroke-linejoin:miter;stroke-opacity:0.4501" label="hair" nodetypes="cccsssccc" id="hair" d="m 41.802786,15.777344 c 3.407944,6.568689 4.424602,7.594332 9.850719,14.022222 -8.865645,-4.674074 -18.193048,-2.262179 -22.133337,-0.392551 7.717958,1.388047 8.828913,2.014266 12.282618,3.196995 11.485954,3.933394 21.894311,8.331632 31.775307,2.854253 4.833022,-2.679118 14.079148,-8.276583 9.601569,-10.453276 -5.882294,-2.859568 -9.875769,-5.25797 -13.991104,-6.914344 0.377284,2.521882 1.149951,4.448584 2.050953,7.420092 -7.367883,-4.640221 -15.572866,-8.3058 -29.436725,-9.733391 z"/>
    <path sodipodi:nodetypes="csccccssscssscc" d="m 122.1722,10.443214 c -0.51863,-0.05762 -1.08468,-0.07748 -1.70227,-0.05736 -9.88145,0.321876 -30.697884,5.932707 -48.878541,25.21081 2.303845,1.516253 4.914848,2.491687 7.545751,2.963213 0.956742,0.110514 1.952118,0.145172 2.992803,0.09906 1.333293,-0.05907 2.830896,-0.115578 4.403792,-0.194041 3.927239,-0.883508 8.428615,-2.714095 10.301764,-6.177831 3.976721,-7.353564 7.728211,-9.138014 11.897501,-12.301149 4.16931,-3.163134 11.25764,-4.696532 12.6803,-1.893957 1.42266,2.802575 -0.87211,10.755874 -2.90166,15.819453 -4.52297,8.987274 -13.94267,16.437289 -11.97243,23.293273 2.27497,7.916356 7.48805,6.118155 10.46913,-0.45566 5.21285,-11.495285 8.80988,-26.353063 9.6293,-33.032841 0.40108,-3.269391 3.31407,-12.408714 -4.46534,-13.273013 z" label="right-ear" style="fill:#313131;fill-opacity:1;stroke:none;stroke-width:1.03028px;stroke-linecap:butt;stroke-linejoin:miter;stroke-opacity:0.4501" id="right-ear"/>
    <path style="display:inline;fill:#ebdccc;fill-opacity:1;stroke:none;stroke-width:1.03028px;stroke-linecap:butt;stroke-linejoin:miter;stroke-opacity:1" d="m 120.13182,15.040048 c 8.60383,1.035433 -0.78608,25.119014 -6.09929,30.616651 -5.3132,5.497644 -5.95013,9.245631 -7.4916,11.560701 -1.01327,-3.005507 -0.73202,-4.227031 -0.22099,-10.006805 -3.19838,1.023798 -8.724428,2.077697 -13.336139,0.461382 1.442876,-2.828085 3.34066,-7.084396 4.872741,-10.502931 -2.015089,0.539509 -6.489751,1.136631 -11.77443,1.312193 9.509257,-1.023948 9.581276,-9.416987 14.337458,-13.460203 6.89257,-5.859349 14.70204,-10.583945 19.71226,-9.980988 z" id="right-ear-fluff" sodipodi:nodetypes="sccccccss" label="right-ear-fluff"/>
  </g>
  <g id="Features" inkscape:label="Features" style="display:inline;" inkscape:groupmode="layer">
    <path style="fill:none;fill-opacity:1;stroke:#313131;stroke-width: 3.878891185870426;stroke-linecap:round;stroke-linejoin:miter;stroke-miterlimit:4;stroke-dasharray:none;stroke-opacity:1;" id="nose-outline" sodipodi:nodetypes="csc" d="M 33.983808173865825,79.05816255676527 C 32.033591305764126,76.26235164321452 31.87329172152395,71.8583744937648 33.86635482415926,69.743800718748 35.732267821564264,67.76412583605804 37.19806492921005,65.27320561916514 43.56857403273331,61.40700986586576 " inkscape:label="nose-outline"/>
    <path inkscape:label="nose" id="nose" style="fill:#313131;fill-opacity:1;stroke:none;stroke-width: 0.9999987007874529px;stroke-linecap:butt;stroke-linejoin:miter;stroke-opacity:1;" d="m 40.688562807536904,71.91526016081654 c 3.6117579680410254,-1.9703167728221747 14.54861800989693,-2.6692950130198816 17.07116531215885,2.575800843472408 0.4033398266401644,0.8386544551710846 -6.115736452136361,7.143990899842878 -10.106864483981715,7.1351354671206515 -3.859048666966588,-0.008692913043586102 -7.870185516921832,-9.2167479835926 -6.964300828177134,-9.710936310593059 z " sodipodi:nodetypes="ssss"/>
    <path sodipodi:nodetypes="ssssss" d="m 30.7002023818818,49.43457065218226 c -3.7424585613205292,-0.09433700415996048 -6.4713219499479555,2.2941277836957568 -6.5750438986203195,3.8218127629207577 -0.10372157071962321,1.5276849792250011 0.7889283468925848,2.2152188104244566 3.139520002381103,2.182994559724624 2.219401613409386,-0.030236219282038616 8.49522410648724,-0.4754645482100572 14.65952521812893,6.384075339209633 1.6139337947270163,1.795959614332299 4.266304084003776,0.12789920756302334 2.935959569450411,-1.9772446465651716 -5.332421837306228,-8.438025494565927 -9.651606801117843,-10.297972507953839 -14.159960891340123,-10.411638015289842 z " id="left-eye" inkscape:label="left-eye" style="fill:#313131;fill-opacity:1;stroke-width: 4.025196691921391;stroke-linecap:round;"/>
    <path d="m 84.88387697307573,54.727050443816914 c 3.6231796998748154,0.9420472070060156 5.586995685551352,3.9908029924880717 5.26512735176664,5.487794429614393 -0.32186455425730104,1.496983878071501 -1.3695797885992211,1.9115035467911992 -3.6200124559050217,1.2318878255162273 -2.124884325791956,-0.6414991873425517 -8.034171652197967,-2.8012458739666983 -15.852010714487768,2.0909252720108165 -2.0468635414620655,1.2808667212257197 -4.1359481836240874,-1.054344525419507 -2.2763488867579182,-2.71064682241548 7.45383655693557,-6.638925092955706 12.11857086147359,-7.2347827072920206 16.48324470538407,-6.099960704725957 z " sodipodi:nodetypes="ssssss" style="display:inline;fill:#313131;fill-opacity:1;stroke-width: 4.025196691921391;stroke-linecap:round;" id="right-eye" inkscape:label="right-eye"/>
    <path inkscape:label="zzz-1" d="m 49.936809,37.9099 h 14.890402 v 6.267994 l -6.092191,8.677199 h 6.183837 v 6.949918 H 49.322288 v -5.45264 l 6.16669,-9.445645 h -5.567542 z" id="zzz-1" style="fill:#c40049;stroke:#fde2e2;stroke-width:2.64566929;stroke-linecap:square;stroke-linejoin:miter;stroke-dasharray:none;stroke-opacity:1;fill-opacity:1;stroke-miterlimit:3"/>
    <path inkscape:label="zzz-2" d="m 58.164881,21.04713 h 13.49895 v 5.473521 l -3.54885,4.138275 h 3.579658 v 6.909623 H 57.863477 v -5.783962 l 3.708113,-4.020826 h -3.437227 z" style="fill:#c40049;fill-opacity:1;stroke:#fde2e2;stroke-width:2.64566929;stroke-linecap:square;stroke-linejoin:miter;stroke-miterlimit:3;stroke-dasharray:none;stroke-opacity:1" sodipodi:nodetypes="ccccccccccc" id="zzz-2"/>
    <path d="M 72.693406,9.5417194 H 85.852883 V 14.3253 l -3.881736,4.374077 h 3.95806 v 7.014479 H 71.153697 V 21.02797 l 4.496195,-5.181686 -2.954043,0 z" id="zzz-3" sodipodi:nodetypes="ccccccccccc" inkscape:label="zzz-3" style="fill:#c40049;fill-opacity:1;stroke:#fde2e2;stroke-width:2.64566929;stroke-linecap:square;stroke-linejoin:miter;stroke-miterlimit:3;stroke-dasharray:none;stroke-opacity:1"/>
  </g>
  <metadata id="metadata30760">
    <rdf:RDF>
      <cc:Work rdf:about="">
        <dc:rights>
          <cc:Agent>
            <dc:title>Blobfox team (https://git.shadamethyst.xyz/adri326/blobfox), licensed under the Apache 2.0 License</dc:title>
          </cc:Agent>
        </dc:rights>
        <dc:title>blobfox_snug</dc:title>
        <dc:creator>
          <cc:Agent>
            <dc:title>Feuerfuchs</dc:title>
          </cc:Agent>
        </dc:creator>
        <dc:source>https://git.shadamethyst.xyz/adri326/blobfox</dc:source>
        <dc:contributor>
          <cc:Agent>
            <dc:title>Shad Amethyst</dc:title>
          </cc:Agent>
        </dc:contributor>
      </cc:Work>
    </rdf:RDF>
  </metadata>
</svg>
