<?xml version="1.0" encoding="UTF-8"?>
<svg xmlns="http://www.w3.org/2000/svg" xmlns:cc="http://creativecommons.org/ns#" xmlns:dc="http://purl.org/dc/elements/1.1/" xmlns:inkscape="http://www.inkscape.org/namespaces/inkscape" xmlns:rdf="http://www.w3.org/1999/02/22-rdf-syntax-ns#" xmlns:sodipodi="http://sodipodi.sourceforge.net/DTD/sodipodi-0.dtd" xmlns:svg="http://www.w3.org/2000/svg" xmlns:xlink="http://www.w3.org/1999/xlink" inkscape:version="1.1" xml:space="preserve" viewBox="0 0 128 128" height="128" width="128" id="svg5" sodipodi:docname="blobfox_snug.svg">
  <title id="title30762">blobfox_snug</title>
  <sodipodi:namedview inkscape:current-layer="layer2" inkscape:cy="67.438725" inkscape:cx="69.245119" inkscape:showpageshadow="2" id="namedview7" showgrid="false" inkscape:document-units="px" inkscape:window-height="779" inkscape:pagecheckerboard="1" inkscape:pageshadow="0" inkscape:window-y="0" inkscape:window-width="1536" units="px" bordercolor="#ffffff" inkscape:window-x="0" inkscape:deskcolor="#505050" inkscape:pageopacity="0" borderopacity="1" inkscape:window-maximized="1" inkscape:zoom="4.9823006" pagecolor="#505050">
    <inkscape:grid id="grid10" type="xygrid"/>
  </sodipodi:namedview>
  <defs id="defs2"/>
  <g style="display:none" inkscape:label="ref" inkscape:groupmode="layer" id="ref">
    <image style="display:inline;image-rendering:optimizeSpeed" xlink:href="../original/blobfoxsnug.png" y="7.7926092" x="-0.18173571" inkscape:label="blobfoxsnug" preserveAspectRatio="none" height="127.99999" id="blobfoxsnug" width="127.99999"/>
    <image inkscape:label="blobfox" style="display:none;image-rendering:optimizeSpeed" xlink:href="../original/blobfox.png" id="blobfox" y="0" preserveAspectRatio="none" width="127.99999" height="127.99999" x="0"/>
  </g>
  <g inkscape:groupmode="layer" id="Base" style="display:inline;" inkscape:label="Base">
    <path id="left-ear" style="display:inline;fill:#313131;fill-opacity:1;stroke:none;stroke-width: 0.9999987007874529px;stroke-linecap:butt;stroke-linejoin:miter;stroke-opacity:1;" d="M 13.995413496243565,50.89999547637814 C 9.775110040349999,28.54468536438247 10.283198335307153,11.600419952739372 12.172630197927948,8.999714669302573 13.661393981834884,6.950508576751632 14.663113123499485,6.447803840637645 17.10493614547496,7.800389740142138 c 2.8824788786425644,1.5966764725717926 8.458703289027431,10.59646597651709 22.381483717264423,20.54574873441934 1.7245983572992774,1.8585723992688035 3.9081485075532085,4.640667029894999 6.031071258619242,7.2498467696910724 C 31.237950518190928,39.10621452337738 22.565015678542693,43.56810915086185 13.995413496243565,50.89999547637814 Z " inkscape:label="left-ear" sodipodi:nodetypes="cssccc"/>
    <path style="display:inline;fill:#ff8702;fill-opacity:1;stroke:none;stroke-width: 0.9999987007874529px;stroke-linecap:butt;stroke-linejoin:miter;stroke-opacity:0.4501;" sodipodi:nodetypes="sssssss" d="M 38.171654560171085,34.00271336997192 C 17.406116102121416,41.34192593142024 -0.6640347707072926,56.05908440712267 -0.6618447235494204,92.56112517475886 c 0.0009363779158906333,15.60732788947528 12.807212056408975,13.523402302228257 30.79838085990627,20.95414594668717 19.076134682041943,7.878848193746135 38.58944163033695,2.6205315503727737 56.62217540857578,2.871518627105566 24.623416983330042,0.3427275455619077 40.399806913393434,-10.616295645027732 40.37625667810014,-24.233611644346002 -0.030236219282038616,-17.465029863581503 -1.9620358282663062,-24.19060440194471 -9.347081206807827,-38.331717545995375 C 104.62674485721477,28.620099030704765 60.54045115982476,26.096857429257586 38.171654560171085,34.00271336997192 Z " inkscape:label="body" id="body"/>
    <path sodipodi:nodetypes="ccccccccccccc" style="display:inline;fill:#ff8702;stroke:#313131;stroke-width: 4.025196691921391;stroke-linecap:round;stroke-linejoin:miter;stroke-dasharray:none;stroke-opacity:1;fill-opacity:1;" inkscape:label="tail" d="m 113.62187269205226,89.22896152641884 c -15.754960009647245,4.6583960370710225 -23.06739310758295,1.832254416052976 -33.17740971742482,-0.9600566551158798 0.9370620103518895,2.0273309438058686 2.1565454269076607,4.7041774525914395 2.9602921669176316,7.059378619709504 -17.07058326493767,-7.8458491399272 -31.18631688242847,-9.154344206521882 -49.139272018138904,-5.30796829496188 2.4767738237490624,1.391947031813109 5.929042538226673,2.58695422886007 8.877965886694257,4.608937141380428 -9.614712566349901,-0.5970935197994678 -24.483477335296172,-5.524263089595942 -35.37792918984531,-6.723956900631619 -3.524793310047508,13.583587496709155 3.217896062287557,22.939875632288363 13.604076692752887,28.530204861015562 -4.3996560157615745,1.3006525472184038 -8.902408090456376,2.2006373936756933 -13.737987616614664,3.4927746656387932 13.508486397303686,6.859150596096434 36.585002906102254,4.593131157750742 51.5794766464773,1.5191281291681842 -2.9296515382026955,3.1668508989428785 -6.593529189231135,6.93502838838471 -8.688691311468848,8.929209097275233 25.724227018731224,-4.233335266404124 34.87826130400546,-5.43748136072908 42.076960863111786,-5.864004808503748 -2.418224786684064,2.092414405810457 -5.4236709675720105,4.802411149511372 -7.075562556080215,6.615340841915716 28.66649461942935,2.4438764392174632 40.15364629316354,-16.880147996844567 39.332717821546545,-35.01194696803359 " id="tail"/>
    <path nodetypes="cccsssccc" id="hair" style="display:inline;fill:#ff8702;fill-opacity:1;stroke:none;stroke-width: 0.9596106708814697px;stroke-linecap:butt;stroke-linejoin:miter;stroke-opacity:0.4501;" label="hair" d="m 41.80278638571708,15.77734388278174 c 3.4079431729156235,6.568689379185458 4.42460203052748,7.594331795498749 9.850718352333924,14.022222440069983 C 42.78785973276143,25.125492428130226 33.46045701336784,27.537387262307593 29.520167782670566,29.40701477925139 37.238126029995044,30.79506171672986 38.34908069491809,31.42128065270549 41.80278638571708,32.6040096770075 53.288739949262215,36.537404293802986 63.69709733475995,40.935641852927496 73.57809348117743,35.45826304495028 78.41111502318446,32.779145418143884 87.65724127333696,27.181679685760646 83.17966160709994,25.00498711003988 77.29736766545797,22.14541859270006 73.30389254709085,19.74701704933004 69.1885579059623,18.090642941313273 69.56584167063616,20.612524668798244 70.33850935675162,22.539226829164303 71.23951089608225,25.510735499577347 63.8716283515107,20.870513698011273 55.66664473753368,17.20493525964822 41.80278638571708,15.77734388278174 Z "/>
    <path d="m 122.1721955050317,10.443214454991558 c -0.5186229717077571,-0.05761889536933484 -1.0846714533593917,-0.07748031191022395 -1.702268909359492,-0.05736566703284776 -9.881449689706706,0.32187589283953183 -30.69788099614642,5.932707545956396 -48.8785379181678,25.21080996807835 2.3038449486675217,1.5162534206199443 4.9148483104390435,2.491687460957187 7.545750884025557,2.9632137416057582 0.9567420095770862,0.11051338147585113 1.9521183483417976,0.1451716478278879 2.992803661700644,0.09906141342277902 1.3332925459333644,-0.059074013422282946 2.8308962665001474,-0.1155779482055926 4.403791952606617,-0.1940409372424828 3.9272389005024064,-0.8835079967122837 8.428614471314393,-2.7140952632245963 10.301763373946324,-6.177831441817661 3.976724252884873,-7.353563049072322 7.7282113492830184,-9.138014002440395 11.897502523720375,-12.30114811412803 4.169306292546997,-3.163134489640375 11.257639871746465,-4.696532224545976 12.680299343295303,-1.893957090789091 1.4226556920214297,2.8025743778514025 -0.8721146113340705,10.755873592288443 -2.9016641377297585,15.81945235356487 -4.522964231379362,8.987274354831719 -13.942669057375237,16.43728980955552 -11.972427875101268,23.293273161682162 2.2749693592531752,7.916356223765504 7.488056398108017,6.118155349678924 10.46913218625464,-0.45565982458032195 C 122.22118951885082,45.253736801033995 125.81821866857409,30.39595874031659 126.6376391087544,23.716181491488918 127.03872255753062,20.446789746189385 129.9517101593815,11.307467271359558 122.17229755227177,10.44316758885167 Z " style="fill:#313131;fill-opacity:1;stroke:none;stroke-width: 1.030284053925825px;stroke-linecap:butt;stroke-linejoin:miter;stroke-opacity:0.4501;" id="right-ear" sodipodi:nodetypes="csccccssscssscc" label="right-ear"/>
    <path d="m 120.13182141213304,15.040048037793387 c 8.603829582526396,1.035433282069556 -0.7860850084218501,25.119014318149045 -6.099287948846932,30.61665063713974 -5.313202940425082,5.497643878045517 -5.950128899601226,9.245631132061767 -7.491605374346246,11.560701277137746 -1.0132648419974475,-3.0055066533265102 -0.7320226483455651,-4.227031014683819 -0.22098896767759973,-10.006805275322629 -3.1983797165992245,1.0237983848898276 -8.724426743132806,2.0776969260749243 -13.336138057632361,0.46138202907944775 1.442876163666293,-2.828084298106918 3.340660025958267,-7.084395311637981 4.872740595561394,-10.502930232168103 -2.0150890545240534,0.5395082622240842 -6.489750925600358,1.136630128479129 -11.774429772660246,1.312192956212876 9.509256948454452,-1.0239484321280146 9.581275843256858,-9.416987345787902 14.337459593013403,-13.460203690543164 6.892569177457907,-5.859349186639796 14.702040366061404,-10.583945158112396 19.712253712116,-9.980987701535918 z " label="right-ear-fluff" sodipodi:nodetypes="sccccccss" style="display:inline;fill:#ebdccc;fill-opacity:1;stroke:none;stroke-width: 1.030284053925825px;stroke-linecap:butt;stroke-linejoin:miter;stroke-opacity:1;" id="right-ear-fluff"/>
  </g>
  <g inkscape:groupmode="layer" id="Features" style="display:inline;" inkscape:label="Features">
    <path sodipodi:nodetypes="csc" id="nose-outline" inkscape:label="nose-outline" style="fill:none;fill-opacity:1;stroke:#313131;stroke-width: 3.878891185870426;stroke-linecap:round;stroke-linejoin:miter;stroke-miterlimit:4;stroke-dasharray:none;stroke-opacity:1;" d="M 33.983808173865825,79.05816255676527 C 32.033591305764126,76.26235164321452 31.87329172152395,71.8583744937648 33.86635482415926,69.743800718748 35.732267821564264,67.76412583605804 37.19806492921005,65.27320561916514 43.56857403273331,61.40700986586576 "/>
    <path style="fill:#313131;fill-opacity:1;stroke:none;stroke-width: 0.9999987007874529px;stroke-linecap:butt;stroke-linejoin:miter;stroke-opacity:1;" sodipodi:nodetypes="ssss" inkscape:label="nose" id="nose" d="m 40.688562807536904,71.91526016081654 c 3.6117579680410254,-1.9703167728221747 14.54861800989693,-2.6692950130198816 17.07116531215885,2.575800843472408 0.4033398266401644,0.8386544551710846 -6.115736452136361,7.143990899842878 -10.106864483981715,7.1351354671206515 -3.859048666966588,-0.008692913043586102 -7.870185516921832,-9.2167479835926 -6.964300828177134,-9.710936310593059 z "/>
    <path inkscape:label="left-eye" sodipodi:nodetypes="ssssss" id="left-eye" style="fill:#313131;fill-opacity:1;stroke-width: 4.025196691921391;stroke-linecap:round;" d="m 30.7002023818818,49.43457065218226 c -3.7424585613205292,-0.09433700415996048 -6.4713219499479555,2.2941277836957568 -6.5750438986203195,3.8218127629207577 -0.10372157071962321,1.5276849792250011 0.7889283468925848,2.2152188104244566 3.139520002381103,2.182994559724624 2.219401613409386,-0.030236219282038616 8.49522410648724,-0.4754645482100572 14.65952521812893,6.384075339209633 1.6139337947270163,1.795959614332299 4.266304084003776,0.12789920756302334 2.935959569450411,-1.9772446465651716 -5.332421837306228,-8.438025494565927 -9.651606801117843,-10.297972507953839 -14.159960891340123,-10.411638015289842 z "/>
    <path style="display:inline;fill:#313131;fill-opacity:1;stroke-width: 4.025196691921391;stroke-linecap:round;" sodipodi:nodetypes="ssssss" d="m 84.88387697307573,54.727050443816914 c 3.6231796998748154,0.9420472070060156 5.586995685551352,3.9908029924880717 5.26512735176664,5.487794429614393 -0.32186455425730104,1.496983878071501 -1.3695797885992211,1.9115035467911992 -3.6200124559050217,1.2318878255162273 -2.124884325791956,-0.6414991873425517 -8.034171652197967,-2.8012458739666983 -15.852010714487768,2.0909252720108165 -2.0468635414620655,1.2808667212257197 -4.1359481836240874,-1.054344525419507 -2.2763488867579182,-2.71064682241548 7.45383655693557,-6.638925092955706 12.11857086147359,-7.2347827072920206 16.48324470538407,-6.099960704725957 z " id="right-eye" inkscape:label="right-eye"/>
  </g>
  <metadata id="metadata30760">
    <rdf:RDF>
      <cc:Work rdf:about="">
        <dc:rights>
          <cc:Agent>
            <dc:title>Blobfox team (https://git.shadamethyst.xyz/adri326/blobfox), licensed under the Apache 2.0 License</dc:title>
          </cc:Agent>
        </dc:rights>
        <dc:title>blobfox_snug</dc:title>
        <dc:creator>
          <cc:Agent>
            <dc:title>Feuerfuchs</dc:title>
          </cc:Agent>
        </dc:creator>
        <dc:source>https://git.shadamethyst.xyz/adri326/blobfox</dc:source>
        <dc:contributor>
          <cc:Agent>
            <dc:title>Shad Amethyst</dc:title>
          </cc:Agent>
        </dc:contributor>
      </cc:Work>
    </rdf:RDF>
  </metadata>
</svg>
