<?xml version="1.0" encoding="UTF-8"?>
<svg xmlns="http://www.w3.org/2000/svg" xmlns:cc="http://creativecommons.org/ns#" xmlns:dc="http://purl.org/dc/elements/1.1/" xmlns:inkscape="http://www.inkscape.org/namespaces/inkscape" xmlns:rdf="http://www.w3.org/1999/02/22-rdf-syntax-ns#" xmlns:sodipodi="http://sodipodi.sourceforge.net/DTD/sodipodi-0.dtd" xmlns:svg="http://www.w3.org/2000/svg" xmlns:xlink="http://www.w3.org/1999/xlink" width="128" inkscape:version="1.2.1 (9c6d41e410, 2022-07-14)" viewBox="0 0 128 128" xml:space="preserve" sodipodi:docname="blobcat.svg" id="svg5" height="128">
  <title id="title30762">blobcat</title>
  <sodipodi:namedview inkscape:cy="-15.452983" inkscape:deskcolor="#505050" units="px" inkscape:zoom="2.13551" id="namedview7" inkscape:pageopacity="0" inkscape:showpageshadow="2" pagecolor="#505050" inkscape:document-units="px" borderopacity="1" inkscape:pageshadow="0" bordercolor="#ffffff" inkscape:window-x="0" inkscape:cx="28.096333" inkscape:window-height="779" inkscape:window-width="1536" inkscape:pagecheckerboard="1" showgrid="false" inkscape:current-layer="layer1" inkscape:window-y="0" inkscape:window-maximized="1">
    <inkscape:grid id="grid10" type="xygrid"/>
  </sodipodi:namedview>
  <defs id="defs2"/>
  <g inkscape:label="ref" style="display:none;" inkscape:groupmode="layer" id="ref">
    <image y="-16.623016" width="211.7665995367481" id="blobfoxmsnuggleleftcat" inkscape:label="blobfoxmsnuggleleftcat" height="211.7665995367481" x="0.45707837" preserveAspectRatio="none" xlink:href="../original/blobfoxmsnuggleleftcat.png" style="display:none;image-rendering:optimizeSpeed;"/>
    <image preserveAspectRatio="none" y="-10.339302" width="167.39570364583847" xlink:href="../original/blobfoxnomcat.png" x="-3.1429539" height="167.39570364583847" inkscape:label="blobfoxnomcat" id="blobfoxnomcat" style="display:none;image-rendering:optimizeSpeed;"/>
    <image id="blobfoxmsnugglecentercat" height="211.4343564002222" xlink:href="../original/blobfoxmsnugglecentercat.png" width="211.4343564002222" style="display:none;image-rendering:optimizeSpeed;" x="-11.634965" y="-17.482618" preserveAspectRatio="none" inkscape:label="blobfoxmsnugglecentercat"/>
    <image height="127.99998866141777" preserveAspectRatio="none" id="blobfox" x="0" inkscape:label="blobfox" y="0" xlink:href="../original/blobfox.png" style="display:none;image-rendering:optimizeSpeed;" width="127.99998866141777"/>
  </g>
  <g inkscape:groupmode="layer" inkscape:label="Base" id="Base" style="display:inline;">
    <path id="left-ear" d="M 15.95914784412804,48.31320754672412 C 7.638458911871696,28.385609213164994 9.677134107199445,13.966044678502179 10.107892893390044,10.795789181268145 10.476984910354926,8.079381603173953 12.985566480883211,6.6869836737408015 15.737883348902233,7.152537167222947 27.75833881266383,9.185793654102612 38.391006992480044,15.49303649240014 48.07604976078545,23.21450289706682 34.82041677084974,30.820918219648892 23.168981513032225,40.19040975628309 15.95914784412804,48.31320754672412 Z " sodipodi:nodetypes="csscc" inkscape:label="left-ear" style="fill:#e9ae20;fill-opacity:1;stroke:none;stroke-width: 0.9999987007874529px;stroke-linecap:butt;stroke-linejoin:miter;stroke-opacity:1;"/>
    <path d="M 185.62183206213263,79.74511056121614 C 86.75797075756022,104.73462012855828 5.773175205780504,220.93600138047242 0,359.0551039742086 c 0,0 0.5501139562947261,30.354027151416254 8.326771325717665,54.168300229594486 21.41734668435643,24.54391084472792 78.57409958369688,57.923525278601375 152.60580060607086,67.25638790329182 71.36226238731251,8.99633350408136 162.94802382094394,-1.6853290675067298 220.40106974798942,-14.601372653489268 57.45308750184695,-12.916043585982537 86.27296668216668,-50.1905744019459 90.01477440886717,-59.741629144030355 3.7417321361522786,-9.55105474208446 0.4079999839370086,-29.178579008717364 -2.1112440113683464,-37.566431276912155 -3.068409328015381,-10.216364952111617 -7.780535126750587,-23.7267656800486 -1.5058771060678307,-42.135823222999086 6.274620225408654,-18.409057542950492 23.803954968348233,-100.78992359094791 -7.324535144703342,-152.42951588860177 C 393.07886326461175,62.313631562455456 229.1212483023131,68.7498983956733 185.62183206213263,79.74511056121614 Z " inkscape:label="body" style="fill:#fcc21b;fill-opacity:1;stroke:none;stroke-width: 3.7795236307274167px;stroke-linecap:butt;stroke-linejoin:miter;stroke-opacity:0.4501;" sodipodi:nodetypes="sccsssssss" id="body" transform="scale(0.26458333) "/>
    <path d="m 84.3876061264722,21.635716817491467 c 4.894680752177924,-4.836372471008959 16.23824817959653,-11.747514624113599 30.8384794158079,-14.54707331704436 2.747221309164516,-0.5267735225679717 4.822215873141109,-1.2797154771765562 5.6961446576321,2.538496907933193 2.0760944064529765,9.070467800375285 0.9831117723184343,23.292385350693493 -0.6940119411806324,35.114844601777776 -0.34034644329344715,2.399232661447533 -0.5196094283618335,3.503376240024558 -1.5190223024006968,4.375411481283013 -0.6299073767753002,0.5496226555266671 -1.3185788457252425,0.13069605784661192 -1.8167848103628028,-0.7764207568338286 C 115.26818569810294,38.68895091775784 111.55083907280162,34.40633363754593 106.14877566343404,42.32354479041163 101.02649177061058,41.35409223015385 89.38555868560795,33.565671119461776 86.83081358933806,29.99013274054596 84.96605523755689,27.380278355107155 83.01416366085971,23.223725699853322 84.3876061264722,21.63572437654629 Z " inkscape:label="right-ear" sodipodi:nodetypes="cssssccscc" style="fill:#e9ae20;fill-opacity:1;stroke-width: 4.025196691921391;stroke-linecap:round;" id="right-ear"/>
    <path inkscape:label="right-ear-fluff" style="fill:#8a6135;fill-opacity:1;stroke:none;stroke-width: 4.025196691921391;stroke-linecap:round;stroke-opacity:1;" d="m 105.37234734754539,41.15761727725917 c 3.467542540647932,-13.051901722366075 7.07355184749796,-26.115082310429834 11.09710066546848,-29.926491168248383 1.2609145960269845,-1.1944330868333433 2.65058635233912,-1.1589739386230735 3.062237359754435,0.7869516540570216 0.6828396581559191,3.2278577626827656 0.2862614060527006,22.161723851900636 -2.632251864871974,36.32771686898753 -1.8546443364313254,-3.291548846789416 -2.601505409389551,-5.112710349893294 -4.417016519015098,-6.325352821836504 -0.13840629376353175,1.6430550534230295 -0.3411401440496007,3.020545392891914 -0.5986960394214158,3.7276080422201563 -1.2884560122655115,-0.5166991922559374 -2.7139198931527604,-2.7760477647225295 -2.6669479264981133,-4.800619653518912 -1.1991684567256515,1.765069536808286 -4.541706907806815,1.8806474850138788 -3.844452132108184,0.21017951928427092 z " sodipodi:nodetypes="csscccccc" id="right-ear-fluff"/>
  </g>
  <g inkscape:groupmode="layer" id="Features" inkscape:label="Features">
    <path d="m 27.790028638187852,54.518416751243436 c 0.6795257685226077,-5.915081341925932 5.559595245685228,-10.090060705115722 9.367468733564223,-9.96827299337508 3.961508253483928,0.1266897587917418 6.467463430414826,4.183022197518811 6.25869367485458,7.163353418765615 -0.413242188455032,5.899286696878478 -3.706945365868293,11.13713719932531 -9.389191945307406,11.095554838757685 -3.447460777659025,-0.02532283364870734 -6.743369687268911,-3.882576225095425 -6.236970463111399,-8.290635264148218 z " sodipodi:nodetypes="sssss" style="fill:#313131;fill-opacity:1;stroke:none;stroke-width: 1.0015747637175292;stroke-linecap:butt;stroke-linejoin:miter;stroke-miterlimit:4;stroke-dasharray:none;stroke-opacity:0.46432;" inkscape:label="left-eye" id="left-eye"/>
    <path id="right-eye" d="m 73.66655332021445,60.86205114716335 c 0.6795250126171256,-6.822349337702783 5.574969229331921,-10.542443679431353 9.382843095163658,-10.420655967690712 3.9615116550585965,0.1266897587917418 7.263779241583495,4.59354690576587 7.000225236211606,8.612605645173007 -0.42921069176335863,6.54523816751031 -4.10038283069359,10.875412485219982 -9.782630166038183,10.833830124652359 -3.447461911517248,-0.02532283364870734 -7.040205077157282,-4.610577456276478 -6.600438165337081,-9.025779802134656 z " style="fill:#313131;fill-opacity:1;stroke:none;stroke-width: 0.9999987007874529px;stroke-linecap:butt;stroke-linejoin:miter;stroke-opacity:0.46432;" inkscape:label="right-eye" sodipodi:nodetypes="sssss"/>
    <path style="fill:none;stroke:#313131;stroke-width: 4.403149432946873;stroke-linecap:round;stroke-linejoin:round;stroke-miterlimit:4;stroke-dasharray:none;stroke-opacity:1;" sodipodi:nodetypes="ccccc" id="mouth" inkscape:label="mouth" d="m 37.53784897882485,75.57400521362185 c 2.0735069419879157,6.37497801673315 4.020579621237023,10.401678960563823 5.959242851998313,12.940500907854297 3.7507425294983263,-3.1310436562581243 8.538972892166422,-7.475595296236407 10.436734077293934,-9.37381380418056 2.9622008282598102,4.818455243367905 7.01734649538006,10.375135339561602 8.671615406629316,12.64569776985442 4.859077603973323,-3.873206776645403 9.51886072760391,-7.995560000174804 11.435750100954722,-10.16286574161946 "/>
    <path inkscape:label="left-whisker-2" sodipodi:nodetypes="cc" style="fill:none;fill-opacity:1;stroke:#313131;stroke-width: 4.025196691921391;stroke-linecap:round;stroke-opacity:1;" id="left-whisker-2" d="M 23.36882667051864,73.99866039375354 C 15.825279628926001,67.38371262268849 9.199731417333409,62.77637044187519 5.144523010058149,60.521440136951185 "/>
    <path sodipodi:nodetypes="cc" d="M 22.339983750394342,81.98062543383365 C 14.845117021845788,80.25040691927533 6.6085361807662935,80.0787218866645 2.0603403535299076,80.04969133662634 " style="fill:none;fill-opacity:1;stroke:#313131;stroke-width: 4.025196691921391;stroke-linecap:round;stroke-opacity:1;" inkscape:label="left-whisker" id="left-whisker"/>
    <path id="right-whisker-2" d="m 88.55665919068272,84.53310281365738 c 9.601239307037824,-3.449491517736555 16.191707079066653,-4.176846449730455 18.831106030271417,-4.318597625252062 " inkscape:label="right-whisker-2" style="fill:none;fill-opacity:1;stroke:#313131;stroke-width: 4.025196691921391;stroke-linecap:round;stroke-opacity:1;"/>
    <path inkscape:label="right-whisker" d="m 85.28868325635106,93.36144766293515 c 7.253045383738372,2.1948962915395165 15.062830273116921,5.981128583420135 18.790691543673564,8.63206643180841 " style="fill:none;fill-opacity:1;stroke:#313131;stroke-width: 4.025196691921391;stroke-linecap:round;stroke-opacity:1;" id="right-whisker"/>
  </g>
  <metadata id="metadata30760">
    <rdf:RDF>
      <cc:Work rdf:about="">
        <dc:rights>
          <cc:Agent>
            <dc:title>Blobfox team (https://git.shadamethyst.xyz/adri326/blobfox), licensed under the Apache 2.0 License</dc:title>
          </cc:Agent>
        </dc:rights>
        <dc:title>blobcat</dc:title>
        <dc:creator>
          <cc:Agent>
            <dc:title>Feuerfuchs</dc:title>
          </cc:Agent>
        </dc:creator>
        <dc:source>https://git.shadamethyst.xyz/adri326/blobfox</dc:source>
      </cc:Work>
    </rdf:RDF>
  </metadata>
</svg>
