<?xml version="1.0" encoding="UTF-8" standalone="no"?>
<!-- Created with Inkscape (http://www.inkscape.org/) -->

<svg
   width="128"
   height="128"
   viewBox="0 0 33.866668 33.866668"
   version="1.1"
   id="svg5"
   inkscape:version="1.2.1 (9c6d41e410, 2022-07-14)"
   sodipodi:docname="blobfox_cry.svg"
   xml:space="preserve"
   xmlns:inkscape="http://www.inkscape.org/namespaces/inkscape"
   xmlns:sodipodi="http://sodipodi.sourceforge.net/DTD/sodipodi-0.dtd"
   xmlns:xlink="http://www.w3.org/1999/xlink"
   xmlns="http://www.w3.org/2000/svg"
   xmlns:svg="http://www.w3.org/2000/svg"
   xmlns:rdf="http://www.w3.org/1999/02/22-rdf-syntax-ns#"
   xmlns:cc="http://creativecommons.org/ns#"
   xmlns:dc="http://purl.org/dc/elements/1.1/"><title
     id="title30762">blobfox_cry</title><sodipodi:namedview
     id="namedview7"
     pagecolor="#505050"
     bordercolor="#ffffff"
     borderopacity="1"
     inkscape:pageshadow="0"
     inkscape:pageopacity="0"
     inkscape:pagecheckerboard="1"
     inkscape:document-units="mm"
     showgrid="false"
     inkscape:zoom="34.252303"
     inkscape:cx="91.672667"
     inkscape:cy="30.538092"
     inkscape:window-width="1536"
     inkscape:window-height="779"
     inkscape:window-x="0"
     inkscape:window-y="0"
     inkscape:window-maximized="1"
     inkscape:current-layer="layer1"
     units="px"
     inkscape:showpageshadow="2"
     inkscape:deskcolor="#505050"
     showguides="false"><inkscape:grid
       type="xygrid"
       id="grid10" /></sodipodi:namedview><defs
     id="defs2" /><g
     inkscape:groupmode="layer"
     id="layer2"
     inkscape:label="ref"
     style="display:inline"><image
       width="33.866665"
       height="33.866665"
       preserveAspectRatio="none"
       style="display:none;fill:#313131;fill-opacity:1;stroke:none;image-rendering:optimizeQuality"
       xlink:href="../original/blobfox.png"
       id="image80"
       x="0"
       y="0"
       inkscape:label="blobfox" /><image
       width="35.876282"
       height="35.876282"
       preserveAspectRatio="none"
       style="display:none;image-rendering:optimizeSpeed"
       xlink:href="../original/blobfoxcry.png"
       id="image38140"
       x="-0.72248876"
       y="-2.009618"
       inkscape:label="blobfoxcry" /></g><g
     inkscape:label="Base"
     inkscape:groupmode="layer"
     id="layer1"
     style="display:inline"><path
       style="fill:#313131;fill-opacity:1;stroke:none;stroke-width:0.264583px;stroke-linecap:butt;stroke-linejoin:miter;stroke-opacity:1"
       d="M 4.069401,12.658953 C 1.3356974,7.4628739 1.1781396,2.7939156 1.6241753,2.0697261 1.9756258,1.4991064 2.6920168,1.1727329 3.3634694,1.4803436 7.1575747,3.8271452 10.559834,5.9383505 13.79238,7.1680816 8.5987364,8.8467492 7.0607233,9.6622506 4.069401,12.658953 Z"
       id="path20678"
       sodipodi:nodetypes="csccc"
       inkscape:label="left-ear" /><path
       id="path117-3"
       style="display:inline;fill:#ff8702;fill-opacity:1;stroke:none;stroke-width:0.264583px;stroke-linecap:butt;stroke-linejoin:miter;stroke-opacity:0.4501"
       d="M 8.2074116,8.4126526 C 5.0913797,9.6496164 0.4041473,15.466063 0,25.134999 c 0,0 0.03851,2.124914 0.5829101,3.792016 1.4993074,1.718181 5.5005282,4.054899 10.6830689,4.70824 4.995668,0.629782 11.407069,-0.117981 15.429032,-1.02216 4.021965,-0.904179 6.039482,-3.513558 6.301425,-4.182173 0.261937,-0.668616 0.02856,-2.042628 -0.147797,-2.629814 -0.214802,-0.71519 -0.544671,-1.660976 -0.105418,-2.94969 C 33.182472,21.562704 34.115718,16.337933 32.130917,12.6127 28.259445,4.8114773 16.226603,5.2292932 8.2074116,8.4126526 Z"
       sodipodi:nodetypes="sccssssscs"
       inkscape:label="body" /><path
       id="path117-7"
       style="display:inline;fill:#ff8702;fill-opacity:1;stroke:none;stroke-width:0.264583px;stroke-linecap:butt;stroke-linejoin:miter;stroke-opacity:0.4501"
       d="M 11.377083,2.91 C 12.292433,4.7691551 12.5655,5.0594456 14.022916,6.87875 11.641667,5.5558333 9.136393,6.238479 8.07806,6.7676456 c 2.072988,0.3928621 2.371383,0.570103 3.299023,0.9048544 3.085045,1.1132796 5.439358,0.8298435 8.534621,0.8078466 1.97909,-0.014065 4.523967,-1.9426505 3.321321,-2.558726 -1.579942,-0.8093519 -3.394969,-1.888072 -4.500319,-2.3568803 0.101341,0.7137755 0.308869,1.2590955 0.550871,2.1001302 C 17.304617,4.3515344 15.100816,3.3140553 11.377083,2.91 Z"
       sodipodi:nodetypes="cccsssccc"
       inkscape:label="hair" /><path
       style="display:inline;fill:#ebdccc;fill-opacity:1;stroke:none;stroke-width:0.264583px;stroke-linecap:butt;stroke-linejoin:miter;stroke-opacity:1"
       d="m 33.993204,2.7951195 c 2.033839,0.7448168 -1.241164,6.8159439 -2.784933,8.0395365 -1.54377,1.223594 -1.268492,3.390789 -1.814783,3.408178 -0.364872,-1.012034 -0.113925,-1.792742 0.112011,-3.293968 -0.579279,0.281244 -1.743776,0.805951 -2.636004,0.891558 0.333613,-0.583209 0.413103,-1.175746 0.503297,-1.786046 C 26.783119,9.9360074 25.657061,9.7392485 25.049711,9.749448 26.772598,7.795033 31.6591,1.9403422 33.993204,2.7951195 Z"
       id="path18942"
       inkscape:label="right-ear-fluff"
       sodipodi:nodetypes="sscccccs" /><path
       id="path14428"
       style="fill:#313131;fill-opacity:1;stroke:none;stroke-width:0.264583px;stroke-linecap:butt;stroke-linejoin:miter;stroke-opacity:0.4501"
       inkscape:label="right-ear"
       d="M 33.647685,1.9995244 C 31.280093,1.725074 25.187754,2.8096955 20.611217,8.398146 c 1.105618,0.9726516 1.49421,1.3733682 2.95034,1.4842646 1.377133,0.10488 3.659112,-0.4224498 4.159243,-1.6535907 0.867055,-2.1343731 1.892835,-3.2685723 2.984413,-4.0298959 1.09158,-0.7613232 3.277028,-1.7261615 3.564614,-0.9489134 0.287585,0.7772476 -0.648646,3.8562033 -1.257069,5.1681687 -1.593929,2.7389227 -3.388598,2.4586747 -3.622321,5.8283447 0.863031,0.802809 1.704348,-0.680195 2.180717,-1.453852 2.023065,-3.2855957 2.936612,-6.3513847 3.244836,-7.669983 0.181832,-0.7778911 1.199283,-2.8487142 -1.168309,-3.1231646 z"
       sodipodi:nodetypes="scssssccssss" /></g><g
     inkscape:groupmode="layer"
     id="layer3"
     inkscape:label="Features"><path
       style="fill:none;fill-opacity:1;stroke:#313131;stroke-width:1.165;stroke-linecap:round;stroke-linejoin:miter;stroke-miterlimit:4;stroke-dasharray:none;stroke-opacity:1"
       d="M 9.0723479,20.246704 C 8.5840037,19.23954 8.5769008,18.250375 9.2119593,17.586021 9.8470178,16.921667 11.40288,16.478943 11.637534,15.046915"
       id="path27175"
       sodipodi:nodetypes="csc"
       inkscape:label="nose-outline" /><path
       style="fill:#313131;fill-opacity:1;stroke:none;stroke-width:0.264583px;stroke-linecap:butt;stroke-linejoin:miter;stroke-opacity:1"
       d="m 10.947546,18.398549 c 0.955611,-0.521313 3.849322,-0.706251 4.516746,0.681514 0.106717,0.221894 -1.618122,1.890181 -2.674108,1.887838 -1.02104,-0.0023 -2.08232,-2.438598 -1.842638,-2.569352 z"
       id="path28517"
       sodipodi:nodetypes="ssss"
       inkscape:label="nose" /><path
       style="display:inline;fill:none;stroke:#313131;stroke-width:1.11776;stroke-linecap:round;stroke-linejoin:round;stroke-miterlimit:4;stroke-dasharray:none;stroke-opacity:1"
       d="m 7.6079471,14.720381 c 1.170359,-0.05708 2.7380179,0.110479 4.0458609,0.27886 C 10.600149,13.65735 8.6227831,12.38589 7.8636761,11.89205"
       id="path26633"
       sodipodi:nodetypes="ccc"
       inkscape:label="left-eye" /><path
       style="display:inline;fill:none;stroke:#313131;stroke-width:1.11776;stroke-linecap:round;stroke-linejoin:round;stroke-miterlimit:4;stroke-dasharray:none;stroke-opacity:1"
       d="m 24.292648,14.159574 c -1.606201,0.06532 -3.967149,1.013726 -4.880971,1.569157 1.581165,0.332654 3.329582,0.967539 4.135766,1.315712"
       id="path26701"
       sodipodi:nodetypes="ccc"
       inkscape:label="right-eye" /><path
       style="display:inline;fill:#ab1829;fill-opacity:1;stroke-width:1.065;stroke-linecap:round"
       d="m 10.047993,21.710727 c 1.234997,-0.0079 2.237449,0.876992 2.854383,0.862099 0.514886,-0.01243 1.416969,-0.148323 1.83574,-0.148231 1.80272,3.96e-4 4.446506,1.921337 4.358619,4.851096 -0.0759,2.53012 -2.132249,2.959113 -3.007526,2.947964 -2.002895,-0.02551 -3.801338,-2.682441 -4.872084,-2.73128 -0.611206,-0.02788 -1.3559121,0.585231 -2.709081,0.563526 -1.4905108,-0.02391 -2.0392553,-0.978804 -1.9869019,-2.313334 0.052353,-1.334532 0.8954754,-4.01507 3.5268509,-4.03184 z"
       id="path39978"
       sodipodi:nodetypes="sssssssss"
       inkscape:label="mouth" /><path
       style="fill:#ffffff;fill-opacity:1;stroke:#ff8702;stroke-width:0.264583;stroke-linecap:round;stroke-dasharray:none;stroke-opacity:1"
       d="m 6.5162082,15.505728 c -1.0690926,-0.300663 -2.4687804,-0.137332 -3.5252798,0.42764 -1.0564989,0.564973 -1.5643829,1.679185 -0.8776573,2.463346 0.5606637,0.640213 1.7118936,0.403702 2.2888786,-0.429641 0.5930138,-0.856493 1.4454364,-1.89544 2.1140585,-2.461345 z"
       id="path50357"
       sodipodi:nodetypes="csssc"
       inkscape:label="left-tear-2" /><path
       style="fill:#ffffff;fill-opacity:1;stroke:#ff8702;stroke-width:0.316904;stroke-linecap:round;stroke-dasharray:none;stroke-opacity:1"
       d="m 24.373591,18.425221 c 1.321826,0.148836 2.511443,0.865826 3.428685,1.969397 0.917241,1.103572 1.064616,2.46174 -0.05115,3.021884 -0.910945,0.457318 -2.005878,-0.214593 -2.27,-1.399543 C 25.209666,20.79909 24.860064,19.3548 24.373591,18.425221 Z"
       id="path50357-7"
       sodipodi:nodetypes="csssc"
       inkscape:label="right-tear-2" /><path
       style="fill:#ffffff;fill-opacity:1;stroke:#ff8702;stroke-width:0.264583;stroke-linecap:round;stroke-dasharray:none;stroke-opacity:1"
       d="m 1.8625772,19.890285 c -1.01016911,0.458704 -1.7412043,1.181681 -2.21590991,2.281699 -0.42651566,0.988349 -0.0980007,1.903404 0.71652975,2.118455 0.65507646,0.172952 1.47271036,-0.339391 1.48208086,-1.352941 0.0084,-0.908507 0.03171,-2.306941 0.017299,-3.047213 z"
       id="path50357-3"
       sodipodi:nodetypes="csssc"
       inkscape:label="left-tear" /><path
       style="fill:#ffffff;fill-opacity:1;stroke:#ff8702;stroke-width:0.304765;stroke-linecap:round;stroke-dasharray:none;stroke-opacity:1"
       d="m 27.528468,25.139896 c 1.163584,0.528368 2.005642,1.361144 2.552442,2.628223 0.49129,1.13845 0.112884,2.192475 -0.82535,2.440186 -0.754563,0.199218 -1.696371,-0.390934 -1.707166,-1.558413 -0.0097,-1.046483 -0.03653,-2.657298 -0.01993,-3.509996 z"
       id="path50357-3-6"
       sodipodi:nodetypes="csssc"
       inkscape:label="right-tear" /></g><metadata
     id="metadata30760"><rdf:RDF><cc:Work
         rdf:about=""><dc:rights><cc:Agent><dc:title>Blobfox team (https://git.shadamethyst.xyz/adri326/blobfox), licensed under the Apache 2.0 License</dc:title></cc:Agent></dc:rights><dc:title>blobfox_cry</dc:title><dc:creator><cc:Agent><dc:title>Feuerfuchs</dc:title></cc:Agent></dc:creator><dc:source>https://git.shadamethyst.xyz/adri326/blobfox</dc:source><dc:contributor><cc:Agent><dc:title>Shad Amethyst</dc:title></cc:Agent></dc:contributor></cc:Work></rdf:RDF></metadata></svg>
