<?xml version="1.0" encoding="UTF-8" standalone="no"?>
<svg
   inkscape:version="1.2.1 (9c6d41e410, 2022-07-14)"
   viewBox="0 0 128 128"
   height="128"
   xml:space="preserve"
   sodipodi:docname="blobarcticfox_snug.svg"
   width="128"
   id="svg5"
   version="1.1"
   xmlns:inkscape="http://www.inkscape.org/namespaces/inkscape"
   xmlns:sodipodi="http://sodipodi.sourceforge.net/DTD/sodipodi-0.dtd"
   xmlns:xlink="http://www.w3.org/1999/xlink"
   xmlns="http://www.w3.org/2000/svg"
   xmlns:svg="http://www.w3.org/2000/svg"
   xmlns:rdf="http://www.w3.org/1999/02/22-rdf-syntax-ns#"
   xmlns:cc="http://creativecommons.org/ns#"
   xmlns:dc="http://purl.org/dc/elements/1.1/"><title
     id="title30762">blobarcticfox_snug</title><sodipodi:namedview
     inkscape:cy="56.427394"
     inkscape:window-x="0"
     id="namedview7"
     inkscape:cx="102.18692"
     inkscape:document-units="px"
     bordercolor="#ffffff"
     inkscape:window-y="0"
     borderopacity="1"
     inkscape:window-height="779"
     inkscape:pagecheckerboard="1"
     inkscape:window-maximized="1"
     inkscape:deskcolor="#505050"
     inkscape:zoom="3.5620996"
     inkscape:pageopacity="0"
     pagecolor="#505050"
     showgrid="false"
     inkscape:pageshadow="0"
     units="px"
     inkscape:showpageshadow="2"
     inkscape:window-width="1536"
     inkscape:current-layer="layer1"><inkscape:grid
       type="xygrid"
       id="grid10" /></sodipodi:namedview><defs
     id="defs2" /><g
     inkscape:groupmode="layer"
     id="layer2"
     inkscape:label="ref"
     style="display:none"><image
       width="127.99999"
       height="127.99999"
       style="display:inline;image-rendering:optimizeSpeed"
       x="-0.18173571"
       xlink:href="../original/blobfoxsnug.png"
       y="7.7926092"
       preserveAspectRatio="none"
       id="image6735"
       inkscape:label="blobfoxsnug" /><image
       width="127.99999"
       id="image450"
       inkscape:label="blobfox"
       x="0"
       style="display:none;image-rendering:optimizeSpeed"
       preserveAspectRatio="none"
       xlink:href="../original/blobfox.png"
       height="127.99999"
       y="0" /></g><g
     inkscape:label="Base"
     id="layer1"
     inkscape:groupmode="layer"
     style="display:inline;"><path
       id="path20678"
       sodipodi:nodetypes="cssccc"
       style="display:inline;fill:#8599ad;fill-opacity:1;stroke:none;stroke-width:0.999998700787453px;stroke-linecap:butt;stroke-linejoin:miter;stroke-opacity:1"
       inkscape:label="left-ear"
       d="M 13.995413496243565,50.89999547637814 C 9.775110040349999,28.54468536438247 10.283198335307153,11.600419952739372 12.172630197927948,8.999714669302573 13.661393981834884,6.950508576751632 14.663113123499485,6.447803840637645 17.10493614547496,7.800389740142138 c 2.8824788786425644,1.5966764725717926 8.458703289027431,10.59646597651709 22.381483717264423,20.54574873441934 1.7245983572992774,1.8585723992688035 3.9081485075532085,4.640667029894999 6.031071258619242,7.2498467696910724 C 31.237950518190928,39.10621452337738 22.565015678542693,43.56810915086185 13.995413496243565,50.89999547637814 Z " /><path
       style="fill:none;stroke:#bfdef4;stroke-width:6.4252;stroke-linecap:round;stroke-linejoin:round;stroke-dasharray:none;stroke-opacity:1"
       d="M 45.604701,35.133936 C 37.985162,36.846028 25.472636,41.793042 17.398935,49.901731 10.561679,56.768615 2.1444844,69.721674 2.5791111,93.754097 2.8148461,106.78892 17.978945,104.3803 42.662145,106.46318 64.400728,108.29759 90.0473,103.1978 104.51289,105.852 c 12.9431,2.37484 19.15556,-3.82567 19.30754,-12.449895 0.15077,-8.556142 0.75233,-21.800466 -8.68075,-37.578049"
       id="path23283"
       sodipodi:nodetypes="csssssc"
       inkscape:label="body-sheen" /><path
       inkscape:label="body"
       sodipodi:nodetypes="ssssssssss"
       id="path117"
       style="display:inline;fill:#eef2f4;fill-opacity:1;stroke:none;stroke-width:0.999999px;stroke-linecap:butt;stroke-linejoin:miter;stroke-opacity:0.4501"
       d="M 45.918639,33.669171 C 26.522924,40.293962 6.3165297,51.697716 4.5359276,87.72345 c -0.283232,5.730443 -0.2383382,11.70564 7.3751994,13.02738 25.233505,4.38063 51.679821,3.58941 76.766494,1.42219 13.481249,-1.16463 17.273619,1.82184 23.974329,0.78371 6.70071,-1.03812 9.27567,-5.565517 10.48998,-7.897139 0.27298,-0.524157 0.56395,-1.45733 0.8558,-4.484567 0.52138,-5.408075 0.42045,-10.312936 -0.59181,-16.782785 C 122.44091,67.62436 120.50193,60.915915 116.80941,53.845358 103.64828,28.643989 68.369929,26.000719 45.918639,33.669171 Z" /><path
       inkscape:label="tail"
       d="m 113.62187,89.228962 c -15.754957,4.658396 -23.06739,1.832254 -33.177407,-0.960057 0.937062,2.027331 2.156545,4.704177 2.960292,7.059378 -17.070583,-7.845849 -31.186317,-9.154344 -49.139272,-5.307968 2.476774,1.391947 5.929043,2.586954 8.877966,4.608937 C 33.528736,94.032159 18.659972,89.104989 7.7655198,87.905295 4.2407265,101.48888 10.983416,110.84517 21.369597,116.4355 c -4.399657,1.30065 -8.902409,2.20064 -13.7379881,3.49277 13.5084861,6.85916 36.5850031,4.59314 51.5794771,1.51913 -2.929652,3.16685 -6.59353,6.93503 -8.688692,8.92921 25.724227,-4.23333 34.878262,-5.43748 42.076961,-5.864 -2.418225,2.09241 -5.423671,4.80241 -7.075562,6.61534 28.666497,2.44387 40.153647,-16.88015 39.332717,-35.011949"
       style="display:inline;fill:#eef2f4;fill-opacity:1;stroke:#bfdef4;stroke-width:4.0252;stroke-linecap:round;stroke-linejoin:miter;stroke-dasharray:none;stroke-opacity:1"
       id="path500"
       sodipodi:nodetypes="ccccccccccccc" /><path
       label="hair"
       nodetypes="cccsssccc"
       style="display:inline;fill:#eef2f4;fill-opacity:1;stroke:none;stroke-width:0.95961067088147px;stroke-linecap:butt;stroke-linejoin:miter;stroke-opacity:0.4501"
       d="m 41.80278638571708,15.77734388278174 c 3.4079431729156235,6.568689379185458 4.42460203052748,7.594331795498749 9.850718352333924,14.022222440069983 C 42.78785973276143,25.125492428130226 33.46045701336784,27.537387262307593 29.520167782670566,29.40701477925139 37.238126029995044,30.79506171672986 38.34908069491809,31.42128065270549 41.80278638571708,32.6040096770075 53.288739949262215,36.537404293802986 63.69709733475995,40.935641852927496 73.57809348117743,35.45826304495028 78.41111502318446,32.779145418143884 87.65724127333696,27.181679685760646 83.17966160709994,25.00498711003988 77.29736766545797,22.14541859270006 73.30389254709085,19.74701704933004 69.1885579059623,18.090642941313273 69.56584167063616,20.612524668798244 70.33850935675162,22.539226829164303 71.23951089608225,25.510735499577347 63.8716283515107,20.870513698011273 55.66664473753368,17.20493525964822 41.80278638571708,15.77734388278174 Z "
       id="hair" /><path
       style="fill:#8599ad;fill-opacity:1;stroke:none;stroke-width:1.03028405392582px;stroke-linecap:butt;stroke-linejoin:miter;stroke-opacity:0.4501"
       id="right-ear"
       sodipodi:nodetypes="csccccssscssscc"
       label="right-ear"
       d="m 122.1721955050317,10.443214454991558 c -0.5186229717077571,-0.05761889536933484 -1.0846714533593917,-0.07748031191022395 -1.702268909359492,-0.05736566703284776 -9.881449689706706,0.32187589283953183 -30.69788099614642,5.932707545956396 -48.8785379181678,25.21080996807835 2.3038449486675217,1.5162534206199443 4.9148483104390435,2.491687460957187 7.545750884025557,2.9632137416057582 0.9567420095770862,0.11051338147585113 1.9521183483417976,0.1451716478278879 2.992803661700644,0.09906141342277902 1.3332925459333644,-0.059074013422282946 2.8308962665001474,-0.1155779482055926 4.403791952606617,-0.1940409372424828 3.9272389005024064,-0.8835079967122837 8.428614471314393,-2.7140952632245963 10.301763373946324,-6.177831441817661 3.976724252884873,-7.353563049072322 7.7282113492830184,-9.138014002440395 11.897502523720375,-12.30114811412803 4.169306292546997,-3.163134489640375 11.257639871746465,-4.696532224545976 12.680299343295303,-1.893957090789091 1.4226556920214297,2.8025743778514025 -0.8721146113340705,10.755873592288443 -2.9016641377297585,15.81945235356487 -4.522964231379362,8.987274354831719 -13.942669057375237,16.43728980955552 -11.972427875101268,23.293273161682162 2.2749693592531752,7.916356223765504 7.488056398108017,6.118155349678924 10.46913218625464,-0.45565982458032195 C 122.22118951885082,45.253736801033995 125.81821866857409,30.39595874031659 126.6376391087544,23.716181491488918 127.03872255753062,20.446789746189385 129.9517101593815,11.307467271359558 122.17229755227177,10.44316758885167 Z " /><path
       label="right-ear-fluff"
       d="m 120.13182141213304,15.040048037793387 c 8.603829582526396,1.035433282069556 -0.7860850084218501,25.119014318149045 -6.099287948846932,30.61665063713974 -5.313202940425082,5.497643878045517 -5.950128899601226,9.245631132061767 -7.491605374346246,11.560701277137746 -1.0132648419974475,-3.0055066533265102 -0.7320226483455651,-4.227031014683819 -0.22098896767759973,-10.006805275322629 -3.1983797165992245,1.0237983848898276 -8.724426743132806,2.0776969260749243 -13.336138057632361,0.46138202907944775 1.442876163666293,-2.828084298106918 3.340660025958267,-7.084395311637981 4.872740595561394,-10.502930232168103 -2.0150890545240534,0.5395082622240842 -6.489750925600358,1.136630128479129 -11.774429772660246,1.312192956212876 9.509256948454452,-1.0239484321280146 9.581275843256858,-9.416987345787902 14.337459593013403,-13.460203690543164 6.892569177457907,-5.859349186639796 14.702040366061404,-10.583945158112396 19.712253712116,-9.980987701535918 z "
       sodipodi:nodetypes="sccccccss"
       style="display:inline;fill:#a0c7de;fill-opacity:1;stroke:none;stroke-width:1.03028405392582px;stroke-linecap:butt;stroke-linejoin:miter;stroke-opacity:1"
       id="right-ear-fluff" /></g><g
     style="display:inline;"
     inkscape:groupmode="layer"
     id="layer3"
     inkscape:label="Features"><path
       style="fill:none;fill-opacity:1;stroke:#313131;stroke-width: 3.878891185870426;stroke-linecap:round;stroke-linejoin:miter;stroke-miterlimit:4;stroke-dasharray:none;stroke-opacity:1;"
       inkscape:label="nose-outline"
       d="M 33.983808173865825,79.05816255676527 C 32.033591305764126,76.26235164321452 31.87329172152395,71.8583744937648 33.86635482415926,69.743800718748 35.732267821564264,67.76412583605804 37.19806492921005,65.27320561916514 43.56857403273331,61.40700986586576 "
       id="path27175"
       sodipodi:nodetypes="csc" /><path
       d="m 40.688562807536904,71.91526016081654 c 3.6117579680410254,-1.9703167728221747 14.54861800989693,-2.6692950130198816 17.07116531215885,2.575800843472408 0.4033398266401644,0.8386544551710846 -6.115736452136361,7.143990899842878 -10.106864483981715,7.1351354671206515 -3.859048666966588,-0.008692913043586102 -7.870185516921832,-9.2167479835926 -6.964300828177134,-9.710936310593059 z "
       sodipodi:nodetypes="ssss"
       style="fill:#313131;fill-opacity:1;stroke:none;stroke-width: 0.9999987007874529px;stroke-linecap:butt;stroke-linejoin:miter;stroke-opacity:1;"
       inkscape:label="nose"
       id="path28517" /><path
       style="fill:#313131;fill-opacity:1;stroke-width: 4.025196691921391;stroke-linecap:round;"
       sodipodi:nodetypes="ssssss"
       d="m 30.7002023818818,49.43457065218226 c -3.7424585613205292,-0.09433700415996048 -6.4713219499479555,2.2941277836957568 -6.5750438986203195,3.8218127629207577 -0.10372157071962321,1.5276849792250011 0.7889283468925848,2.2152188104244566 3.139520002381103,2.182994559724624 2.219401613409386,-0.030236219282038616 8.49522410648724,-0.4754645482100572 14.65952521812893,6.384075339209633 1.6139337947270163,1.795959614332299 4.266304084003776,0.12789920756302334 2.935959569450411,-1.9772446465651716 -5.332421837306228,-8.438025494565927 -9.651606801117843,-10.297972507953839 -14.159960891340123,-10.411638015289842 z "
       inkscape:label="left-eye"
       id="left-eye" /><path
       sodipodi:nodetypes="ssssss"
       style="display:inline;fill:#313131;fill-opacity:1;stroke-width: 4.025196691921391;stroke-linecap:round;"
       d="m 84.88387697307573,54.727050443816914 c 3.6231796998748154,0.9420472070060156 5.586995685551352,3.9908029924880717 5.26512735176664,5.487794429614393 -0.32186455425730104,1.496983878071501 -1.3695797885992211,1.9115035467911992 -3.6200124559050217,1.2318878255162273 -2.124884325791956,-0.6414991873425517 -8.034171652197967,-2.8012458739666983 -15.852010714487768,2.0909252720108165 -2.0468635414620655,1.2808667212257197 -4.1359481836240874,-1.054344525419507 -2.2763488867579182,-2.71064682241548 7.45383655693557,-6.638925092955706 12.11857086147359,-7.2347827072920206 16.48324470538407,-6.099960704725957 z "
       id="path456-3"
       inkscape:label="right-eye" /></g><metadata
     id="metadata30760"><rdf:RDF><cc:Work
         rdf:about=""><dc:rights><cc:Agent><dc:title>Blobfox team (https://git.shadamethyst.xyz/adri326/blobfox), licensed under the Apache 2.0 License</dc:title></cc:Agent></dc:rights><dc:title>blobarcticfox_snug</dc:title><dc:creator><cc:Agent><dc:title>Feuerfuchs</dc:title></cc:Agent></dc:creator><dc:source>https://git.shadamethyst.xyz/adri326/blobfox</dc:source><dc:contributor><cc:Agent><dc:title>Shad Amethyst</dc:title></cc:Agent></dc:contributor></cc:Work></rdf:RDF></metadata></svg>
