<?xml version="1.0" encoding="UTF-8" standalone="no"?>
<svg
   inkscape:version="1.2 (dc2aedaf03, 2022-05-15)"
   viewBox="0 0 128 128"
   width="128"
   sodipodi:docname="blobarcticfox_snuggle_right.svg"
   id="svg5"
   height="128"
   version="1.1"
   xml:space="preserve"
   xmlns:inkscape="http://www.inkscape.org/namespaces/inkscape"
   xmlns:sodipodi="http://sodipodi.sourceforge.net/DTD/sodipodi-0.dtd"
   xmlns:xlink="http://www.w3.org/1999/xlink"
   xmlns="http://www.w3.org/2000/svg"
   xmlns:svg="http://www.w3.org/2000/svg"
   xmlns:rdf="http://www.w3.org/1999/02/22-rdf-syntax-ns#"
   xmlns:cc="http://creativecommons.org/ns#"
   xmlns:dc="http://purl.org/dc/elements/1.1/"><title
     id="title30762">blobarcticfox_snuggle_right</title><sodipodi:namedview
     inkscape:window-maximized="1"
     bordercolor="#ffffff"
     inkscape:showpageshadow="2"
     inkscape:window-height="1022"
     inkscape:pageopacity="0"
     borderopacity="1"
     inkscape:cy="14.922082"
     inkscape:window-x="0"
     id="namedview7"
     pagecolor="#505050"
     inkscape:pageshadow="0"
     showgrid="false"
     inkscape:zoom="2.4460393"
     inkscape:window-width="1920"
     inkscape:window-y="36"
     inkscape:current-layer="svg5"
     inkscape:cx="-81.560423"
     units="px"
     inkscape:pagecheckerboard="1"
     inkscape:document-units="px"
     inkscape:deskcolor="#505050"><inkscape:grid
       id="grid10"
       type="xygrid" /></sodipodi:namedview><defs
     id="defs2" /><g
     style="display:none"
     id="layer2"
     inkscape:groupmode="layer"
     inkscape:label="ref"><image
       inkscape:label="blobfox"
       y="0"
       height="127.99999"
       width="127.99999"
       style="display:none;fill:#313131;fill-opacity:1;stroke:none;image-rendering:optimizeQuality"
       x="0"
       preserveAspectRatio="none"
       xlink:href="../original/blobfox.png"
       id="image80" /><image
       width="221.0103"
       height="221.0103"
       preserveAspectRatio="none"
       style="display:inline;image-rendering:optimizeSpeed"
       xlink:href="../original/blobfoxsnuggle.png"
       id="image545"
       x="-93.369904"
       y="-106.29223"
       inkscape:label="blobfoxsnuggle" /></g><g
     inkscape:label="Base"
     id="layer1"
     inkscape:groupmode="layer"
     style="display:inline"><path
       sodipodi:nodetypes="cssscc"
       style="display:inline;fill:#8599ad;fill-opacity:1;stroke:none;stroke-width:0.999999px;stroke-linecap:butt;stroke-linejoin:miter;stroke-opacity:1"
       d="M 12.87231,40.818966 C -2.8719971,22.749014 -4.3550533,3.1367661 -2.9535978,0.24374984 -1.8493312,-2.0357805 -0.73468479,-3.6569086 1.9073133,-2.7558898 5.0260913,-1.6922712 17.794722,2.5508374 34.540893,8.7120265 c 7.146252,2.6292225 3.161601,9.4167855 1.87439,12.1261315 -2.856028,5.37387 -17.877727,10.71439 -23.542973,19.980808 z"
       id="path20678"
       inkscape:label="left-ear" /><path
       style="fill:none;stroke:#bfdef4;stroke-width:5.915;stroke-linecap:round;stroke-linejoin:round;stroke-dasharray:none;stroke-opacity:1"
       d="M 23.916685,24.436717 C 14.602244,28.240758 6.1035058,41.212772 6.0522293,52.383124 c -0.06182,13.46732 5.2935377,17.762913 5.6272057,26.275639 0.285199,7.276187 -3.0842753,6.114611 -2.6594315,13.088678 0.3554475,5.834884 17.4105045,17.435289 48.2809295,19.511619 17.000006,1.14342 40.08745,-0.83957 52.687987,-6.80693 12.02235,-5.69355 13.81288,-9.197298 14.35031,-22.168541 0.93466,-22.558581 -9.42668,-45.135646 -17.2285,-51.227375"
       id="path40517"
       sodipodi:nodetypes="cssssssc"
       inkscape:label="body-sheen" /><path
       id="path117-7"
       inkscape:label="hair"
       sodipodi:nodetypes="cccsssccc"
       style="display:inline;fill:#eef2f4;fill-opacity:1;stroke:none;stroke-width:0.999999px;stroke-linecap:butt;stroke-linejoin:miter;stroke-opacity:0.4501"
       d="m 23.769283,6.3584073 c 2.991294,4.2455057 4.569848,7.4475027 8.895201,10.9888377 -12.070861,-0.541455 -15.260708,1.69375 -19.417541,5.559159 7.973832,0.09289 11.531043,0.522786 15.204226,1.155863 12.215874,2.105419 38.518977,5.035068 47.371493,-2.486915 4.32997,-3.679173 3.410201,-7.265503 -2.316952,-10.378575 C 67.610927,7.9925869 55.645095,4.8584742 51.222049,3.8438904 52.004054,6.0173862 53.35612,8.7380188 54.213344,11.268754 45.9815,7.6883395 37.893549,5.4027147 23.769283,6.3584073 Z" /><path
       style="display:inline;fill:#eef2f4;fill-opacity:1;stroke:none;stroke-width:2.64567;stroke-linecap:square;stroke-miterlimit:3"
       d="m 11.777115,91.149268 c 0.06103,-5.423163 2.534363,-4.028232 2.714011,-11.854767 C 14.698932,70.241286 9.1659021,66.448097 8.2945368,53.764313 7.4703449,41.767195 14.698519,29.682048 22.405455,23.099448 c 2.997294,-2.56003 8.225884,-7.457425 24.239115,-7.457425 33.541601,0 50.287479,-0.290676 61.66375,13.954023 17.68827,22.148203 17.82851,57.284998 10.34099,65.611673 -5.41976,6.027171 -19.15345,13.467401 -51.843149,13.521431 -34.893119,0.0577 -54.890935,-12.611692 -55.029046,-17.579882 z"
       id="path8285"
       sodipodi:nodetypes="csssssssc"
       inkscape:label="body" /><path
       d="m 109.65875,-11.393576 c -9.0534,1.6065407 -29.38453,9.7496393 -44.524796,30.678621 0.210609,4.044387 7.117027,6.692013 15.231023,5.036186 8.412314,-1.716705 21.594053,-22.0009765 26.970613,-27.4823623 1.00114,9.5497778 -12.65173,31.3913833 -4.57278,40.2752173 3.27823,3.604628 6.48404,-4.729898 7.41016,-7.69531 3.7465,-12.049663 6.22482,-21.0511645 6.3764,-27.8592275 0.0598,-2.686778 1.92218,-14.5169695 -6.89062,-12.9531245 z"
       id="path14428"
       style="display:inline;fill:#8599ad;fill-opacity:1;stroke:none;stroke-width:0.999999px;stroke-linecap:butt;stroke-linejoin:miter;stroke-opacity:0.4501"
       inkscape:label="right-ear"
       sodipodi:nodetypes="scscccss" /><path
       id="path18942"
       style="display:inline;fill:#a0c7de;fill-opacity:1;stroke:none;stroke-width:0.999999px;stroke-linecap:butt;stroke-linejoin:miter;stroke-opacity:1"
       inkscape:label="right-ear-fluff"
       d="M 109.7442,-7.9162135 C 101.79383,-4.5766893 95.432201,2.858004 93.256387,11.957451 92.338149,15.7976 86.384544,21.344383 83.242552,23.116446 c 3.859188,-0.486555 8.080586,-0.662358 9.623136,-0.582576 -0.593528,2.540618 -1.150986,5.084216 -1.270641,7.589149 2.095641,-2.400784 6.129327,-4.663902 8.596323,-5.42458 -0.870477,4.814098 -0.218062,7.843034 1.18668,10.437489 0.3855,-11.747093 7.77479,-14.345491 10.05823,-21.014332 1.71162,-4.9987961 4.75466,-15.8385462 1.25678,-21.4073931 -0.64101,-1.0205338 -2.00455,-1.0270711 -2.94886,-0.6304164 z"
       sodipodi:nodetypes="sscccccsss" /></g><g
     id="layer3"
     inkscape:groupmode="layer"
     inkscape:label="Features"
     style="display:inline"
     transform="rotate(-10 45 75)"><path
       d="m 33.65228,80.15316 c -1.84571,-3.806604 -1.872556,-7.54518 0.527665,-10.056125 2.400221,-2.510944 6.697437,-10.228997 6.681819,-14.101173"
       sodipodi:nodetypes="csc"
       inkscape:label="nose-outline"
       id="path27175"
       style="fill:none;fill-opacity:1;stroke:#313131;stroke-width:4.40315;stroke-linecap:round;stroke-linejoin:miter;stroke-miterlimit:4;stroke-dasharray:none;stroke-opacity:1" /><path
       id="path28517"
       style="fill:#313131;fill-opacity:1;stroke:none;stroke-width:0.999999px;stroke-linecap:butt;stroke-linejoin:miter;stroke-opacity:1"
       sodipodi:nodetypes="ssss"
       d="m 40.349664,72.473149 c 3.611758,-1.970317 14.548618,-2.669295 17.071165,2.5758 0.40334,0.838655 -6.115736,7.143991 -10.106864,7.135136 -3.859049,-0.0087 -7.870186,-9.216748 -6.964301,-9.710936 z"
       inkscape:label="nose" /><path
       inkscape:label="mouth"
       id="path29369"
       style="fill:none;stroke:#313131;stroke-width:4.40315;stroke-linecap:round;stroke-linejoin:round;stroke-miterlimit:4;stroke-dasharray:none;stroke-opacity:1"
       d="m 30.329986,85.466434 c 2.073506,6.374978 4.020579,10.401679 5.959243,12.940501 3.750744,-3.131043 8.538975,-7.475595 10.436736,-9.373813 2.962201,4.818455 7.017346,10.375135 8.671615,12.645698 4.859078,-3.873207 9.518861,-7.995561 11.43575,-10.162866"
       sodipodi:nodetypes="ccccc" /><path
       style="display:inline;fill:#313131;fill-opacity:1;stroke-width:4.45223;stroke-linecap:round"
       sodipodi:nodetypes="ssssss"
       d="m 24.641601,45.918665 c -4.075919,0.730189 -6.501377,3.925039 -6.273966,5.603347 0.227411,1.678308 1.347515,2.224702 3.8872,1.666965 2.397981,-0.52641 9.098771,-2.404689 17.303469,3.65651 2.148157,1.586937 4.650972,-0.810343 2.741314,-2.795355 -7.65445,-7.956509 -12.747952,-9.01107 -17.658017,-8.131467 z"
       inkscape:label="left-eye"
       id="left-eye" /><path
       sodipodi:nodetypes="ssssss"
       style="display:inline;fill:#313131;fill-opacity:1;stroke-width:4.41528;stroke-linecap:round"
       d="m 83.448042,49.242516 c 3.928913,1.194349 5.945041,4.623512 5.525393,6.249833 -0.419635,1.626313 -1.586453,2.033818 -4.022559,1.188423 -2.300205,-0.798011 -8.680288,-3.429088 -17.467185,1.58346 -2.300578,1.312383 -4.485891,-1.340335 -2.373777,-3.072561 8.46599,-6.943249 13.605145,-7.38791 18.338128,-5.949155 z"
       id="path456-3"
       inkscape:label="right-eye" /></g><metadata
     id="metadata30760"><rdf:RDF><cc:Work
         rdf:about=""><dc:rights><cc:Agent><dc:title>Blobfox team (https://git.shadamethyst.xyz/adri326/blobfox), licensed under the Apache 2.0 License</dc:title></cc:Agent></dc:rights><dc:title>blobarcticfox_snuggle_right</dc:title><dc:creator><cc:Agent><dc:title>Feuerfuchs</dc:title></cc:Agent></dc:creator><dc:source>https://git.shadamethyst.xyz/adri326/blobfox</dc:source><dc:contributor><cc:Agent><dc:title>Shad Amethyst</dc:title></cc:Agent></dc:contributor></cc:Work></rdf:RDF></metadata><path
     style="display:inline;fill:#d7598b;fill-opacity:1;stroke:none;stroke-width:1px;stroke-linecap:butt;stroke-linejoin:miter;stroke-opacity:1"
     d="M 17.169221,-41.070349 C 0.68524509,-54.904396 -18.117728,-61.282802 -17.878994,-79.580228 -17.638387,-98.021242 2.6089701,-106.33438 16.109881,-91.195364 30.925783,-106.87833 51.809057,-97.94444 51.980453,-80.470186 52.157178,-62.452549 33.98327,-55.31 17.169221,-41.070349 Z"
     id="path62976"
     sodipodi:nodetypes="cscsc"
     inkscape:label="heart" /></svg>
