<?xml version="1.0" encoding="UTF-8"?><svg xmlns="http://www.w3.org/2000/svg" xmlns:cc="http://creativecommons.org/ns#" xmlns:dc="http://purl.org/dc/elements/1.1/" xmlns:inkscape="http://www.inkscape.org/namespaces/inkscape" xmlns:rdf="http://www.w3.org/1999/02/22-rdf-syntax-ns#" xmlns:sodipodi="http://sodipodi.sourceforge.net/DTD/sodipodi-0.dtd" xmlns:svg="http://www.w3.org/2000/svg" xmlns:xlink="http://www.w3.org/1999/xlink" height="128" inkscape:version="1.2.1 (9c6d41e410, 2022-07-14)" viewBox="0 0 128 128" id="svg5" sodipodi:docname="blobfox_boop_owo.svg" width="128" xml:space="preserve"><title id="title30762">blobfox</title><sodipodi:namedview inkscape:window-x="0" inkscape:pageshadow="0" id="namedview7" bordercolor="#ffffff" inkscape:window-maximized="1" units="px" inkscape:cy="29.11119" inkscape:showpageshadow="2" inkscape:pageopacity="0" inkscape:window-y="0" pagecolor="#505050" inkscape:zoom="2.5076268" inkscape:current-layer="layer3" inkscape:pagecheckerboard="1" borderopacity="1" inkscape:window-height="779" inkscape:window-width="1536" inkscape:document-units="px" inkscape:cx="28.911799" inkscape:deskcolor="#505050" showgrid="false"><inkscape:grid type="xygrid" id="grid10" /></sodipodi:namedview><defs id="defs2" /><g id="layer2" inkscape:label="ref" inkscape:groupmode="layer" style="display:none;"><image style="display:none;fill:#313131;fill-opacity:1;stroke:none;image-rendering:optimizeQuality;" xlink:href="../original/blobfox.png" preserveAspectRatio="none" height="127.99998866141777" id="image80" inkscape:label="blobfox" x="0" width="127.99998866141777" y="0" /><image width="139.69555481513567" style="display:inline;image-rendering:optimizeSpeed;" x="-3.1317594" height="139.69555481513567" preserveAspectRatio="none" xlink:href="../original/blobfoxboopowo.png" id="image489" y="-3.0616138" inkscape:label="blobfoxboopowo" /></g><g inkscape:groupmode="layer" inkscape:label="Base" style="display:inline;" id="layer1"><path d="M 31.020137109443425,31.795851094651535 C 19.243009132164996,36.4709896822445 1.5274857981304806,58.454409037228 0,94.99841767722766 c 0,0 0.1455496005689134,8.031170707434224 2.203124700664382,14.332028412124867 5.666673414697898,6.493912185279049 20.789397102779642,15.325601916314886 40.376951733190886,17.794922134058186 18.881264138532913,2.3802783314851053 43.113329956168116,-0.4459124233892747 58.31444935769885,-3.8632817376660737 15.201126960585555,-3.417369314276799 22.82638776274064,-13.27958876852013 23.816408511165022,-15.80663748792766 0.9899980712599185,-2.527052498934941 0.10794330283687785,-7.720168514953997 -0.5586028126534327,-9.939454096871888 -0.8118500467775573,-2.7030802085401495 -2.058598974070907,-6.277704319775421 -0.3984302205342433,-11.14843420675456 C 125.4140624640133,81.4968308072114 128.941291301524,61.74966560040687 121.43968151812278,47.67004536732106 106.80734697608871,18.185110339168887 61.32889081382321,19.764256985659177 31.020137109443425,31.795851094651535 Z " sodipodi:nodetypes="sccssssscs" inkscape:label="body" id="body" style="display:inline;fill:#ff8702;fill-opacity:1;stroke:none;stroke-width: 0.9999987007874529px;stroke-linecap:butt;stroke-linejoin:miter;stroke-opacity:0.4501;" /><path d="M 19.493792492370375,40.51590265685423 C 15.296651870210558,38.00754748001783 11.914928034845355,33.78414292188414 11.340134482671873,31.779103252791217 13.461034052715197,32.63930781735009 15.65346798214693,33.39360926796814 17.17299598531512,33.06411233605857 13.936807388314671,29.798653566982146 10.915440326163768,25.4878296737075 11.001944259765974,20.484712012412917 12.76780220599204,21.59311360657033 14.436871368627113,21.46288469831163 15.344652246273537,21.1843229454991 11.379582544110926,13.826521156436177 12.114059995509452,5.832476368800143 12.3796919850515,4.889274516170295 12.652508100294957,3.9205627432849313 15.488390319354716,2.895138556884309 16.582626244778496,3.543526197498969 17.67686217020228,4.191913913704177 21.74986572638324,8.84535650215132 22.343893671500254,11.610869212170504 22.937922750475483,14.376383434000655 25.388760701229895,33.09942672836903 25.457231753652295,35.04249839990164 24.182585000685634,35.86112060389289 21.334843758470722,38.4672476193997 19.493792492370375,40.51590265685423 Z " style="fill:#ebdccc;fill-opacity:1;stroke-width: 0.9999987007874529;stroke-linecap:round;" id="path1304" inkscape:label="left-ear-fluff" sodipodi:nodetypes="cccccssscc" /><path id="left-ear" sodipodi:nodetypes="csscssscc" style="display:inline;fill:#313131;fill-opacity:1;stroke:none;stroke-width: 0.9999987007874529px;stroke-linecap:butt;stroke-linejoin:miter;stroke-opacity:1;" inkscape:label="left-ear" d="M 25.430706652334386,35.05270841524771 C 23.416815707999383,32.727463026477835 23.145422584825884,29.038661659895215 22.850957714529226,24.495766846623354 22.585885472996637,20.406330283215347 20.600730653514542,4.489810594889348 14.900479917303942,3.8896605712732066 13.820481093681847,3.7759531111829485 12.831707967255593,3.934112727003436 12.361282662941628,4.956404214314795 12.229950888584613,3.49005128936806 12.44201601409386,1.7110766444458017 13.07921409924354,1.0666768587922497 14.627835392604908,-0.49944655671470256 16.92457520769389,-0.3543134978616733 19.366398229669365,0.9982724772333672 22.24887710831193,2.5949488364193374 29.030852778312887,13.344593238401844 43.69938725592964,23.088191846921582 50.0421561400726,27.30138601175646 35.00931301538138,26.045871226540505 42.99999704724422,28.999998606299272 35.45534751750601,29.76271630855448 30.89607374424907,31.374008969527207 25.430706652334386,35.05270841524771 Z " /><path sodipodi:nodetypes="cccsssccc" inkscape:label="hair" style="display:inline;fill:#ff8702;fill-opacity:1;stroke:none;stroke-width: 0.9999987007874529px;stroke-linecap:butt;stroke-linejoin:miter;stroke-opacity:0.4501;" id="hair" d="M 42.99999704724422,10.998424763841546 C 46.45958746222097,18.0251524242066 47.49165167355703,19.122313325893177 52.99999539370098,25.998424173290392 43.999999527559076,20.998424244156528 34.53124777436033,23.578502378799122 30.53124919168311,25.578502048090474 38.36616415881244,27.06333512349075 39.493956240395434,27.733221963258984 42.99999704724422,28.99842405518016 54.66000918661382,33.20609481865769 65.22610136905114,37.91102968854214 75.25683105288068,32.05170242316133 80.16309227704362,29.18577182733182 89.54933694687652,23.197992787480604 85.00390342504319,20.869518548444155 79.03246932943036,17.81055085785233 74.97847641817023,15.244907494294981 70.80077579524506,13.473033674290015 71.1837968825277,16.17076774130836 71.96815464692307,18.23181962866852 72.88280783925954,21.410533330293966 65.40327427546165,16.44674354146679 57.07394798921465,12.525562845450283 42.99999704724422,10.998424763841546 Z " /><path inkscape:label="right-ear-fluff" d="m 120.453784234103,3.3689521319310187 c 9.39191018142086,0.23127192790268003 2.5106077751729226,28.603620215605506 -1.9260887430673728,34.58246558651711 -4.436700297767706,5.978849528391751 -3.1428697975248117,16.04735558868679 -5.120001058267675,16.64597603756 -2.6745598947023668,-3.120094365350616 -2.6751003671220333,-9.811093786964813 -2.7120036727557615,-15.685462059627481 -2.8725579971433866,1.2924434136833305 -7.898777641780409,2.803914220318338 -12.313734318356918,1.5465032462006598 1.0869618469700062,-2.9710487019272165 2.469244627195094,-7.420326133058027 3.586718598948087,-10.99447893722524 -1.819128117357161,0.7077886965437522 -5.911691105838933,1.673076595548166 -10.791869811343709,2.2785663354895145 4.3746328986365,-8.82208217235897 19.88506882342249,-28.604842212407792 29.27697900484335,-28.373570208914565 z " sodipodi:nodetypes="sscccccs" id="right-ear-fluff" style="display:inline;fill:#ebdccc;fill-opacity:1;stroke:none;stroke-width: 0.9999987007874529px;stroke-linecap:butt;stroke-linejoin:miter;stroke-opacity:1;" /><path style="display:inline;fill:#313131;fill-opacity:1;stroke:none;stroke-width: 0.9999987007874529px;stroke-linecap:butt;stroke-linejoin:miter;stroke-opacity:0.4501;" id="right-ear" inkscape:label="right-ear" d="m 122.1347592860331,0.5214843385242387 c -0.4855369887583863,-0.016115904877326583 -1.0116736609577301,0.009720944499175415 -1.5820308038570552,0.0800779810992921 -9.125668932060279,1.1257120564680294 -27.914417798644973,8.4753132915231 -43.054683029343195,29.404295900618276 2.2681397532228447,1.3434798841149653 4.773066898698154,2.116264357627388 7.2519493207893975,2.378905985082442 0.8960692560602656,0.03397795141819089 1.8212408731794936,-0.011716534971789963 2.7812521739664504,-0.1425788920244531 1.2299338098451258,-0.16767495402854515 2.6123186373102905,-0.3460724273199832 4.062500627460606,-0.55273434044353 3.560152300781406,-1.2099370862229495 6.374584945882483,-3.7685429697424033 7.271481918445595,-7.619140235466921 1.9752377175103266,-8.480141524403878 6.645403202936882,-11.360472119666454 10.228516132735587,-14.890624421628962 3.5831167093261143,-3.5301515460570263 12.659220918928312,-7.254070315981484 14.224610463598015,-4.5410152542907385 1.5653857651422929,2.7130540034230712 0.27291967429450104,16.97534295372666 -1.1601561747970013,22.24999887204729 -3.396517661554423,9.436533549742775 -9.326002782440836,15.19353313411287 -8.966796497370218,25.33398249866211 0.030992124764089583,0.8761398080259919 0.05306456483997777,1.6958852875635717 0.19725353554119943,2.388672661863281 0.19751810245991724,0.2612031393227111 0.4108346294946997,0.5143936805356819 0.6406223369833727,0.7558601277220424 2.821058156651254,2.9644458675415017 4.8611185487748605,-0.683210051842124 6.167969520946083,-4.0917957444174915 0.394064866375399,-1.0462487777067413 0.7951558742064617,-2.1657523556790417 1.242187037709172,-3.6035148187592596 3.7465056792714306,-12.049663273635305 5.834584967142325,-27.30954336576601 6.003907795121741,-34.1171884520792 0.08288503610688835,-3.331963711340012 1.9744931506105063,-12.791462690099895 -5.308595696511981,-13.033202775070759 z " /></g><g id="layer3" inkscape:label="Features" inkscape:groupmode="layer"><g inkscape:label="right-eye" id="g4043"><ellipse style="display:inline;fill:#ffffff;fill-opacity:1;stroke-width: 0.9999987007874529;stroke-linecap:round;" cy="31.28181646921983" id="ellipse4039" ry="15.823674841587609" cx="93.69369457898841" rx="12.946604088716375" transform="rotate(18.569655) " inkscape:label="eye" /><ellipse inkscape:label="pupil" style="fill:#313131;fill-opacity:1;stroke-width: 0.9999987007874529;stroke-linecap:round;" transform="rotate(12.698142) " rx="3.770413798015205" id="ellipse4041" ry="5.9598570252024805" cx="86.98705547295059" cy="44.132706293987944" /></g><g transform="translate(-43.388842386266056 -5.014398416755968) " inkscape:label="left-eye" style="display:inline;" id="g2253"><ellipse transform="rotate(18.569655) " cy="31.28181646921983" cx="93.69369457898841" rx="12.946604088716375" style="display:inline;fill:#ffffff;fill-opacity:1;stroke-width: 0.9999987007874529;stroke-linecap:round;" inkscape:label="eye" id="path3658" ry="15.24056519525334" /><ellipse rx="3.770413798015205" cx="89.13013066416809" style="fill:#313131;fill-opacity:1;stroke-width: 0.9999987007874529;stroke-linecap:round;" id="path3683" inkscape:label="pupil" ry="5.9598570252024805" transform="rotate(12.698142) " cy="43.68699418555142" /></g><path d="M 33.65228012392598,80.15315967900948 C 31.806569834387016,76.34655573438758 31.77972422914472,72.60797950362286 34.17994523701003,70.09703535051042 36.58016624487534,67.58609119739799 44.91972484568013,64.38386770142253 47.778910874846034,54.709316901208005 " id="nose-outline" inkscape:label="nose-outline" sodipodi:nodetypes="csc" style="display:inline;fill:none;fill-opacity:1;stroke:#313131;stroke-width: 4.403149432946873;stroke-linecap:round;stroke-linejoin:miter;stroke-miterlimit:4;stroke-dasharray:none;stroke-opacity:1;" /><path d="m 40.34966392324158,72.47314864278943 c 3.6117579680410254,-1.9703167728221747 14.54861800989693,-2.6692950130198816 17.07116531215885,2.575800843472408 0.4033398266401644,0.8386544551710846 -6.115736452136361,7.143990899842878 -10.106864483981715,7.1351354671206515 -3.859048666966588,-0.008692913043586102 -7.870185516921832,-9.2167479835926 -6.964300828177134,-9.710936310593059 z " style="display:inline;fill:#313131;fill-opacity:1;stroke:none;stroke-width: 0.9999987007874529px;stroke-linecap:butt;stroke-linejoin:miter;stroke-opacity:1;" inkscape:label="nose" sodipodi:nodetypes="ssss" id="nose" /><path id="mouth" inkscape:label="mouth" style="fill:none;stroke:#313131;stroke-width: 4.403149432946873;stroke-linecap:round;stroke-linejoin:round;stroke-miterlimit:4;stroke-dasharray:none;stroke-opacity:1;" d="m 30.329986333465108,85.46643443045535 c 2.0735054301769518,6.37497801673315 4.0205784873788,10.401678960563823 5.959242851998313,12.940500907854297 3.7507440413092903,-3.1310436562581243 8.538974403977388,-7.475595296236407 10.4367355891049,-9.37381380418056 2.9622008282598102,4.818455243367905 7.01734649538006,10.375135339561602 8.671615406629316,12.64569776985442 4.859077603973323,-3.873206776645403 9.51886072760391,-7.995560000174804 11.435750100954722,-10.16286574161946 " sodipodi:nodetypes="ccccc" /><path id="path4177" d="m 18.56050925352326,55.45368726560287 c 6.441239557431515,0.49764281505343255 3.6464219036841774,12.1899283389792 -8.576859252879558,12.481341240892078 13.066484650925803,1.8490695335011995 28.668450524864156,3.0567192497354627 31.200805700755684,3.0802468078642993 8.225971329686168,0.07642204423535259 7.369262072076297,10.275926524569822 -0.929994294094713,10.444338486443367 -8.299252964596342,0.16841574140095508 -12.073718831743355,-0.1799433000022323 -14.635515770255285,-0.4785070677753123 2.4299526602380843,0.7938481577225136 1.4675901154492081,6.368843843746306 -1.9774041426218845,6.218078495351241 2.7505593877732526,0.6239243848848668 0.987541756395994,6.996332322979043 -1.4254026525432029,6.792396582976513 2.2485058642320532,0.7098406019747796 0.003246614045408896,7.68937670514265 -4.199357692938674,7.3951027009802095 -3.5215648377336684,-0.24657636824502493 -27.937243120580984,-0.9511898838114219 -27.75528684428005,-15.22391751086939 0.1407118054837872,-11.037610904031068 -0.9826268589516987,-32.70200942118073 28.299014948857682,-30.709068397280777 z " inkscape:label="hand-boop" style="fill:#ffffff;fill-opacity:1;stroke:#313131;stroke-width: 3.269291209870425;stroke-linecap:round;stroke-linejoin:round;stroke-dasharray:none;stroke-opacity:1;" sodipodi:nodetypes="ccsscccsscc" /></g><metadata id="metadata30760"><rdf:RDF><cc:Work rdf:about=""><dc:rights><cc:Agent><dc:title>Blobfox team (https://git.shadamethyst.xyz/adri326/blobfox), licensed under the Apache 2.0 License</dc:title></cc:Agent></dc:rights><dc:title>blobfox</dc:title><dc:creator><cc:Agent><dc:title>Feuerfuchs</dc:title></cc:Agent></dc:creator><dc:source>https://git.shadamethyst.xyz/adri326/blobfox</dc:source><dc:contributor><cc:Agent><dc:title>Shad Amethyst</dc:title></cc:Agent></dc:contributor></cc:Work></rdf:RDF></metadata></svg>