<?xml version="1.0" encoding="UTF-8" standalone="no"?>
<!-- Created with Inkscape (http://www.inkscape.org/) -->

<svg
   width="128"
   height="128"
   viewBox="0 0 33.866668 33.866668"
   version="1.1"
   id="svg5"
   inkscape:version="1.2.1 (9c6d41e410, 2022-07-14)"
   sodipodi:docname="blobcat.svg"
   xml:space="preserve"
   xmlns:inkscape="http://www.inkscape.org/namespaces/inkscape"
   xmlns:sodipodi="http://sodipodi.sourceforge.net/DTD/sodipodi-0.dtd"
   xmlns:xlink="http://www.w3.org/1999/xlink"
   xmlns="http://www.w3.org/2000/svg"
   xmlns:svg="http://www.w3.org/2000/svg"
   xmlns:rdf="http://www.w3.org/1999/02/22-rdf-syntax-ns#"
   xmlns:cc="http://creativecommons.org/ns#"
   xmlns:dc="http://purl.org/dc/elements/1.1/"><title
     id="title30762">blobcat</title><sodipodi:namedview
     id="namedview7"
     pagecolor="#505050"
     bordercolor="#ffffff"
     borderopacity="1"
     inkscape:pageshadow="0"
     inkscape:pageopacity="0"
     inkscape:pagecheckerboard="1"
     inkscape:document-units="mm"
     showgrid="false"
     inkscape:zoom="2.13551"
     inkscape:cx="28.096333"
     inkscape:cy="-15.452983"
     inkscape:window-width="1536"
     inkscape:window-height="779"
     inkscape:window-x="0"
     inkscape:window-y="0"
     inkscape:window-maximized="1"
     inkscape:current-layer="layer1"
     units="px"
     inkscape:showpageshadow="2"
     inkscape:deskcolor="#505050"><inkscape:grid
       type="xygrid"
       id="grid10" /></sodipodi:namedview><defs
     id="defs2" /><g
     inkscape:groupmode="layer"
     id="layer2"
     inkscape:label="ref"
     style="display:none"><image
       width="56.029915"
       height="56.029915"
       preserveAspectRatio="none"
       style="display:none;image-rendering:optimizeSpeed"
       xlink:href="../original/blobfoxmsnuggleleftcat.png"
       id="image475"
       x="0.45707837"
       y="-16.623016"
       inkscape:label="blobfoxmsnuggleleftcat" /><image
       width="44.290115"
       height="44.290115"
       preserveAspectRatio="none"
       style="display:none;image-rendering:optimizeSpeed"
       xlink:href="../original/blobfoxnomcat.png"
       id="image2206"
       x="-3.1429539"
       y="-10.339302"
       inkscape:label="blobfoxnomcat" /><image
       width="55.942009"
       height="55.942009"
       preserveAspectRatio="none"
       style="display:none;image-rendering:optimizeSpeed"
       xlink:href="../original/blobfoxmsnugglecentercat.png"
       id="image2335"
       x="-11.634965"
       y="-17.482618"
       inkscape:label="blobfoxmsnugglecentercat" /><image
       width="33.866665"
       height="33.866665"
       preserveAspectRatio="none"
       style="display:none;image-rendering:optimizeSpeed"
       xlink:href="../original/blobfox.png"
       id="image4772"
       x="0"
       y="0"
       inkscape:label="blobfox" /></g><g
     inkscape:label="Base"
     inkscape:groupmode="layer"
     id="layer1"
     style="display:inline"><path
       style="fill:#e9ae20;fill-opacity:1;stroke:none;stroke-width:0.264583px;stroke-linecap:butt;stroke-linejoin:miter;stroke-opacity:1"
       d="M 4.2225247,12.78287 C 2.021009,7.5103594 2.5604085,3.6951828 2.6743801,2.856386 2.7720357,2.1376698 3.4357646,1.7692645 4.1639818,1.8924422 7.3443941,2.430408 10.157621,4.0991994 12.720122,6.1421708 9.2129023,8.1547016 6.1301266,10.633713 4.2225247,12.78287 Z"
       id="path20678"
       sodipodi:nodetypes="csscc"
       inkscape:label="left-ear" /><path
       id="path117"
       style="fill:#fcc21b;fill-opacity:1;stroke:none;stroke-width:0.999999px;stroke-linecap:butt;stroke-linejoin:miter;stroke-opacity:0.4501"
       d="M 49.112445,21.099228 C 22.954714,27.711036 1.527486,58.455986 0,95 c 0,0 0.14555099,8.03117 2.203125,14.33203 5.6666732,6.49391 20.789398,15.3256 40.376953,17.79492 18.881266,2.38028 43.113333,-0.44591 58.314452,-3.86328 15.20113,-3.41737 22.82639,-13.27959 23.81641,-15.80664 0.99,-2.52705 0.10795,-7.720166 -0.5586,-9.939452 -0.81185,-2.70308 -2.0586,-6.277707 -0.39843,-11.148437 1.66016,-4.87073 6.29813,-26.667335 -1.93795,-40.330311 C 104.00212,16.487149 60.621666,18.190078 49.112445,21.099228 Z"
       transform="scale(0.26458333)"
       sodipodi:nodetypes="sccsssssss"
       inkscape:label="body" /><path
       style="fill:#e9ae20;fill-opacity:1;stroke-width:1.065;stroke-linecap:round"
       d="m 22.327555,5.7244503 c 1.295051,-1.2796236 4.29637,-3.1081967 8.159348,-3.8489133 0.726869,-0.1393755 1.275878,-0.3385914 1.507105,0.671644 0.5493,2.3998947 0.260115,6.1627772 -0.183624,9.290803 -0.09005,0.634797 -0.13748,0.926935 -0.401908,1.157661 -0.166663,0.145421 -0.348874,0.03458 -0.480691,-0.205428 C 30.498042,10.236452 29.514494,9.1033428 28.085198,11.198105 26.729927,10.941604 23.64993,8.8809175 22.973987,7.9348896 22.480603,7.2443656 21.964165,6.144611 22.327555,5.7244523 Z"
       id="path501"
       sodipodi:nodetypes="cssssccscc"
       inkscape:label="right-ear" /><path
       style="fill:#8a6135;fill-opacity:1;stroke:none;stroke-width:1.065;stroke-linecap:round;stroke-opacity:1"
       d="m 27.879768,10.88962 c 0.917454,-3.4533158 1.871544,-6.9096158 2.936108,-7.9180511 0.333617,-0.3160271 0.701301,-0.3066452 0.810217,0.2082143 0.180668,0.8540374 0.07574,5.863623 -0.69645,9.6117088 -0.490708,-0.870889 -0.688315,-1.352738 -1.168669,-1.673583 -0.03662,0.434725 -0.09026,0.799186 -0.158405,0.986263 -0.340904,-0.13671 -0.718058,-0.734496 -0.70563,-1.270164 -0.31728,0.467008 -1.20166,0.497588 -1.017178,0.05561 z"
       id="path4922"
       sodipodi:nodetypes="csscccccc"
       inkscape:label="right-ear-fluff" /></g><g
     inkscape:groupmode="layer"
     id="layer3"
     inkscape:label="Features"><path
       style="fill:#313131;fill-opacity:1;stroke:none;stroke-width:0.265;stroke-linecap:butt;stroke-linejoin:miter;stroke-miterlimit:4;stroke-dasharray:none;stroke-opacity:0.46432"
       d="m 7.3527787,14.424665 c 0.1797912,-1.565032 1.4709763,-2.669662 2.4784762,-2.637439 1.0481491,0.03352 1.7111831,1.106758 1.6559461,1.895304 -0.109337,1.560853 -0.980796,2.946701 -2.4842238,2.935699 -0.9121407,-0.0067 -1.7841833,-1.027265 -1.6501985,-2.193564 z"
       id="path22173"
       sodipodi:nodetypes="sssss"
       inkscape:label="left-eye" /><path
       style="fill:#313131;fill-opacity:1;stroke:none;stroke-width:0.264583px;stroke-linecap:butt;stroke-linejoin:miter;stroke-opacity:0.46432"
       d="m 19.490943,16.103085 c 0.179791,-1.80508 1.475044,-2.789355 2.482544,-2.757132 1.04815,0.03352 1.921875,1.215376 1.852143,2.278752 -0.113562,1.731761 -1.084893,2.877453 -2.588321,2.866451 -0.912141,-0.0067 -1.862721,-1.219882 -1.746366,-2.388071 z"
       id="path22173-3"
       sodipodi:nodetypes="sssss"
       inkscape:label="right-eye" /><path
       style="fill:none;stroke:#313131;stroke-width:1.165;stroke-linecap:round;stroke-linejoin:round;stroke-miterlimit:4;stroke-dasharray:none;stroke-opacity:1"
       d="m 9.9318896,19.995623 c 0.5486154,1.686713 1.0637784,2.752111 1.5767164,3.423841 0.992384,-0.828422 2.25927,-1.977918 2.761386,-2.480155 0.783749,1.274883 1.856673,2.745088 2.294365,3.345841 1.285631,-1.024786 2.518532,-2.115492 3.025709,-2.688925"
       id="path29369"
       sodipodi:nodetypes="ccccc"
       inkscape:label="mouth" /><path
       style="fill:none;fill-opacity:1;stroke:#313131;stroke-width:1.065;stroke-linecap:round;stroke-opacity:1"
       d="M 6.1830023,19.578813 C 4.1871054,17.828608 2.4340957,16.609582 1.3611551,16.012965"
       id="path1334"
       inkscape:label="left-whisker-2"
       sodipodi:nodetypes="cc" /><path
       style="fill:none;fill-opacity:1;stroke:#313131;stroke-width:1.065;stroke-linecap:round;stroke-opacity:1"
       d="M 5.9107876,21.690708 C 3.9277707,21.232921 1.7485086,21.187496 0.54513174,21.179815"
       id="path2116"
       sodipodi:nodetypes="cc"
       inkscape:label="left-whisker" /><path
       style="fill:none;fill-opacity:1;stroke:#313131;stroke-width:1.065;stroke-linecap:round;stroke-opacity:1"
       d="m 23.430617,22.366051 c 2.540328,-0.912678 4.284056,-1.105124 4.982397,-1.142629"
       id="path2359"
       inkscape:label="right-whisker-2" /><path
       style="fill:none;fill-opacity:1;stroke:#313131;stroke-width:1.065;stroke-linecap:round;stroke-opacity:1"
       d="m 22.565965,24.701884 c 1.919035,0.580733 3.985374,1.582507 4.971704,2.283901"
       id="path2361"
       inkscape:label="right-whisker" /></g><metadata
     id="metadata30760"><rdf:RDF><cc:Work
         rdf:about=""><dc:rights><cc:Agent><dc:title>Blobfox team (https://git.shadamethyst.xyz/adri326/blobfox), licensed under the Apache 2.0 License</dc:title></cc:Agent></dc:rights><dc:title>blobcat</dc:title><dc:creator><cc:Agent><dc:title>Feuerfuchs</dc:title></cc:Agent></dc:creator><dc:source>https://git.shadamethyst.xyz/adri326/blobfox</dc:source></cc:Work></rdf:RDF></metadata></svg>
