<?xml version="1.0" encoding="UTF-8" standalone="no"?>
<!-- Created with Inkscape (http://www.inkscape.org/) -->

<svg
   width="132"
   height="132"
   viewBox="0 0 34.925001 34.925001"
   version="1.1"
   id="svg5"
   inkscape:version="1.2.1 (9c6d41e410, 2022-07-14)"
   sodipodi:docname="blobfox_heart.svg"
   xml:space="preserve"
   xmlns:inkscape="http://www.inkscape.org/namespaces/inkscape"
   xmlns:sodipodi="http://sodipodi.sourceforge.net/DTD/sodipodi-0.dtd"
   xmlns:xlink="http://www.w3.org/1999/xlink"
   xmlns="http://www.w3.org/2000/svg"
   xmlns:svg="http://www.w3.org/2000/svg"
   xmlns:rdf="http://www.w3.org/1999/02/22-rdf-syntax-ns#"
   xmlns:cc="http://creativecommons.org/ns#"
   xmlns:dc="http://purl.org/dc/elements/1.1/"><title
     id="title30762">blobfox_heart</title><sodipodi:namedview
     id="namedview7"
     pagecolor="#505050"
     bordercolor="#ffffff"
     borderopacity="1"
     inkscape:pageshadow="0"
     inkscape:pageopacity="0"
     inkscape:pagecheckerboard="1"
     inkscape:document-units="mm"
     showgrid="false"
     inkscape:zoom="3.7343355"
     inkscape:cx="34.812084"
     inkscape:cy="71.230879"
     inkscape:window-width="1536"
     inkscape:window-height="779"
     inkscape:window-x="0"
     inkscape:window-y="0"
     inkscape:window-maximized="1"
     inkscape:current-layer="layer3"
     units="px"
     inkscape:showpageshadow="2"
     inkscape:deskcolor="#505050"><inkscape:grid
       type="xygrid"
       id="grid10"
       originx="0"
       originy="0" /></sodipodi:namedview><defs
     id="defs2" /><g
     inkscape:groupmode="layer"
     id="layer2"
     inkscape:label="ref"
     style="display:inline"><image
       width="33.866665"
       height="33.866665"
       preserveAspectRatio="none"
       style="display:none;fill:#313131;fill-opacity:1;stroke:none;image-rendering:optimizeQuality"
       xlink:href="../original/blobfox.png"
       id="image80"
       x="0"
       y="0"
       inkscape:label="blobfox" /><image
       width="34.924999"
       height="34.924999"
       preserveAspectRatio="none"
       style="display:none;image-rendering:optimizeSpeed"
       xlink:href="../original/blobfoxheart.png"
       id="image4836"
       x="-0.54448068"
       y="-0.27200237"
       inkscape:label="blobfoxheart" /></g><g
     inkscape:label="Base"
     inkscape:groupmode="layer"
     id="layer1"
     style="display:inline"><path
       id="path117-3"
       style="display:inline;fill:#ff8702;fill-opacity:1;stroke:none;stroke-width:0.264583px;stroke-linecap:butt;stroke-linejoin:miter;stroke-opacity:0.4501"
       d="M 8.2074116,8.4126526 C 5.0913797,9.6496164 0.4041473,15.466063 0,25.134999 c 0,0 0.03851,2.124914 0.5829101,3.792016 1.4993074,1.718181 5.5005282,4.054899 10.6830689,4.70824 4.995668,0.629782 11.407069,-0.117981 15.429032,-1.02216 4.021965,-0.904179 6.039482,-3.513558 6.301425,-4.182173 0.261937,-0.668616 0.02856,-2.042628 -0.147797,-2.629814 -0.214802,-0.71519 -0.544671,-1.660976 -0.105418,-2.94969 C 33.182472,21.562704 34.115718,16.337933 32.130917,12.6127 28.259445,4.8114773 16.226603,5.2292932 8.2074116,8.4126526 Z"
       sodipodi:nodetypes="sccssssscs"
       inkscape:label="body" /><path
       style="fill:#313131;fill-opacity:1;stroke:none;stroke-width:0.264583px;stroke-linecap:butt;stroke-linejoin:miter;stroke-opacity:1"
       d="M 4.3137226,11.778813 C 1.9838307,6.3895666 2.145295,1.2059319 2.6452072,0.51782863 3.0391093,-0.02435716 3.3041475,-0.15736443 3.9502132,0.20050729 4.7128691,0.62296126 7.6810801,3.5307571 11.56213,6.108751 13.240321,7.223492 9.2628811,6.8913037 11.377083,7.6729166 7.6803703,7.9244796 6.2213245,9.6296562 4.3137226,11.778813 Z"
       id="path20678"
       sodipodi:nodetypes="cssscc"
       inkscape:label="left-ear" /><path
       id="path117-7"
       style="display:inline;fill:#ff8702;fill-opacity:1;stroke:none;stroke-width:0.264583px;stroke-linecap:butt;stroke-linejoin:miter;stroke-opacity:0.4501"
       d="M 11.377083,2.91 C 12.292433,4.7691551 12.5655,5.0594456 14.022916,6.87875 11.641667,5.5558333 9.136393,6.238479 8.07806,6.7676456 10.151048,7.1605077 10.449443,7.3377486 11.377083,7.6725 14.462128,8.7857796 17.25774,10.030627 19.911704,8.4803466 21.209819,7.7220691 23.693263,6.1378025 22.490617,5.521727 20.910675,4.7123751 19.838056,4.0335486 18.732706,3.5647403 18.834047,4.2785158 19.041575,4.8238358 19.283577,5.6648705 17.304617,4.3515344 15.100816,3.3140553 11.377083,2.91 Z"
       sodipodi:nodetypes="cccsssccc"
       inkscape:label="hair" /><path
       style="display:inline;fill:#ebdccc;fill-opacity:1;stroke:none;stroke-width:0.264583px;stroke-linecap:butt;stroke-linejoin:miter;stroke-opacity:1"
       d="m 31.870065,0.89136862 c 2.484943,0.0611907 0.664265,7.56804148 -0.509611,9.14994438 -1.173877,1.581904 -0.831551,4.245863 -1.354667,4.404248 -0.707644,-0.825525 -0.707787,-2.595852 -0.717551,-4.150112 -0.760031,0.341959 -2.089885,0.741869 -3.258009,0.409179 0.287592,-0.78609 0.653321,-1.9632947 0.948986,-2.908956 -0.481311,0.1872691 -1.564135,0.4426682 -2.855349,0.6028707 1.157455,-2.334176 5.261258,-7.5683648 7.746201,-7.50717408 z"
       id="path18942"
       inkscape:label="right-ear-fluff"
       sodipodi:nodetypes="sscccccs" /><path
       id="path14428"
       style="fill:#313131;fill-opacity:1;stroke:none;stroke-width:0.264583px;stroke-linecap:butt;stroke-linejoin:miter;stroke-opacity:0.4501"
       inkscape:label="right-ear"
       d="m 32.314823,0.13797607 c -0.128465,-0.004264 -0.267672,0.002572 -0.418579,0.0211873 -2.4145,0.29784466 -7.38569,2.24242673 -11.391552,7.77988693 0.600112,0.3554624 1.262874,0.5599283 1.918745,0.6294189 0.237085,0.00899 0.48187,-0.0031 0.735873,-0.037724 0.32542,-0.044364 0.691176,-0.091565 1.07487,-0.1462443 0.941957,-0.3201292 1.686609,-0.9970937 1.923913,-2.0158976 0.522615,-2.2437042 1.758263,-3.0057917 2.706295,-3.9398112 0.948033,-0.9340193 3.349419,-1.91930618 3.763595,-1.201477 0.414175,0.7178289 0.07221,4.491393 -0.306958,5.8869791 -0.898662,2.4967496 -2.467505,4.0199558 -2.372465,6.7029498 0.0082,0.231812 0.01404,0.448703 0.05219,0.632003 0.05226,0.06911 0.1087,0.1361 0.169498,0.199988 0.746405,0.784343 1.286171,-0.180766 1.631942,-1.082621 0.104263,-0.27682 0.210385,-0.573022 0.328662,-0.95343 0.991263,-3.1881402 1.543734,-7.2256503 1.588534,-9.0268398 0.02193,-0.8815821 0.522418,-3.38440797 -1.404566,-3.44836837 z" /></g><g
     inkscape:groupmode="layer"
     id="layer3"
     inkscape:label="Features"
     style="display:inline"><path
       style="fill:#313131;fill-opacity:1;stroke:none;stroke-width:0.265;stroke-linecap:butt;stroke-linejoin:miter;stroke-miterlimit:4;stroke-dasharray:none;stroke-opacity:0.46432"
       d="m 7.3527787,14.424665 c 0.1797912,-1.565032 1.4709763,-2.669662 2.4784762,-2.637439 1.0481491,0.03352 1.7111831,1.106758 1.6559461,1.895304 -0.109337,1.560853 -0.980796,2.946701 -2.4842238,2.935699 -0.9121407,-0.0067 -1.7841833,-1.027265 -1.6501985,-2.193564 z"
       id="path22173"
       sodipodi:nodetypes="sssss"
       inkscape:label="left-eye" /><path
       style="fill:#313131;fill-opacity:1;stroke:none;stroke-width:0.264583px;stroke-linecap:butt;stroke-linejoin:miter;stroke-opacity:0.46432"
       d="m 19.490943,16.103085 c 0.179791,-1.80508 1.475044,-2.789355 2.482544,-2.757132 1.04815,0.03352 1.921875,1.215376 1.852143,2.278752 -0.113562,1.731761 -1.084893,2.877453 -2.588321,2.866451 -0.912141,-0.0067 -1.862721,-1.219882 -1.746366,-2.388071 z"
       id="path22173-3"
       sodipodi:nodetypes="sssss"
       inkscape:label="right-eye" /><path
       style="display:inline;fill:#e40809;fill-opacity:1;stroke:none;stroke-width:1.11137;stroke-linecap:round;stroke-opacity:1"
       d="M 9.4857814,34.224313 C 5.6502722,30.823446 1.6325287,24.07408 1.8493856,20.166156 2.0593115,16.383134 4.3345507,14.21188 6.872481,14.20317 c 2.6852837,-0.0092 6.025315,2.373793 6.70708,4.813793 1.931823,-2.029085 4.648657,-3.107193 7.212247,-2.838545 1.649667,0.172876 4.019651,1.806081 3.78866,5.068249 -0.274621,3.878327 -4.753414,9.721556 -13.070543,13.286202 -0.679208,0.241147 -1.408991,0.306347 -2.0241436,-0.308556 z"
       id="path6444"
       sodipodi:nodetypes="csscsscc"
       inkscape:label="heart" /><path
       style="fill:#fd6b60;fill-opacity:1;stroke-width:1.11137;stroke-linecap:round"
       d="m 2.8336893,19.35958 c 0.00597,-1.83424 1.0782799,-3.920005 3.7608128,-3.871473 1.6815808,0.03042 2.0495014,1.888248 1.0881308,2.258353 -1.0482675,0.40356 -2.2519167,1.672421 -2.9181009,2.639123 -0.5844247,0.84806 -1.9885689,0.677086 -1.9308427,-1.026003 z"
       id="path1865"
       sodipodi:nodetypes="csssc"
       inkscape:label="heart-reflection" /><path
       style="fill:#ff8702;fill-opacity:1;stroke:#313131;stroke-width:1.11137;stroke-linecap:round;stroke-opacity:1"
       d="m 18.443806,30.836376 c -2.239661,-1.810775 -2.495056,-4.47087 -2.379775,-5.46701 0.115282,-0.99614 0.365751,-2.138864 1.470423,-2.334203 1.541398,-0.272567 3.029113,2.481724 5.495938,3.042882"
       id="path4894"
       sodipodi:nodetypes="cssc"
       inkscape:label="right-hand" /><path
       style="fill:#ff8702;fill-opacity:1;stroke:#313131;stroke-width:1.11137;stroke-linecap:round;stroke-opacity:1"
       d="m 1.9300222,22.907595 c 1.0093855,0.06081 1.7749239,-0.03336 2.3143363,-0.259404 0.5508731,-0.230848 2.1197613,-0.978104 3.0227534,-0.946996 0.7465017,0.02571 1.6120374,0.589051 1.5794299,1.821582 -0.032601,1.232281 -1.2217361,4.319427 -4.2056266,5.455071"
       id="path4950"
       sodipodi:nodetypes="csssc"
       inkscape:label="left-hand" /></g><metadata
     id="metadata30760"><rdf:RDF><cc:Work
         rdf:about=""><dc:rights><cc:Agent><dc:title>Blobfox team (https://git.shadamethyst.xyz/adri326/blobfox), licensed under the Apache 2.0 License</dc:title></cc:Agent></dc:rights><dc:title>blobfox_heart</dc:title><dc:creator><cc:Agent><dc:title>Feuerfuchs</dc:title></cc:Agent></dc:creator><dc:source>https://git.shadamethyst.xyz/adri326/blobfox</dc:source><dc:contributor><cc:Agent><dc:title>Shad Amethyst</dc:title></cc:Agent></dc:contributor></cc:Work></rdf:RDF></metadata></svg>
