<?xml version="1.0" encoding="UTF-8" standalone="no"?>
<svg
   sodipodi:docname="blobcat_comfy.svg"
   inkscape:version="1.2.1 (9c6d41e410, 2022-07-14)"
   xml:space="preserve"
   id="svg5"
   width="128"
   height="128"
   viewBox="0 0 128 128"
   version="1.1"
   xmlns:inkscape="http://www.inkscape.org/namespaces/inkscape"
   xmlns:sodipodi="http://sodipodi.sourceforge.net/DTD/sodipodi-0.dtd"
   xmlns:xlink="http://www.w3.org/1999/xlink"
   xmlns="http://www.w3.org/2000/svg"
   xmlns:svg="http://www.w3.org/2000/svg"
   xmlns:rdf="http://www.w3.org/1999/02/22-rdf-syntax-ns#"
   xmlns:cc="http://creativecommons.org/ns#"
   xmlns:dc="http://purl.org/dc/elements/1.1/"><title
     id="title30762">blobcat_comfy</title><sodipodi:namedview
     inkscape:document-units="px"
     borderopacity="1"
     pagecolor="#505050"
     inkscape:window-maximized="1"
     inkscape:cy="36.004881"
     inkscape:cx="95.839079"
     inkscape:pageshadow="0"
     inkscape:window-height="779"
     bordercolor="#ffffff"
     inkscape:showpageshadow="2"
     inkscape:window-x="0"
     inkscape:window-width="1536"
     showgrid="false"
     inkscape:pagecheckerboard="1"
     inkscape:window-y="0"
     inkscape:zoom="5.7492205"
     id="namedview7"
     inkscape:current-layer="layer1"
     units="px"
     inkscape:deskcolor="#505050"
     inkscape:pageopacity="0"><inkscape:grid
       id="grid10"
       type="xygrid" /></sodipodi:namedview><defs
     id="defs2" /><g
     style="display:none"
     id="layer2"
     inkscape:groupmode="layer"
     inkscape:label="ref"><image
       width="211.7666"
       xlink:href="../original/blobfoxmsnuggleleftcat.png"
       height="211.7666"
       preserveAspectRatio="none"
       inkscape:label="blobfoxmsnuggleleftcat"
       y="-16.623016"
       style="display:none;image-rendering:optimizeSpeed"
       id="image475"
       x="0.45707837" /><image
       height="167.39571"
       x="-3.1429539"
       preserveAspectRatio="none"
       y="-10.339302"
       id="image2206"
       width="167.39571"
       xlink:href="../original/blobfoxnomcat.png"
       inkscape:label="blobfoxnomcat"
       style="display:none;image-rendering:optimizeSpeed" /><image
       style="display:none;image-rendering:optimizeSpeed"
       y="-17.482618"
       preserveAspectRatio="none"
       width="211.43436"
       height="211.43436"
       xlink:href="../original/blobfoxmsnugglecentercat.png"
       inkscape:label="blobfoxmsnugglecentercat"
       id="image2335"
       x="-11.634965" /><image
       xlink:href="../original/blobfox.png"
       y="0"
       style="display:none;image-rendering:optimizeSpeed"
       width="127.99999"
       id="image4772"
       x="0"
       height="127.99999"
       preserveAspectRatio="none"
       inkscape:label="blobfox" /><image
       width="171.57162"
       height="171.57162"
       preserveAspectRatio="none"
       style="display:inline;image-rendering:optimizeSpeed"
       xlink:href="../original/blobfoxcomfy.png"
       id="image571"
       x="-18.094999"
       y="-18.094999"
       inkscape:label="blobfoxcomfy" /></g><g
     inkscape:groupmode="layer"
     inkscape:label="Base"
     style="display:inline;"
     id="layer1"><path
       sodipodi:nodetypes="csscc"
       inkscape:label="left-ear"
       d="M 2.0728684,41.562902 C -7.9844543,17.47616 -5.5202816,0.04704896 -4.999618,-3.7848791 -4.5534918,-7.0682356 -1.5213373,-8.7512447 1.8054231,-8.1885242 16.334701,-5.7309012 29.186542,1.8927435 40.892977,11.225778 24.870724,20.419749 10.787486,31.744772 2.0728684,41.562902 Z"
       style="fill:#e9ae20;fill-opacity:1;stroke:none;stroke-width:1.20871px;stroke-linecap:butt;stroke-linejoin:miter;stroke-opacity:1"
       id="path20678" /><path
       id="path117-3"
       style="display:inline;fill:#fcc21b;fill-opacity:1;stroke:none;stroke-width:0.999999px;stroke-linecap:butt;stroke-linejoin:miter;stroke-opacity:0.4501"
       inkscape:label="body"
       d="m 73.886565,25.391 c 0.432469,0.112477 0.86647,0.222456 1.292969,0.34375 -0.428069,-0.118117 -0.857756,-0.233925 -1.292969,-0.34375 z m -15.373047,3.966797 c -1.133349,0.0048 -2.281585,0.04331 -3.44336,0.11914 C 48.874029,29.881346 42.28474,31.32299 35.435393,34.10975 21.897934,39.617669 15.047775,48.854943 11.636565,58.494516 8.2253539,68.134087 8.5171089,78.226074 9.6619549,84.537484 c 1.0408161,5.73791 6.2787991,11.12585 12.0703131,16.675776 5.791514,5.54994 12.25839,11.28925 13.880859,17.88281 0.177415,0.721 0.251849,1.49625 0.382813,2.24414 4.605578,-5.29913 10.801175,-9.40556 17.923828,-9.72656 13.340783,-0.60122 35.63468,-3.02338 46.607422,-17.220696 5.27621,-6.82674 7.06753,-15.81255 6.16016,-24.796876 -0.93927,-9.300163 -4.6672,-17.834024 -9.964852,-23.953125 C 89.219028,36.976 75.513755,29.285667 58.513518,29.357797 Z"
       sodipodi:nodetypes="cccssssssscsssss" /><path
       style="display:inline;fill:none;stroke:#ffffff;stroke-width:6.04724409;stroke-linecap:round;stroke-linejoin:round;stroke-dasharray:none;stroke-opacity:1"
       d="M -14.961761,109.44158 C -16.8781,132.66046 2.1218007,143.45103 21.253905,146.0686 32.034863,147.54361 35.481043,130.95416 32.741523,119.80174 30.001993,108.64933 9.3285887,98.649982 6.7558397,85.088311 4.1830907,71.52664 5.7186057,43.008315 34.321613,31.370751 c 28.53069,-11.608144 53.11323,-0.975201 64.63701,12.335438 11.523767,13.31064 15.630297,37.405618 3.904237,52.501609 -11.726057,15.095992 -35.238357,17.747852 -48.809787,18.359472 -18.28531,0.82406 -34.128985,32.41021 -11.44284,34.11123 40.53118,3.03906 108.183917,-1.70985 104.117687,-31.18647"
       id="path823"
       sodipodi:nodetypes="cssssssssc"
       inkscape:label="blanket-line" /><path
       style="display:inline;fill:#6d677d;fill-opacity:1;stroke:none;stroke-width:5.91496;stroke-linecap:round;stroke-linejoin:round;stroke-dasharray:none;stroke-opacity:1"
       d="m -18.074,100.87153 c 0.193339,7.8754 -1.644912,17.94059 11.1495907,29.18754 8.901023,7.8244 15.62826,10.10422 22.4164103,11.88345 6.788149,1.77923 10.509742,2.29307 12.900632,-3.27905 0.22823,-3.52629 0.95423,-6.84899 2.23358,-9.32331 0.97632,-12.71489 -5.35775,-16.18931 -8.615448,-19.70046 -2.6561,-2.86274 -12.5775193,-10.642208 -16.5393593,-19.758537 -4.261719,-9.806362 -3.475982,-29.21178 5.0825573,-42.943039 8.915368,-14.303752 32.6856,-26.908709 58.29416,-22.611613 30.67089,5.146554 45.631287,29.849326 43.720517,54.081041 -1.56878,19.894775 -16.218367,32.651308 -41.799407,37.329078 -9.70443,1.77456 -13.75456,1.27239 -19.06905,1.99704 -4.70187,0.64112 -15.57166,8.91861 -16.98932,16.86674 -1.55036,8.69209 1.97108,10.31106 8.42448,11.38236 4.91094,0.81525 35.03842,1.00781 54.54111,-1.13676 21.699217,-2.3861 36.602437,-9.43394 42.593367,-15.25196 8.11456,-7.88035 11.34488,-11.20614 8.26674,-21.57438 -2.52133,-8.492725 -1.57424,-18.638913 0.77455,-25.605088 2.3488,-6.966174 2.79174,-28.653614 -5.1938,-43.323403 C 136.13177,24.42139 112.44031,1.769651 78.782043,1.78701 45.123773,1.80437 24.865723,8.332388 5.2020487,34.604886 -14.461621,60.877384 -17.819008,88.150094 -18.074,100.87153 Z"
       id="path3509"
       sodipodi:nodetypes="cssccssssssssssssssssc"
       inkscape:label="blanket" /><path
       sodipodi:nodetypes="cssssccscc"
       inkscape:label="right-ear"
       style="fill:#e9ae20;fill-opacity:1;stroke-width:4.86891;stroke-linecap:round"
       d="M 88.705535,9.2024868 C 94.626183,3.3523685 108.34745,-5.0074094 126.00803,-8.39378 c 3.32305,-0.6371899 5.83298,-1.5479549 6.89009,3.070588 2.51127,10.9717164 1.18919,28.174673 -0.83947,42.475223 -0.41169,2.902132 -0.62853,4.237714 -1.83743,5.292535 -0.76194,0.664829 -1.59496,0.158091 -2.1976,-0.939165 C 126.05894,29.830228 121.56241,24.649936 115.02803,34.226664 110.70211,34.284411 94.751102,23.633063 91.66086,19.308062 89.405231,16.151159 87.044207,11.123356 88.705535,9.2024958 Z"
       id="path501" /><path
       sodipodi:nodetypes="cssccc"
       inkscape:label="right-ear-fluff"
       d="m 113.818,34.071994 c 4.19436,-15.787694 8.82708,-32.8446777 13.69401,-37.454991 1.52521,-1.4447967 3.20617,-1.401905 3.7041,0.9519035 0.82597,3.9044453 0.34627,26.8070155 -3.18399,43.9423225 -7.50892,-2.42214 -14.04555,-6.800669 -14.21416,-7.439244 z"
       id="path4922"
       style="fill:#8a6135;fill-opacity:1;stroke:none;stroke-width:4.86891;stroke-linecap:round;stroke-opacity:1" /></g><g
     id="layer3"
     inkscape:label="Features"
     inkscape:groupmode="layer"><path
       d="m 27.790028638187852,54.518416751243436 c 0.6795257685226077,-5.915081341925932 5.559595245685228,-10.090060705115722 9.367468733564223,-9.96827299337508 3.961508253483928,0.1266897587917418 6.467463430414826,4.183022197518811 6.25869367485458,7.163353418765615 -0.413242188455032,5.899286696878478 -3.706945365868293,11.13713719932531 -9.389191945307406,11.095554838757685 -3.447460777659025,-0.02532283364870734 -6.743369687268911,-3.882576225095425 -6.236970463111399,-8.290635264148218 z "
       style="fill:#313131;fill-opacity:1;stroke:none;stroke-width: 1.0015747637175292;stroke-linecap:butt;stroke-linejoin:miter;stroke-miterlimit:4;stroke-dasharray:none;stroke-opacity:0.46432;"
       inkscape:label="left-eye"
       sodipodi:nodetypes="sssss"
       id="path22173" /><path
       d="m 73.66655332021445,60.86205114716335 c 0.6795250126171256,-6.822349337702783 5.574969229331921,-10.542443679431353 9.382843095163658,-10.420655967690712 3.9615116550585965,0.1266897587917418 7.263779241583495,4.59354690576587 7.000225236211606,8.612605645173007 -0.42921069176335863,6.54523816751031 -4.10038283069359,10.875412485219982 -9.782630166038183,10.833830124652359 -3.447461911517248,-0.02532283364870734 -7.040205077157282,-4.610577456276478 -6.600438165337081,-9.025779802134656 z "
       style="fill:#313131;fill-opacity:1;stroke:none;stroke-width: 0.9999987007874529px;stroke-linecap:butt;stroke-linejoin:miter;stroke-opacity:0.46432;"
       inkscape:label="right-eye"
       id="path22173-3"
       sodipodi:nodetypes="sssss" /><path
       inkscape:label="mouth"
       id="path29369"
       style="fill:none;stroke:#313131;stroke-width: 4.403149432946873;stroke-linecap:round;stroke-linejoin:round;stroke-miterlimit:4;stroke-dasharray:none;stroke-opacity:1;"
       sodipodi:nodetypes="ccccc"
       d="m 37.53784897882485,75.57400521362185 c 2.0735069419879157,6.37497801673315 4.020579621237023,10.401678960563823 5.959242851998313,12.940500907854297 3.7507425294983263,-3.1310436562581243 8.538972892166422,-7.475595296236407 10.436734077293934,-9.37381380418056 2.9622008282598102,4.818455243367905 7.01734649538006,10.375135339561602 8.671615406629316,12.64569776985442 4.859077603973323,-3.873206776645403 9.51886072760391,-7.995560000174804 11.435750100954722,-10.16286574161946 " /><path
       id="path1334"
       inkscape:label="left-whisker-2"
       sodipodi:nodetypes="cc"
       style="fill:none;fill-opacity:1;stroke:#313131;stroke-width: 4.025196691921391;stroke-linecap:round;stroke-opacity:1;"
       d="M 23.36882667051864,73.99866039375354 C 15.825279628926001,67.38371262268849 9.199731417333409,62.77637044187519 5.144523010058149,60.521440136951185 " /><path
       id="path2116"
       sodipodi:nodetypes="cc"
       inkscape:label="left-whisker"
       style="fill:none;fill-opacity:1;stroke:#313131;stroke-width: 4.025196691921391;stroke-linecap:round;stroke-opacity:1;"
       d="M 22.339983750394342,81.98062543383365 C 14.845117021845788,80.25040691927533 6.6085361807662935,80.0787218866645 2.0603403535299076,80.04969133662634 " /><path
       inkscape:label="right-whisker-2"
       id="path2359"
       style="fill:none;fill-opacity:1;stroke:#313131;stroke-width: 4.025196691921391;stroke-linecap:round;stroke-opacity:1;"
       d="m 88.55665919068272,84.53310281365738 c 9.601239307037824,-3.449491517736555 16.191707079066653,-4.176846449730455 18.831106030271417,-4.318597625252062 " /><path
       inkscape:label="right-whisker"
       d="m 85.28868325635106,93.36144766293515 c 7.253045383738372,2.1948962915395165 15.062830273116921,5.981128583420135 18.790691543673564,8.63206643180841 "
       style="fill:none;fill-opacity:1;stroke:#313131;stroke-width: 4.025196691921391;stroke-linecap:round;stroke-opacity:1;"
       id="path2361" /></g><metadata
     id="metadata30760"><rdf:RDF><cc:Work
         rdf:about=""><dc:rights><cc:Agent><dc:title>Blobfox team (https://git.shadamethyst.xyz/adri326/blobfox), licensed under the Apache 2.0 License</dc:title></cc:Agent></dc:rights><dc:title>blobcat_comfy</dc:title><dc:creator><cc:Agent><dc:title>Feuerfuchs</dc:title></cc:Agent></dc:creator><dc:source>https://git.shadamethyst.xyz/adri326/blobfox</dc:source><dc:contributor><cc:Agent><dc:title>Shad Amethyst</dc:title></cc:Agent></dc:contributor></cc:Work></rdf:RDF></metadata></svg>
