<?xml version="1.0" encoding="UTF-8" standalone="no"?>
<!-- Created with Inkscape (http://www.inkscape.org/) -->

<svg
   width="128"
   height="128"
   viewBox="0 0 33.866668 33.866668"
   version="1.1"
   id="svg5"
   inkscape:version="1.2.1 (9c6d41e410, 2022-07-14)"
   sodipodi:docname="blobfox_waaaa.svg"
   xml:space="preserve"
   xmlns:inkscape="http://www.inkscape.org/namespaces/inkscape"
   xmlns:sodipodi="http://sodipodi.sourceforge.net/DTD/sodipodi-0.dtd"
   xmlns:xlink="http://www.w3.org/1999/xlink"
   xmlns="http://www.w3.org/2000/svg"
   xmlns:svg="http://www.w3.org/2000/svg"
   xmlns:rdf="http://www.w3.org/1999/02/22-rdf-syntax-ns#"
   xmlns:cc="http://creativecommons.org/ns#"
   xmlns:dc="http://purl.org/dc/elements/1.1/"><title
     id="title30762">blobfox_cry</title><sodipodi:namedview
     id="namedview7"
     pagecolor="#505050"
     bordercolor="#ffffff"
     borderopacity="1"
     inkscape:pageshadow="0"
     inkscape:pageopacity="0"
     inkscape:pagecheckerboard="1"
     inkscape:document-units="mm"
     showgrid="false"
     inkscape:zoom="2.5434155"
     inkscape:cx="53.078232"
     inkscape:cy="52.291888"
     inkscape:window-width="1536"
     inkscape:window-height="779"
     inkscape:window-x="0"
     inkscape:window-y="0"
     inkscape:window-maximized="1"
     inkscape:current-layer="layer3"
     units="px"
     inkscape:showpageshadow="2"
     inkscape:deskcolor="#505050"
     showguides="false"><inkscape:grid
       type="xygrid"
       id="grid10" /></sodipodi:namedview><defs
     id="defs2" /><g
     inkscape:groupmode="layer"
     id="layer2"
     inkscape:label="ref"
     style="display:none"><image
       width="33.866665"
       height="33.866665"
       preserveAspectRatio="none"
       style="display:none;fill:#313131;fill-opacity:1;stroke:none;image-rendering:optimizeQuality"
       xlink:href="../original/blobfox.png"
       id="image80"
       x="0"
       y="0"
       inkscape:label="blobfox" /><image
       width="35.876282"
       height="35.876282"
       preserveAspectRatio="none"
       style="display:none;image-rendering:optimizeSpeed"
       xlink:href="../original/blobfoxcry.png"
       id="image38140"
       x="-0.72248876"
       y="-2.009618"
       inkscape:label="blobfoxcry" /><image
       width="65.62294"
       height="65.62294"
       preserveAspectRatio="none"
       style="image-rendering:optimizeSpeed"
       xlink:href="../custom/blobfox_waaaa.png"
       id="image687"
       x="-16.163004"
       y="-15.333654"
       inkscape:label="blobfoxwaaaa" /></g><g
     inkscape:label="Base"
     inkscape:groupmode="layer"
     id="layer1"
     style="display:inline"><path
       style="fill:#313131;fill-opacity:1;stroke:none;stroke-width:0.264583px;stroke-linecap:butt;stroke-linejoin:miter;stroke-opacity:1"
       d="M 4.069401,12.658953 C 1.3356974,7.4628739 1.1781396,2.7939156 1.6241753,2.0697261 1.9756258,1.4991064 2.6920168,1.1727329 3.3634694,1.4803436 7.1575747,3.8271452 10.559834,5.9383505 13.79238,7.1680816 8.5987364,8.8467492 7.0607233,9.6622506 4.069401,12.658953 Z"
       id="path20678"
       sodipodi:nodetypes="csccc"
       inkscape:label="left-ear" /><path
       id="path117-3"
       style="display:inline;fill:#ff8702;fill-opacity:1;stroke:none;stroke-width:0.264583px;stroke-linecap:butt;stroke-linejoin:miter;stroke-opacity:0.4501"
       d="M 8.2074116,8.4126526 C 5.0913797,9.6496164 0.4041473,15.466063 0,25.134999 c 0,0 0.03851,2.124914 0.5829101,3.792016 1.4993074,1.718181 5.5005282,4.054899 10.6830689,4.70824 4.995668,0.629782 11.407069,-0.117981 15.429032,-1.02216 4.021965,-0.904179 6.039482,-3.513558 6.301425,-4.182173 0.261937,-0.668616 0.02856,-2.042628 -0.147797,-2.629814 -0.214802,-0.71519 -0.544671,-1.660976 -0.105418,-2.94969 C 33.182472,21.562704 34.115718,16.337933 32.130917,12.6127 28.259445,4.8114773 16.226603,5.2292932 8.2074116,8.4126526 Z"
       sodipodi:nodetypes="sccssssscs"
       inkscape:label="body" /><path
       id="path117-7"
       style="display:inline;fill:#ff8702;fill-opacity:1;stroke:none;stroke-width:0.264583px;stroke-linecap:butt;stroke-linejoin:miter;stroke-opacity:0.4501"
       d="M 11.377083,2.91 C 12.292433,4.7691551 12.5655,5.0594456 14.022916,6.87875 11.641667,5.5558333 9.136393,6.238479 8.07806,6.7676456 c 2.072988,0.3928621 2.371383,0.570103 3.299023,0.9048544 3.085045,1.1132796 5.439358,0.8298435 8.534621,0.8078466 1.97909,-0.014065 4.523967,-1.9426505 3.321321,-2.558726 -1.579942,-0.8093519 -3.394969,-1.888072 -4.500319,-2.3568803 0.101341,0.7137755 0.308869,1.2590955 0.550871,2.1001302 C 17.304617,4.3515344 15.100816,3.3140553 11.377083,2.91 Z"
       sodipodi:nodetypes="cccsssccc"
       inkscape:label="hair" /><path
       style="display:inline;fill:#ebdccc;fill-opacity:1;stroke:none;stroke-width:0.264583px;stroke-linecap:butt;stroke-linejoin:miter;stroke-opacity:1"
       d="m 33.993204,2.7951195 c 2.033839,0.7448168 -1.241164,6.8159439 -2.784933,8.0395365 -1.54377,1.223594 -1.268492,3.390789 -1.814783,3.408178 -0.364872,-1.012034 -0.113925,-1.792742 0.112011,-3.293968 -0.579279,0.281244 -1.743776,0.805951 -2.636004,0.891558 0.333613,-0.583209 0.413103,-1.175746 0.503297,-1.786046 C 26.783119,9.9360074 25.657061,9.7392485 25.049711,9.749448 26.772598,7.795033 31.6591,1.9403422 33.993204,2.7951195 Z"
       id="path18942"
       inkscape:label="right-ear-fluff"
       sodipodi:nodetypes="sscccccs" /><path
       id="path14428"
       style="fill:#313131;fill-opacity:1;stroke:none;stroke-width:0.264583px;stroke-linecap:butt;stroke-linejoin:miter;stroke-opacity:0.4501"
       inkscape:label="right-ear"
       d="M 33.647685,1.9995244 C 31.280093,1.725074 25.187754,2.8096955 20.611217,8.398146 c 1.105618,0.9726516 1.49421,1.3733682 2.95034,1.4842646 1.377133,0.10488 3.557813,-0.2762464 4.159243,-1.6535907 0.921902,-2.1112628 1.892835,-3.2685723 2.984413,-4.0298959 1.09158,-0.7613232 3.277028,-1.7261615 3.564614,-0.9489134 0.287585,0.7772476 -0.648646,3.8562033 -1.257069,5.1681687 -1.593929,2.7389227 -3.388598,2.4586747 -3.622321,5.8283447 0.863031,0.802809 1.704348,-0.680195 2.180717,-1.453852 2.023065,-3.2855957 2.936612,-6.3513847 3.244836,-7.669983 0.181832,-0.7778911 1.199283,-2.8487142 -1.168309,-3.1231646 z"
       sodipodi:nodetypes="scssssccssss" /></g><g
     inkscape:groupmode="layer"
     id="layer3"
     inkscape:label="Features"><path
       style="fill:none;fill-opacity:1;stroke:#313131;stroke-width:1.165;stroke-linecap:round;stroke-linejoin:miter;stroke-miterlimit:4;stroke-dasharray:none;stroke-opacity:1"
       d="M 9.0723479,20.246704 C 8.5840037,19.23954 8.5769008,18.250375 9.2119593,17.586021 9.8470178,16.921667 11.40288,16.478943 11.637534,15.046915"
       id="path27175"
       sodipodi:nodetypes="csc"
       inkscape:label="nose-outline" /><path
       style="fill:#313131;fill-opacity:1;stroke:none;stroke-width:0.264583px;stroke-linecap:butt;stroke-linejoin:miter;stroke-opacity:1"
       d="m 10.947546,18.398549 c 0.955611,-0.521313 3.849322,-0.706251 4.516746,0.681514 0.106717,0.221894 -1.618122,1.890181 -2.674108,1.887838 -1.02104,-0.0023 -2.08232,-2.438598 -1.842638,-2.569352 z"
       id="path28517"
       sodipodi:nodetypes="ssss"
       inkscape:label="nose" /><path
       style="display:inline;fill:none;stroke:#313131;stroke-width:1.11776;stroke-linecap:round;stroke-linejoin:round;stroke-miterlimit:4;stroke-dasharray:none;stroke-opacity:1"
       d="m 7.6079471,14.720381 c 1.170359,-0.05708 2.7380179,0.110479 4.0458609,0.27886 C 10.600149,13.65735 8.6227831,12.38589 7.8636761,11.89205"
       id="path26633"
       sodipodi:nodetypes="ccc"
       inkscape:label="left-eye" /><path
       style="display:inline;fill:none;stroke:#313131;stroke-width:1.11776;stroke-linecap:round;stroke-linejoin:round;stroke-miterlimit:4;stroke-dasharray:none;stroke-opacity:1"
       d="m 24.292648,14.159574 c -1.606201,0.06532 -3.967149,1.013726 -4.880971,1.569157 1.581165,0.332654 3.329582,0.967539 4.135766,1.315712"
       id="path26701"
       sodipodi:nodetypes="ccc"
       inkscape:label="right-eye" /><path
       style="display:inline;fill:#ab1829;fill-opacity:1;stroke-width:1.065;stroke-linecap:round"
       d="m 10.047993,21.710727 c 1.234997,-0.0079 2.237449,0.876992 2.854383,0.862099 0.514886,-0.01243 1.416969,-0.148323 1.83574,-0.148231 1.80272,3.96e-4 4.446506,1.921337 4.358619,4.851096 -0.0759,2.53012 -2.132249,2.959113 -3.007526,2.947964 -2.002895,-0.02551 -3.801338,-2.682441 -4.872084,-2.73128 -0.611206,-0.02788 -1.3559121,0.585231 -2.709081,0.563526 -1.4905108,-0.02391 -2.0392553,-0.978804 -1.9869019,-2.313334 0.052353,-1.334532 0.8954754,-4.01507 3.5268509,-4.03184 z"
       id="path39978"
       sodipodi:nodetypes="sssssssss"
       inkscape:label="mouth" /><path
       style="display:none;fill:#ff8702;fill-opacity:1;stroke:none;stroke-width:0.264583;stroke-linecap:round"
       d="m -6.8405375,17.946779 c -2.7175504,-0.01483 -8.9807985,-5.394401 -7.7381275,-11.662754 1.242672,-6.26835269 3.655067,-2.6793944 5.2151742,-0.9964737 1.5601069,1.6829209 3.0928585,4.1548711 3.5869633,4.1759576 0.4941052,0.021087 1.1982134,-4.1608833 3.7274446,-4.1374891 1.78678547,0.016527 2.08327702,3.8100088 1.26699916,6.9254142 -0.81627786,3.115405 -3.05773006,5.71172 -6.05845376,5.695345 z"
       id="path771"
       sodipodi:nodetypes="sssssss"
       inkscape:label="left-hand" /><path
       style="display:none;fill:#ff8702;stroke-width:0.264583;stroke-linecap:round"
       d="m 40.566562,19.204618 c 3.651501,-0.0109 7.615492,-4.987111 7.648316,-9.7616162 0.03282,-4.7745043 -1.064419,-8.85967009 -4.01609,-8.73275013 -2.951673,0.12691999 -2.434926,4.77512963 -2.479005,6.07871663 -0.04408,1.303587 -0.376826,4.5600227 -1.449706,4.5600227 -1.07288,0 -1.565538,-3.8311271 -2.523065,-4.350061 -0.957527,-0.5189339 -2.107815,0.3613894 -2.178157,2.9211478 -0.07548,2.7468482 0.450483,9.2981182 4.997707,9.2845402 z"
       id="path1220"
       sodipodi:nodetypes="ssssssss"
       inkscape:label="right-hand" /><g
       id="g19704"
       inkscape:label="left-paw"
       transform="matrix(1.4846705,0,0,1.4846705,6.0646172,-3.0994661)"><path
         style="fill:#ff8702;stroke-width:0.264583;stroke-linecap:round"
         d="m -11.479757,13.377862 c -1.231484,-0.808183 -2.503425,-2.535366 -2.492174,-4.1290088 0.01216,-1.7217599 1.36668,-3.522962 3.343485,-3.7944956 1.0172781,-0.1397331 2.6131305,-0.2899592 3.2466453,1.4621127 1.1718296,-1.5215757 2.8514271,-0.9296631 2.811706,0.7969039 -0.049143,2.1361173 -0.6323565,3.7737128 -1.9340382,5.1066508 -1.0623197,1.087829 -3.7147981,1.385275 -4.9756241,0.557837 z"
         id="path7754"
         sodipodi:nodetypes="ssscsss"
         inkscape:label="paw" /><path
         style="fill:#834500;fill-opacity:1;stroke-width:0.264583;stroke-linecap:round"
         d="m -12.321322,7.6155584 c -0.124908,-0.614529 0.172321,-1.1674109 0.561978,-1.2670994 0.439684,-0.1124849 0.874864,0.2597415 1.076429,0.8246622 0.153989,0.4315898 0.100775,1.1845573 -0.577386,1.3244991 -0.601586,0.1241402 -0.96058,-0.387893 -1.061021,-0.8820619 z"
         id="path8541"
         sodipodi:nodetypes="sssss"
         inkscape:label="bean-3" /><path
         style="fill:#834500;fill-opacity:1;stroke-width:0.264583;stroke-linecap:round"
         d="m -9.927549,7.1186677 c -0.048843,-0.6251897 0.3137478,-1.1375874 0.7126689,-1.1888914 0.4501378,-0.057888 0.8365477,0.364748 0.9675378,0.9500732 0.1000707,0.4471781 -0.048846,1.1506907 -0.7349794,1.2439767 C -9.5923859,8.2067982 -9.8882749,7.621409 -9.927549,7.1186677 Z"
         id="path8543"
         sodipodi:nodetypes="sssss"
         inkscape:label="bean-2" /><path
         style="fill:#834500;fill-opacity:1;stroke-width:0.264583;stroke-linecap:round"
         d="m -8.8377918,13.319367 c -1.3917622,0.153526 -2.7943932,-0.573179 -2.8791342,-1.220337 -0.14704,-1.122923 0.876683,-1.096872 0.871406,-2.2278347 -0.0065,-1.3960218 2.2629488,-1.5339014 2.7170475,-0.3778139 0.4097873,1.0432756 1.3600604,0.5999656 1.4781054,1.9774576 0.056271,0.656643 -0.7670097,1.691841 -2.1874247,1.848528 z"
         id="path10725"
         sodipodi:nodetypes="ssssss"
         inkscape:label="bean-mid" /><path
         style="fill:#834500;fill-opacity:1;stroke-width:0.264583;stroke-linecap:round"
         d="m -13.501573,9.7331961 c -0.124908,-0.614529 0.172321,-1.1674109 0.561978,-1.2670994 0.439684,-0.1124849 0.874868,0.2597402 1.076429,0.8246622 0.07699,0.2157949 0.101503,0.5087619 0.02233,0.7668591 -0.07917,0.258097 -0.262012,0.481324 -0.599721,0.55764 -0.621896,0.140536 -0.96058,-0.387893 -1.061021,-0.8820619 z"
         id="path7900"
         sodipodi:nodetypes="ssssss"
         inkscape:label="bean-4" /><path
         style="fill:#834500;fill-opacity:1;stroke-width:0.264583;stroke-linecap:round"
         d="M -6.796045,7.5813329 C -6.6813071,6.9648242 -6.1983843,6.5638142 -5.7997869,6.617575 -5.350015,6.678241 -5.0862451,7.1865312 -5.1113143,7.7858104 -5.1304701,8.2436482 -5.4606957,8.9128082 -6.143388,8.7969962 -6.7529274,8.693594 -6.8883131,8.0770928 -6.796045,7.5813329 Z"
         id="path7902-3"
         sodipodi:nodetypes="sssss"
         inkscape:label="bean-1" /></g><g
       id="g8584"
       inkscape:label="right-paw"
       transform="matrix(-1.4718399,-0.10890971,-0.10890971,1.4718399,31.271389,-3.9857758)"><path
         style="fill:#ff8702;stroke-width:0.264583;stroke-linecap:round"
         d="m -11.479757,13.377862 c -1.231484,-0.808183 -2.503425,-2.535366 -2.492174,-4.1290088 0.01216,-1.7217599 1.36668,-3.522962 3.343485,-3.7944956 1.0172781,-0.1397331 2.6131305,-0.2899592 3.2466453,1.4621127 1.1718296,-1.5215757 2.8514271,-0.9296631 2.811706,0.7969039 -0.049143,2.1361173 -0.6323565,3.7737128 -1.9340382,5.1066508 -1.0623197,1.087829 -3.7147981,1.385275 -4.9756241,0.557837 z"
         id="path8572"
         sodipodi:nodetypes="ssscsss"
         inkscape:label="paw" /><path
         style="fill:#834500;fill-opacity:1;stroke-width:0.264583;stroke-linecap:round"
         d="m -12.321322,7.6155584 c -0.124908,-0.614529 0.172321,-1.1674109 0.561978,-1.2670994 0.439684,-0.1124849 0.874864,0.2597415 1.076429,0.8246622 0.153989,0.4315898 0.100775,1.1845573 -0.577386,1.3244991 -0.601586,0.1241402 -0.96058,-0.387893 -1.061021,-0.8820619 z"
         id="path8574"
         sodipodi:nodetypes="sssss"
         inkscape:label="bean-3" /><path
         style="fill:#834500;fill-opacity:1;stroke-width:0.264583;stroke-linecap:round"
         d="m -9.927549,7.1186677 c -0.048843,-0.6251897 0.3137478,-1.1375874 0.7126689,-1.1888914 0.4501378,-0.057888 0.8365477,0.364748 0.9675378,0.9500732 0.1000707,0.4471781 -0.048846,1.1506907 -0.7349794,1.2439767 C -9.5923859,8.2067982 -9.8882749,7.621409 -9.927549,7.1186677 Z"
         id="path8576"
         sodipodi:nodetypes="sssss"
         inkscape:label="bean-2" /><path
         style="fill:#834500;fill-opacity:1;stroke-width:0.264583;stroke-linecap:round"
         d="m -8.8377918,13.319367 c -1.3917622,0.153526 -2.7943932,-0.573179 -2.8791342,-1.220337 -0.14704,-1.122923 0.876683,-1.096872 0.871406,-2.2278347 -0.0065,-1.3960218 2.2629488,-1.5339014 2.7170475,-0.3778139 0.4097873,1.0432756 1.3600604,0.5999656 1.4781054,1.9774576 0.056271,0.656643 -0.7670097,1.691841 -2.1874247,1.848528 z"
         id="path8578"
         sodipodi:nodetypes="ssssss"
         inkscape:label="bean-mid" /><path
         style="fill:#834500;fill-opacity:1;stroke-width:0.264583;stroke-linecap:round"
         d="m -13.501573,9.7331961 c -0.124908,-0.614529 0.172321,-1.1674109 0.561978,-1.2670994 0.439684,-0.1124849 0.874868,0.2597402 1.076429,0.8246622 0.07699,0.2157949 0.101503,0.5087619 0.02233,0.7668591 -0.07917,0.258097 -0.262012,0.481324 -0.599721,0.55764 -0.621896,0.140536 -0.96058,-0.387893 -1.061021,-0.8820619 z"
         id="path8580"
         sodipodi:nodetypes="ssssss"
         inkscape:label="bean-4" /><path
         style="fill:#834500;fill-opacity:1;stroke-width:0.264583;stroke-linecap:round"
         d="M -6.796045,7.5813329 C -6.6813071,6.9648242 -6.1983843,6.5638142 -5.7997869,6.617575 -5.350015,6.678241 -5.0862451,7.1865312 -5.1113143,7.7858104 -5.1304701,8.2436482 -5.4606957,8.9128082 -6.143388,8.7969962 -6.7529274,8.693594 -6.8883131,8.0770928 -6.796045,7.5813329 Z"
         id="path8582"
         sodipodi:nodetypes="sssss"
         inkscape:label="bean-1" /></g></g><metadata
     id="metadata30760"><rdf:RDF><cc:Work
         rdf:about=""><dc:rights><cc:Agent><dc:title>Blobfox team (https://git.shadamethyst.xyz/adri326/blobfox), licensed under the Apache 2.0 License</dc:title></cc:Agent></dc:rights><dc:title>blobfox_cry</dc:title><dc:creator><cc:Agent><dc:title>Feuerfuchs</dc:title></cc:Agent></dc:creator><dc:source>https://git.shadamethyst.xyz/adri326/blobfox</dc:source><dc:contributor><cc:Agent><dc:title>Shad Amethyst</dc:title></cc:Agent></dc:contributor></cc:Work></rdf:RDF></metadata></svg>
