<?xml version="1.0" encoding="UTF-8"?><svg xmlns="http://www.w3.org/2000/svg" xmlns:cc="http://creativecommons.org/ns#" xmlns:dc="http://purl.org/dc/elements/1.1/" xmlns:inkscape="http://www.inkscape.org/namespaces/inkscape" xmlns:rdf="http://www.w3.org/1999/02/22-rdf-syntax-ns#" xmlns:sodipodi="http://sodipodi.sourceforge.net/DTD/sodipodi-0.dtd" xmlns:svg="http://www.w3.org/2000/svg" xmlns:xlink="http://www.w3.org/1999/xlink" viewBox="0 0 128 128" height="128" inkscape:version="1.2.1 (9c6d41e410, 2022-07-14)" id="svg5" xml:space="preserve" sodipodi:docname="blobfox_blush.svg" width="128"><title id="title30762">blobfox_blush</title><sodipodi:namedview inkscape:deskcolor="#505050" inkscape:current-layer="layer2" inkscape:window-height="779" inkscape:window-x="0" units="px" inkscape:pagecheckerboard="1" inkscape:zoom="4.624137" inkscape:cx="54.496655" borderopacity="1" inkscape:window-width="1536" inkscape:window-y="0" pagecolor="#505050" bordercolor="#ffffff" inkscape:cy="74.176003" showgrid="false" inkscape:pageshadow="0" inkscape:window-maximized="1" inkscape:document-units="px" id="namedview7" inkscape:pageopacity="0" inkscape:showpageshadow="2"><inkscape:grid type="xygrid" id="grid10" /></sodipodi:namedview><defs id="blush-defs"><linearGradient id="linearGradient35160" inkscape:collect="always"><stop style="stop-color:#ff1500;stop-opacity:0.24705882;" id="stop35156" offset="0" /><stop style="stop-color:#ff1400;stop-opacity:0.24705882;" offset="0.29524487" id="stop37640" /><stop offset="1" style="stop-color:#ff8702;stop-opacity:0;" id="stop35158" /></linearGradient><radialGradient xlink:href="#linearGradient35160" gradientUnits="userSpaceOnUse" cx="75.61599576314978" id="radialGradient35162" fx="75.61599576314978" r="17.542114081019132" inkscape:collect="always" fy="79.21506207814717" cy="79.21506207814717" gradientTransform="matrix(1.1738531 0.00925314 -0.00653938 0.87118542 -19.045259344674832 16.01129322790184) " /><radialGradient cy="79.21506207814717" r="17.542114081019132" cx="75.61599576314978" id="radialGradient35162-3" gradientTransform="matrix(1.1738531 0.00925314 -0.00653938 0.87118542 -70.23768668355565 4.988405472897423) " fx="75.61599576314978" inkscape:collect="always" gradientUnits="userSpaceOnUse" fy="79.21506207814717" xlink:href="#linearGradient35160" /></defs><g inkscape:label="ref" style="display:none;" id="layer2" inkscape:groupmode="layer"><image height="132.46995257992316" id="image22979" preserveAspectRatio="none" xlink:href="../original/blobfoxblush.png" y="-1.2335199" x="-0.041768249" inkscape:label="blobfoxblush" width="133.57573647339623" style="display:none;image-rendering:optimizeSpeed;" /><image height="127.99998866141777" preserveAspectRatio="none" style="display:none;image-rendering:optimizeSpeed;" xlink:href="../original/blobfox.png" id="image392" x="1.7763568e-15" y="0" width="127.99998866141777" inkscape:label="blobfox" /></g><g id="layer1" inkscape:groupmode="layer" inkscape:label="Base" style="display:inline;"><path d="M 15.136227183613105,46.367302741444774 C 5.025736998986733,27.07335238293889 3.8910707129499724,10.11725969617088 5.783000087283462,7.534673845091581 7.273731871112919,5.49974567323836 10.216584920606895,5.1509104113814805 12.853529446711441,6.070128516924075 16.36155374954513,7.292998012086693 28.858874832327768,15.42913866814415 43.51998820787448,23.566981623347182 52.640838242486694,28.629629487022466 44.802192881803435,29.305732515522347 42.81967579450096,29.437599093007915 28.828455305966333,30.368222300463692 22.355591308834992,38.30110337397232 15.136227183613105,46.367302741444774 Z " inkscape:label="left-ear" sodipodi:nodetypes="cssssc" style="fill:#313131;fill-opacity:1;stroke:none;stroke-width: 0.9971678347571721px;stroke-linecap:butt;stroke-linejoin:miter;stroke-opacity:1;" id="path20678" /><path style="display:inline;fill:#ff8702;fill-opacity:1;stroke:none;stroke-width: 0.9971678347571721px;stroke-linecap:butt;stroke-linejoin:miter;stroke-opacity:0.4501;" inkscape:label="body" d="M 35.25573820253,30.579689882689376 C 19.027916983152878,35.49818770479576 1.2923413286479795,58.68835422486795 -0.237163719796704,94.97775122134838 c 0,0 0.1457438682778005,7.975214804125402 2.2060373178725468,14.232173297945934 5.674163077395155,6.4486636831234785 20.816877441855222,15.21881892839296 40.43032221297945,17.67093851689219 18.906224137550232,2.363689985681497 43.17032144998735,-0.44280565185804527 58.39153659875841,-3.8363639434502392 15.221218928298471,-3.393562071119604 22.856563509584117,-13.187065937517092 23.847891974492445,-15.696509618247655 0.9913057877438667,-2.509439901203154 0.10805668865918551,-7.66638206037866 -0.5593398204984323,-9.870201816133788 -0.8129272120894799,-2.6842430439274394 -2.06131645427888,-6.233963849056542 -0.398959354371679,-11.070761138946414 1.6623608794346112,-4.836793510362461 5.9779991347244446,-25.760657883438668 -2.714161782907017,-40.49176281528493 C 107.46740364301561,23.03813729771113 63.58371907150713,21.993745779773793 35.25573820253,30.579689882689376 Z " sodipodi:nodetypes="sccsssssss" id="path117" /><path id="path8933" sodipodi:nodetypes="cccccccc" style="fill:#ff8702;fill-opacity:1;stroke:none;stroke-width: 0.9971678347571721px;stroke-linecap:butt;stroke-linejoin:miter;stroke-opacity:0.4501;" inkscape:label="hair" d="M 42.81967579450096,11.563011702243635 C 46.283835658116715,18.540781632252692 47.31727183790269,19.630298439752032 52.83288736878397,26.458501131555078 43.820997329882,21.493337862467015 34.33973004961693,24.055439430888214 30.33444315218728,26.0415043605707 38.17972007166457,27.51599211354362 42.81967579450096,29.437599093007915 42.81967579450096,29.437599093007915 54.86953106812871,35.48507576830411 82.85638350959121,42.26433093447516 87.78620630762968,21.472496036515906 c -5.960945907049375,-3.0729791546071206 -12.945777128119012,-5.6925881223390515 -17.129007199645386,-7.452116871963904 0.38353132348301877,2.678937721301665 1.1689284579162027,4.725629672219305 2.0847873194965625,7.88219609912614 C 65.25256184045033,16.973370040418505 56.912225790857256,13.079509658287023 42.81967579450096,11.563011702243635 Z " /><path id="path18942" d="m 126.12027471967424,9.978031355195618 c -10.882317681798519,-0.13853857722289067 -26.623841471502306,20.741219088928386 -35.17584617417929,27.160579340134674 4.225742195836922,0.49776073630863243 8.892010988503506,0.896357256048927 13.061763265284913,0.4770716032648976 -0.37795652055289297,4.252123297160501 -1.2816339652900015,5.258093651256156 -2.1035753502529393,7.350088529524075 3.2781806583393447,0.18398739433120498 5.757168907198075,-1.1644043636061276 9.478336634711157,-3.060517674782769 0.05862047013305236,5.003780590402339 -2.2147614876078157,9.44011427401125 0.43416565219820275,11.849906935043036 1.4523098640822891,-2.17092652870368 3.224662550210136,-6.353710615995646 7.099581452772385,-10.010358031088268 5.400714118082122,-5.096499956830711 17.461386399158016,-29.403141141608618 10.475092500980612,-32.97839416620496 -1.0261681485760572,-0.5251419005849647 -2.1207495228051374,-0.7737516545767067 -3.269517981515041,-0.7883765358906877 z " style="fill:#ebdccc;fill-opacity:1;stroke:none;stroke-width: 0.9971678347571721px;stroke-linecap:butt;stroke-linejoin:miter;stroke-opacity:1;" inkscape:label="right-ear-fluff" /><path style="fill:#313131;fill-opacity:1;stroke:none;stroke-width: 0.9971678347571721px;stroke-linecap:butt;stroke-linejoin:miter;stroke-opacity:0.4501;" id="path14428" d="m 126.39137266175699,7.519914412601796 c -8.062775115638775,-0.05230110030310629 -27.053736257726925,3.6643088951059495 -39.792705205011615,15.007452259549126 -3.782165520387185,3.4650280210618893 -5.671623083794368,6.3474479390768535 -7.976072756847531,9.749588403559512 2.6759318631522895,3.3670842138943224 4.312985027047834,3.8576392811953046 7.786506780058788,4.295639263951211 1.3113145940427327,0.16535054467123844 2.7220307589751673,0.3520591987378269 4.188816213038732,0.5276103099366021 0.1447936950868624,0.013681889225122474 0.28947400435141724,0.026192124953065953 0.4341618726707925,0.040406927543034356 4.891483271988848,0.48134700467137786 12.392579039662245,-3.03049877832682 14.256237548967027,-6.252433643604975 4.455099037200825,-7.702079696768517 7.646369462741362,-12.258888462248487 11.78574945725396,-15.104482932894374 4.1393837740400095,-2.8455933367876645 11.462187895189453,-6.771838977486655 12.768237607549702,-3.943903592759702 1.3486865610753325,2.9202560110135436 -0.8926298861169337,15.798091220547592 -5.073456178210387,21.686415398172624 -5.932179923929925,8.354951860041266 -11.141593262141999,9.530211026369646 -13.257448296950855,18.39746988986339 -0.10741416899944219,0.45020218699991393 -0.2037165274127352,0.7983533543955373 -0.2914771538788522,1.1421391676323163 0.189089756335049,0.28482518563680376 0.4209335267349006,0.5516560412733843 0.7093454838840361,0.7944415435259236 1.824782290362902,1.5360679710209462 6.080004799999812,-2.8752452411320775 8.092262988493584,-6.0947562954820365 0.2733732175837316,-0.5150702159421175 0.5711584027102992,-1.0797164929245477 0.8540673679501037,-1.6111218263337865 0.03325984121024248,-0.0819779495284272 0.0631181077512556,-0.16403148960505948 0.0897259807194496,-0.24056691966271973 0.006803149338458688,0.01133858223076448 0.013228345935891894,0.023055117202554445 0.020787400756401547,0.03439369943331893 4.426162975347915,-8.313233814439615 9.751649379856325,-18.295134649797852 10.903142877829023,-24.560955757442688 0.6382903685712454,-3.473211453810573 4.615736511191477,-13.39512211830228 -4.5801711582609785,-13.843080777831467 -0.287395264275777,-0.014022046692045409 -0.5935445435612384,-0.022148030624093283 -0.9172648457769746,-0.02422677069973344 z " inkscape:label="right-ear" /></g><g style="display:inline;" id="layer3" inkscape:label="Features" inkscape:groupmode="layer"><path inkscape:label="nose-outline" style="fill:none;fill-opacity:1;stroke:#313131;stroke-width: 4.390676992493032;stroke-linecap:round;stroke-linejoin:miter;stroke-miterlimit:4;stroke-dasharray:none;stroke-opacity:1;" d="M 33.4595998165512,80.23435904589138 C 31.611449842068907,76.45427604510725 31.58456908722169,72.74175209678143 33.98796300834792,70.24829959652365 36.39135503971043,67.75485087579328 41.20605192102158,65.83680496705493 41.30959963348033,56.442275573138765 " id="path27175" sodipodi:nodetypes="csc" /><path d="m 40.16583526906161,72.60785855874575 c 3.6165352906875876,-1.9565933087955392 14.567852024887717,-2.650699738161428 17.09373287032548,2.5578518678011077 0.4038727400050103,0.8328113057948305 -6.123824640794306,7.094218303377232 -10.120228892904375,7.08542334309357 -3.8641472494430222,-0.008692913043586102 -7.880586776354852,-9.15252625383755 -6.973503977421104,-9.643275210894679 z " sodipodi:nodetypes="ssss" inkscape:label="nose" id="path28517" style="fill:#313131;fill-opacity:1;stroke:none;stroke-width: 0.9971678347571721px;stroke-linecap:butt;stroke-linejoin:miter;stroke-opacity:1;" /><path sodipodi:nodetypes="ccc" d="m 34.66588663520132,96.55562454505416 c 4.423697967570947,-2.1040666888162725 8.521374656638795,-3.0047961021733824 12.28339151640191,-4.663041076258226 3.335183490740808,2.4727142333577077 7.1951127875939855,4.320702822019575 11.041586966866657,6.968601930370004 " id="path29369" style="fill:none;stroke:#313131;stroke-width: 4.390676992493032;stroke-linecap:round;stroke-linejoin:round;stroke-miterlimit:4;stroke-dasharray:none;stroke-opacity:1;" inkscape:label="mouth" /><path d="m 25.350897395633964,55.351435931045835 c 4.616422117463697,-0.22329447939785518 10.799977275591447,0.4321700617255882 15.95870223784637,1.0908396420929276 C 37.15349069474446,51.19306759082412 29.353865930950164,46.21937581813482 26.359606773243833,44.28756865009573 " sodipodi:nodetypes="ccc" inkscape:label="left-eye" id="path26633" style="fill:none;stroke:#313131;stroke-width: 4.390676992493032;stroke-linecap:round;stroke-linejoin:round;stroke-miterlimit:4;stroke-dasharray:none;stroke-opacity:1;" /><path id="path26701" inkscape:label="right-eye" d="m 91.16290034791732,53.15766971820199 c -6.335587782063474,0.25549605293322625 -15.64823371463647,3.9654952769490053 -19.25275766721427,6.138224640227377 6.2368287308335155,1.301276169241096 13.13337397112701,3.784818748629184 16.313328491601244,5.1468016871337925 " style="fill:none;stroke:#313131;stroke-width: 4.390676992493032;stroke-linecap:round;stroke-linejoin:round;stroke-miterlimit:4;stroke-dasharray:none;stroke-opacity:1;" sodipodi:nodetypes="ccc" /><ellipse cx="69.73525898680083" inkscape:label="right-blush" style="fill:url(#radialGradient35162);fill-opacity:1;stroke:none;stroke-width: 5.401738370010301;stroke-linecap:round;stroke-linejoin:round;stroke-miterlimit:4;stroke-dasharray:none;stroke-opacity:1;" rx="17.823469282540582" ry="15.715599255291371" cy="86.54619627770882" transform="matrix(0.99671428 -0.08099776 0.0823465 0.99660376 0 0) " id="path35124" /><ellipse inkscape:label="left-blush" style="display:inline;fill:url(#radialGradient35162-3);fill-opacity:1;stroke:none;stroke-width: 5.401738370010301;stroke-linecap:round;stroke-linejoin:round;stroke-miterlimit:4;stroke-dasharray:none;stroke-opacity:1;" rx="17.823469282540582" cy="75.52330285341328" id="path35124-3" transform="matrix(0.99671428 -0.08099776 0.0823465 0.99660376 0 0) " ry="15.715599255291371" cx="18.54284336445499" /><path id="path27888" style="fill:none;stroke:#ff1f0b;stroke-width: 4.013820314416524;stroke-linecap:round;stroke-linejoin:round;stroke-miterlimit:4;stroke-dasharray:none;stroke-opacity:0.334154;" sodipodi:nodetypes="cc" d="M 25.13326427034393,65.60099647240172 C 21.655184407276206,70.80445705494265 15.703778783315796,78.3977128189877 13.672723871152606,80.7910758743671 " inkscape:label="left-blush-line-2" /><path inkscape:label="left-blush-line" style="fill:none;stroke:#ff1f0b;stroke-width: 4.013820314416524;stroke-linecap:round;stroke-linejoin:round;stroke-miterlimit:4;stroke-dasharray:none;stroke-opacity:0.334154;" d="M 36.03367643961904,66.06239739911821 C 31.502590759740528,72.18780944142483 26.790257464950496,78.91429484589392 24.06943199726646,81.971977875119 " id="path27890" sodipodi:nodetypes="cc" /><path style="fill:none;stroke:#ff1f0b;stroke-width: 4.013820314416524;stroke-linecap:round;stroke-linejoin:round;stroke-miterlimit:4;stroke-dasharray:none;stroke-opacity:0.334154;" sodipodi:nodetypes="cc" d="m 77.32418719196114,71.23208790424852 c -3.6659677296863102,5.174067197871371 -10.833644927809257,14.120605428322623 -13.35850908037366,16.957359962308665 " id="path28058" inkscape:label="right-blush-line-2" /><path d="m 88.10139999600788,73.95785283630502 c -2.312175027079723,3.2389642819305404 -9.90420244471644,12.654530525412186 -11.66558694229973,14.872682249107001 " style="fill:none;stroke:#ff1f0b;stroke-width: 4.013820314416524;stroke-linecap:round;stroke-linejoin:round;stroke-miterlimit:4;stroke-dasharray:none;stroke-opacity:0.334154;" id="path28060" sodipodi:nodetypes="cc" inkscape:label="right-blush-line" /></g><metadata id="metadata30760"><rdf:RDF><cc:Work rdf:about=""><dc:rights><cc:Agent><dc:title>Blobfox team (https://git.shadamethyst.xyz/adri326/blobfox), licensed under the Apache 2.0 License</dc:title></cc:Agent></dc:rights><dc:title>blobfox_blush</dc:title><dc:source>https://git.shadamethyst.xyz/adri326/blobfox</dc:source><dc:creator><cc:Agent><dc:title>Feuerfuchs</dc:title></cc:Agent></dc:creator><dc:contributor><cc:Agent><dc:title>Shad Amethyst</dc:title></cc:Agent></dc:contributor></cc:Work></rdf:RDF></metadata></svg>