<?xml version="1.0" encoding="UTF-8" standalone="no"?>
<!-- Created with Inkscape (http://www.inkscape.org/) -->
<svg xmlns:inkscape="http://www.inkscape.org/namespaces/inkscape" xmlns:sodipodi="http://sodipodi.sourceforge.net/DTD/sodipodi-0.dtd" xmlns:xlink="http://www.w3.org/1999/xlink" xmlns="http://www.w3.org/2000/svg" xmlns:svg="http://www.w3.org/2000/svg" xmlns:rdf="http://www.w3.org/1999/02/22-rdf-syntax-ns#" xmlns:cc="http://creativecommons.org/ns#" xmlns:dc="http://purl.org/dc/elements/1.1/" width="128" height="128" viewBox="0 0 33.866668 33.866668" version="1.1" id="svg5" inkscape:version="1.2.1 (9c6d41e410, 2022-07-14)" sodipodi:docname="blobfox_snug.svg" xml:space="preserve">
  <title id="title30762">blobfox_snug</title>
  <sodipodi:namedview id="namedview7" pagecolor="#505050" bordercolor="#ffffff" borderopacity="1" inkscape:pageshadow="0" inkscape:pageopacity="0" inkscape:pagecheckerboard="1" inkscape:document-units="mm" showgrid="false" inkscape:zoom="3.3687573" inkscape:cx="54.916393" inkscape:cy="62.337527" inkscape:window-width="1536" inkscape:window-height="779" inkscape:window-x="0" inkscape:window-y="0" inkscape:window-maximized="1" inkscape:current-layer="layer3" units="px" inkscape:showpageshadow="2" inkscape:deskcolor="#505050">
    <inkscape:grid type="xygrid" id="grid10"/>
  </sodipodi:namedview>
  <defs id="defs2"/>
  <g inkscape:groupmode="layer" id="layer2" inkscape:label="ref" style="display:none">
    <image width="33.866665" height="33.866665" preserveAspectRatio="none" style="display:none;image-rendering:optimizeSpeed" xlink:href="../original/blobfoxsnug.png" id="image6735" x="-0.18173571" y="1.8622413" inkscape:label="blobfoxsnug"/>
    <image width="33.866665" height="33.866665" preserveAspectRatio="none" style="display:none;image-rendering:optimizeSpeed" xlink:href="../original/blobfox.png" id="image450" x="0" y="0" inkscape:label="blobfox"/>
  </g>
  <g inkscape:label="Base" inkscape:groupmode="layer" id="layer1" style="display:inline">
    <path style="display:inline;fill:#ebdccc;fill-opacity:1;stroke:none;stroke-width:0.264583px;stroke-linecap:butt;stroke-linejoin:miter;stroke-opacity:1" d="m 32.209015,3.9288824 c 2.484943,0.061191 0.143579,6.3927696 -1.030297,7.9746726 -1.173877,1.581904 -2.698647,3.526536 -3.221763,3.684921 -0.523116,0.158385 0.149037,-2.34316 -0.259985,-2.544916 -0.409025,-0.201756 -2.957606,0.35084 -3.21024,-0.238871 -0.252635,-0.589708 0.730343,-2.553491 -1.342029,-2.382565 2.287932,-3.9536155 6.579371,-6.5544323 9.064314,-6.4932416 z" id="path18942" inkscape:label="right-ear-fluff" sodipodi:nodetypes="ssssscs"/>
    <path style="display:inline;fill:#313131;fill-opacity:1;stroke:none;stroke-width:0.264583px;stroke-linecap:butt;stroke-linejoin:miter;stroke-opacity:0.4501" d="m 31.790755,3.0331957 c 2.371396,-0.2790323 1.796385,1.2775613 1.791808,2.6899111 -0.0058,1.8017389 -0.780909,5.4755002 -2.280945,8.2904272 -0.89402,1.677696 -1.501258,2.459495 -1.999377,2.455412 -0.728413,-0.006 -1.124879,-0.0556 -1.147405,-0.691483 -0.09504,-2.682997 2.800391,-4.324672 3.699053,-6.8214255 C 32.233062,7.56045 32.840764,5.216123 32.426588,4.4982933 32.012412,3.7804635 30.182799,4.2257096 28.917098,4.9440858 27.759679,5.6010043 26.918541,6.2976934 25.731635,8.3910881 24.595378,10.395151 22.352762,11.157753 19.715718,9.3819797 22.876642,4.5486122 29.374619,3.3174924 31.790755,3.0331957 Z" id="path14428" sodipodi:nodetypes="ssssscssscs" inkscape:label="right-ear"/>
    <path style="display:inline;fill:#313131;fill-opacity:1;stroke:none;stroke-width:0.264583px;stroke-linecap:butt;stroke-linejoin:miter;stroke-opacity:1" d="M 3.7029533,13.467291 C 2.5863313,7.5524483 2.720763,3.0692779 3.2206752,2.3811746 3.6145773,1.8389888 3.8796155,1.7059815 4.5256812,2.0638532 5.2883371,2.4863072 6.7637132,4.8675016 10.447449,7.4999161 8.8916119,7.5522566 9.0535841,7.4340015 8.0188617,7.8507112 9.9458224,8.2610634 9.778528,8.299018 11.237149,8.8391688 7.5404362,9.0907318 5.6105552,11.318134 3.7029533,13.467291 Z" id="path20678" sodipodi:nodetypes="csscccc" inkscape:label="left-ear"/>
    <path id="path117" style="display:inline;fill:#ff8702;fill-opacity:1;stroke:none;stroke-width:0.264583px;stroke-linecap:butt;stroke-linejoin:miter;stroke-opacity:0.4501" d="M 10.855653,4.0597671 C 11.771003,5.9189222 12.04407,6.2092127 13.501486,8.028517 11.120236,6.7056004 8.6149628,7.388246 7.5566295,7.9174127 9.6296182,8.3102747 10.855653,8.822267 10.855653,8.822267 5.068395,9.5040054 -0.17569254,14.8323 -0.17511309,24.490132 c 2.4775e-4,4.129439 3.38857499,3.578067 8.14873859,5.544118 5.0472275,2.084612 10.2101235,0.693349 14.9812845,0.759756 6.514946,0.09068 10.689116,-2.808895 10.682885,-6.41181 -0.008,-4.620956 -0.488281,-6.4167 -2.473082,-10.141934 -0.375952,0.716465 -1.474933,2.696173 -2.377562,1.868743 -1.050491,-0.962975 -0.665937,-1.918 -0.750379,-3.510579 -1.000411,0.507351 -2.246423,0.514653 -3.314209,0.166423 0.198043,-0.61926 0.264658,-1.628776 1.445067,-2.8106368 C 24.770639,10.024944 23.703856,10.184982 22.630718,10.24428 21.27906,10.318968 20.58394,9.7737841 19.797073,9.2534325 20.466876,8.2563251 20.925207,7.8756429 22.074888,6.8043757 20.499804,5.985612 19.422328,5.3161974 18.316978,4.847389 18.418319,5.5611645 18.625847,6.1064845 18.867849,6.9475192 16.888889,5.6341831 14.579385,4.4638223 10.855653,4.0597671 Z" sodipodi:nodetypes="ccccsssscscccsccccc" inkscape:label="body"/>
    <path style="display:inline;fill:#ff8702;fill-opacity:1;stroke:none;stroke-width:1.065;stroke-linecap:round;stroke-linejoin:miter;stroke-dasharray:none;stroke-opacity:1" d="m 29.705618,23.607502 c 1.899822,-0.08088 3.189856,1.150279 3.498128,2.035138 -0.850691,3.000684 -1.836701,9.376534 -9.90023,8.90457 2.636625,-2.760358 0.74549,-0.831003 1.757557,-1.737675 -4.545134,0.174115 -9.5437,0.864593 -11.227327,1.370722 1.368212,-1.21784 1.656216,-1.436545 2.425449,-2.220063 -3.680929,0.780431 -11.5134001,1.212434 -13.4311741,0.05366 1.4517946,-0.572146 2.3048036,-0.720395 2.9387209,-1.07654 -2.4140596,-1.102402 -4.4449504,-3.333082 -3.6396204,-7.51686 4.6858546,0.660363 8.3189116,1.580161 9.4879136,1.796357 -1.146996,-0.633338 -0.98427,-0.746262 -1.514916,-1.358946 2.068146,-0.609788 7.793093,-0.619247 11.657789,1.239459 -0.242642,-1.357402 -0.111959,-0.894511 -0.306728,-1.891522 4.133975,1.553137 6.52043,1.129624 8.254438,0.4017 z" id="path5500" inkscape:label="tail"/>
    <path style="display:inline;fill:none;stroke:#313131;stroke-width:1.065;stroke-linecap:round;stroke-linejoin:miter;stroke-dasharray:none;stroke-opacity:1" d="m 30.062455,23.608497 c -4.1685,1.232534 -6.103248,0.484784 -8.77819,-0.254015 0.247931,0.536398 0.570586,1.244647 0.783244,1.867794 -4.516592,-2.075881 -8.25138,-2.422087 -13.0014329,-1.4044 0.6553131,0.368286 1.5687259,0.684465 2.3489619,1.219448 -2.5438928,-0.157981 -6.4779203,-1.461628 -9.3604108,-1.779047 -0.9326016,3.593991 0.8514017,6.069509 3.5994121,7.548617 -1.1640757,0.344131 -2.3554289,0.582252 -3.6348427,0.92413 3.5741205,1.814817 9.6797824,1.215266 13.6470704,0.401936 -0.775137,0.837896 -1.744538,1.834893 -2.298883,2.36252 6.806202,-1.12007 9.228207,-1.438667 11.132863,-1.551518 -0.639822,0.553618 -1.435013,1.270638 -1.872076,1.750309 7.584677,0.646609 10.623986,-4.466206 10.406782,-9.263578" id="path500" sodipodi:nodetypes="ccccccccccccc" inkscape:label="tail-outline"/>
  </g>
  <g inkscape:groupmode="layer" id="layer3" inkscape:label="Features" style="display:inline">
    <path style="fill:none;fill-opacity:1;stroke:#313131;stroke-width:1.02629;stroke-linecap:round;stroke-linejoin:miter;stroke-miterlimit:4;stroke-dasharray:none;stroke-opacity:1" d="M 8.9915496,20.917473 C 8.4755547,20.177748 8.4331421,19.012529 8.9604734,18.453048 9.4541629,17.929259 9.8419884,17.270203 11.527519,16.247272" id="path27175" sodipodi:nodetypes="csc" inkscape:label="nose-outline"/>
    <path style="fill:#313131;fill-opacity:1;stroke:none;stroke-width:0.264583px;stroke-linecap:butt;stroke-linejoin:miter;stroke-opacity:1" d="m 10.765516,19.02758 c 0.955611,-0.521313 3.849322,-0.706251 4.516746,0.681514 0.106717,0.221894 -1.618122,1.890181 -2.674108,1.887838 -1.02104,-0.0023 -2.08232,-2.438598 -1.842638,-2.569352 z" id="path28517" sodipodi:nodetypes="ssss" inkscape:label="nose"/>
    <path style="fill:#313131;fill-opacity:1;stroke-width:1.065;stroke-linecap:round" d="m 8.1227622,13.079564 c -0.9901922,-0.02496 -1.712204,0.606988 -1.7396471,1.011188 -0.027443,0.4042 0.2087373,0.58611 0.8306647,0.577584 0.5872167,-0.008 2.2476948,-0.1258 3.8786662,1.68912 0.42702,0.475181 1.128793,0.03384 0.776806,-0.523146 -1.41087,-2.232561 -2.5536544,-2.724672 -3.7464898,-2.754746 z" id="left-eye" sodipodi:nodetypes="ssssss" inkscape:label="left-eye"/>
    <path style="display:inline;fill:#313131;fill-opacity:1;stroke-width:1.065;stroke-linecap:round" d="m 22.45886,14.479866 c 0.958633,0.24925 1.478226,1.0559 1.393065,1.451979 -0.08516,0.396077 -0.362368,0.505752 -0.957795,0.325937 -0.562209,-0.16973 -2.125708,-0.741163 -4.194178,0.553224 -0.541566,0.338896 -1.094303,-0.278962 -0.602284,-0.717192 1.972161,-1.756549 3.206372,-1.914203 4.361192,-1.613948 z" id="path456-3" sodipodi:nodetypes="ssssss" inkscape:label="right-eye"/>
  </g>
  <metadata id="metadata30760">
    <rdf:RDF>
      <cc:Work rdf:about="">
        <dc:rights>
          <cc:Agent>
            <dc:title>Blobfox team (https://git.shadamethyst.xyz/adri326/blobfox), licensed under the Apache 2.0 License</dc:title>
          </cc:Agent>
        </dc:rights>
        <dc:title>blobfox_snug</dc:title>
        <dc:creator>
          <cc:Agent>
            <dc:title>Feuerfuchs</dc:title>
          </cc:Agent>
        </dc:creator>
        <dc:source>https://git.shadamethyst.xyz/adri326/blobfox</dc:source>
        <dc:contributor>
          <cc:Agent>
            <dc:title>Shad Amethyst</dc:title>
          </cc:Agent>
        </dc:contributor>
      </cc:Work>
    </rdf:RDF>
  </metadata>
</svg>
