<?xml version="1.0" encoding="UTF-8"?><svg xmlns="http://www.w3.org/2000/svg" xmlns:cc="http://creativecommons.org/ns#" xmlns:dc="http://purl.org/dc/elements/1.1/" xmlns:inkscape="http://www.inkscape.org/namespaces/inkscape" xmlns:rdf="http://www.w3.org/1999/02/22-rdf-syntax-ns#" xmlns:sodipodi="http://sodipodi.sourceforge.net/DTD/sodipodi-0.dtd" xmlns:svg="http://www.w3.org/2000/svg" xmlns:xlink="http://www.w3.org/1999/xlink" xml:space="preserve" viewBox="0 0 128 128" width="128" sodipodi:docname="blobfox_cry.svg" inkscape:version="1.2.1 (9c6d41e410, 2022-07-14)" id="svg5" height="128"><title id="title30762">blobfox_cry</title><sodipodi:namedview showguides="false" borderopacity="1" units="px" inkscape:window-maximized="1" showgrid="false" inkscape:pageopacity="0" inkscape:cx="91.672667" inkscape:zoom="34.252303" inkscape:current-layer="layer1" inkscape:document-units="px" bordercolor="#ffffff" inkscape:window-width="1536" inkscape:showpageshadow="2" inkscape:cy="30.538092" inkscape:pageshadow="0" inkscape:pagecheckerboard="1" inkscape:deskcolor="#505050" inkscape:window-y="0" pagecolor="#505050" id="namedview7" inkscape:window-x="0" inkscape:window-height="779"><inkscape:grid id="grid10" type="xygrid" /></sodipodi:namedview><defs id="defs2" /><g id="layer2" style="display:inline;" inkscape:label="ref" inkscape:groupmode="layer"><image style="display:none;fill:#313131;fill-opacity:1;stroke:none;image-rendering:optimizeQuality;" y="0" x="0" id="image80" height="127.99998866141777" inkscape:label="blobfox" preserveAspectRatio="none" width="127.99998866141777" xlink:href="../original/blobfox.png" /><image height="135.5953911970319" inkscape:label="blobfoxcry" preserveAspectRatio="none" width="135.5953911970319" id="image38140" y="-2.009618" xlink:href="../original/blobfoxcry.png" x="-0.72248876" style="display:none;image-rendering:optimizeSpeed;" /></g><g style="display:inline;" inkscape:groupmode="layer" id="layer1" inkscape:label="Base"><path style="fill:#313131;fill-opacity:1;stroke:none;stroke-width: 0.9999987007874529px;stroke-linecap:butt;stroke-linejoin:miter;stroke-opacity:1;" id="path20678" d="M 15.380412622818403,47.84485984862757 C 5.048304935106105,28.20613646432534 4.452810911306657,10.55968059213856 6.138615065408857,7.822586526669823 7.466931863506621,5.6659137296884365 10.174551284466487,4.432376140457633 12.712324790853357,5.594999212795308 27.052249769596468,14.46480018642519 39.91118205074087,22.44415848645046 52.12867826265047,27.091960886143276 32.49915991735591,33.43653109304996 26.686197248574917,36.518740987451146 15.380412622818403,47.84485984862757 Z " inkscape:label="left-ear" sodipodi:nodetypes="csccc" /><path inkscape:label="body" style="display:inline;fill:#ff8702;fill-opacity:1;stroke:none;stroke-width: 0.9999987007874529px;stroke-linecap:butt;stroke-linejoin:miter;stroke-opacity:0.4501;" d="M 31.020137109443425,31.795851094651535 C 19.243009132164996,36.4709896822445 1.5274857981304806,58.454409037228 0,94.99841767722766 c 0,0 0.1455496005689134,8.031170707434224 2.203124700664382,14.332028412124867 5.666673414697898,6.493912185279049 20.789397102779642,15.325601916314886 40.376951733190886,17.794922134058186 18.881264138532913,2.3802783314851053 43.113329956168116,-0.4459124233892747 58.31444935769885,-3.8632817376660737 15.201126960585555,-3.417369314276799 22.82638776274064,-13.27958876852013 23.816408511165022,-15.80663748792766 0.9899980712599185,-2.527052498934941 0.10794330283687785,-7.720168514953997 -0.5586028126534327,-9.939454096871888 -0.8118500467775573,-2.7030802085401495 -2.058598974070907,-6.277704319775421 -0.3984302205342433,-11.14843420675456 C 125.4140624640133,81.4968308072114 128.941291301524,61.74966560040687 121.43968151812278,47.67004536732106 106.80734697608871,18.185110339168887 61.32889081382321,19.764256985659177 31.020137109443425,31.795851094651535 Z " id="path117-3" sodipodi:nodetypes="sccssssscs" /><path style="display:inline;fill:#ff8702;fill-opacity:1;stroke:none;stroke-width: 0.9999987007874529px;stroke-linecap:butt;stroke-linejoin:miter;stroke-opacity:0.4501;" id="path117-7" sodipodi:nodetypes="cccsssccc" d="M 42.99999704724422,10.998424763841546 C 46.45958746222097,18.0251524242066 47.49165167355703,19.122313325893177 52.99999539370098,25.998424173290392 43.999999527559076,20.998424244156528 34.53124777436033,23.578502378799122 30.53124919168311,25.578502048090474 c 7.834914967129333,1.4848330754002728 8.962707048712321,2.1547199151685077 12.46874785556111,3.419922007089685 11.660012139369602,4.207670763477529 20.558202655188875,3.136416254471801 32.256834005636456,3.053278367981167 7.480024902361225,-0.05315905302523414 17.0984572795883,-7.342300813295244 12.553023757754973,-9.670775052331692 -5.971434095612832,-3.0589676905918237 -12.83137839246542,-7.136019876534651 -17.009079015390594,-8.907893696539618 0.3830210872826344,2.6977340670183443 1.1673788516779982,4.7587859543785065 2.0820320440144866,7.937499656003952 C 65.40327427546165,16.44674354146679 57.07394798921465,12.525562845450283 42.99999704724422,10.998424763841546 Z " inkscape:label="hair" /><path sodipodi:nodetypes="sscccccs" id="path18942" d="m 128.478246280384,10.564230765187768 c 7.6869502485452665,2.815055511218287 -4.691013358621522,25.761046796809183 -10.525730609223206,30.385648567494158 -5.834721030129095,4.624607062023345 -4.794300283688965,12.815579967890553 -6.859022092164485,12.881302170027475 -1.3790437252344991,-3.825010243109834 -0.4305826602132811,-6.775717528515059 0.4233486447500534,-12.449642344502271 -2.189400858685006,1.0629694069697084 -6.590649189344521,3.046113895822288 -9.962849371541363,3.3696678988319726 1.2608994779173435,-2.204254401407307 1.5613341117584998,-4.443764234497472 1.9022248069990235,-6.750409812975993 C 101.22753239261685,37.55341231679479 96.97156531608012,36.809756661033205 94.67606934346185,36.8483059508541 101.18776798473355,29.461540887340913 119.65643623399859,7.333576530174153 128.478246280384,10.564230765187768 Z " style="display:inline;fill:#ebdccc;fill-opacity:1;stroke:none;stroke-width: 0.9999987007874529px;stroke-linecap:butt;stroke-linejoin:miter;stroke-opacity:1;" inkscape:label="right-ear-fluff" /><path sodipodi:nodetypes="scssssccssss" d="M 127.17234774912019,7.557257277273337 C 118.22396888882014,6.519964467717935 95.19780664575566,10.619321156719641 77.90065961021025,31.741023002321935 c 4.178713536271121,3.6761633828282134 5.647407651676865,5.190682756272333 11.150890899571227,5.609818739770916 5.2049119210664605,0.39639683478752624 13.82971410119236,-1.5966605985566695 15.719972924410516,-6.249791375992467 3.277058138698499,-8.066921635160567 7.154021765589695,-12.353658600249664 11.279670737020838,-15.231102014523543 4.125656530485964,-2.8774419024629174 12.385617150172555,-6.524074703776587 13.4725563199781,-3.5864442052581027 1.0869353902781342,2.9376286087547796 -2.4515753365521524,14.574626071865117 -4.751126742081625,19.533235262471056 -6.024298345500066,10.351833419219158 -12.807299023334686,9.292628421550063 -13.690661508241675,22.028388550063443 3.2618493203996333,3.0342386206992673 6.4416299826129935,-2.570815646818282 8.242079675508675,-5.4948734844538 7.646229620227181,-12.417999007165395 11.099005547283246,-24.00523256672313 12.263946603781632,-28.988910984688548 0.6872390280614556,-2.9400607346432786 4.53272297115264,-10.76679340288215 -4.4156558891474065,-11.804086212437552 z " id="path14428" style="fill:#313131;fill-opacity:1;stroke:none;stroke-width: 0.9999987007874529px;stroke-linecap:butt;stroke-linejoin:miter;stroke-opacity:0.4501;" inkscape:label="right-ear" /></g><g inkscape:groupmode="layer" inkscape:label="Features" id="layer3"><path d="M 34.28918756341782,76.52297273531605 C 32.443477273878855,72.71636879069416 32.416631668636555,68.97779255992943 34.81685267650187,66.466848406817 37.21707368436718,63.95590425370456 43.097497515846555,62.28261676052691 43.9843787407725,56.87022768227451 " id="path27175" style="fill:none;fill-opacity:1;stroke:#313131;stroke-width: 4.403149432946873;stroke-linecap:round;stroke-linejoin:miter;stroke-miterlimit:4;stroke-dasharray:none;stroke-opacity:1;" inkscape:label="nose-outline" sodipodi:nodetypes="csc" /><path style="fill:#313131;fill-opacity:1;stroke:none;stroke-width: 0.9999987007874529px;stroke-linecap:butt;stroke-linejoin:miter;stroke-opacity:1;" id="path28517" d="m 41.37655018202559,69.53782025441653 c 3.6117579680410254,-1.9703167728221747 14.54861800989693,-2.6692950130198816 17.07116531215885,2.575800843472408 0.4033398266401644,0.8386544551710846 -6.115736452136361,7.143990899842878 -10.106864483981715,7.1351354671206515 -3.859048666966588,-0.008692913043586102 -7.870185516921832,-9.2167479835926 -6.964300828177134,-9.710936310593059 z " sodipodi:nodetypes="ssss" inkscape:label="nose" /><path style="display:inline;fill:none;stroke:#313131;stroke-width: 4.224604558086436;stroke-linecap:round;stroke-linejoin:round;stroke-miterlimit:4;stroke-dasharray:none;stroke-opacity:1;" inkscape:label="left-eye" d="m 28.75444460021872,55.636083478894356 c 4.423403920338429,-0.2157354245773455 10.348413702818359,0.417558408757543 15.291442169628263,1.053959013623661 C 40.06355369828529,51.61832867644376 32.59004507913209,46.81281075540116 29.720979365315777,44.94632893912091 " id="path26633" sodipodi:nodetypes="ccc" /><path d="m 91.8147289836721,53.516498050531574 c -6.070680705878713,0.2468787304378453 -14.993948386065027,3.8314052034879844 -18.44776368315891,5.930671892493233 5.976056457635573,1.2572749111309092 12.584246433691087,3.656840170990545 15.631240959399966,4.9727695680011985 " sodipodi:nodetypes="ccc" inkscape:label="right-eye" style="display:inline;fill:none;stroke:#313131;stroke-width: 4.224604558086436;stroke-linecap:round;stroke-linejoin:round;stroke-miterlimit:4;stroke-dasharray:none;stroke-opacity:1;" id="path26701" /><path d="m 37.97666496154863,82.05628779305954 c 4.66770501308248,-0.029858266541013135 8.456499824547251,3.314615302574201 10.788218787865404,3.258326800853276 1.9460257501564666,-0.0469795257094675 5.3554731749813715,-0.5605908440712267 6.938229648101196,-0.5602431275494832 6.813429653014582,0.0014966928544609113 16.80569130686255,7.261745855836779 16.473519981357484,18.33485030177755 -0.28686613043834136,9.562657891233943 -8.058893540988445,11.18404869354139 -11.367026954054058,11.141910742444459 -7.569996552362341,-0.09641574423560063 -14.367261166643262,-10.138359285891367 -18.41417502306398,-10.322947625080804 -2.310069830312212,-0.10537322419790457 -5.124706947846184,2.2118966058308422 -10.239045896100556,2.1298619633912614 -5.6334264238808505,-0.09036850037919292 -7.707421302857431,-3.6994165472670657 -7.509550192537396,-8.743309262074439 0.19786959850907093,-5.043900273862195 3.3844738195089055,-15.175067119091846 13.329829648431906,-15.23844979376182 z " id="path39978" sodipodi:nodetypes="sssssssss" inkscape:label="mouth" style="display:inline;fill:#ab1829;fill-opacity:1;stroke-width: 4.025196691921391;stroke-linecap:round;" /><path style="fill:#ffffff;fill-opacity:1;stroke:#ff8702;stroke-width: 0.9999987007874529;stroke-linecap:round;stroke-dasharray:none;stroke-opacity:1;" inkscape:label="left-tear-2" d="m 24.628187502827267,58.60432399195575 c -4.040664785800599,-1.1363640497494472 -9.330823191699876,-0.519050058305116 -13.323891632917654,1.6162771017213742 -3.9930665514540733,2.1353309395539 -5.912628050683936,6.346525734388751 -3.3171298221602434,9.310283727941586 2.119043822084889,2.4197025819014737 6.470148784639813,1.525802774574694 8.650879407445693,-1.623839936069294 2.241311911759374,-3.2371387701913874 5.46306649358006,-7.163867434493409 7.9901420476322045,-9.302720893593667 z " id="path50357" sodipodi:nodetypes="csssc" /><path d="m 92.12065527084036,69.63862780950285 c 4.995877598587496,0.5625297416326874 9.492067657792612,3.2724130995112954 12.958808938629572,7.443389943173625 3.4667375013095474,4.17098062318974 4.023745353395853,9.304213806920718 -0.1933228270345344,11.421293408610497 -3.4429415967345833,1.7284459162029169 -7.581270882627131,-0.8110601255488141 -8.579527221278457,-5.289611130330271 C 95.28062365036915,78.61073076335707 93.95929330868925,73.15199712000013 92.12065527084036,69.63862780950285 Z " id="path50357-7" inkscape:label="right-tear-2" style="fill:#ffffff;fill-opacity:1;stroke:#ff8702;stroke-width: 1.1977473544193957;stroke-linecap:round;stroke-dasharray:none;stroke-opacity:1;" sodipodi:nodetypes="csssc" /><path sodipodi:nodetypes="csssc" inkscape:label="left-tear" id="path50357-3" style="fill:#ffffff;fill-opacity:1;stroke:#ff8702;stroke-width: 0.9999987007874529;stroke-linecap:round;stroke-dasharray:none;stroke-opacity:1;" d="m 7.039661581115687,75.17587735528042 c -3.817961840237724,1.73368434119353 -6.580929378703568,4.466195729677334 -8.375092243500307,8.62374391245103 -1.6120276278729284,3.735492136397948 -0.3703963318741602,7.193967590788679 2.7081438303880385,8.006758739891389 2.4758794363826997,0.6536768246583928 5.566149172986254,-1.2827375872937958 5.601565234584046,-5.113477593957575 0.03174803024614054,-3.4337271089083816 0.11984881417918057,-8.719146743340682 0.06538204466999824,-11.517025058384842 z " /><path sodipodi:nodetypes="csssc" id="path50357-3-6" d="m 104.04459936832288,95.01692602295569 c 4.397797622133952,1.996981338701522 7.580378914158311,5.144481057303896 9.647024502085651,9.933440868762172 1.856844021384094,4.302802980204607 0.42664817217920586,8.28651935879845 -3.1194329480538214,9.222749873120085 -2.851891541264113,0.7529498916161461 -6.411480692461391,-1.4775457686005604 -6.452280690855091,-5.890064649997456 -0.036661415879471825,-3.9552111828657024 -0.13806613629660883,-10.043330628215331 -0.0753259812863787,-13.266126091884802 z " inkscape:label="right-tear" style="fill:#ffffff;fill-opacity:1;stroke:#ff8702;stroke-width: 1.1518676711863123;stroke-linecap:round;stroke-dasharray:none;stroke-opacity:1;" /></g><metadata id="metadata30760"><rdf:RDF><cc:Work rdf:about=""><dc:rights><cc:Agent><dc:title>Blobfox team (https://git.shadamethyst.xyz/adri326/blobfox), licensed under the Apache 2.0 License</dc:title></cc:Agent></dc:rights><dc:title>blobfox_cry</dc:title><dc:creator><cc:Agent><dc:title>Feuerfuchs</dc:title></cc:Agent></dc:creator><dc:source>https://git.shadamethyst.xyz/adri326/blobfox</dc:source><dc:contributor><cc:Agent><dc:title>Shad Amethyst</dc:title></cc:Agent></dc:contributor></cc:Work></rdf:RDF></metadata></svg>