<?xml version="1.0" encoding="UTF-8" standalone="no"?>
<!-- Created with Inkscape (http://www.inkscape.org/) -->

<svg
   width="54mm"
   height="54mm"
   viewBox="0 0 54 54.000001"
   version="1.1"
   id="svg5"
   xml:space="preserve"
   inkscape:version="1.2.1 (9c6d41e410, 2022-07-14)"
   sodipodi:docname="blobfox_plural2.svg"
   xmlns:inkscape="http://www.inkscape.org/namespaces/inkscape"
   xmlns:sodipodi="http://sodipodi.sourceforge.net/DTD/sodipodi-0.dtd"
   xmlns:xlink="http://www.w3.org/1999/xlink"
   xmlns="http://www.w3.org/2000/svg"
   xmlns:svg="http://www.w3.org/2000/svg"><sodipodi:namedview
     id="namedview7"
     pagecolor="#3d3d3d"
     bordercolor="#000000"
     borderopacity="0.25"
     inkscape:showpageshadow="2"
     inkscape:pageopacity="0"
     inkscape:pagecheckerboard="true"
     inkscape:deskcolor="#4e4e4e"
     inkscape:document-units="mm"
     showgrid="false"
     inkscape:zoom="2.5372089"
     inkscape:cx="73.703038"
     inkscape:cy="106.41615"
     inkscape:window-width="1536"
     inkscape:window-height="779"
     inkscape:window-x="0"
     inkscape:window-y="0"
     inkscape:window-maximized="1"
     inkscape:current-layer="layer1" /><defs
     id="defs2" /><g
     inkscape:groupmode="layer"
     id="layer4"
     inkscape:label="ref"
     style="display:none"
     transform="translate(-3.9442104,-1.5011827)"><image
       preserveAspectRatio="none"
       inkscape:svg-dpi="96"
       width="56.301189"
       height="56.301189"
       xlink:href="blobfox_plural.svg"
       id="image8932"
       x="1.4021418"
       y="1.3825009" /></g><g
     inkscape:label="Layer 1"
     inkscape:groupmode="layer"
     id="layer1"
     style="display:inline"
     transform="translate(-3.9442104,-1.5011827)"><g
       id="g1686"
       transform="translate(10.922297,2.722141)"
       inkscape:label="blobfox"><g
         id="layer2-2"
         inkscape:label="ref"
         style="display:none"><image
           width="33.866665"
           height="33.866665"
           preserveAspectRatio="none"
           style="display:inline;fill:#313131;fill-opacity:1;stroke:none;image-rendering:optimizeQuality"
           xlink:href="../original/blobfox.png"
           id="image80"
           x="0"
           y="0"
           inkscape:label="blobfox" /></g><g
         inkscape:label="Base"
         id="layer1-9"
         style="display:inline"><path
           id="path117-3"
           style="display:inline;fill:#ff8702;fill-opacity:1;stroke:none;stroke-width:0.264583px;stroke-linecap:butt;stroke-linejoin:miter;stroke-opacity:0.4501"
           d="M 8.2074116,8.4126526 C 5.0913797,9.6496164 0.4041473,15.466063 0,25.134999 c 0,0 0.03851,2.124914 0.5829101,3.792016 1.4993074,1.718181 5.5005282,4.054899 10.6830689,4.70824 4.995668,0.629782 11.407069,-0.117981 15.429032,-1.02216 4.021965,-0.904179 6.039482,-3.513558 6.301425,-4.182173 0.261937,-0.668616 0.02856,-2.042628 -0.147797,-2.629814 -0.214802,-0.71519 -0.544671,-1.660976 -0.105418,-2.94969 C 33.182472,21.562704 34.115718,16.337933 32.130917,12.6127 28.259445,4.8114773 16.226603,5.2292932 8.2074116,8.4126526 Z"
           sodipodi:nodetypes="sccssssscs"
           inkscape:label="body" /><path
           style="fill:#313131;fill-opacity:1;stroke:none;stroke-width:0.264583px;stroke-linecap:butt;stroke-linejoin:miter;stroke-opacity:1"
           d="M 4.3137226,11.778813 C 1.9838307,6.3895666 2.145295,1.2059319 2.6452072,0.51782863 3.0391093,-0.02435716 3.3041475,-0.15736443 3.9502132,0.20050729 4.7128691,0.62296126 7.6810801,3.5307571 11.56213,6.108751 13.240321,7.223492 9.2628811,6.8913037 11.377083,7.6729166 7.6803703,7.9244796 6.2213245,9.6296562 4.3137226,11.778813 Z"
           id="path20678-1"
           sodipodi:nodetypes="cssscc"
           inkscape:label="left-ear" /><path
           id="path117-7"
           style="display:inline;fill:#ff8702;fill-opacity:1;stroke:none;stroke-width:0.264583px;stroke-linecap:butt;stroke-linejoin:miter;stroke-opacity:0.4501"
           d="M 11.377083,2.91 C 12.292433,4.7691551 12.5655,5.0594456 14.022916,6.87875 11.641667,5.5558333 9.136393,6.238479 8.07806,6.7676456 10.151048,7.1605077 10.449443,7.3377486 11.377083,7.6725 14.462128,8.7857796 17.25774,10.030627 19.911704,8.4803466 21.209819,7.7220691 23.693263,6.1378025 22.490617,5.521727 20.910675,4.7123751 19.838056,4.0335486 18.732706,3.5647403 18.834047,4.2785158 19.041575,4.8238358 19.283577,5.6648705 17.304617,4.3515344 15.100816,3.3140553 11.377083,2.91 Z"
           sodipodi:nodetypes="cccsssccc"
           inkscape:label="hair" /><path
           style="display:inline;fill:#ebdccc;fill-opacity:1;stroke:none;stroke-width:0.264583px;stroke-linecap:butt;stroke-linejoin:miter;stroke-opacity:1"
           d="m 31.870065,0.89136862 c 2.484943,0.0611907 0.664265,7.56804148 -0.509611,9.14994438 -1.173877,1.581904 -0.831551,4.245863 -1.354667,4.404248 -0.707644,-0.825525 -0.707787,-2.595852 -0.717551,-4.150112 -0.760031,0.341959 -2.089885,0.741869 -3.258009,0.409179 0.287592,-0.78609 0.653321,-1.9632947 0.948986,-2.908956 -0.481311,0.1872691 -1.564135,0.4426682 -2.855349,0.6028707 1.157455,-2.334176 5.261258,-7.5683648 7.746201,-7.50717408 z"
           id="path18942"
           inkscape:label="right-ear-fluff"
           sodipodi:nodetypes="sscccccs" /><path
           id="path14428"
           style="fill:#313131;fill-opacity:1;stroke:none;stroke-width:0.264583px;stroke-linecap:butt;stroke-linejoin:miter;stroke-opacity:0.4501"
           inkscape:label="right-ear"
           d="m 32.314823,0.13797607 c -0.128465,-0.004264 -0.267672,0.002572 -0.418579,0.0211873 -2.4145,0.29784466 -7.38569,2.24242673 -11.391552,7.77988693 0.600112,0.3554624 1.262874,0.5599283 1.918745,0.6294189 0.237085,0.00899 0.48187,-0.0031 0.735873,-0.037724 0.32542,-0.044364 0.691176,-0.091565 1.07487,-0.1462443 0.941957,-0.3201292 1.686609,-0.9970937 1.923913,-2.0158976 0.522615,-2.2437042 1.758263,-3.0057917 2.706295,-3.9398112 0.948033,-0.9340193 3.349419,-1.91930618 3.763595,-1.201477 0.414175,0.7178289 0.07221,4.491393 -0.306958,5.8869791 -0.898662,2.4967496 -2.467505,4.0199558 -2.372465,6.7029498 0.0082,0.231812 0.01404,0.448703 0.05219,0.632003 0.05226,0.06911 0.1087,0.1361 0.169498,0.199988 0.746405,0.784343 1.286171,-0.180766 1.631942,-1.082621 0.104263,-0.27682 0.210385,-0.573022 0.328662,-0.95343 0.991263,-3.1881402 1.543734,-7.2256503 1.588534,-9.0268398 0.02193,-0.8815821 0.522418,-3.38440797 -1.404566,-3.44836837 z" /></g><g
         id="layer3-2"
         inkscape:label="Features"><path
           style="fill:#313131;fill-opacity:1;stroke:none;stroke-width:0.265;stroke-linecap:butt;stroke-linejoin:miter;stroke-miterlimit:4;stroke-dasharray:none;stroke-opacity:0.46432"
           d="m 7.3527787,14.424665 c 0.1797912,-1.565032 1.4709763,-2.669662 2.4784762,-2.637439 1.0481491,0.03352 1.7111831,1.106758 1.6559461,1.895304 -0.109337,1.560853 -0.980796,2.946701 -2.4842238,2.935699 -0.9121407,-0.0067 -1.7841833,-1.027265 -1.6501985,-2.193564 z"
           id="path22173-7"
           sodipodi:nodetypes="sssss"
           inkscape:label="left-eye" /><path
           style="fill:#313131;fill-opacity:1;stroke:none;stroke-width:0.264583px;stroke-linecap:butt;stroke-linejoin:miter;stroke-opacity:0.46432"
           d="m 19.490943,16.103085 c 0.179791,-1.80508 1.475044,-2.789355 2.482544,-2.757132 1.04815,0.03352 1.921875,1.215376 1.852143,2.278752 -0.113562,1.731761 -1.084893,2.877453 -2.588321,2.866451 -0.912141,-0.0067 -1.862721,-1.219882 -1.746366,-2.388071 z"
           id="path22173-3-0"
           sodipodi:nodetypes="sssss"
           inkscape:label="right-eye" /><path
           style="fill:none;fill-opacity:1;stroke:#313131;stroke-width:1.165;stroke-linecap:round;stroke-linejoin:miter;stroke-miterlimit:4;stroke-dasharray:none;stroke-opacity:1"
           d="M 8.9038328,21.207191 C 8.4154886,20.200027 8.4083857,19.210862 9.0434442,18.546508 9.6785027,17.882154 11.081313,16.998296 10.991432,13.872278"
           id="path27175"
           sodipodi:nodetypes="csc"
           inkscape:label="nose-outline" /><path
           style="fill:#313131;fill-opacity:1;stroke:none;stroke-width:0.264583px;stroke-linecap:butt;stroke-linejoin:miter;stroke-opacity:1"
           d="m 10.675849,19.175188 c 0.955611,-0.521313 3.849322,-0.706251 4.516746,0.681514 0.106717,0.221894 -1.618122,1.890181 -2.674108,1.887838 -1.02104,-0.0023 -2.08232,-2.438598 -1.842638,-2.569352 z"
           id="path28517"
           sodipodi:nodetypes="ssss"
           inkscape:label="nose" /><path
           style="fill:none;stroke:#313131;stroke-width:1.165;stroke-linecap:round;stroke-linejoin:round;stroke-miterlimit:4;stroke-dasharray:none;stroke-opacity:1"
           d="m 8.0248092,22.612995 c 0.548615,1.686713 1.0637781,2.752111 1.5767164,3.423841 0.9923844,-0.828422 2.2592704,-1.977918 2.7613864,-2.480155 0.783749,1.274883 1.856673,2.745088 2.294365,3.345841 1.285631,-1.024786 2.518532,-2.115492 3.025709,-2.688925"
           id="path29369-9"
           sodipodi:nodetypes="ccccc"
           inkscape:label="mouth" /></g></g><g
       id="g1650"
       transform="matrix(0.67132187,0,0,0.67132187,5.4294036,27.662952)"
       inkscape:label="blobcat"><g
         id="layer2"
         inkscape:label="ref"
         style="display:none"><image
           width="56.029915"
           height="56.029915"
           preserveAspectRatio="none"
           style="display:none;image-rendering:optimizeSpeed"
           xlink:href="../original/blobfoxmsnuggleleftcat.png"
           id="image475"
           x="0.45707837"
           y="-16.623016"
           inkscape:label="blobfoxmsnuggleleftcat" /><image
           width="44.290115"
           height="44.290115"
           preserveAspectRatio="none"
           style="display:none;image-rendering:optimizeSpeed"
           xlink:href="../original/blobfoxnomcat.png"
           id="image2206"
           x="-3.1429539"
           y="-10.339302"
           inkscape:label="blobfoxnomcat" /><image
           width="55.942009"
           height="55.942009"
           preserveAspectRatio="none"
           style="display:none;image-rendering:optimizeSpeed"
           xlink:href="../original/blobfoxmsnugglecentercat.png"
           id="image2335"
           x="-11.634965"
           y="-17.482618"
           inkscape:label="blobfoxmsnugglecentercat" /><image
           width="33.866665"
           height="33.866665"
           preserveAspectRatio="none"
           style="display:none;image-rendering:optimizeSpeed"
           xlink:href="../original/blobfox.png"
           id="image4772"
           x="0"
           y="0"
           inkscape:label="blobfox" /></g><g
         inkscape:label="Base"
         id="layer1-5"
         style="display:inline"><path
           style="fill:#e9ae20;fill-opacity:1;stroke:none;stroke-width:0.264583px;stroke-linecap:butt;stroke-linejoin:miter;stroke-opacity:1"
           d="M 4.0778933,12.468497 C 2.0572046,7.4297489 2.5604085,3.6951828 2.6743801,2.856386 2.7720357,2.1376698 3.4357646,1.7692645 4.1639818,1.8924422 7.3443941,2.430408 10.157621,4.0991994 12.720122,6.1421708 9.2129023,8.1547016 5.9854952,10.31934 4.0778933,12.468497 Z"
           id="path20678"
           sodipodi:nodetypes="csscc"
           inkscape:label="left-ear" /><path
           id="path117"
           style="fill:#fcc21b;fill-opacity:1;stroke:none;stroke-width:0.999999px;stroke-linecap:butt;stroke-linejoin:miter;stroke-opacity:0.4501"
           d="M 49.112445,21.099228 C 22.954714,27.711036 1.527486,58.455986 0,95 c 0,0 0.14555099,8.03117 2.203125,14.33203 5.6666732,6.49391 20.789398,15.3256 40.376953,17.79492 18.881266,2.38028 43.113333,-0.44591 58.314452,-3.86328 15.20113,-3.41737 22.82639,-13.27959 23.81641,-15.80664 0.99,-2.52705 0.10795,-7.720166 -0.5586,-9.939452 -0.81185,-2.70308 -2.0586,-6.277707 -0.39843,-11.148437 1.66016,-4.87073 6.29813,-26.667335 -1.93795,-40.330311 C 104.00212,16.487149 60.621666,18.190078 49.112445,21.099228 Z"
           transform="scale(0.26458333)"
           sodipodi:nodetypes="sccsssssss"
           inkscape:label="body" /><path
           style="fill:#e9ae20;fill-opacity:1;stroke-width:1.065;stroke-linecap:round"
           d="m 22.327555,5.7244503 c 1.295051,-1.2796236 3.500332,-2.9878384 7.386322,-3.5963965 0.537632,-0.084195 1.143941,-0.1550213 1.7273,0.7015614 1.469977,2.1584583 1.173915,6.0445604 0.6116,9.0693588 -0.117183,0.630353 -0.257711,1.453438 -0.632576,1.684499 -0.320739,0.197698 -0.580104,0.184392 -0.718333,-0.06853 C 30.272125,10.961178 26.453622,8.9536838 24.896724,10.183999 23.826653,9.6235262 22.962471,8.7347198 22.619988,8.1437471 22.194453,7.4094641 21.964165,6.144611 22.327555,5.7244523 Z"
           id="path501"
           sodipodi:nodetypes="cssssccscc"
           inkscape:label="right-ear" /><path
           style="fill:#8a6135;fill-opacity:1;stroke:none;stroke-width:1.065;stroke-linecap:round;stroke-opacity:1"
           d="m 24.892986,10.184048 c 1.125933,-1.215965 1.462231,-2.7360641 2.132129,-4.2954731 0.725687,-1.6892791 2.107058,-2.4070084 2.893408,-2.7287788 0.596644,-0.2441436 0.788066,-0.075182 0.935394,0.4300284 0.147325,0.5052097 1.075655,6.4176515 -0.150808,9.9265275 -0.672899,-1.745206 -1.860977,-2.691313 -2.721842,-3.119965 0.308581,0.43608 0.264187,0.774385 0.08088,1.27261 -0.798459,-0.541977 -1.099302,-0.858099 -1.429826,-1.583679 -0.503826,0.411547 -1.236317,0.401682 -1.739336,0.09873 z"
           id="path4922"
           sodipodi:nodetypes="cssscccccc"
           inkscape:label="right-ear-fluff" /></g><g
         id="layer3"
         inkscape:label="Features"><path
           style="fill:#313131;fill-opacity:1;stroke:none;stroke-width:0.265;stroke-linecap:butt;stroke-linejoin:miter;stroke-miterlimit:4;stroke-dasharray:none;stroke-opacity:0.46432"
           d="m 7.3527787,14.424665 c 0.1797912,-1.565032 1.4709763,-2.669662 2.4784762,-2.637439 1.0481491,0.03352 1.7111831,1.106758 1.6559461,1.895304 -0.109337,1.560853 -0.980796,2.946701 -2.4842238,2.935699 -0.9121407,-0.0067 -1.7841833,-1.027265 -1.6501985,-2.193564 z"
           id="path22173"
           sodipodi:nodetypes="sssss"
           inkscape:label="left-eye" /><path
           style="fill:#313131;fill-opacity:1;stroke:none;stroke-width:0.264583px;stroke-linecap:butt;stroke-linejoin:miter;stroke-opacity:0.46432"
           d="m 19.490943,16.103085 c 0.179791,-1.80508 1.475044,-2.789355 2.482544,-2.757132 1.04815,0.03352 1.921875,1.215376 1.852143,2.278752 -0.113562,1.731761 -1.084893,2.877453 -2.588321,2.866451 -0.912141,-0.0067 -1.862721,-1.219882 -1.746366,-2.388071 z"
           id="path22173-3"
           sodipodi:nodetypes="sssss"
           inkscape:label="right-eye" /><path
           style="fill:none;stroke:#313131;stroke-width:1.165;stroke-linecap:round;stroke-linejoin:round;stroke-miterlimit:4;stroke-dasharray:none;stroke-opacity:1"
           d="m 9.9318896,19.995623 c 0.5486154,1.686713 1.0637784,2.752111 1.5767164,3.423841 0.992384,-0.828422 2.25927,-1.977918 2.761386,-2.480155 0.783749,1.274883 1.856673,2.745088 2.294365,3.345841 1.285631,-1.024786 2.518532,-2.115492 3.025709,-2.688925"
           id="path29369"
           sodipodi:nodetypes="ccccc"
           inkscape:label="mouth" /><path
           style="fill:none;fill-opacity:1;stroke:#313131;stroke-width:1.065;stroke-linecap:round;stroke-opacity:1"
           d="M 6.1830023,19.578813 C 4.1871054,17.828608 2.4340957,16.609582 1.3611551,16.012965"
           id="path1334"
           inkscape:label="left-whisker-2"
           sodipodi:nodetypes="cc" /><path
           style="fill:none;fill-opacity:1;stroke:#313131;stroke-width:1.065;stroke-linecap:round;stroke-opacity:1"
           d="M 5.9107876,21.690708 C 3.9277707,21.232921 1.7485086,21.187496 0.54513174,21.179815"
           id="path2116"
           sodipodi:nodetypes="cc"
           inkscape:label="left-whisker" /><path
           style="fill:none;fill-opacity:1;stroke:#313131;stroke-width:1.065;stroke-linecap:round;stroke-opacity:1"
           d="m 23.430617,22.366051 c 2.540328,-0.912678 4.284056,-1.105124 4.982397,-1.142629"
           id="path2359"
           inkscape:label="right-whisker-2" /><path
           style="fill:none;fill-opacity:1;stroke:#313131;stroke-width:1.065;stroke-linecap:round;stroke-opacity:1"
           d="m 22.565965,24.701884 c 1.919035,0.580733 3.985374,1.582507 4.971704,2.283901"
           id="path2361"
           inkscape:label="right-whisker" /></g></g><g
       id="g1728"
       transform="matrix(0.8738404,0,0,0.8738404,27.597138,24.300774)"
       inkscape:label="blobhusky"><g
         id="layer2-6"
         inkscape:label="ref"
         style="display:inline"><image
           width="32.969513"
           height="32.969513"
           preserveAspectRatio="none"
           style="display:none;fill:#313131;fill-opacity:1;stroke:none;image-rendering:optimizeQuality"
           xlink:href="../original/blobfox.png"
           id="image80-2"
           x="0"
           y="0.89720488"
           inkscape:label="blobfox" /></g><g
         inkscape:label="Base"
         id="layer1-6"
         style="display:inline"><path
           id="path117-3-1"
           style="display:inline;fill:#6c6d6f;fill-opacity:1;stroke:none;stroke-width:0.257574px;stroke-linecap:butt;stroke-linejoin:miter;stroke-opacity:0.4501"
           d="M 7.989991,9.0869999 C 4.9565052,10.291196 0.39344113,15.95356 0,25.366359 c 0,0 0.03748984,2.068623 0.56746837,3.691562 C 7.2826293,29.073482 29.877664,28.752258 31.978453,26.014822 31.769342,25.318578 31.448211,24.397846 31.875828,23.143271 32.303443,21.888696 33.211967,16.802334 31.279744,13.175785 27.510831,5.5812225 15.796748,5.9879701 7.989991,9.0869999 Z"
           sodipodi:nodetypes="scccscs"
           inkscape:label="body" /><path
           id="path7108"
           style="fill:#b2b3b5;fill-opacity:1;stroke-width:1.03679;stroke-linecap:round"
           d="M 10.007165,10.63774 C 9.8147283,10.637508 9.6174423,10.64464 9.4155488,10.65887 5.4997596,10.935245 2.1149177,16.205573 3.166353,21.148987 2.6288767,21.133037 2.3267563,21.01814 1.8940768,20.78476 c 0.047037,0.76213 0.5296951,1.369057 1.0408619,1.759756 -0.1841299,0.04816 -0.2942126,0.06563 -0.4497489,0.04075 0.03086,0.07428 0.071377,0.113528 0.1574624,0.179094 -0.4199491,0.163847 -0.8683539,0.226976 -1.3814435,0.250029 0.1388878,0.302775 0.4173201,0.504721 0.7254338,0.619285 -0.8155131,0.352471 -1.53980376,1.184554 -1.95645801,2.324709 0.04938002,0.730001 0.18101489,2.00845 0.53728393,3.099444 1.45958818,1.672663 5.35481998,3.947481 10.40006658,4.583514 4.863324,0.613099 11.104891,-0.114856 15.020305,-0.995082 3.915416,-0.880226 5.879491,-3.420482 6.134495,-4.071384 0.254997,-0.650904 0.02781,-1.988518 -0.14388,-2.560149 -0.08095,-0.269524 -0.177893,-0.572949 -0.242481,-0.916099 -0.895452,-1.760771 -3.046337,-1.796427 -4.339021,-1.874457 0.134796,-0.0763 0.245428,-0.146377 0.341084,-0.240973 -0.09084,-0.03847 -0.234186,-0.08679 -0.304863,-0.104136 0.26735,-0.1327 0.626791,-0.448635 0.684685,-0.659028 -0.54646,0.01152 -1.383493,-0.06179 -1.857352,-0.414534 0.871928,-0.150869 1.657522,-0.347641 2.180326,-1.313528 -0.160653,0.03654 -0.35964,0.102741 -0.491505,0.08603 0.02331,-0.08228 0.06588,-0.246675 0.07798,-0.328508 -0.230473,0.177182 -0.595562,0.274432 -0.904026,0.258077 1.496477,-4.240011 -1.198276,-7.506272 -3.74992,-8.770606 -1.620121,-0.802767 -4.942268,-1.071023 -6.464511,-0.112689 -0.103843,0.06538 -0.28994,0.452107 -0.222359,0.842147 -0.118948,-0.06542 -0.202367,-0.114254 -0.315931,-0.20626 0.01763,0.320229 -0.241257,1.427224 -0.965905,2.093797 -0.168979,-0.480377 -0.252347,-0.722866 -0.38787,-1.052433 -0.120315,0.194046 -0.218747,0.284688 -0.405478,0.405479 0.07865,-1.48841 -1.717596,-3.065791 -4.604141,-3.06926 z"
           inkscape:label="body-light" /><path
           style="display:inline;fill:#6c6d6f;fill-opacity:1;stroke-width:1.4865;stroke-linecap:round"
           d="m 32.032947,22.575706 c 0.08175,-0.337392 0.342971,-0.562688 0.471355,-0.666401 0.296078,-0.23918 0.841685,-0.157691 1.103324,-0.237143 -0.157429,-0.241306 -0.395762,-0.523021 -0.56156,-0.623072 0.60957,-0.736801 0.735217,-2.220233 0.713556,-2.742967 -0.224584,0.112189 -0.448839,0.109067 -0.659564,0.0744 0.16937,-0.232632 0.377351,-0.648799 0.364754,-0.965932 -0.186593,0.0099 -0.293519,-0.03126 -0.377066,-0.11679 0.712614,-0.401152 0.93287,-1.378818 0.524594,-2.751368 -0.360185,0.676139 -1.232842,0.605215 -1.70532,0.738653 -0.513424,0.145001 -1.650504,5.919355 0.125582,7.289609 z"
           id="path19438"
           sodipodi:nodetypes="cscccccccscc"
           inkscape:label="right-hair" /><path
           style="fill:#6c6d6f;fill-opacity:1;stroke-width:2.03277;stroke-linecap:round"
           d="M 0.52856564,19.005734 C 0.46090617,18.739046 0.42676316,18.556683 0.43136805,18.265277 0.65618848,18.398117 0.94944636,18.487 1.1980908,18.501678 0.72951543,17.752329 0.53621142,16.74758 0.49073503,15.890597 c 0.3117419,0.23832 0.83059107,0.382475 1.21737147,0.392142 -0.16673,-0.607343 -0.1375527,-2.013869 0.0098,-2.707508 0.4563781,0.432572 0.7936453,0.653784 1.3836561,0.636255 0.8243205,-0.02449 -1.0141094,6.865854 -2.57831894,7.508712 -0.53841244,-0.803372 -0.51624647,-2.746947 -0.51942208,-3.266451 0.13684682,0.252342 0.34020814,0.445144 0.52474576,0.551989 z"
           id="path19326"
           sodipodi:nodetypes="ccccccscccc"
           inkscape:label="left-hair" /><path
           style="fill:#313131;fill-opacity:1;stroke:none;stroke-width:0.257574px;stroke-linecap:butt;stroke-linejoin:miter;stroke-opacity:1"
           d="M 4.1994488,12.363988 C 1.9312775,7.117507 2.0884645,2.0711907 2.5751336,1.4013158 2.958601,0.87349295 3.2166181,0.74400915 3.845569,1.0924006 4.5880216,1.5036634 7.4776024,4.3344295 11.25584,6.8441304 12.889575,7.9293411 9.0175003,7.6059527 11.075695,8.3668601 7.4769114,8.611759 6.0565169,10.271764 4.1994488,12.363988 Z"
           id="path20678-8"
           sodipodi:nodetypes="cssscc"
           inkscape:label="left-ear" /><path
           id="path117-7-7"
           style="display:inline;fill:#6c6d6f;fill-opacity:1;stroke:none;stroke-width:0.257574px;stroke-linecap:butt;stroke-linejoin:miter;stroke-opacity:0.4501"
           d="M 11.075695,3.7301168 C 11.966797,5.5400214 12.23263,5.8226219 13.651438,7.5937315 11.33327,6.3058599 8.894363,6.9704218 7.864066,7.4855704 c 2.018073,0.3824549 2.308563,0.5550005 3.211629,0.8808841 3.00332,1.083788 5.724874,2.2956585 8.308533,0.7864461 C 20.647955,8.4147105 23.06561,6.8724123 21.894823,6.2726571 20.356735,5.4847456 19.312531,4.8239017 18.236462,4.3675125 18.335119,5.0623795 18.537149,5.5932536 18.77274,6.4120086 16.846204,5.1334638 14.700784,4.1234683 11.075695,3.7301168 Z"
           sodipodi:nodetypes="cccsssccc"
           inkscape:label="hair" /><path
           style="display:inline;fill:#b2b3b5;fill-opacity:1;stroke:none;stroke-width:0.257574px;stroke-linecap:butt;stroke-linejoin:miter;stroke-opacity:1"
           d="m 31.025803,1.7649605 c 2.419115,0.05957 0.646668,7.3675582 -0.496111,8.9075555 -1.14278,1.539998 -0.809523,4.133387 -1.318781,4.287576 -0.688898,-0.803656 -0.689037,-2.527086 -0.698543,-4.040172 -0.739897,0.3329 -2.034522,0.722216 -3.171702,0.398339 0.279974,-0.765266 0.636014,-1.9112854 0.923847,-2.8318954 -0.468561,0.1823082 -1.5227,0.4309416 -2.779709,0.5869002 1.126794,-2.2723419 5.121884,-7.3678731 7.540999,-7.3083033 z"
           id="path18942-9"
           inkscape:label="right-ear-fluff"
           sodipodi:nodetypes="sscccccs" /><path
           id="path14428-2"
           style="fill:#313131;fill-opacity:1;stroke:none;stroke-width:0.257574px;stroke-linecap:butt;stroke-linejoin:miter;stroke-opacity:0.4501"
           inkscape:label="right-ear"
           d="m 31.458779,1.0315259 c -0.125062,-0.00415 -0.260581,0.0025 -0.407491,0.020626 -2.350538,0.2899545 -7.190037,2.1830231 -11.089781,7.5737918 0.584215,0.3460459 1.22942,0.5450953 1.867916,0.6127451 0.230804,0.00876 0.469105,-0.00301 0.716379,-0.036725 0.3168,-0.043189 0.672866,-0.089139 1.046396,-0.1423702 0.917004,-0.3116487 1.64193,-0.9706799 1.872947,-1.9624949 0.508771,-2.1842668 1.711685,-2.926166 2.634603,-3.8354426 0.922919,-0.9092764 3.260691,-1.8684622 3.663895,-1.1696489 0.403203,0.698813 0.0703,4.3724125 -0.298827,5.7310285 C 30.589961,10.253645 29.062677,11.7365 29.1552,14.34842 c 0.008,0.225671 0.01367,0.436816 0.05081,0.61526 0.05088,0.06728 0.105821,0.132495 0.165008,0.19469 0.726632,0.763566 1.252099,-0.175977 1.588711,-1.053941 0.101501,-0.269487 0.204811,-0.557842 0.319955,-0.928173 0.965004,-3.103684 1.502839,-7.0342371 1.546453,-8.7877117 0.02135,-0.8582283 0.508578,-3.2947524 -1.367358,-3.3570184 z" /></g><g
         id="layer3-0"
         inkscape:label="Features"><path
           style="fill:#313131;fill-opacity:1;stroke:none;stroke-width:0.25798;stroke-linecap:butt;stroke-linejoin:miter;stroke-miterlimit:4;stroke-dasharray:none;stroke-opacity:0.46432"
           d="m 7.157998,14.939749 c 0.1750284,-1.523573 1.432009,-2.59894 2.4128195,-2.567571 1.0203825,0.03263 1.6658525,1.077439 1.6120785,1.845096 -0.10644,1.519505 -0.954814,2.868641 -2.4184145,2.85793 -0.8879774,-0.0065 -1.736919,-1.000052 -1.6064835,-2.135455 z"
           id="path22173-2"
           sodipodi:nodetypes="sssss"
           inkscape:label="left-eye" /><path
           style="fill:#313131;fill-opacity:1;stroke:none;stroke-width:0.257574px;stroke-linecap:butt;stroke-linejoin:miter;stroke-opacity:0.46432"
           d="m 18.974613,16.573707 c 0.175028,-1.757262 1.435969,-2.715463 2.41678,-2.684094 1.020383,0.03263 1.870963,1.18318 1.803078,2.218387 -0.110554,1.685885 -1.056153,2.801227 -2.519755,2.790516 -0.887977,-0.0065 -1.813376,-1.187566 -1.700103,-2.324809 z"
           id="path22173-3-3"
           sodipodi:nodetypes="sssss"
           inkscape:label="right-eye" /><path
           style="fill:none;fill-opacity:1;stroke:#313131;stroke-width:1.13414;stroke-linecap:round;stroke-linejoin:miter;stroke-miterlimit:4;stroke-dasharray:none;stroke-opacity:1"
           d="M 8.6679635,21.542601 C 8.1925559,20.562118 8.1856411,19.599156 8.8038765,18.952402 9.4221118,18.305647 10.787761,17.445203 10.700261,14.401996"
           id="path27175-7"
           sodipodi:nodetypes="csc"
           inkscape:label="nose-outline" /><path
           style="fill:#313131;fill-opacity:1;stroke:none;stroke-width:0.257574px;stroke-linecap:butt;stroke-linejoin:miter;stroke-opacity:1"
           d="m 10.393038,19.564428 c 0.930296,-0.507504 3.74735,-0.687542 4.397094,0.66346 0.10389,0.216016 -1.575257,1.840108 -2.603269,1.837827 -0.993992,-0.0022 -2.027158,-2.373997 -1.793825,-2.501287 z"
           id="path28517-5"
           sodipodi:nodetypes="ssss"
           inkscape:label="nose" /><path
           style="fill:none;stroke:#313131;stroke-width:1.13414;stroke-linecap:round;stroke-linejoin:round;stroke-miterlimit:4;stroke-dasharray:none;stroke-opacity:1"
           d="m 7.8122259,22.911164 c 0.5340817,1.642031 1.0355978,2.679206 1.534948,3.333141 0.9660951,-0.806476 2.1994201,-1.925521 2.6882351,-2.414454 0.762987,1.241111 1.807488,2.672369 2.233586,3.257208 1.251573,-0.997639 2.451814,-2.059451 2.945555,-2.617694"
           id="path29369-92"
           sodipodi:nodetypes="ccccc"
           inkscape:label="mouth" /></g></g></g></svg>
