<?xml version="1.0" encoding="UTF-8" standalone="no"?>
<svg
   inkscape:version="1.2.1 (9c6d41e410, 2022-07-14)"
   viewBox="0 0 128 128"
   width="128"
   sodipodi:docname="blobfox_comfy.svg"
   id="svg5"
   height="128"
   version="1.1"
   xml:space="preserve"
   xmlns:inkscape="http://www.inkscape.org/namespaces/inkscape"
   xmlns:sodipodi="http://sodipodi.sourceforge.net/DTD/sodipodi-0.dtd"
   xmlns:xlink="http://www.w3.org/1999/xlink"
   xmlns="http://www.w3.org/2000/svg"
   xmlns:svg="http://www.w3.org/2000/svg"
   xmlns:rdf="http://www.w3.org/1999/02/22-rdf-syntax-ns#"
   xmlns:cc="http://creativecommons.org/ns#"
   xmlns:dc="http://purl.org/dc/elements/1.1/"><title
     id="title30762">blobfox_comfy</title><sodipodi:namedview
     inkscape:window-maximized="1"
     bordercolor="#ffffff"
     inkscape:showpageshadow="2"
     inkscape:window-height="779"
     inkscape:pageopacity="0"
     borderopacity="1"
     inkscape:cy="113.05182"
     inkscape:window-x="0"
     id="namedview7"
     pagecolor="#505050"
     inkscape:pageshadow="0"
     showgrid="false"
     inkscape:zoom="2.1759933"
     inkscape:window-width="1536"
     inkscape:window-y="0"
     inkscape:current-layer="layer1"
     inkscape:cx="54.68767"
     units="px"
     inkscape:pagecheckerboard="1"
     inkscape:document-units="px"
     inkscape:deskcolor="#505050"><inkscape:grid
       id="grid10"
       type="xygrid" /></sodipodi:namedview><defs
     id="defs2" /><g
     style="display:inline"
     id="layer2"
     inkscape:groupmode="layer"
     inkscape:label="ref"><image
       inkscape:label="blobfox"
       y="0"
       height="127.99999"
       width="127.99999"
       style="display:none;fill:#313131;fill-opacity:1;stroke:none;image-rendering:optimizeQuality"
       x="0"
       preserveAspectRatio="none"
       xlink:href="../original/blobfox.png"
       id="image80" /><image
       width="171.57162"
       height="171.57162"
       preserveAspectRatio="none"
       style="display:none;image-rendering:optimizeSpeed"
       xlink:href="../original/blobfoxcomfy.png"
       id="image571"
       x="-18.094864"
       y="-18.476364"
       inkscape:label="blobfoxcomfy" /></g><g
     inkscape:label="Base"
     id="layer1"
     inkscape:groupmode="layer"
     style="display:inline"><path
       id="path117-3"
       style="display:inline;fill:#ff8702;fill-opacity:1;stroke:none;stroke-width:0.999999px;stroke-linecap:butt;stroke-linejoin:miter;stroke-opacity:0.4501"
       inkscape:label="body"
       d="m 73.886719,25.390625 c 0.432469,0.112477 0.86647,0.222456 1.292969,0.34375 -0.428069,-0.118117 -0.857756,-0.233925 -1.292969,-0.34375 z m -15.373047,3.966797 c -1.133349,0.0048 -2.281585,0.04331 -3.44336,0.11914 -6.196129,0.404409 -12.785418,1.846053 -19.634765,4.632813 -13.537459,5.507919 -20.387618,14.745193 -23.798828,24.384766 -3.411211,9.639571 -3.1194555,19.731555 -1.9746096,26.042968 1.0408156,5.737905 6.2787986,11.12585 12.0703126,16.675781 5.791514,5.54994 12.25839,11.28925 13.880859,17.88281 0.177415,0.721 0.251849,1.49625 0.382813,2.24414 4.605578,-5.29913 10.801175,-9.40556 17.923828,-9.72656 13.340783,-0.60122 35.634676,-3.02338 46.607418,-17.220702 5.27621,-6.826735 7.06753,-15.812551 6.16016,-24.796875 C 105.74823,60.29554 102.0203,51.761679 96.722656,45.642578 89.219183,36.975625 75.513909,29.285292 58.513672,29.357422 Z"
       sodipodi:nodetypes="cccssssssscsssss" /><path
       sodipodi:nodetypes="cssscc"
       style="display:inline;fill:#313131;fill-opacity:1;stroke:none;stroke-width:1.15398px;stroke-linecap:butt;stroke-linejoin:miter;stroke-opacity:1"
       d="M 10.54978,32.790619 C 0.38796471,9.2854394 1.0921907,-13.322966 3.2725561,-16.324126 4.9905588,-18.688868 6.146522,-19.268978 8.9643349,-17.708122 12.290656,-15.865591 25.236499,-3.1832484 42.163685,8.0606638 49.48311,12.922602 32.135518,11.473764 41.356603,14.882766 25.233403,15.979958 18.86978,23.417079 10.54978,32.790619 Z"
       id="path20678"
       inkscape:label="left-ear" /><path
       style="display:inline;fill:none;stroke:#ffffff;stroke-width:6.42519685;stroke-linecap:round;stroke-linejoin:round;stroke-dasharray:none;stroke-opacity:1"
       d="m -14.961626,109.44131 c -1.916339,23.21888 17.0835618,34.00945 36.215666,36.62702 10.780961,1.47501 14.227143,-15.11444 11.487615,-26.26686 C 30.002127,108.64906 9.3287243,98.649708 6.755975,85.088037 4.1832256,71.526366 5.7187409,43.008041 34.321744,31.370477 62.852438,19.762333 87.434978,30.395276 98.958755,43.705915 110.48253,57.016555 114.58906,81.111533 102.863,96.207524 91.136942,111.30352 67.624637,113.95538 54.053211,114.567 35.767897,115.39106 19.924223,146.97721 42.610364,148.67823 83.14155,151.71729 150.79429,146.96838 146.72806,117.49176"
       id="path823"
       sodipodi:nodetypes="cssssssssc"
       inkscape:label="blanket-line" /><path
       style="display:inline;fill:#6d677d;fill-opacity:1;stroke:none;stroke-width:5.91496;stroke-linecap:round;stroke-linejoin:round;stroke-dasharray:none;stroke-opacity:1"
       d="m -18.073865,100.87126 c 0.193339,7.8754 -1.644912,17.94059 11.1495906,29.18754 8.9010232,7.8244 15.6282604,10.10422 22.4164104,11.88345 6.788149,1.77923 10.509743,2.29307 12.900628,-3.27905 0.228232,-3.52629 0.954233,-6.84899 2.233586,-9.32331 C 31.602671,116.625 25.268602,113.15058 22.0109,109.63943 19.3548,106.77669 9.4333815,98.997218 5.4715415,89.880889 1.209822,80.074527 1.9955589,60.669109 10.554098,46.93785 19.469466,32.634098 43.239699,20.029141 68.848254,24.326237 99.51915,29.472791 114.47955,54.175563 112.56878,78.407278 111,98.302053 96.350413,111.05859 70.769367,115.73636 c -9.704431,1.77456 -13.754558,1.27239 -19.069053,1.99704 -4.701862,0.64112 -15.571656,8.91861 -16.989319,16.86674 -1.55036,8.69209 1.97108,10.31106 8.424479,11.38236 4.910948,0.81525 35.038427,1.00781 54.541116,-1.13676 21.69922,-2.3861 36.60244,-9.43394 42.59337,-15.25196 8.11456,-7.88035 11.34488,-11.20614 8.26674,-21.57438 -2.52133,-8.492733 -1.57424,-18.638917 0.77455,-25.605092 2.3488,-6.966174 2.79174,-28.653614 -5.1938,-43.323403 C 136.13191,24.421116 112.44045,1.7693772 78.782177,1.7867357 45.123906,1.8040943 24.865855,8.3321144 5.2021844,34.604612 -14.461486,60.87711 -17.818873,88.14982 -18.073865,100.87126 Z"
       id="path3509"
       sodipodi:nodetypes="cssccssssssssssssssssc"
       inkscape:label="blanket" /><path
       d="m 131.9338,-17.341137 c -10.71229,1.102015 -30.67922,8.844451 -48.494089,33.295916 -1.265631,1.737118 3.648586,3.749606 6.562604,3.927973 23.576005,4.962141 28.536975,-26.016378 38.233385,-25.1375891 -0.96846,18.9409731 -5.14748,31.2120901 -4.92335,48.3713521 0.0363,1.026118 0.0622,1.986189 0.23104,2.797568 0.23132,0.305925 0.48116,0.602448 0.75028,0.885249 3.30398,3.471903 5.69326,-0.800163 7.22381,-4.792234 0.46153,-1.225347 0.93128,-2.536489 1.45483,-4.220369 4.38783,-14.112339 6.8171,-31.9848442 7.03167,-39.9574096 0.30568,-11.3578804 1.77524,-16.1832924 -8.07018,-15.1704564 z"
       id="path14428"
       style="display:inline;fill:#313131;fill-opacity:1;stroke:none;stroke-width:1.17118px;stroke-linecap:butt;stroke-linejoin:miter;stroke-opacity:0.4501"
       inkscape:label="right-ear"
       sodipodi:nodetypes="ssccccsccss" /><path
       id="path18942"
       style="display:inline;fill:#ebdccc;fill-opacity:1;stroke:none;stroke-width:1.17118px;stroke-linecap:butt;stroke-linejoin:miter;stroke-opacity:1"
       inkscape:label="right-ear-fluff"
       d="m 132.38672,-13.703125 c -3.96039,0.03978 -10.7257,3.307371 -13.87305,6.4082031 -4.19647,4.1344442 -9.66711,7.50768002 -11.98047,17.4394529 -1.05043,4.509742 -4.30987,7.618062 -8.515622,8.923828 -3.014366,0.769811 -5.297897,0.978374 -8.582031,0.742188 2.619609,3.057712 11.102233,1.75629 22.107423,14.980469 3.78409,4.547087 9.98688,9.460484 11.86328,10.103515 -1.02059,-12.629991 7.37458,-22.348648 10.4082,-31.449219 1.9488,-5.846233 3.12117,-21.6586897 1.54883,-25.640624 -0.52248,-1.323184 -1.37007,-1.523949 -2.97656,-1.507813 z"
       sodipodi:nodetypes="sssccscsss" /></g><g
     id="layer3"
     inkscape:groupmode="layer"
     inkscape:label="Features"
     style="display:inline"><path
       inkscape:label="left-eye"
       style="display:inline;fill:#313131;fill-opacity:1;stroke:none;stroke-width:1.00157;stroke-linecap:butt;stroke-linejoin:miter;stroke-miterlimit:4;stroke-dasharray:none;stroke-opacity:0.46432"
       d="m 27.790029,54.518417 c 0.679525,-5.915082 5.559595,-10.090061 9.367468,-9.968273 3.961509,0.12669 6.467464,4.183022 6.258694,7.163353 -0.413242,5.899287 -3.706945,11.137137 -9.389192,11.095555 -3.447461,-0.02532 -6.74337,-3.882576 -6.23697,-8.290635 z"
       sodipodi:nodetypes="sssss"
       id="path22173" /><path
       sodipodi:nodetypes="sssss"
       d="m 73.666553,60.862051 c 0.679525,-6.822349 5.57497,-10.542444 9.382843,-10.420656 3.961512,0.12669 7.26378,4.593547 7.000226,8.612606 -0.429211,6.545238 -4.100383,10.875412 -9.782631,10.83383 -3.447461,-0.02532 -7.040205,-4.610578 -6.600438,-9.02578 z"
       style="display:inline;fill:#313131;fill-opacity:1;stroke:none;stroke-width:0.999999px;stroke-linecap:butt;stroke-linejoin:miter;stroke-opacity:0.46432"
       id="path22173-3"
       inkscape:label="right-eye" /><path
       d="m 33.65228,80.15316 c -1.84571,-3.806604 -1.872556,-7.54518 0.527665,-10.056125 2.400221,-2.510944 7.702181,-5.851509 7.362474,-17.66638"
       sodipodi:nodetypes="csc"
       inkscape:label="nose-outline"
       id="path27175"
       style="display:inline;fill:none;fill-opacity:1;stroke:#313131;stroke-width:4.40315;stroke-linecap:round;stroke-linejoin:miter;stroke-miterlimit:4;stroke-dasharray:none;stroke-opacity:1" /><path
       id="path28517"
       style="display:inline;fill:#313131;fill-opacity:1;stroke:none;stroke-width:0.999999px;stroke-linecap:butt;stroke-linejoin:miter;stroke-opacity:1"
       sodipodi:nodetypes="ssss"
       d="m 40.349664,72.473149 c 3.611758,-1.970317 14.548618,-2.669295 17.071165,2.5758 0.40334,0.838655 -6.115736,7.143991 -10.106864,7.135136 -3.859049,-0.0087 -7.870186,-9.216748 -6.964301,-9.710936 z"
       inkscape:label="nose" /><path
       inkscape:label="mouth"
       id="path29369"
       style="display:inline;fill:none;stroke:#313131;stroke-width:4.40315;stroke-linecap:round;stroke-linejoin:round;stroke-miterlimit:4;stroke-dasharray:none;stroke-opacity:1"
       d="m 30.329986,85.466434 c 2.073506,6.374978 4.020579,10.401679 5.959243,12.940501 3.750744,-3.131043 8.538975,-7.475595 10.436736,-9.373813 2.962201,4.818455 7.017346,10.375135 8.671615,12.645698 4.859078,-3.873207 9.518861,-7.995561 11.43575,-10.162866"
       sodipodi:nodetypes="ccccc" /></g><metadata
     id="metadata30760"><rdf:RDF><cc:Work
         rdf:about=""><dc:rights><cc:Agent><dc:title>Blobfox team (https://git.shadamethyst.xyz/adri326/blobfox), licensed under the Apache 2.0 License</dc:title></cc:Agent></dc:rights><dc:title>blobfox_comfy</dc:title><dc:creator><cc:Agent><dc:title>Feuerfuchs</dc:title></cc:Agent></dc:creator><dc:source>https://git.shadamethyst.xyz/adri326/blobfox</dc:source><dc:contributor><cc:Agent><dc:title>Shad Amethyst</dc:title></cc:Agent></dc:contributor></cc:Work></rdf:RDF></metadata></svg>
