<?xml version="1.0" encoding="UTF-8" standalone="no"?>
<!-- Created with Inkscape (http://www.inkscape.org/) -->

<svg
   width="128"
   height="128"
   viewBox="0 0 33.866668 33.866668"
   version="1.1"
   id="svg5"
   inkscape:version="1.2.1 (9c6d41e410, 2022-07-14)"
   sodipodi:docname="blobfox_blush.svg"
   xmlns:inkscape="http://www.inkscape.org/namespaces/inkscape"
   xmlns:sodipodi="http://sodipodi.sourceforge.net/DTD/sodipodi-0.dtd"
   xmlns:xlink="http://www.w3.org/1999/xlink"
   xmlns="http://www.w3.org/2000/svg"
   xmlns:svg="http://www.w3.org/2000/svg"
   xmlns:rdf="http://www.w3.org/1999/02/22-rdf-syntax-ns#"
   xmlns:cc="http://creativecommons.org/ns#"
   xmlns:dc="http://purl.org/dc/elements/1.1/">
  <title
     id="title30762">blobfox_blush</title>
  <sodipodi:namedview
     id="namedview7"
     pagecolor="#505050"
     bordercolor="#ffffff"
     borderopacity="1"
     inkscape:pageshadow="0"
     inkscape:pageopacity="0"
     inkscape:pagecheckerboard="1"
     inkscape:document-units="mm"
     showgrid="false"
     inkscape:zoom="5.468269"
     inkscape:cx="74.24653"
     inkscape:cy="45.90118"
     inkscape:window-width="1536"
     inkscape:window-height="779"
     inkscape:window-x="0"
     inkscape:window-y="0"
     inkscape:window-maximized="1"
     inkscape:current-layer="layer1"
     units="px"
     inkscape:showpageshadow="2"
     inkscape:deskcolor="#505050">
    <inkscape:grid
       type="xygrid"
       id="grid10" />
  </sodipodi:namedview>
  <defs
     id="defs2">
    <linearGradient
       inkscape:collect="always"
       id="linearGradient35160">
      <stop
         style="stop-color:#ff1500;stop-opacity:0.24705882"
         offset="0"
         id="stop35156" />
      <stop
         style="stop-color:#ff1400;stop-opacity:0.24705882"
         offset="0.29524487"
         id="stop37640" />
      <stop
         style="stop-color:#ff8702;stop-opacity:0"
         offset="1"
         id="stop35158" />
    </linearGradient>
    <radialGradient
       inkscape:collect="always"
       xlink:href="#linearGradient35160"
       id="radialGradient35162"
       cx="20.006733"
       cy="20.958986"
       fx="20.006733"
       fy="20.958986"
       r="4.6413512"
       gradientTransform="matrix(1.1248342,0.00893976,-0.0062663,0.84168066,-4.867548,5.3039738)"
       gradientUnits="userSpaceOnUse" />
    <radialGradient
       inkscape:collect="always"
       xlink:href="#linearGradient35160"
       id="radialGradient35162-3"
       cx="20.006733"
       cy="20.958986"
       fx="20.006733"
       fy="20.958986"
       r="4.6413512"
       gradientTransform="matrix(1.1248342,0.00893976,-0.0062663,0.84168066,-17.8466,2.4862747)"
       gradientUnits="userSpaceOnUse" />
  </defs>
  <g
     inkscape:groupmode="layer"
     id="layer2"
     inkscape:label="ref"
     style="display:none">
    <image
       width="33.864208"
       height="33.864208"
       preserveAspectRatio="none"
       style="image-rendering:optimizeSpeed"
       xlink:href="../original/blobfoxblush.png"
       id="image22979"
       x="0.020104052"
       y="0.018447399"
       inkscape:label="blobfoxblush" />
  </g>
  <g
     inkscape:label="Base"
     inkscape:groupmode="layer"
     id="layer1"
     style="display:inline">
    <path
       style="fill:#313131;fill-opacity:1;stroke:none;stroke-width:0.253855px;stroke-linecap:butt;stroke-linejoin:miter;stroke-opacity:1"
       d="M 3.8974721,13.063451 C 1.3342541,8.1312054 1.0465928,3.7966025 1.5262359,3.1363984 1.9041672,2.6161956 2.6502413,2.5270205 3.3187611,2.7620066 4.2081177,3.0746172 7.3764469,5.1545147 11.093342,7.2348476 13.405666,8.5290472 11.418406,8.701884 10.915798,8.7355939 7.3687348,8.9734955 5.72773,11.001432 3.8974721,13.063451 Z"
       id="path20678"
       sodipodi:nodetypes="cssssc"
       inkscape:label="left-ear" />
    <path
       id="path117"
       style="fill:#ff8702;fill-opacity:1;stroke:none;stroke-width:0.253855px;stroke-linecap:butt;stroke-linejoin:miter;stroke-opacity:0.4501"
       d="M 8.9981838,9.0275545 C 4.8840959,10.284904 0.38776113,16.213166 0,25.490074 c 0,0 0.03694896,2.038759 0.55927598,3.638269 1.43851762,1.648516 5.27750852,3.890492 10.24992202,4.517343 4.793118,0.604247 10.944568,-0.113197 14.80346,-0.980716 3.858894,-0.867519 5.794611,-3.371101 6.045933,-4.012607 0.251317,-0.641506 0.0274,-1.959809 -0.141804,-2.523187 C 31.310694,25.442984 30.9942,24.535544 31.415643,23.299081 31.837085,22.062618 32.931189,16.713706 30.727547,12.947893 27.305333,7.0996555 16.179912,6.8326704 8.9981838,9.0275545 Z"
       sodipodi:nodetypes="sccsssssss"
       inkscape:label="body" />
    <path
       id="path8933"
       style="fill:#ff8702;fill-opacity:1;stroke:none;stroke-width:0.253855px;stroke-linecap:butt;stroke-linejoin:miter;stroke-opacity:0.4501"
       d="m 10.915798,4.1661901 c 0.878237,1.7837754 1.140233,2.0622961 2.538557,3.8078365 C 11.169654,6.7047477 8.7659568,7.3597154 7.7505338,7.8674269 9.7394729,8.2443604 10.915798,8.7355939 10.915798,8.7355939 13.970686,10.281552 21.065931,12.014579 22.315743,6.6994198 20.80452,5.913853 19.03372,5.2441843 17.973186,4.7943839 18.070418,5.4792192 18.269532,6.0024291 18.501722,6.809364 16.602999,5.5492773 14.488551,4.5538629 10.915798,4.1661901 Z"
       sodipodi:nodetypes="cccccccc"
       inkscape:label="hair" />
    <path
       id="path18942"
       style="fill:#ebdccc;fill-opacity:1;stroke:none;stroke-width:0.253855px;stroke-linecap:butt;stroke-linejoin:miter;stroke-opacity:1"
       inkscape:label="right-ear-fluff"
       d="M 32.03422 3.7610107 C 29.275328 3.7255943 25.284527 9.0632313 23.116418 10.704256 C 24.18773 10.831502 25.370725 10.933398 26.427844 10.826213 C 26.332026 11.913212 26.102923 12.170376 25.894543 12.705168 C 26.725631 12.752209 27.354105 12.407502 28.297498 11.922786 C 28.312373 13.201937 27.736011 14.336028 28.407568 14.952059 C 28.775759 14.397091 29.225086 13.327817 30.207458 12.393042 C 31.576651 11.090189 34.634281 4.8765154 32.86311 3.9625488 C 32.602957 3.8283032 32.325458 3.7647494 32.03422 3.7610107 z " />
    <path
       id="path14428"
       style="fill:#313131;fill-opacity:1;stroke:none;stroke-width:0.253855px;stroke-linecap:butt;stroke-linejoin:miter;stroke-opacity:0.4501"
       inkscape:label="right-ear"
       d="M 32.10295 3.1326253 C 30.058869 3.1192557 25.244269 4.0693578 22.014677 6.9690837 C 21.05582 7.8548726 20.576803 8.5917254 19.992578 9.461438 C 20.670981 10.322189 21.086008 10.447593 21.966618 10.559562 C 22.299063 10.601832 22.656709 10.649562 23.028569 10.694438 C 23.065282 10.697969 23.101955 10.701133 23.138639 10.704773 C 24.37873 10.827823 26.280413 9.9300663 26.752889 9.1064209 C 27.882349 7.1374851 28.691402 5.9725968 29.74082 5.2451579 C 30.79024 4.5177193 32.646721 3.5140261 32.977832 4.2369507 C 33.319752 4.9834757 32.751532 8.2755255 31.691606 9.7807983 C 30.187676 11.916632 28.866982 12.217071 28.33057 14.48387 C 28.303336 14.598959 28.278923 14.687958 28.256673 14.775842 C 28.304614 14.848666 28.363388 14.916866 28.436507 14.978931 C 28.899127 15.371606 29.977913 14.243912 30.488062 13.420886 C 30.557375 13.289216 30.632862 13.144871 30.704586 13.009025 C 30.713003 12.988068 30.720588 12.96709 30.727323 12.94753 C 30.729054 12.950456 30.730764 12.953388 30.732491 12.956315 C 31.854615 10.831145 33.204735 8.2794036 33.496663 6.6776286 C 33.658482 5.7897477 34.666848 3.2533414 32.335494 3.1388265 C 32.262639 3.1352479 32.185019 3.1331621 32.10295 3.1326253 z " />
  </g>
  <g
     inkscape:groupmode="layer"
     id="layer3"
     inkscape:label="Features"
     style="display:inline">
    <path
       style="fill:none;fill-opacity:1;stroke:#313131;stroke-width:1.11776;stroke-linecap:round;stroke-linejoin:miter;stroke-miterlimit:4;stroke-dasharray:none;stroke-opacity:1"
       d="M 8.5428257,21.721119 C 8.0742815,20.754791 8.0674666,19.805732 8.6767766,19.168314 9.2860865,18.530896 10.506711,18.040573 10.532963,15.638986"
       id="path27175"
       sodipodi:nodetypes="csc"
       inkscape:label="nose-outline" />
    <path
       style="fill:#313131;fill-opacity:1;stroke:none;stroke-width:0.253855px;stroke-linecap:butt;stroke-linejoin:miter;stroke-opacity:1"
       d="m 10.242995,19.771504 c 0.916866,-0.500176 3.693251,-0.677616 4.333614,0.653882 0.10239,0.212897 -1.552515,1.813543 -2.565686,1.811295 -0.979642,-0.0022 -1.997892,-2.339724 -1.767928,-2.465177 z"
       id="path28517"
       sodipodi:nodetypes="ssss"
       inkscape:label="nose" />
    <path
       style="fill:none;stroke:#313131;stroke-width:1.11776;stroke-linecap:round;stroke-linejoin:round;stroke-miterlimit:4;stroke-dasharray:none;stroke-opacity:1"
       d="m 8.8486443,25.893437 c 1.1214983,-0.537878 2.1603437,-0.768137 3.1140937,-1.192046 0.845537,0.632118 1.82411,1.104532 2.79927,1.781432"
       id="path29369"
       sodipodi:nodetypes="ccc"
       inkscape:label="mouth" />
    <path
       style="fill:none;stroke:#313131;stroke-width:1.11776;stroke-linecap:round;stroke-linejoin:round;stroke-miterlimit:4;stroke-dasharray:none;stroke-opacity:1"
       d="m 6.487102,15.360126 c 1.1703585,-0.05708 2.7380174,0.110479 4.045861,0.27886 C 9.4793034,14.297095 7.5019373,13.025634 6.7428307,12.531794"
       id="path26633"
       sodipodi:nodetypes="ccc"
       inkscape:label="left-eye" />
    <path
       style="fill:none;stroke:#313131;stroke-width:1.11776;stroke-linecap:round;stroke-linejoin:round;stroke-miterlimit:4;stroke-dasharray:none;stroke-opacity:1"
       d="m 23.171803,14.799319 c -1.606201,0.06532 -3.967149,1.013726 -4.880971,1.569157 1.581165,0.332654 3.329582,0.967539 4.135766,1.315712"
       id="path26701"
       sodipodi:nodetypes="ccc"
       inkscape:label="right-eye" />
    <ellipse
       style="fill:url(#radialGradient35162);fill-opacity:1;stroke:none;stroke-width:1.37515;stroke-linecap:round;stroke-linejoin:round;stroke-miterlimit:4;stroke-dasharray:none;stroke-opacity:1"
       id="path35124"
       cx="17.641388"
       cy="23.334288"
       rx="4.5188661"
       ry="4.0172625"
       transform="rotate(-4.6845282)"
       inkscape:label="right-blush" />
    <ellipse
       style="display:inline;fill:url(#radialGradient35162-3);fill-opacity:1;stroke:none;stroke-width:1.37515;stroke-linecap:round;stroke-linejoin:round;stroke-miterlimit:4;stroke-dasharray:none;stroke-opacity:1"
       id="path35124-3"
       cx="4.6623363"
       cy="20.516588"
       rx="4.5188661"
       ry="4.0172625"
       transform="rotate(-4.6845282)"
       inkscape:label="left-blush" />
    <path
       style="fill:none;stroke:#ff1f0b;stroke-width:1.02182;stroke-linecap:round;stroke-linejoin:round;stroke-miterlimit:4;stroke-dasharray:none;stroke-opacity:0.334154"
       d="m 6.4319275,17.980292 c -0.881765,1.330196 -2.3905693,3.271313 -2.9054837,3.883145"
       id="path27888"
       sodipodi:nodetypes="cc"
       inkscape:label="left-blush-line-2" />
    <path
       style="fill:none;stroke:#ff1f0b;stroke-width:1.02182;stroke-linecap:round;stroke-linejoin:round;stroke-miterlimit:4;stroke-dasharray:none;stroke-opacity:0.334154"
       d="M 9.1954072,18.098244 C 8.0466834,19.664125 6.8520096,21.383663 6.1622241,22.165319"
       id="path27890"
       sodipodi:nodetypes="cc"
       inkscape:label="left-blush-line" />
    <path
       style="fill:none;stroke:#ff1f0b;stroke-width:1.02182;stroke-linecap:round;stroke-linejoin:round;stroke-miterlimit:4;stroke-dasharray:none;stroke-opacity:0.334154"
       d="m 19.663404,19.419807 c -0.929398,1.322682 -2.746552,3.609747 -3.386657,4.334927"
       id="path28058"
       sodipodi:nodetypes="cc"
       inkscape:label="right-blush-line-2" />
    <path
       style="fill:none;stroke:#ff1f0b;stroke-width:1.02182;stroke-linecap:round;stroke-linejoin:round;stroke-miterlimit:4;stroke-dasharray:none;stroke-opacity:0.334154"
       d="m 22.39565,20.116614 c -0.586184,0.827998 -2.51092,3.234963 -2.957467,3.802005"
       id="path28060"
       sodipodi:nodetypes="cc"
       inkscape:label="right-blush-line" />
  </g>
  <metadata
     id="metadata30760">
    <rdf:RDF>
      <cc:Work
         rdf:about="">
        <dc:rights>
          <cc:Agent>
            <dc:title>Blobfox team (https://git.shadamethyst.xyz/adri326/blobfox), licensed under the Apache 2.0 License</dc:title>
          </cc:Agent>
        </dc:rights>
        <dc:title>blobfox_blush</dc:title>
        <dc:source>https://git.shadamethyst.xyz/adri326/blobfox</dc:source>
        <dc:creator>
          <cc:Agent>
            <dc:title>Feuerfuchs</dc:title>
          </cc:Agent>
        </dc:creator>
        <dc:contributor>
          <cc:Agent>
            <dc:title>Shad Amethyst</dc:title>
          </cc:Agent>
        </dc:contributor>
      </cc:Work>
    </rdf:RDF>
  </metadata>
</svg>
