<?xml version="1.0" encoding="UTF-8"?><svg xmlns="http://www.w3.org/2000/svg" xmlns:cc="http://creativecommons.org/ns#" xmlns:dc="http://purl.org/dc/elements/1.1/" xmlns:inkscape="http://www.inkscape.org/namespaces/inkscape" xmlns:rdf="http://www.w3.org/1999/02/22-rdf-syntax-ns#" xmlns:sodipodi="http://sodipodi.sourceforge.net/DTD/sodipodi-0.dtd" xmlns:svg="http://www.w3.org/2000/svg" xmlns:xlink="http://www.w3.org/1999/xlink" inkscape:version="1.2.1 (9c6d41e410, 2022-07-14)" viewBox="0 0 132 132" id="svg5" height="132" sodipodi:docname="blobfox_egg.svg" xml:space="preserve" width="132"><title id="title30762">blobfox_egg</title><sodipodi:namedview inkscape:window-x="0" showgrid="false" bordercolor="#ffffff" inkscape:pageshadow="0" inkscape:pagecheckerboard="1" inkscape:window-y="0" inkscape:current-layer="layer3" inkscape:pageopacity="0" inkscape:zoom="4.0441067" inkscape:cy="67.505637" id="namedview7" units="px" borderopacity="1" pagecolor="#505050" inkscape:cx="36.349189" inkscape:window-height="779" inkscape:window-width="1536" inkscape:document-units="px" inkscape:deskcolor="#505050" inkscape:window-maximized="1" inkscape:showpageshadow="2"><inkscape:grid originx="0" type="xygrid" id="grid10" originy="0" /></sodipodi:namedview><defs id="defs2" /><g id="layer2" inkscape:groupmode="layer" style="display:inline;" inkscape:label="ref"><image style="display:none;fill:#313131;fill-opacity:1;stroke:none;image-rendering:optimizeQuality;" id="image80" inkscape:label="blobfox" y="0" xlink:href="../original/blobfox.png" width="127.99999003579126" x="0" preserveAspectRatio="none" height="127.99999003579126" /><image width="131.9999924409451" style="display:none;image-rendering:optimizeSpeed;" xlink:href="../original/blobfoxheart.png" height="131.9999924409451" preserveAspectRatio="none" y="-0.27200237" inkscape:label="blobfoxheart" id="image4836" x="-0.54448068" /></g><g id="layer1" inkscape:label="Base" inkscape:groupmode="layer" style="display:inline;"><path style="display:inline;fill:#ff8702;fill-opacity:1;stroke:none;stroke-width: 0.9999987115247327px;stroke-linecap:butt;stroke-linejoin:miter;stroke-opacity:0.4501;" inkscape:label="body" sodipodi:nodetypes="sccssssscs" d="M 31.02013744251575,31.795851436052928 C 19.24300933878284,36.470990073844234 1.5274858145315442,58.45440966487016 0,94.99841869725358 c 0,0 0.14554960213172222,8.031170793667265 2.2031247243199794,14.332028566012067 5.666673475542635,6.493912255006092 20.789397326001506,15.325602080870377 40.37695216673008,17.79492232512749 18.88126434126659,2.3802783570428527 43.113330419088605,-0.4459124281771674 58.31444998383822,-3.8632817791472647 15.20112712380452,-3.4173693509700973 22.82638800783427,-13.279588911106975 23.8164087668888,-15.806637657648169 0.9899980818898186,-2.5270525260686463 0.1079433039958968,-7.720168597847714 -0.5586028186513152,-9.939454203594726 -0.8118500554946297,-2.703080237563916 -2.058598996174689,-6.277704387180977 -0.39843022481230567,-11.148434326458572 C 125.41406381062093,81.49683168226682 128.94129268600452,61.74966626343117 121.43968282205631,47.670045879168335 106.80734812291057,18.185110534427757 61.32889147232952,19.76425719787381 31.02013744251575,31.795851436052928 Z " id="path117-3" /><path d="M 16.303832981994763,44.51834707177245 C 7.497942588462632,24.149542363649466 8.108201342642767,4.557852719889686 9.997633225550945,1.9571475219141727 11.486397025443177,-0.09205855484442219 12.488116177863532,-0.594763182970274 14.929939226057574,0.7578228066478796 17.81241813565016,2.354499182977833 29.03085309002568,13.34459338168666 43.6993877251428,23.08819209482628 50.042156677389926,27.301386304899463 35.00931339128666,26.045871506202676 42.99999750894782,28.999998917680774 29.028170381441075,29.950788181795613 23.513666728313048,36.39554995002004 16.303832981994763,44.51834707177245 Z " id="path20678" inkscape:label="left-ear" style="fill:#313131;fill-opacity:1;stroke:none;stroke-width: 0.9999987115247327px;stroke-linecap:butt;stroke-linejoin:miter;stroke-opacity:1;" sodipodi:nodetypes="cssscc" /><path sodipodi:nodetypes="cccsssccc" inkscape:label="hair" style="display:inline;fill:#ff8702;fill-opacity:1;stroke:none;stroke-width: 0.9999987115247327px;stroke-linecap:butt;stroke-linejoin:miter;stroke-opacity:0.4501;" id="path117-7" d="M 42.99999750894782,10.998424881934865 C 46.459587961071215,18.025152617747956 47.491652183488846,19.122313531215074 52.9999959627775,25.998424452443107 44,20.998424469622776 34.53124814513248,23.578502631968426 30.5312495195061,25.578502322734362 38.366164570761214,27.063335414077727 39.49395666445364,27.733222261038733 42.99999750894782,28.998424366544757 54.660009773514396,33.206095175201284 65.22610206940294,37.91103009560401 75.25683186093538,32.05170276730988 80.16309313777829,29.185772140708025 89.54933790839405,23.197993036564267 85.00390433775506,20.869518772526305 79.03247017802519,17.810551049089447 74.97847722323617,15.244907657984031 70.80077655545378,13.473033818953935 71.18379764684903,16.170767914938644 71.96815541966627,18.231819824428925 72.88280862182367,21.410533560185154 65.40327497771582,16.446743718060308 57.0739486020344,12.525562979940931 42.99999750894782,10.998424881934865 Z " /><path style="display:inline;fill:#ebdccc;fill-opacity:1;stroke:none;stroke-width: 0.9999987115247327px;stroke-linecap:butt;stroke-linejoin:miter;stroke-opacity:1;" inkscape:label="right-ear-fluff" id="path18942" d="m 120.45378552745066,3.3689521681044474 c 9.391910282264558,0.23127193038591468 2.5106078021300555,28.603620522730978 -1.9260887637483532,34.582465957839204 -4.4367003454058604,5.978849592588415 -3.142869831270728,16.047355760991962 -5.1200011132426315,16.645976216292734 -2.6745599234199022,-3.1200943988519856 -2.6751003958453716,-9.811093892309408 -2.7120037018753416,-15.685462228046894 -2.8725580279868854,1.2924434275606749 -7.898777726591906,2.8039142504247887 -12.3137344505731,1.5465032628059194 1.0869618586410348,-2.971048733828239 2.469244653708099,-7.420326212732249 3.586718637459738,-10.994479055276189 -1.819128136889674,0.7077887041434874 -5.911691169314498,1.6730766135124806 -10.791869927219185,2.2785663599551507 4.3746329456082185,-8.822082267084259 19.885069036934315,-28.604842519546384 29.276979319198876,-28.373570513569923 z " sodipodi:nodetypes="sscccccs" /><path id="path14428" style="fill:#313131;fill-opacity:1;stroke:none;stroke-width: 0.9999987115247327px;stroke-linecap:butt;stroke-linejoin:miter;stroke-opacity:0.4501;" d="m 122.13476059742989,0.5214843441235693 c -0.4855369939717396,-0.01611590505036779 -1.0116736718203674,0.00972094460355205 -1.5820308208437845,0.08007798195911289 -9.125669030045268,1.1257120685551303 -27.914418098370277,8.475313382525028 -43.05468349163397,29.40429621634084 2.2681397775765273,1.3434798985403036 4.773066949947975,2.11626438035034 7.251949398655707,2.378906010625454 0.8960692656816244,0.03397795178302214 1.8212408927346917,-0.011716535097593841 2.7812522038295717,-0.14257889355536454 1.2299338230512864,-0.1676749558289204 2.6123186653595227,-0.3460724310358645 4.062500671080868,-0.5527343463784009 3.560152339007807,-1.2099370992143994 6.374585014328274,-3.768543010206356 7.271481996521632,-7.6191403172758685 1.975237738719034,-8.480141615457647 6.645403274290529,-11.36047224164718 10.228516242562169,-14.89062458151397 3.583116747799091,-3.5301515839613002 12.659221054854086,-7.254070393870569 14.224610616331836,-4.541015303048953 1.5653857819502999,2.713054032553929 0.2729196772249197,16.975343135995903 -1.1601561872539388,22.249999110952064 -3.396517698023831,9.436533651065607 -9.326002882576867,15.1935332972503 -8.966796593649345,25.33398277068052 0.03099212509686113,0.8761398174333623 0.05306456540974759,1.69588530577279 0.19725353765916856,2.3886726875111615 0.19751810458072713,0.2612031421273259 0.4108346339059518,0.514393686058878 0.6406223438619228,0.7558601358379345 2.821058186941784,2.964445899371628 4.861118600970118,-0.6832100591779511 6.167969587173383,-4.091795788352304 0.39406487060658923,-1.0462487889406218 0.795155882744284,-2.1657523789333606 1.242187051046899,-3.6035148574512568 3.7465057194987623,-12.04966340301608 5.834585029789977,-27.309543658996603 6.003907859587462,-34.117188818405474 0.08288503699684933,-3.3319637471162853 1.9744931718112193,-12.791462827445587 -5.308595753511932,-13.033202915012085 z " inkscape:label="right-ear" /></g><g inkscape:groupmode="layer" id="layer3" inkscape:label="Features" style="display:inline;"><path inkscape:label="left-eye" id="path22173" sodipodi:nodetypes="sssss" d="m 27.790028936577553,54.51841733662369 c 0.6795257758188754,-5.915081405437898 5.559595305380235,-10.090060813455668 9.367468834145487,-9.968273100407355 3.961508296019806,0.12668976015204697 6.467463499857881,4.183022242433149 6.258693742056013,7.163353495680645 -0.41324219289213476,5.899286760220852 -3.7069454056708544,11.137137318908023 -9.389192046121916,11.095554957893917 -3.447460814675424,-0.025322833920606046 -6.743369759674452,-3.8825762667837864 -6.236970530079583,-8.290635353167204 z " style="fill:#313131;fill-opacity:1;stroke:none;stroke-width: 1.0015747744717316;stroke-linecap:butt;stroke-linejoin:miter;stroke-miterlimit:4;stroke-dasharray:none;stroke-opacity:0.46432;" /><path style="fill:#313131;fill-opacity:1;stroke:none;stroke-width: 0.9999987115247327px;stroke-linecap:butt;stroke-linejoin:miter;stroke-opacity:0.46432;" inkscape:label="right-eye" d="m 73.66655411119388,60.86205180065707 c 0.6795250199133853,-6.822349410956352 5.574969289192003,-10.542443792628667 9.38284319591,-10.420656079580356 3.961511697594511,0.12668976015204697 7.263779319576827,4.593546955088133 7.000225311375081,8.612605737649083 -0.42921069637191994,6.545238237788454 -4.100382874720605,10.875412601992481 -9.782630271077158,10.833830240978376 -3.4474619485336593,-0.025322833920606046 -7.040205152750032,-4.6105775057816025 -6.600438236207925,-9.025779899047103 z " id="path22173-3" sodipodi:nodetypes="sssss" /><g id="g1190" inkscape:label="egg"><path inkscape:label="fill" id="path488" sodipodi:nodetypes="zzzzz" style="fill:#dfc498;fill-opacity:1;stroke-width: 0.9999987115247327;stroke-linecap:round;" d="m 44.987216349686,104.65768519233542 c 21.610718121382444,3.121617548414673 26.762149784906235,-17.211026908775178 23.827184199651132,-35.01210986364754 -2.9349655852551013,-17.801079175344906 -11.74278013621245,-20.714093265165545 -15.945796078860528,-21.338508995318282 -4.203012163120626,-0.6244119506252841 -13.745287165489271,4.552096877534807 -20.25487727831418,19.276421495306472 -6.509592380541378,14.724324617771664 -9.237226696142399,33.95258359477212 12.373489157523574,37.074197363659344 z " /><path d="m 41.711397860804645,57.74613755916571 c 1.0529045367815453,-1.3584868902365959 4.132357676954683,-4.151364920504942 5.494763937157797,-3.1191986508461373 1.3624062602031135,1.032166269658804 -2.0125908085156534,3.0983469978998714 -3.210534711223058,4.7054625424348595 -1.1979476822348551,1.6071193240624388 -2.068085610076289,4.461773730514711 -3.906923982622076,3.798425088090906 -1.8388383725457875,-0.6633486424238041 0.5697902199057918,-4.026202089443033 1.6226947566873369,-5.384688979679628 z " sodipodi:nodetypes="zzzzz" id="path1957" style="fill:#f0e4d0;fill-opacity:1;stroke-width: 0.9999987115247327;stroke-linecap:round;" inkscape:label="shine" /></g><path id="path4894" style="fill:#ff8702;fill-opacity:1;stroke:#313131;stroke-width: 4.200453423036409;stroke-linecap:round;stroke-opacity:1;" d="m 69.70887107490705,116.54692957632271 c -8.464860230068425,-6.843873819788867 -9.43013264337487,-16.89777589412238 -8.994424939314962,-20.662714368998873 0.43571148358735906,-3.764938474876493 1.3823659446709822,-8.083895201606436 5.557504092841687,-8.822184314325431 5.825756053664823,-1.030174458692213 11.44861573518638,9.379743983400315 20.772048539096676,11.50065604865695 " sodipodi:nodetypes="cssc" inkscape:label="right-hand" /><path style="fill:#ff8702;fill-opacity:1;stroke:#313131;stroke-width: 4.200453423036409;stroke-linecap:round;stroke-opacity:1;" id="path4950" sodipodi:nodetypes="csssc" inkscape:label="left-hand" d="m 7.294571885624284,86.57988413515007 c 3.8150002057265513,0.22983306428538114 6.708373603196175,-0.1260850357599131 8.747097576317893,-0.9804245388568493 2.0820400033775233,-0.8724963529707558 8.011696022571337,-3.6967709177732018 11.424579452410038,-3.579197377832573 2.8214236672462802,0.09717165076101214 6.092739605075458,2.2263344244428223 5.9694986637223,6.884719172950059 -0.12321637442472799,4.657439866644528 -4.6175851276282,16.325392918385315 -15.895281182669116,20.617590590763335 " /></g><metadata id="metadata30760"><rdf:RDF><cc:Work rdf:about=""><dc:rights><cc:Agent><dc:title>Blobfox team (https://git.shadamethyst.xyz/adri326/blobfox), licensed under the Apache 2.0 License</dc:title></cc:Agent></dc:rights><dc:title>blobfox_egg</dc:title><dc:creator><cc:Agent><dc:title>Feuerfuchs</dc:title></cc:Agent></dc:creator><dc:source>https://git.shadamethyst.xyz/adri326/blobfox</dc:source><dc:contributor><cc:Agent><dc:title>Shad Amethyst</dc:title></cc:Agent></dc:contributor></cc:Work></rdf:RDF></metadata></svg>