<?xml version="1.0" encoding="UTF-8"?>
<svg xmlns="http://www.w3.org/2000/svg" xmlns:inkscape="http://www.inkscape.org/namespaces/inkscape" xmlns:sodipodi="http://sodipodi.sourceforge.net/DTD/sodipodi-0.dtd" xmlns:svg="http://www.w3.org/2000/svg" xmlns:xlink="http://www.w3.org/1999/xlink" width="128" inkscape:version="1.2.1 (9c6d41e410, 2022-07-14)" sodipodi:docname="blobamber_owo.svg" height="128" viewBox="-3.6561962906574696 0.917977139379211 128 128" id="svg25571">
  <defs id="blobamber-owo-defs">
    <linearGradient y2="44.43629457678224" x1="91.80949097937203" y1="25.67704389299621" x2="92.11197906708699" inkscape:collect="always" gradientUnits="userSpaceOnUse" id="linearGradient1097-5" gradientTransform="matrix(0.67751569 0 0 0.67751569 23.802442952666233 15.143145316694872) " xlink:href="#linearGradient1095"/>
    <linearGradient id="linearGradient1239-2" xlink:href="#linearGradient1095" x2="92.11197906708699" x1="91.80949097937203" gradientTransform="matrix(0.68709814 0 0 0.68709814 24.7503900836198 14.458748148580396) " gradientUnits="userSpaceOnUse" y1="25.67704389299621" inkscape:collect="always" y2="44.43629457678224"/>
  </defs>
  <sodipodi:namedview inkscape:showpageshadow="2" id="namedview25573" showgrid="false" inkscape:cx="59.808555" inkscape:deskcolor="#d1d1d1" inkscape:window-width="1536" bordercolor="#000000" inkscape:cy="62.99228" inkscape:zoom="4.3973643" borderopacity="0.25" inkscape:window-height="779" inkscape:window-maximized="1" pagecolor="#ffffff" inkscape:current-layer="eyes" inkscape:pagecheckerboard="0" inkscape:window-y="0" inkscape:pageopacity="0.0" inkscape:window-x="0"/>
  <title id="title25542"/>
  <g id="main">
    <g id="g25554">
      <path style="fill:#313131;fill-opacity:1;stroke:none;stroke-width: 0.9673673831710253px;stroke-linecap:butt;stroke-linejoin:miter;stroke-opacity:1;" d="M 15.438379145349545,46.73668187795665 C 7.389205609185361,27.459348179784456 9.361356060267855,13.510313646661283 9.778058601428153,10.443507897885928 10.135106643910083,7.815740393410494 12.561829786092245,6.468778302091943 15.224334811525214,6.919140151923662 26.852546465546602,8.88604871438424 37.13825622210442,14.987477640945325 46.50726287311048,22.45698209554462 33.68417921544967,29.81518974133853 22.412946136180686,38.878942026516114 15.438379145349545,46.73668187795665 Z " nodetypes="csscc" label="left-ear" id="left-ear"/>
      <path transform="scale(0.26458333) " style="fill:#6a6862;fill-opacity:1;stroke:none;stroke-width: 3.656192634461179px;stroke-linecap:butt;stroke-linejoin:miter;stroke-opacity:0.4501;" d="M 179.564739234119,77.14291914933622 C 83.92694017990308,101.3169870334756 5.584788647231215,213.72655917992498 0,347.3386476124596 c 0,0 0.5321629897395225,29.363533963639547 8.055057452854738,52.40071492359157 20.718469534208094,23.743009653863446 76.01011985260182,56.033401872100114 147.626065786651,65.06172049654643 69.033614712117,8.702770906726162 157.63080819248026,-1.6303344879670723 213.20908309412306,-14.12491000577119 55.57831511980198,-12.494575517804117 83.45776244710076,-48.55278769945203 87.07746989877747,-57.792178535757984 3.619634327750895,-9.239390836305958 0.39468638957647384,-28.226442292459915 -2.0423512479612627,-36.34058753356796 -2.9682829585702666,-9.882991069350393 -7.526645683947468,-22.95252904723443 -1.4567382880866557,-40.76087400602849 6.069870833897905,-17.808344958794056 23.027199544078528,-97.50101130872012 -7.0855256014796435,-147.45553347926216 C 380.2521653645131,60.28025301731701 221.64471036267605,66.50649571037005 179.564739234119,77.14291914933622 Z " id="body" label="body" nodetypes="sccsssssss"/>
      <path nodetypes="scscss" d="m 32.523990621062694,103.67092664171928 c -10.3603297978931,1.792764664375821 -19.587996675173436,11.204954649770833 -14.136429583424164,12.97067443018466 6.3961051852814315,2.8609041297099473 14.141093427412526,5.234784632522866 22.803069592786418,6.337021784463665 11.979552739713235,1.524396200445272 26.112934152289874,0.8251084416978338 39.11510305732226,-0.7715597908248645 5.350035251996972,-0.49925725968556817 1.2077878826557886,-9.361844162472659 -8.746012740255768,-13.859451874088004 C 60.39127707387911,103.3011718546488 45.2466356416621,101.4693846072628 32.523990621062694,103.67092664171928 Z " id="belly" style="fill:#c8c8c8;fill-opacity:1;stroke-width: 3.1626097914187112;stroke-linecap:round;stroke-linejoin:round;"/>
      <path style="fill:#313131;fill-opacity:1;stroke-width: 3.893849049550205;stroke-linecap:round;" d="m 81.63392377045064,20.92971395291304 c 4.734960662412247,-4.678555059757758 15.708372057292031,-11.364177245173789 29.83217789178344,-14.072382530522201 2.657575741593904,-0.5095841861085302 4.664860410931471,-1.2379566207285195 5.510271710631326,2.4556623014423455 2.008348622458148,8.77448610010852 0.9510314981443677,22.532323138788428 -0.6713653876756872,33.96899946582929 -0.32924047597370515,2.3209424367204896 -0.502653866039589,3.3890563086805816 -1.4694545387855622,4.232635854038818 -0.6093526423898459,0.5316877207836999 -1.275551824706834,0.1264312677309353 -1.7575006511524296,-0.7510850915971826 C 111.50682803271572,37.42647783189324 107.91078348343214,33.283608177943385 102.68499674998058,40.94246996339287 97.72985994694494,40.00465195864293 86.46878634030881,32.470377621135015 83.99740605101293,29.011513922296533 82.19349730034318,26.486822634886575 80.30529860038862,22.465903945733086 81.63392377045064,20.92972126530562 Z " nodetypes="cssssccscc" label="right-ear" id="right-ear"/>
      <path nodetypes="csscccccc" d="m 101.93390434599081,39.814588250669395 c 3.3543919116488583,-12.626000418428832 6.842732230602244,-25.262911657828244 10.734987178569721,-28.949949061056294 1.2197692379002731,-1.1554571107672373 2.564094114834374,-1.121155042787918 2.962312390027623,0.7612723513218416 0.6605576714405037,3.1225283739627496 0.27692030705439674,21.438556662413824 -2.546357906628395,35.14229406143976 -1.7941247693959455,-3.184141131374393 -2.5166147498038964,-4.9458756578314045 -4.272883262806374,-6.1189479567074 -0.13388990816387653,1.5894399324560684 -0.33000827719474324,2.9219808887453804 -0.5791597734215964,3.605971122212708 -1.246411940270294,-0.4998385948957827 -2.625360996076921,-2.685461550702749 -2.5799217885766303,-4.643968905326655 -1.160037959099802,1.7074729173073635 -4.393504834631455,1.819279399875669 -3.7190024305383833,0.2033210757234619 z " style="fill:#474747;fill-opacity:1;stroke:none;stroke-width: 3.893849049550205;stroke-linecap:round;stroke-opacity:1;" label="right-ear-fluff" id="right-ear-fluff"/>
      <g id="whiskers">
        <path style="fill:none;fill-opacity:1;stroke:#313131;stroke-width: 3.893849049550205;stroke-linecap:round;stroke-opacity:1;" id="left-whisker" label="left-whisker" nodetypes="cc" d="M 21.610999697984166,79.3054861313343 C 14.360700663893093,77.63172700002309 6.392890657502686,77.46564428351998 1.9931086457076521,77.43756103981144 "/>
        <path style="fill:none;fill-opacity:1;stroke:#313131;stroke-width: 3.893849049550205;stroke-linecap:round;stroke-opacity:1;" label="left-whisker-2" id="left-whisker-2" nodetypes="cc" d="M 22.606270074386604,71.58398346607625 C 15.308879232071861,65.18489043718608 8.899531669445297,60.727892097771075 4.976650227629497,58.54654323542789 "/>
        <path d="m 82.50559752810628,90.31493665305109 c 7.0163686486418575,2.1232738404623843 14.571309635682724,5.785956223339481 18.177525723046905,8.350390364428886 " label="right-whisker" id="right-whisker" style="fill:none;fill-opacity:1;stroke:#313131;stroke-width: 3.893849049550205;stroke-linecap:round;stroke-opacity:1;"/>
        <path id="right-whisker-2" label="right-whisker-2" style="fill:none;fill-opacity:1;stroke:#313131;stroke-width: 3.893849049550205;stroke-linecap:round;stroke-opacity:1;" d="m 85.66693496321585,81.77467270285578 c 9.28793781065331,-3.336929918164678 15.663349656168876,-4.040550269516546 18.216621429982904,-4.177675911397653 "/>
      </g>
    </g>
    <defs id="blobamber-defs">
      <linearGradient id="linearGradient1095" collect="always">
        <stop style="stop-color:#b86a00;stop-opacity:1;;" offset="0" id="stop1091"/>
        <stop offset="1" style="stop-color:#dab91d;stop-opacity:1;;" id="stop1093"/>
      </linearGradient>
      <linearGradient y2="44.43629457678224" collect="always" x1="91.80949097937203" href="#linearGradient1095" x2="92.11197906708699" gradientUnits="userSpaceOnUse" id="linearGradient1097" y1="25.67704389299621"/>
      <linearGradient y2="44.43629457678224" id="linearGradient1239" x1="91.80949097937203" gradientTransform="matrix(0.94114449 0 0 0.94114449 -39.478068287880994 7.697931899011446) " x2="92.11197906708699" gradientUnits="userSpaceOnUse" y1="25.67704389299621" href="#linearGradient1095" collect="always"/>
    </defs>
    <!-- Hello world -->
    <g id="eyes">
      <g id="left-eye" label="left-eye" style="display:inline;" transform="translate(-41.973005449877576 -4.85077177677771) ">
        <ellipse cy="30.26104825419905" cx="90.63634190037394" id="path3658" rx="12.524138789771115" style="display:inline;fill:#ffffff;fill-opacity:1;stroke-width: 0.9673673831710253;stroke-linecap:round;" transform="rotate(18.569655) " label="eye" ry="14.743244825588294"/>
        <ellipse id="path3683" rx="3.647380067979844" style="display:none;fill:#313131;fill-opacity:1;stroke-width: 0.9673673831710253;stroke-linecap:round;" cy="42.261428150462386" ry="5.765378784996031" transform="rotate(12.698142) " cx="86.22169328259359" label="pupil"/>
        <ellipse cx="87.861252353802" style="fill:url(#linearGradient1239-2);fill-opacity:1;stroke-width: 2.1176323295859;stroke-linecap:round;stroke-linejoin:round;" transform="rotate(15.432511) " inkscape:label="left-iris" ry="6.526581302968721" rx="5.310179787471773" id="left-iris" cy="38.6230046299738"/>
        <ellipse cy="42.99691225248733" id="left-pupil" ry="3.996494566692639" cx="85.97789445773627" style="fill:#313131;fill-opacity:1;stroke-width: 2.1908074421471184;stroke-linecap:round;stroke-linejoin:round;" transform="rotate(13.154497) " rx="3.035445931637017" inkscape:label="left-pupil"/>
      </g>
      <g id="right-eye" label="right-eye">
        <ellipse style="display:inline;fill:#ffffff;fill-opacity:1;stroke-width: 0.9673673831710253;stroke-linecap:round;" label="eye" cy="30.26104825419905" cx="90.63634190037394" id="ellipse4039" rx="12.524138789771115" ry="15.307326811126849" transform="rotate(18.569655) "/>
        <ellipse ry="5.765378784996031" label="pupil" id="ellipse4041" transform="rotate(12.698142) " style="display:none;fill:#313131;fill-opacity:1;stroke-width: 0.9673673831710253;stroke-linecap:round;" rx="3.647380067979844" cx="84.14854954947242" cy="42.69259606662704"/>
        <ellipse cx="86.03313227129551" inkscape:label="right-iris" id="right-iris" transform="rotate(15.432511) " ry="6.435559930693174" rx="5.236122069125989" cy="38.97040177672691" style="fill:url(#linearGradient1097-5);fill-opacity:1;stroke-width: 2.0880975759499685;stroke-linecap:round;stroke-linejoin:round;"/>
        <ellipse cy="41.67399806103132" style="fill:#313131;fill-opacity:1;stroke-width: 2.1427174923361005;stroke-linecap:round;stroke-linejoin:round;" rx="2.968813874833633" cx="84.47665660459602" ry="3.8559405095497814" id="right-pupil" transform="rotate(14.274327) " inkscape:label="right-pupil"/>
      </g>
    </g>
    <path id="mouth" style="fill:none;stroke:#313131;stroke-width: 4.259468678615952;stroke-linecap:round;stroke-linejoin:round;stroke-miterlimit:4;stroke-dasharray:none;stroke-opacity:1;" label="mouth" nodetypes="ccccc" d="m 36.3129379147395,73.10792264198518 c 2.005845590477564,6.166953814003732 3.8893826401615375,10.06225802967762 5.7647846530988,12.518234764000962 3.6283506997078225,-3.0288734434990423 8.2603345935937,-7.231656454824641 10.096169250273467,-9.067933511255577 2.865540186606501,4.661222495622267 6.788360935563876,10.036580563128332 8.388648802414325,12.23305145332968 4.700519293354254,-3.7468187719177055 9.208247356302138,-7.734654003315552 11.062586022408922,-9.831237610856135 "/>
  </g>
  <g transform="matrix(1.0337321 0 0 1.0337321 -63.85030201097401 -13.716918717893014) " inkscape:label="left-eye" id="g1244"/>
</svg>
