<?xml version="1.0" encoding="UTF-8"?>
<svg xmlns="http://www.w3.org/2000/svg" xmlns:cc="http://creativecommons.org/ns#" xmlns:dc="http://purl.org/dc/elements/1.1/" xmlns:inkscape="http://www.inkscape.org/namespaces/inkscape" xmlns:rdf="http://www.w3.org/1999/02/22-rdf-syntax-ns#" xmlns:sodipodi="http://sodipodi.sourceforge.net/DTD/sodipodi-0.dtd" xmlns:svg="http://www.w3.org/2000/svg" xmlns:xlink="http://www.w3.org/1999/xlink" inkscape:export-ydpi="450" inkscape:export-filename="../output/blobstella.png" width="128" sodipodi:docname="blobstella.svg" id="svg5" inkscape:export-xdpi="450" inkscape:version="1.2.1 (9c6d41e410, 2022-07-14)" viewBox="0 0 128 128" xml:space="preserve" height="128">
  <title id="title30762">blobcat</title>
  <sodipodi:namedview inkscape:pageshadow="0" inkscape:window-maximized="1" id="namedview7" inkscape:window-y="0" inkscape:cx="100.24954" pagecolor="#505050" inkscape:deskcolor="#505050" bordercolor="#ffffff" showgrid="false" inkscape:current-layer="layer1" units="px" inkscape:window-width="1536" inkscape:window-x="0" borderopacity="1" inkscape:window-height="779" inkscape:cy="52.213301" inkscape:zoom="3.3516364" inkscape:showpageshadow="2" inkscape:document-units="px" inkscape:pageopacity="0" inkscape:pagecheckerboard="1">
    <inkscape:grid id="grid10" type="xygrid"/>
  </sodipodi:namedview>
  <defs id="defs2"/>
  <g style="display:none;" inkscape:groupmode="layer" id="ref" inkscape:label="ref">
    <image xlink:href="../original/blobfoxmsnuggleleftcat.png" y="-16.623016" width="211.7665995367481" inkscape:label="blobfoxmsnuggleleftcat" height="211.7665995367481" x="0.45707837" style="display:none;image-rendering:optimizeSpeed;" id="blobfoxmsnuggleleftcat" preserveAspectRatio="none"/>
    <image inkscape:label="blobfoxnomcat" xlink:href="../original/blobfoxnomcat.png" y="-10.339302" height="167.39570364583847" style="display:none;image-rendering:optimizeSpeed;" preserveAspectRatio="none" width="167.39570364583847" id="blobfoxnomcat" x="-3.1429539"/>
    <image xlink:href="../original/blobfoxmsnugglecentercat.png" id="blobfoxmsnugglecentercat" height="211.4343564002222" y="-17.482618" width="211.4343564002222" x="-11.634965" style="display:none;image-rendering:optimizeSpeed;" inkscape:label="blobfoxmsnugglecentercat" preserveAspectRatio="none"/>
    <image xlink:href="../original/blobfox.png" x="0" width="127.99998866141777" id="blobfox" inkscape:label="blobfox" y="0" style="display:none;image-rendering:optimizeSpeed;" height="127.99998866141777" preserveAspectRatio="none"/>
  </g>
  <g inkscape:groupmode="layer" inkscape:label="Base" id="Base" style="display:inline;">
    <path d="M 15.95914784412804,48.31320754672412 C 7.638458911871696,28.385609213164994 9.677134107199445,13.966044678502179 10.107892893390044,10.795789181268145 10.476984910354926,8.079381603173953 12.985566480883211,6.6869836737408015 15.737883348902233,7.152537167222947 27.75833881266383,9.185793654102612 38.391006992480044,15.49303649240014 48.07604976078545,23.21450289706682 34.82041677084974,30.820918219648892 23.168981513032225,40.19040975628309 15.95914784412804,48.31320754672412 Z " style="fill:#3398c7;fill-opacity:1;stroke:none;stroke-width: 0.9999987007874529px;stroke-linecap:butt;stroke-linejoin:miter;stroke-opacity:1;" sodipodi:nodetypes="csscc" inkscape:label="left-ear" id="left-ear"/>
    <path style="fill:#54b6e7;fill-opacity:1;stroke:none;stroke-width: 3.7795236307274167px;stroke-linecap:butt;stroke-linejoin:miter;stroke-opacity:0.4501;" inkscape:label="body" sodipodi:nodetypes="sccsssssss" transform="scale(0.26458333) " d="M 185.62183206213263,79.74511056121614 C 86.75797075756022,104.73462012855828 5.773175205780504,220.93600138047242 0,359.0551039742086 c 0,0 0.5501139562947261,30.354027151416254 8.326771325717665,54.168300229594486 21.41734668435643,24.54391084472792 78.57409958369688,57.923525278601375 152.60580060607086,67.25638790329182 71.36226238731251,8.99633350408136 162.94802382094394,-1.6853290675067298 220.40106974798942,-14.601372653489268 57.45308750184695,-12.916043585982537 86.27296668216668,-50.1905744019459 90.01477440886717,-59.741629144030355 3.7417321361522786,-9.55105474208446 0.4079999839370086,-29.178579008717364 -2.1112440113683464,-37.566431276912155 -3.068409328015381,-10.216364952111617 -7.780535126750587,-23.7267656800486 -1.5058771060678307,-42.135823222999086 6.274620225408654,-18.409057542950492 23.803954968348233,-100.78992359094791 -7.324535144703342,-152.42951588860177 C 393.07886326461175,62.313631562455456 229.1212483023131,68.7498983956733 185.62183206213263,79.74511056121614 Z " id="body"/>
    <path id="right-ear" inkscape:label="right-ear" sodipodi:nodetypes="cssssccscc" style="fill:#3398c7;fill-opacity:1;stroke-width: 4.025196691921391;stroke-linecap:round;" d="m 84.3876061264722,21.635716817491467 c 4.894680752177924,-4.836372471008959 16.23824817959653,-11.747514624113599 30.8384794158079,-14.54707331704436 2.747221309164516,-0.5267735225679717 4.822215873141109,-1.2797154771765562 5.6961446576321,2.538496907933193 2.0760944064529765,9.070467800375285 0.9831117723184343,23.292385350693493 -0.6940119411806324,35.114844601777776 -0.34034644329344715,2.399232661447533 -0.5196094283618335,3.503376240024558 -1.5190223024006968,4.375411481283013 -0.6299073767753002,0.5496226555266671 -1.3185788457252425,0.13069605784661192 -1.8167848103628028,-0.7764207568338286 C 115.26818569810294,38.68895091775784 111.55083907280162,34.40633363754593 106.14877566343404,42.32354479041163 101.02649177061058,41.35409223015385 89.38555868560795,33.565671119461776 86.83081358933806,29.99013274054596 84.96605523755689,27.380278355107155 83.01416366085971,23.223725699853322 84.3876061264722,21.63572437654629 Z "/>
    <path inkscape:label="right-ear-fluff" d="m 105.37234734754539,41.15761727725917 c 3.467542540647932,-13.051901722366075 7.07355184749796,-26.115082310429834 11.09710066546848,-29.926491168248383 1.2609145960269845,-1.1944330868333433 2.65058635233912,-1.1589739386230735 3.062237359754435,0.7869516540570216 0.6828396581559191,3.2278577626827656 0.2862614060527006,22.161723851900636 -2.632251864871974,36.32771686898753 -1.8546443364313254,-3.291548846789416 -2.601505409389551,-5.112710349893294 -4.417016519015098,-6.325352821836504 -0.13840629376353175,1.6430550534230295 -0.3411401440496007,3.020545392891914 -0.5986960394214158,3.7276080422201563 -1.2884560122655115,-0.5166991922559374 -2.7139198931527604,-2.7760477647225295 -2.6669479264981133,-4.800619653518912 -1.1991684567256515,1.765069536808286 -4.541706907806815,1.8806474850138788 -3.844452132108184,0.21017951928427092 z " sodipodi:nodetypes="csscccccc" style="fill:#224f66;fill-opacity:1;stroke:none;stroke-width: 4.025196691921391;stroke-linecap:round;stroke-opacity:1;" id="right-ear-fluff"/>
    <g id="right-marks" inkscape:label="right-marks">
      <path style="fill:#eee64e;fill-opacity:1;stroke:none;stroke-width: 3.269291209870425;stroke-linecap:round;stroke-linejoin:round;" id="right-mark-2" inkscape:label="right-mark-2" sodipodi:nodetypes="ssccs" d="m 110.33397864826857,68.55468580493364 c -0.5046160431253527,0.15734172608890845 -0.5296969870198037,0.6333429671912219 -0.06837165085150981,0.7871092603500293 2.040313620460094,0.6800390283449202 12.321331168451529,2.0477328327664246 17.466980099725195,3.4977485237106887 0.12109605822456465,-1.424825140754916 0.1933228270345344,-2.9114531137223185 0.22851022722400682,-4.425781243079479 -4.50233179124678,-1.0291993295590818 -15.448508368168966,-0.5384125772278514 -17.627137573734743,0.1409385771284025 z "/>
      <path sodipodi:nodetypes="sccss" inkscape:label="right-mark-1" id="right-mark-1" style="fill:#eee64e;fill-opacity:1;stroke:none;stroke-width: 3.269291209870425;stroke-linecap:round;stroke-linejoin:round;" d="m 110.65818272999282,75.35351136403499 c 2.5979488740965015,0.5897498980413427 11.79582189780229,3.268444595730528 16.618487534705217,5.176021213542472 0.23988660472887385,-1.3249586879937525 0.46093604484503764,-2.7908370554788564 0.6523426514825729,-4.343750380167308 -4.303271641603479,-0.8834645321470658 -14.49860730320444,-2.2808767605954032 -17.125567829702057,-1.63801694338516 -0.6220535188167907,0.15223936408506444 -0.6194758811229969,0.6980938307837076 -0.145247238376093,0.8057461100099957 z "/>
      <path sodipodi:nodetypes="ssccs" style="fill:#eee64e;fill-opacity:1;stroke:none;stroke-width: 3.269291209870425;stroke-linecap:round;stroke-linejoin:round;" inkscape:label="right-mark-3" id="right-mark-3" d="m 111.52538773522097,63.11132727908161 c -0.5055495863956856,0.15431810416070457 -0.44924596656511945,0.7823659534501594 0.0370393686204973,0.7890594964937208 2.235038652163833,0.030614172023064094 11.990263464950258,0.8639016982715868 16.30607179897355,1.7808830794927923 -0.021543306238452513,-1.4453782108118818 -0.09441259470816557,-2.904086814799732 -0.22851022722400682,-4.3691412453094 -5.15580830095243,0.0283464555769112 -11.409081755547964,0.36272124556215574 -16.114665192336016,1.7991986693228874 z "/>
    </g>
    <g id="left-marks" inkscape:label="left-marks">
      <path style="fill:#eee64e;fill-opacity:1;stroke:none;stroke-width: 3.269291209870425;stroke-linecap:round;stroke-linejoin:round;" inkscape:label="left-mark-2" sodipodi:nodetypes="ccssc" d="m 4.633936069530076,56.718918081932365 c -0.44807506897342253,0.9191243732628201 -0.8825424030495118,1.8517076436335576 -1.3027343865065204,2.7949189450819314 3.787853028824684,-0.2251086525547775 9.484772111623146,0.5965795040716732 10.18051658816864,0.4275590382850773 0.6351756600324544,-0.15428030888660205 0.5209171448457818,-0.7041637518045768 0.21875148745072887,-1.0937498781988237 -0.3326702231232196,-0.42890077051571773 -5.498378618174071,-2.1083413343172706 -9.096533689112848,-2.128728105168185 z " id="left-mark-2"/>
      <path inkscape:label="left-mark-3" style="fill:#eee64e;fill-opacity:1;stroke:none;stroke-width: 3.269291209870425;stroke-linecap:round;stroke-linejoin:round;" sodipodi:nodetypes="ccsscc" id="left-mark-3" d="m 7.296052626139661,51.2922764058159 c -0.5004113188814442,0.8887709886310635 -0.9876524965491145,1.7915375672623008 -1.4609373913016777,2.7070298146838656 3.9434882226973147,0.21154014915196265 8.695235185226963,1.478222304006996 9.423157424285142,1.3529309703570485 0.6441818958983506,-0.11089133421687662 0.5856094257634086,-0.5791067488540651 0.3105486491909981,-0.988282165815663 -0.3149858143706373,-0.4685593516315216 -4.93555256159242,-2.877713272530974 -8.272766792410758,-3.0716635011156104 z "/>
      <path d="m 2.743621006944055,62.10505834232055 c -0.38799040992163747,0.9215961841891267 -0.7622456392816679,1.8526109506846085 -1.1230466203524954,2.7949189450819314 C 5.064538383285891,64.21334298372666 10.679730099223226,64.26826707605248 11.34374960063978,64.07031054841298 11.970156379127705,63.88356409907229 11.827659880800795,63.34227908101265 11.505858822603985,62.968748387057154 11.157354647348244,62.56421422975536 5.824732873042014,61.75914087562439 2.743621006944055,62.10505834232055 Z " sodipodi:nodetypes="ccssc" style="fill:#eee64e;fill-opacity:1;stroke:none;stroke-width: 3.269291209870425;stroke-linecap:round;stroke-linejoin:round;" id="left-mark-1" inkscape:label="left-mark-1"/>
    </g>
  </g>
  <g id="Features" style="display:inline;" inkscape:label="Features" inkscape:groupmode="layer">
    <path d="m 27.790028638187852,54.518416751243436 c 0.6795257685226077,-5.915081341925932 5.559595245685228,-10.090060705115722 9.367468733564223,-9.96827299337508 3.961508253483928,0.1266897587917418 6.467463430414826,4.183022197518811 6.25869367485458,7.163353418765615 -0.413242188455032,5.899286696878478 -3.706945365868293,11.13713719932531 -9.389191945307406,11.095554838757685 -3.447460777659025,-0.02532283364870734 -6.743369687268911,-3.882576225095425 -6.236970463111399,-8.290635264148218 z " id="left-eye" inkscape:label="left-eye" style="fill:#313131;fill-opacity:1;stroke:none;stroke-width: 1.0015747637175292;stroke-linecap:butt;stroke-linejoin:miter;stroke-miterlimit:4;stroke-dasharray:none;stroke-opacity:0.46432;" sodipodi:nodetypes="sssss"/>
    <path sodipodi:nodetypes="sssss" inkscape:label="right-eye" id="right-eye" style="fill:#313131;fill-opacity:1;stroke:none;stroke-width: 0.9999987007874529px;stroke-linecap:butt;stroke-linejoin:miter;stroke-opacity:0.46432;" d="m 73.66655332021445,60.86205114716335 c 0.6795250126171256,-6.822349337702783 5.574969229331921,-10.542443679431353 9.382843095163658,-10.420655967690712 3.9615116550585965,0.1266897587917418 7.263779241583495,4.59354690576587 7.000225236211606,8.612605645173007 -0.42921069176335863,6.54523816751031 -4.10038283069359,10.875412485219982 -9.782630166038183,10.833830124652359 -3.447461911517248,-0.02532283364870734 -7.040205077157282,-4.610577456276478 -6.600438165337081,-9.025779802134656 z "/>
    <path style="fill:none;stroke:#313131;stroke-width: 4.403149432946873;stroke-linecap:round;stroke-linejoin:round;stroke-miterlimit:4;stroke-dasharray:none;stroke-opacity:1;" d="m 37.53784897882485,75.57400521362185 c 2.0735069419879157,6.37497801673315 4.020579621237023,10.401678960563823 5.959242851998313,12.940500907854297 3.7507425294983263,-3.1310436562581243 8.538972892166422,-7.475595296236407 10.436734077293934,-9.37381380418056 2.9622008282598102,4.818455243367905 7.01734649538006,10.375135339561602 8.671615406629316,12.64569776985442 4.859077603973323,-3.873206776645403 9.51886072760391,-7.995560000174804 11.435750100954722,-10.16286574161946 " sodipodi:nodetypes="ccccc" inkscape:label="mouth" id="mouth"/>
    <path d="M 23.36882667051864,73.99866039375354 C 15.825279628926001,67.38371262268849 9.199731417333409,62.77637044187519 5.144523010058149,60.521440136951185 " id="left-whisker-2" style="display:inline;fill:none;fill-opacity:1;stroke:#313131;stroke-width: 4.025196691921391;stroke-linecap:round;stroke-opacity:1;" sodipodi:nodetypes="cc" inkscape:label="left-whisker-2"/>
    <path id="left-whisker" sodipodi:nodetypes="cc" d="M 22.339983750394342,81.98062543383365 C 14.845117021845788,80.25040691927533 6.6085361807662935,80.0787218866645 2.0603403535299076,80.04969133662634 " style="display:inline;fill:none;fill-opacity:1;stroke:#313131;stroke-width: 4.025196691921391;stroke-linecap:round;stroke-opacity:1;" inkscape:label="left-whisker"/>
    <path d="m 88.55665919068272,84.53310281365738 c 9.601239307037824,-3.449491517736555 16.191707079066653,-4.176846449730455 18.831106030271417,-4.318597625252062 " id="right-whisker-2" inkscape:label="right-whisker-2" style="fill:none;fill-opacity:1;stroke:#313131;stroke-width: 4.025196691921391;stroke-linecap:round;stroke-opacity:1;"/>
    <path d="m 85.28868325635106,93.36144766293515 c 7.253045383738372,2.1948962915395165 15.062830273116921,5.981128583420135 18.790691543673564,8.63206643180841 " id="right-whisker" inkscape:label="right-whisker" style="fill:none;fill-opacity:1;stroke:#313131;stroke-width: 4.025196691921391;stroke-linecap:round;stroke-opacity:1;"/>
  </g>
  <metadata id="metadata30760">
    <rdf:RDF>
      <cc:Work rdf:about="">
        <dc:rights>
          <cc:Agent>
            <dc:title>Blobfox team (https://git.shadamethyst.xyz/adri326/blobfox), licensed under the Apache 2.0 License</dc:title>
          </cc:Agent>
        </dc:rights>
        <dc:title>blobcat</dc:title>
        <dc:creator>
          <cc:Agent>
            <dc:title>Feuerfuchs</dc:title>
          </cc:Agent>
        </dc:creator>
        <dc:source>https://git.shadamethyst.xyz/adri326/blobfox</dc:source>
      </cc:Work>
    </rdf:RDF>
  </metadata>
</svg>
