<?xml version="1.0" encoding="UTF-8" standalone="no"?>
<svg
   viewBox="0 0 3874.2258 3789.6472"
   version="1.1"
   id="svg24"
   sodipodi:docname="LGBTQ+_rainbow_flag_Quasar__Progress__variant.svg"
   inkscape:export-filename="LGBTQ+_rainbow_flag_Quasar__Progress__variant.png"
   inkscape:export-xdpi="96"
   inkscape:export-ydpi="96"
   width="3874.2258"
   height="3789.6472"
   inkscape:version="1.2.1 (9c6d41e410, 2022-07-14)"
   xmlns:inkscape="http://www.inkscape.org/namespaces/inkscape"
   xmlns:sodipodi="http://sodipodi.sourceforge.net/DTD/sodipodi-0.dtd"
   xmlns="http://www.w3.org/2000/svg"
   xmlns:svg="http://www.w3.org/2000/svg">
  <defs
     id="defs28">
    <clipPath
       clipPathUnits="userSpaceOnUse"
       id="clipPath14155">
      <path
         d="M 1791.279,3596.5354 C 1707.8921,3494.8749 1499.6789,3296.686 1328.5832,3156.1158 821.64013,2739.6176 752.64507,2679.3419 546.81566,2473.1469 167.35625,2093.0134 6.2060809,1711.1037 6.7583143,1193.2647 7.0277642,940.4763 22.865211,843.08481 87.934765,694.07902 198.33022,441.27835 360.94821,253.42759 568.85525,138.53691 716.10851,57.164187 788.7336,21.011626 1034.6367,19.532581 c 257.2321,-1.54657 311.3826,31.083159 462.6958,121.520119 184.1741,110.07717 373.7411,345.33114 412.9273,512.44507 l 24.2024,103.21531 59.685,-142.15127 c 337.2766,-803.28945 1414.0826,-791.27118 1788.8166,19.96543 118.8763,257.3471 131.9274,806.84736 26.515,1116.37806 -137.5064,403.7713 -395.7764,711.5993 -992.8088,1183.3142 -391.5439,309.3591 -834.6822,777.4266 -865.5303,843.1671 -35.8092,76.3132 -1.7081,11.9592 -159.8607,-180.8512 z"
         id="path14157"
         style="fill:#ff0000;fill-opacity:0;stroke-width:6.31403"
         inkscape:label="path2417" />
    </clipPath>
    <clipPath
       clipPathUnits="userSpaceOnUse"
       id="clipPath14159">
      <path
         d="M 1791.279,3596.5354 C 1707.8921,3494.8749 1499.6789,3296.686 1328.5832,3156.1158 821.64013,2739.6176 752.64507,2679.3419 546.81566,2473.1469 167.35625,2093.0134 6.2060809,1711.1037 6.7583143,1193.2647 7.0277642,940.4763 22.865211,843.08481 87.934765,694.07902 198.33022,441.27835 360.94821,253.42759 568.85525,138.53691 716.10851,57.164187 788.7336,21.011626 1034.6367,19.532581 c 257.2321,-1.54657 311.3826,31.083159 462.6958,121.520119 184.1741,110.07717 373.7411,345.33114 412.9273,512.44507 l 24.2024,103.21531 59.685,-142.15127 c 337.2766,-803.28945 1414.0826,-791.27118 1788.8166,19.96543 118.8763,257.3471 131.9274,806.84736 26.515,1116.37806 -137.5064,403.7713 -395.7764,711.5993 -992.8088,1183.3142 -391.5439,309.3591 -834.6822,777.4266 -865.5303,843.1671 -35.8092,76.3132 -1.7081,11.9592 -159.8607,-180.8512 z"
         id="path14161"
         style="fill:#ff0000;fill-opacity:0;stroke-width:6.31403"
         inkscape:label="path2417" />
    </clipPath>
    <clipPath
       clipPathUnits="userSpaceOnUse"
       id="clipPath14163">
      <path
         d="M 1791.279,3596.5354 C 1707.8921,3494.8749 1499.6789,3296.686 1328.5832,3156.1158 821.64013,2739.6176 752.64507,2679.3419 546.81566,2473.1469 167.35625,2093.0134 6.2060809,1711.1037 6.7583143,1193.2647 7.0277642,940.4763 22.865211,843.08481 87.934765,694.07902 198.33022,441.27835 360.94821,253.42759 568.85525,138.53691 716.10851,57.164187 788.7336,21.011626 1034.6367,19.532581 c 257.2321,-1.54657 311.3826,31.083159 462.6958,121.520119 184.1741,110.07717 373.7411,345.33114 412.9273,512.44507 l 24.2024,103.21531 59.685,-142.15127 c 337.2766,-803.28945 1414.0826,-791.27118 1788.8166,19.96543 118.8763,257.3471 131.9274,806.84736 26.515,1116.37806 -137.5064,403.7713 -395.7764,711.5993 -992.8088,1183.3142 -391.5439,309.3591 -834.6822,777.4266 -865.5303,843.1671 -35.8092,76.3132 -1.7081,11.9592 -159.8607,-180.8512 z"
         id="path14165"
         style="fill:#ff0000;fill-opacity:0;stroke-width:6.31403"
         inkscape:label="path2417" />
    </clipPath>
    <clipPath
       clipPathUnits="userSpaceOnUse"
       id="clipPath14167">
      <path
         d="M 1791.279,3596.5354 C 1707.8921,3494.8749 1499.6789,3296.686 1328.5832,3156.1158 821.64013,2739.6176 752.64507,2679.3419 546.81566,2473.1469 167.35625,2093.0134 6.2060809,1711.1037 6.7583143,1193.2647 7.0277642,940.4763 22.865211,843.08481 87.934765,694.07902 198.33022,441.27835 360.94821,253.42759 568.85525,138.53691 716.10851,57.164187 788.7336,21.011626 1034.6367,19.532581 c 257.2321,-1.54657 311.3826,31.083159 462.6958,121.520119 184.1741,110.07717 373.7411,345.33114 412.9273,512.44507 l 24.2024,103.21531 59.685,-142.15127 c 337.2766,-803.28945 1414.0826,-791.27118 1788.8166,19.96543 118.8763,257.3471 131.9274,806.84736 26.515,1116.37806 -137.5064,403.7713 -395.7764,711.5993 -992.8088,1183.3142 -391.5439,309.3591 -834.6822,777.4266 -865.5303,843.1671 -35.8092,76.3132 -1.7081,11.9592 -159.8607,-180.8512 z"
         id="path14169"
         style="fill:#ff0000;fill-opacity:0;stroke-width:6.31403"
         inkscape:label="path2417" />
    </clipPath>
    <clipPath
       clipPathUnits="userSpaceOnUse"
       id="clipPath14171">
      <path
         d="M 1791.279,3596.5354 C 1707.8921,3494.8749 1499.6789,3296.686 1328.5832,3156.1158 821.64013,2739.6176 752.64507,2679.3419 546.81566,2473.1469 167.35625,2093.0134 6.2060809,1711.1037 6.7583143,1193.2647 7.0277642,940.4763 22.865211,843.08481 87.934765,694.07902 198.33022,441.27835 360.94821,253.42759 568.85525,138.53691 716.10851,57.164187 788.7336,21.011626 1034.6367,19.532581 c 257.2321,-1.54657 311.3826,31.083159 462.6958,121.520119 184.1741,110.07717 373.7411,345.33114 412.9273,512.44507 l 24.2024,103.21531 59.685,-142.15127 c 337.2766,-803.28945 1414.0826,-791.27118 1788.8166,19.96543 118.8763,257.3471 131.9274,806.84736 26.515,1116.37806 -137.5064,403.7713 -395.7764,711.5993 -992.8088,1183.3142 -391.5439,309.3591 -834.6822,777.4266 -865.5303,843.1671 -35.8092,76.3132 -1.7081,11.9592 -159.8607,-180.8512 z"
         id="path14173"
         style="fill:#ff0000;fill-opacity:0;stroke-width:6.31403"
         inkscape:label="path2417" />
    </clipPath>
    <clipPath
       clipPathUnits="userSpaceOnUse"
       id="clipPath14175">
      <path
         d="M 1791.279,3596.5354 C 1707.8921,3494.8749 1499.6789,3296.686 1328.5832,3156.1158 821.64013,2739.6176 752.64507,2679.3419 546.81566,2473.1469 167.35625,2093.0134 6.2060809,1711.1037 6.7583143,1193.2647 7.0277642,940.4763 22.865211,843.08481 87.934765,694.07902 198.33022,441.27835 360.94821,253.42759 568.85525,138.53691 716.10851,57.164187 788.7336,21.011626 1034.6367,19.532581 c 257.2321,-1.54657 311.3826,31.083159 462.6958,121.520119 184.1741,110.07717 373.7411,345.33114 412.9273,512.44507 l 24.2024,103.21531 59.685,-142.15127 c 337.2766,-803.28945 1414.0826,-791.27118 1788.8166,19.96543 118.8763,257.3471 131.9274,806.84736 26.515,1116.37806 -137.5064,403.7713 -395.7764,711.5993 -992.8088,1183.3142 -391.5439,309.3591 -834.6822,777.4266 -865.5303,843.1671 -35.8092,76.3132 -1.7081,11.9592 -159.8607,-180.8512 z"
         id="path14177"
         style="fill:#ff0000;fill-opacity:0;stroke-width:6.31403"
         inkscape:label="path2417" />
    </clipPath>
    <clipPath
       clipPathUnits="userSpaceOnUse"
       id="clipPath14179">
      <path
         d="M 1791.279,3596.5354 C 1707.8921,3494.8749 1499.6789,3296.686 1328.5832,3156.1158 821.64013,2739.6176 752.64507,2679.3419 546.81566,2473.1469 167.35625,2093.0134 6.2060809,1711.1037 6.7583143,1193.2647 7.0277642,940.4763 22.865211,843.08481 87.934765,694.07902 198.33022,441.27835 360.94821,253.42759 568.85525,138.53691 716.10851,57.164187 788.7336,21.011626 1034.6367,19.532581 c 257.2321,-1.54657 311.3826,31.083159 462.6958,121.520119 184.1741,110.07717 373.7411,345.33114 412.9273,512.44507 l 24.2024,103.21531 59.685,-142.15127 c 337.2766,-803.28945 1414.0826,-791.27118 1788.8166,19.96543 118.8763,257.3471 131.9274,806.84736 26.515,1116.37806 -137.5064,403.7713 -395.7764,711.5993 -992.8088,1183.3142 -391.5439,309.3591 -834.6822,777.4266 -865.5303,843.1671 -35.8092,76.3132 -1.7081,11.9592 -159.8607,-180.8512 z"
         id="path14181"
         style="fill:#ff0000;fill-opacity:0;stroke-width:6.31403"
         inkscape:label="path2417" />
    </clipPath>
    <clipPath
       clipPathUnits="userSpaceOnUse"
       id="clipPath14183">
      <path
         d="M 1791.279,3596.5354 C 1707.8921,3494.8749 1499.6789,3296.686 1328.5832,3156.1158 821.64013,2739.6176 752.64507,2679.3419 546.81566,2473.1469 167.35625,2093.0134 6.2060809,1711.1037 6.7583143,1193.2647 7.0277642,940.4763 22.865211,843.08481 87.934765,694.07902 198.33022,441.27835 360.94821,253.42759 568.85525,138.53691 716.10851,57.164187 788.7336,21.011626 1034.6367,19.532581 c 257.2321,-1.54657 311.3826,31.083159 462.6958,121.520119 184.1741,110.07717 373.7411,345.33114 412.9273,512.44507 l 24.2024,103.21531 59.685,-142.15127 c 337.2766,-803.28945 1414.0826,-791.27118 1788.8166,19.96543 118.8763,257.3471 131.9274,806.84736 26.515,1116.37806 -137.5064,403.7713 -395.7764,711.5993 -992.8088,1183.3142 -391.5439,309.3591 -834.6822,777.4266 -865.5303,843.1671 -35.8092,76.3132 -1.7081,11.9592 -159.8607,-180.8512 z"
         id="path14185"
         style="fill:#ff0000;fill-opacity:0;stroke-width:6.31403"
         inkscape:label="path2417" />
    </clipPath>
    <clipPath
       clipPathUnits="userSpaceOnUse"
       id="clipPath14187">
      <path
         d="M 1791.279,3596.5354 C 1707.8921,3494.8749 1499.6789,3296.686 1328.5832,3156.1158 821.64013,2739.6176 752.64507,2679.3419 546.81566,2473.1469 167.35625,2093.0134 6.2060809,1711.1037 6.7583143,1193.2647 7.0277642,940.4763 22.865211,843.08481 87.934765,694.07902 198.33022,441.27835 360.94821,253.42759 568.85525,138.53691 716.10851,57.164187 788.7336,21.011626 1034.6367,19.532581 c 257.2321,-1.54657 311.3826,31.083159 462.6958,121.520119 184.1741,110.07717 373.7411,345.33114 412.9273,512.44507 l 24.2024,103.21531 59.685,-142.15127 c 337.2766,-803.28945 1414.0826,-791.27118 1788.8166,19.96543 118.8763,257.3471 131.9274,806.84736 26.515,1116.37806 -137.5064,403.7713 -395.7764,711.5993 -992.8088,1183.3142 -391.5439,309.3591 -834.6822,777.4266 -865.5303,843.1671 -35.8092,76.3132 -1.7081,11.9592 -159.8607,-180.8512 z"
         id="path14189"
         style="fill:#ff0000;fill-opacity:0;stroke-width:6.31403"
         inkscape:label="path2417" />
    </clipPath>
    <clipPath
       clipPathUnits="userSpaceOnUse"
       id="clipPath14191">
      <path
         d="M 1791.279,3596.5354 C 1707.8921,3494.8749 1499.6789,3296.686 1328.5832,3156.1158 821.64013,2739.6176 752.64507,2679.3419 546.81566,2473.1469 167.35625,2093.0134 6.2060809,1711.1037 6.7583143,1193.2647 7.0277642,940.4763 22.865211,843.08481 87.934765,694.07902 198.33022,441.27835 360.94821,253.42759 568.85525,138.53691 716.10851,57.164187 788.7336,21.011626 1034.6367,19.532581 c 257.2321,-1.54657 311.3826,31.083159 462.6958,121.520119 184.1741,110.07717 373.7411,345.33114 412.9273,512.44507 l 24.2024,103.21531 59.685,-142.15127 c 337.2766,-803.28945 1414.0826,-791.27118 1788.8166,19.96543 118.8763,257.3471 131.9274,806.84736 26.515,1116.37806 -137.5064,403.7713 -395.7764,711.5993 -992.8088,1183.3142 -391.5439,309.3591 -834.6822,777.4266 -865.5303,843.1671 -35.8092,76.3132 -1.7081,11.9592 -159.8607,-180.8512 z"
         id="path14193"
         style="fill:#ff0000;fill-opacity:0;stroke-width:6.31403"
         inkscape:label="path2417" />
    </clipPath>
    <clipPath
       clipPathUnits="userSpaceOnUse"
       id="clipPath14195">
      <path
         d="M 1791.279,3596.5354 C 1707.8921,3494.8749 1499.6789,3296.686 1328.5832,3156.1158 821.64013,2739.6176 752.64507,2679.3419 546.81566,2473.1469 167.35625,2093.0134 6.2060809,1711.1037 6.7583143,1193.2647 7.0277642,940.4763 22.865211,843.08481 87.934765,694.07902 198.33022,441.27835 360.94821,253.42759 568.85525,138.53691 716.10851,57.164187 788.7336,21.011626 1034.6367,19.532581 c 257.2321,-1.54657 311.3826,31.083159 462.6958,121.520119 184.1741,110.07717 373.7411,345.33114 412.9273,512.44507 l 24.2024,103.21531 59.685,-142.15127 c 337.2766,-803.28945 1414.0826,-791.27118 1788.8166,19.96543 118.8763,257.3471 131.9274,806.84736 26.515,1116.37806 -137.5064,403.7713 -395.7764,711.5993 -992.8088,1183.3142 -391.5439,309.3591 -834.6822,777.4266 -865.5303,843.1671 -35.8092,76.3132 -1.7081,11.9592 -159.8607,-180.8512 z"
         id="path14197"
         style="fill:#ff0000;fill-opacity:0;stroke-width:6.31403"
         inkscape:label="path2417" />
    </clipPath>
  </defs>
  <sodipodi:namedview
     id="namedview26"
     pagecolor="#505050"
     bordercolor="#eeeeee"
     borderopacity="1"
     inkscape:showpageshadow="0"
     inkscape:pageopacity="0"
     inkscape:pagecheckerboard="0"
     inkscape:deskcolor="#505050"
     showgrid="false"
     inkscape:zoom="0.1499586"
     inkscape:cx="2467.3476"
     inkscape:cy="1817.1682"
     inkscape:window-width="1920"
     inkscape:window-height="991"
     inkscape:window-x="-9"
     inkscape:window-y="-9"
     inkscape:window-maximized="1"
     inkscape:current-layer="svg24" />
  <rect
     fill="#750787"
     width="6000"
     height="3810"
     id="rect2"
     clip-path="url(#clipPath14195)"
     x="0"
     y="0"
     transform="translate(-6.7569001,-19.037855)" />
  <rect
     fill="#004dff"
     width="6000"
     height="3175"
     id="rect4"
     clip-path="url(#clipPath14191)"
     x="0"
     y="0"
     transform="translate(-6.7569001,-19.037855)" />
  <rect
     fill="#008026"
     width="6000"
     height="2540"
     id="rect6"
     clip-path="url(#clipPath14187)"
     x="0"
     y="0"
     transform="translate(-6.7569001,-19.037855)" />
  <rect
     fill="#ffed00"
     width="6000"
     height="1905"
     id="rect8"
     clip-path="url(#clipPath14183)"
     x="0"
     y="0"
     transform="translate(-6.7569001,-19.037855)" />
  <rect
     fill="#ff8c00"
     width="6000"
     height="1270"
     id="rect10"
     clip-path="url(#clipPath14179)"
     x="0"
     y="0"
     transform="translate(-6.7569001,-19.037855)" />
  <rect
     fill="#e40303"
     width="6000"
     height="635"
     id="rect12"
     clip-path="url(#clipPath14175)"
     x="0"
     y="0"
     transform="translate(-6.7569001,-19.037855)" />
  <polygon
     points="-1,2850 -1,960 950,1905 "
     fill="#ffffff"
     id="polygon14"
     clip-path="url(#clipPath14171)"
     transform="translate(-6.7569001,-19.037855)" />
  <polygon
     points="1420,1905 -1,3330 -1,2850 950,1905 -1,960 -1,480 "
     fill="#ffafc8"
     id="polygon16"
     clip-path="url(#clipPath14167)"
     transform="translate(-6.7569001,-19.037855)" />
  <polygon
     points="1912,1905 -1,3810 -1,3330 1420,1905 -1,480 -1,0 "
     fill="#74d7ee"
     id="polygon18"
     clip-path="url(#clipPath14163)"
     transform="translate(-6.7569001,-19.037855)" />
  <polygon
     points="-1,3810 480,3810 2384,1905 480,0 -1,0 1912,1905 "
     fill="#613915"
     id="polygon20"
     clip-path="url(#clipPath14159)"
     transform="translate(-6.7569001,-19.037855)" />
  <polygon
     points="2864,1905 960,3810 480,3810 2384,1905 480,0 960,0 "
     fill="#000000"
     id="polygon22"
     clip-path="url(#clipPath14155)"
     transform="translate(-6.7569001,-19.037855)" />
</svg>
